<svg id="Capa_1" enable-background="new 0 0 510 510" height="512" viewBox="0 0 510 510" width="512" xmlns="http://www.w3.org/2000/svg" xmlns:xlink="http://www.w3.org/1999/xlink"><linearGradient id="lg1"><stop offset="0" stop-color="#60b7ff"/><stop offset=".5857" stop-color="#0182fc"/><stop offset="1" stop-color="#2740b0"/></linearGradient><linearGradient id="SVGID_1_" gradientUnits="userSpaceOnUse" x1="0" x2="218.084" xlink:href="#lg1" y1="367.762" y2="367.762"/><linearGradient id="SVGID_2_" gradientUnits="userSpaceOnUse" x1="-17" x2="182.891" xlink:href="#lg1" y1="367.76" y2="367.76"/><linearGradient id="SVGID_3_" gradientUnits="userSpaceOnUse" x1="256.59" x2="540.473" xlink:href="#lg1" y1="367.762" y2="367.762"/><linearGradient id="SVGID_4_" gradientUnits="userSpaceOnUse" x1="154.667" x2="523.044" xlink:href="#lg1" y1="367.76" y2="367.76"/><linearGradient id="lg2"><stop offset="0" stop-color="#eaf6ff"/><stop offset=".5213" stop-color="#d8ecfe"/><stop offset="1" stop-color="#b3dafe"/></linearGradient><linearGradient id="SVGID_5_" gradientUnits="userSpaceOnUse" x1="152.208" x2="412.595" xlink:href="#lg2" y1="234.978" y2="234.978"/><linearGradient id="SVGID_6_" gradientUnits="userSpaceOnUse" x1="34" x2="276.167" xlink:href="#lg2" y1="291.594" y2="291.594"/><linearGradient id="SVGID_7_" gradientUnits="userSpaceOnUse" x1="56" x2="367.464" xlink:href="#lg2" y1="234.982" y2="234.982"/><linearGradient id="lg3"><stop offset="0" stop-color="#fd8087"/><stop offset=".5213" stop-color="#fb2b3a"/><stop offset="1" stop-color="#d90d80"/></linearGradient><linearGradient id="SVGID_8_" gradientUnits="userSpaceOnUse" x1="139.165" x2="432.59" xlink:href="#lg3" y1="481" y2="481"/><linearGradient id="SVGID_10_" gradientUnits="userSpaceOnUse" x1="78" x2="343.111" xlink:href="#lg3" y1="491.245" y2="491.245"/><linearGradient id="SVGID_14_" gradientUnits="userSpaceOnUse" x1="78" x2="343.111" xlink:href="#lg3" y1="481" y2="481"/><linearGradient id="SVGID_15_" gradientUnits="userSpaceOnUse" x1="153.989" x2="409.864" xlink:href="#lg3" y1="81.061" y2="81.061"/><linearGradient id="SVGID_16_" gradientUnits="userSpaceOnUse" x1="181.75" x2="367.302" xlink:href="#lg1" y1="266.583" y2="266.583"/><linearGradient id="lg4"><stop offset="0" stop-color="#814aa0"/><stop offset="1" stop-color="#192a7d"/></linearGradient><linearGradient id="SVGID_17_" gradientUnits="userSpaceOnUse" x1="208.357" x2="326.51" xlink:href="#lg4" y1="266.583" y2="266.583"/><linearGradient id="SVGID_18_" gradientUnits="userSpaceOnUse" x1="161" x2="301.032" xlink:href="#lg4" y1="266.583" y2="266.583"/><linearGradient id="SVGID_19_" gradientUnits="userSpaceOnUse" x1="106" x2="350.008" xlink:href="#lg3" y1="81.064" y2="81.064"/><g><path d="m172.185 266.583v202.357h-149.562c-12.494.001-22.623-10.128-22.623-22.622v-58.215c0-12.602 6.672-24.261 17.537-30.645z" fill="url(#SVGID_1_)"/><path d="m172.18 266.58v202.36h-44.27v-176.34l25.01-14.7z" fill="url(#SVGID_2_)"/><path d="m337.815 266.583v202.357h149.562c12.494 0 22.623-10.129 22.623-22.623v-58.215c0-12.602-6.672-24.261-17.537-30.645z" fill="url(#SVGID_3_)"/><path d="m492.463 357.457-109.123-64.122v-.004l-45.52-26.75v.006l-.005-.003v23.516l.005.003v178.837h45.52v-131.698c0-9.022 9.801-14.631 17.58-10.06l51.523 30.276c10.865 6.384 17.537 18.044 17.537 30.645v58.215c0 12.495-10.129 22.623-22.623 22.623h40.02c12.495 0 22.623-10.129 22.623-22.623v-58.215c0-12.602-6.672-24.262-17.537-30.646z" fill="url(#SVGID_4_)"/><path d="m357.792 469.957h-205.584v-277.973c0-68.176 27.473-133.476 76.212-181.146 14.774-14.45 38.386-14.45 53.16 0 48.739 47.67 76.212 112.97 76.212 181.146z" fill="url(#SVGID_5_)"/><circle cx="229.989" cy="291.594" fill="url(#SVGID_6_)" r="73.25"/><path d="m281.58 10.838c-12.738-12.459-32.041-14.166-46.59-5.141 2.325 1.443 4.534 3.149 6.57 5.141 48.739 47.67 76.212 112.97 76.212 181.146v277.973h40.02v-277.973c.001-68.176-27.473-133.476-76.212-181.146z" fill="url(#SVGID_7_)"/><path d="m350.489 510h-190.978c-11.236 0-20.345-9.109-20.345-20.345v-17.309c0-11.236 9.109-20.345 20.345-20.345h190.979c11.236 0 20.345 9.109 20.345 20.345v17.309c0 11.236-9.109 20.345-20.346 20.345z" fill="url(#SVGID_8_)"/><path d="m350.489 510h-190.978c-11.236 0-20.345-9.109-20.345-20.345v-17.309c0-11.236 9.109-20.345 20.345-20.345h190.979c11.236 0 20.345 9.109 20.345 20.345v17.309c0 11.236-9.109 20.345-20.346 20.345z" fill="url(#SVGID_8_)"/><g><g fill="url(#SVGID_10_)"><path d="m170 472.49c-4.14 0-7.5 3.36-7.5 7.5v30.01h15v-30.01c0-4.14-3.36-7.5-7.5-7.5z"/><path d="m212.5 472.49c-4.14 0-7.5 3.36-7.5 7.5v30.01h15v-30.01c0-4.14-3.36-7.5-7.5-7.5z"/><path d="m255 472.49c-4.14 0-7.5 3.36-7.5 7.5v30.01h15v-30.01c0-4.14-3.36-7.5-7.5-7.5z"/><path d="m297.5 472.49c-4.14 0-7.5 3.36-7.5 7.5v30.01h15v-30.01c0-4.14-3.36-7.5-7.5-7.5z"/></g><path d="m350.49 452h-40.02c11.236 0 20.345 9.109 20.345 20.345v17.309c0 11.237-9.109 20.345-20.345 20.345h22.03 15 2.99c11.236 0 20.345-9.109 20.345-20.345v-17.309c0-11.236-9.109-20.345-20.345-20.345z" fill="url(#SVGID_14_)"/></g><path d="m228.42 10.837c-41.567 40.655-67.65 94.136-74.431 151.284h202.022c-6.781-57.149-32.865-110.629-74.431-151.284-14.774-14.449-38.386-14.449-53.16 0z" fill="url(#SVGID_15_)"/><circle cx="255" cy="266.583" fill="url(#SVGID_16_)" r="73.25"/><circle cx="255" cy="266.583" fill="url(#SVGID_17_)" r="46.643"/><path d="m255 219.94c-4.334 0-8.524.604-12.505 1.709 19.685 5.468 34.138 23.507 34.138 44.934s-14.453 39.466-34.138 44.934c3.981 1.106 8.172 1.709 12.505 1.709 25.76 0 46.643-20.883 46.643-46.643s-20.883-46.643-46.643-46.643z" fill="url(#SVGID_18_)"/><path d="m281.58 10.838c-12.738-12.459-32.041-14.166-46.589-5.141 2.325 1.443 4.534 3.149 6.57 5.141 41.567 40.655 67.65 94.135 74.431 151.284h40.02c-6.782-57.149-32.865-110.629-74.432-151.284z" fill="url(#SVGID_19_)"/></g></svg>