<?xml version="1.0" encoding="UTF-8" standalone="no"?>
<svg
   xmlns:dc="http://purl.org/dc/elements/1.1/"
   xmlns:cc="http://creativecommons.org/ns#"
   xmlns:rdf="http://www.w3.org/1999/02/22-rdf-syntax-ns#"
   xmlns:svg="http://www.w3.org/2000/svg"
   xmlns="http://www.w3.org/2000/svg"
   xmlns:xlink="http://www.w3.org/1999/xlink"
   xmlns:sodipodi="http://sodipodi.sourceforge.net/DTD/sodipodi-0.dtd"
   xmlns:inkscape="http://www.inkscape.org/namespaces/inkscape"
   id="Capa_1"
   enable-background="new 0 0 510 510"
   height="512"
   viewBox="0 0 510 510"
   width="512"
   version="1.1"
   sodipodi:docname="extra-2-top.svg"
   inkscape:version="1.0.1 (3bc2e813f5, 2020-09-07)">
  <metadata
     id="metadata51">
    <rdf:RDF>
      <cc:Work
         rdf:about="">
        <dc:format>image/svg+xml</dc:format>
        <dc:type
           rdf:resource="http://purl.org/dc/dcmitype/StillImage" />
        <dc:title></dc:title>
      </cc:Work>
    </rdf:RDF>
  </metadata>
  <defs
     id="defs49" />
  <sodipodi:namedview
     pagecolor="#ffffff"
     bordercolor="#666666"
     borderopacity="1"
     objecttolerance="10"
     gridtolerance="10"
     guidetolerance="10"
     inkscape:pageopacity="0"
     inkscape:pageshadow="2"
     inkscape:window-width="2560"
     inkscape:window-height="1377"
     id="namedview47"
     showgrid="false"
     inkscape:zoom="1.96875"
     inkscape:cx="246.41765"
     inkscape:cy="255.85004"
     inkscape:window-x="-8"
     inkscape:window-y="-8"
     inkscape:window-maximized="1"
     inkscape:current-layer="g44" />
  <linearGradient
     id="lg1">
    <stop
       offset="0"
       stop-color="#fbc56d"
       id="stop2" />
    <stop
       offset=".5841"
       stop-color="#fe9738"
       id="stop4" />
    <stop
       offset=".9984"
       stop-color="#fb2b3a"
       id="stop6" />
  </linearGradient>
  <linearGradient
     id="SVGID_1_"
     gradientUnits="userSpaceOnUse"
     x1="142.069"
     x2="586.05"
     xlink:href="#lg1"
     y1="366.515"
     y2="366.515" />
  <linearGradient
     id="SVGID_2_"
     gradientUnits="userSpaceOnUse"
     x1="-9"
     x2="527.766"
     xlink:href="#lg1"
     y1="366.515"
     y2="366.515" />
  <linearGradient
     id="SVGID_3_"
     gradientUnits="userSpaceOnUse"
     x1="-44.131"
     x2="399.85"
     xlink:href="#lg1"
     y1="160.917"
     y2="160.917" />
  <linearGradient
     id="SVGID_4_"
     gradientUnits="userSpaceOnUse"
     x1="-195.2"
     x2="341.566"
     xlink:href="#lg1"
     y1="160.916"
     y2="160.916" />
  <linearGradient
     id="lg2">
    <stop
       offset="0"
       stop-color="#fef056"
       id="stop13" />
    <stop
       offset=".5213"
       stop-color="#f4d902"
       id="stop15" />
    <stop
       offset="1"
       stop-color="#fe9738"
       id="stop17" />
  </linearGradient>
  <linearGradient
     id="SVGID_5_"
     gradientUnits="userSpaceOnUse"
     x1="-14.423"
     x2="541.206"
     xlink:href="#lg2"
     y1="255"
     y2="255"
     gradientTransform="matrix(-0.7839459,0,0,0.7839459,476.6083,62.002312)" />
  <linearGradient
     id="SVGID_6_"
     gradientUnits="userSpaceOnUse"
     x1="-148"
     x2="438.223"
     xlink:href="#lg2"
     y1="255"
     y2="255"
     gradientTransform="matrix(-0.7839459,0,0,0.7839459,476.6083,62.002312)" />
  <linearGradient
     id="SVGID_7_"
     gradientUnits="userSpaceOnUse"
     x1="-169"
     x2="217.021"
     xlink:href="#lg2"
     y1="388.774"
     y2="388.774"
     gradientTransform="matrix(-0.7839459,0,0,0.7839459,476.6083,62.002312)" />
  <linearGradient
     id="SVGID_8_"
     gradientUnits="userSpaceOnUse"
     x1="5"
     x2="299.532"
     xlink:href="#lg1"
     y1="388.774"
     y2="388.774"
     gradientTransform="matrix(-0.7839459,0,0,0.7839459,476.6083,62.002312)" />
  <g
     id="g44"
     transform="rotate(45,254.99991,255.00046)">
    <g
       id="g28"
       transform="matrix(-0.7839459,0,0,0.7839459,476.6083,62.002348)">
      <path
         d="M 360.201,422.841 484.468,298.574 c 16.626,-16.626 25.833,-39.266 25.525,-62.783 -0.093,-7.072 -5.858,-12.757 -12.93,-12.757 -23.742,0 -46.512,9.432 -63.3,26.22 l -134.26,134.26 c -4.349,4.349 -10.555,6.058 -16.376,4.756 l -24.134,-11.237 c -7.145,-3.603 -15.319,2.552 -13.833,10.414 l 5.98,31.629 c 0.59,3.122 -0.393,6.335 -2.631,8.591 l -22.665,22.857 c -5.634,5.682 -2.307,15.358 5.63,16.374 l 31.929,4.086 c 3.152,0.403 5.903,2.332 7.358,5.157 l 14.734,28.619 c 3.663,7.114 13.893,6.94 17.312,-0.294 l 13.753,-29.103 c 1.358,-2.873 4.042,-4.894 7.178,-5.404 l 31.771,-5.17 c 7.832,-1.274 10.839,-10.905 5.208,-16.416 l -4.72,-7.217 c -2.143,-6.193 -0.761,-13.351 4.204,-18.315 z"
         fill="url(#SVGID_1_)"
         id="path24"
         style="fill:url(#SVGID_1_)" />
      <path
         d="m 484.467,298.574 c 16.626,-16.626 25.833,-39.267 25.525,-62.783 -0.093,-7.072 -5.858,-12.757 -12.93,-12.757 -10.232,0 -20.279,1.761 -29.749,5.098 1.628,2.131 2.621,4.776 2.659,7.659 0.308,23.516 -8.899,46.156 -25.525,62.783 L 320.181,422.841 c -4.964,4.964 -6.346,12.123 -4.203,18.314 l 4.72,7.217 c 5.631,5.511 2.625,15.142 -5.208,16.416 l -31.771,5.17 c -3.136,0.51 -5.821,2.531 -7.178,5.404 -1.865,3.946 -1.787,8.534 0.211,12.414 l 8.744,16.983 c 3.663,7.114 13.893,6.94 17.312,-0.294 l 13.753,-29.103 c 1.358,-2.873 4.042,-4.894 7.178,-5.404 l 31.771,-5.17 c 7.832,-1.274 10.839,-10.905 5.208,-16.416 l -4.72,-7.217 c -2.143,-6.192 -0.761,-13.35 4.203,-18.314 z"
         fill="url(#SVGID_2_)"
         id="path26"
         style="fill:url(#SVGID_2_)" />
    </g>
    <g
       id="g34"
       transform="matrix(-0.7839459,0,0,0.7839459,476.6083,62.002348)">
      <path
         d="M 174,217.243 298.267,92.976 C 314.893,76.35 324.1,53.71 323.792,30.193 c -0.093,-7.072 -5.858,-12.757 -12.93,-12.757 -23.742,0 -46.512,9.432 -63.3,26.22 l -134.26,134.26 c -4.349,4.349 -10.555,6.058 -16.376,4.756 L 72.792,171.435 c -7.145,-3.603 -15.319,2.552 -13.833,10.414 l 5.98,31.629 c 0.59,3.122 -0.393,6.335 -2.631,8.591 l -22.665,22.857 c -5.634,5.682 -2.307,15.358 5.63,16.374 l 31.929,4.086 c 3.152,0.403 5.903,2.332 7.358,5.157 l 14.734,28.619 c 3.663,7.114 13.893,6.94 17.312,-0.294 9.967,-21.093 29.676,-35.93 52.702,-39.677 7.832,-1.274 10.839,-10.905 5.208,-16.416 l -4.72,-7.217 c -2.142,-6.193 -0.76,-13.351 4.204,-18.315 z"
         fill="url(#SVGID_3_)"
         id="path30"
         style="fill:url(#SVGID_3_)" />
      <path
         d="M 298.267,92.976 C 314.893,76.35 324.1,53.71 323.792,30.193 c -0.093,-7.072 -5.858,-12.757 -12.93,-12.757 -10.232,0 -20.279,1.761 -29.749,5.098 1.628,2.131 2.621,4.776 2.659,7.659 0.308,23.516 -8.899,46.156 -25.525,62.783 L 133.98,217.243 c -4.964,4.964 -6.346,12.123 -4.203,18.314 l 4.72,7.217 c 5.631,5.511 2.625,15.142 -5.208,16.416 l -31.771,5.17 c -3.136,0.51 -5.821,2.531 -7.178,5.404 -1.865,3.946 -1.787,8.534 0.211,12.414 l 8.744,16.983 c 3.663,7.114 13.893,6.94 17.312,-0.294 9.967,-21.093 29.676,-35.93 52.702,-39.677 7.832,-1.274 10.839,-10.905 5.208,-16.416 l -4.72,-7.217 c -2.143,-6.192 -0.761,-13.35 4.203,-18.314 z"
         fill="url(#SVGID_4_)"
         id="path32"
         style="fill:url(#SVGID_4_)" />
    </g>
    <path
       d="M 285.50188,340.38468 112.369,167.25178 C 89.21987,144.10268 76.3945,112.5857 76.80529,79.844933 c 0.12385,-9.879245 8.1358,-17.838694 18.01587,-17.838694 33.07859,0 64.80254,13.140531 88.19235,36.530328 L 370.07006,285.59315 c 0.25242,0.25242 0.50954,0.49869 0.77061,0.73846 5.43982,4.99062 13.03859,-3.11854 7.8183,-8.33961 l -81.86356,-81.86357 c -2.29618,-2.29694 -2.29618,-6.01913 0,-8.31529 2.29696,-2.2954 6.01914,-2.2954 8.31532,0 l 85.25569,85.25486 c 8.49563,8.49566 21.44797,10.66327 32.24683,5.39514 l 3.89621,-1.90028 c 9.95454,-5.0196 21.34371,3.55517 19.27252,14.50926 l -8.33177,44.0664 c -0.82236,4.35011 0.54797,8.82642 3.66573,11.97005 l 31.57734,31.84548 c 7.84965,7.91628 3.21496,21.39781 -7.84338,22.81282 l -44.48423,5.69303 c -4.39088,0.56207 -8.22515,3.24864 -10.25165,7.18485 L 389.58561,454.517 c -5.10349,9.91222 -19.35719,9.66922 -24.11966,-0.41011 l -19.16121,-40.54723 c -1.89166,-4.00281 -5.63109,-6.81876 -10.0008,-7.52901 l -44.26472,-7.20292 c -6.97164,-1.13433 -11.19946,-7.021 -11.29746,-13.1264 -0.13954,-8.69708 -3.2863,-17.07274 -9.43635,-23.22278 L 132.56816,223.74059 c -2.29619,-2.29694 -2.29619,-6.01913 0,-8.31534 2.29696,-2.2954 6.01913,-2.2954 8.3153,0 L 276.1745,350.71709 c 6.31468,6.31465 16.16653,-2.83945 10.16543,-9.45285 -0.27046,-0.29798 -0.54955,-0.59187 -0.83805,-0.87956 z"
       fill="url(#SVGID_5_)"
       id="path36"
       style="fill:url(#SVGID_5_);stroke-width:0.783944" />
    <path
       d="M 285.50188,340.38468 112.369,167.25178 C 89.21987,144.10268 76.3945,112.5857 76.80529,79.844933 c 0.12385,-9.879245 8.1358,-17.838694 18.01587,-17.838694 7.73284,0 15.38886,0.726733 22.88416,2.12608 -5.60756,3.008 -9.44027,8.904089 -9.52572,15.712614 -0.41155,32.740767 12.41378,64.257747 35.5637,87.406847 l 166.45524,166.45601 c 5.51583,5.51588 5.70085,14.40112 0.41862,20.14192 -4.13688,4.49593 -4.99295,11.08112 -2.217,16.52327 2.38948,4.68562 3.62811,9.94514 3.71434,15.32846 0.098,6.10539 4.32502,11.99206 11.29744,13.1264 l 44.26472,7.20291 c 4.36972,0.71102 8.10915,3.52697 10.00081,7.52902 l 15.79102,33.41567 -3.88288,7.54238 c -5.10349,9.91222 -19.35719,9.66917 -24.11966,-0.41011 l -19.16121,-40.54728 c -1.89166,-4.00281 -5.63109,-6.81876 -10.0008,-7.52901 l -44.26472,-7.20292 c -6.97164,-1.13433 -11.19946,-7.021 -11.29746,-13.12635 -0.13954,-8.69713 -3.2863,-17.07279 -9.43635,-23.22283 L 132.56816,223.74135 c -2.29619,-2.29693 -2.29619,-6.01912 0,-8.31528 2.29696,-2.2954 6.01913,-2.2954 8.3153,0 L 276.1745,350.71709 c 6.31468,6.31465 16.16653,-2.83945 10.16543,-9.45285 -0.27046,-0.29798 -0.54955,-0.59187 -0.83805,-0.87956 z"
       fill="url(#SVGID_6_)"
       id="path38"
       style="fill:url(#SVGID_6_);stroke-width:0.783944" />
    <path
       d="m 318.40566,372.12115 21.26846,-20.03763 c 2.09941,-1.97791 3.0911,-4.86282 2.65209,-7.71328 l -4.4489,-28.88054 c -1.10614,-7.17936 6.50048,-12.5102 12.87161,-9.02164 l 25.62955,14.03576 c 2.52979,1.38522 5.58013,1.43693 8.15539,0.13875 l 26.09129,-13.15538 c 6.48636,-3.27065 13.90719,2.31655 12.55724,9.45357 l -5.42882,28.71204 c -0.53623,2.83397 0.35748,5.75099 2.38789,7.79945 l 20.57545,20.74875 c 5.11446,5.15834 2.0947,13.94165 -5.11054,14.86438 l -28.98405,3.70964 c -2.8614,0.36608 -5.35905,2.11661 -6.67922,4.68173 l -13.37568,25.97996 c -3.32471,6.45811 -12.61213,6.30057 -15.71576,-0.26727 l -12.48435,-26.41976 c -1.23235,-2.60823 -3.66886,-4.44262 -6.51615,-4.90593 l -28.84138,-4.69274 c -7.17155,-1.16731 -9.89105,-10.04861 -4.60412,-15.02981 z"
       fill="url(#SVGID_7_)"
       id="path40"
       style="fill:url(#SVGID_7_);stroke-width:0.783944" />
    <path
       d="m 318.40566,372.12115 21.26846,-20.03763 c 2.09941,-1.97791 3.0911,-4.86282 2.65209,-7.71328 l -4.4489,-28.87977 c -1.10614,-7.17937 6.50048,-12.51021 12.87161,-9.02164 l 7.4036,4.05458 c -0.66951,1.4636 -0.94624,3.15617 -0.66715,4.96706 l 4.44889,28.87977 c 0.43899,2.85122 -0.55267,5.73537 -2.65209,7.71328 l -21.26845,20.03763 c -5.28692,4.9812 -2.56742,13.8625 4.60255,15.02904 l 28.84137,4.69269 c 2.84729,0.46336 5.2838,2.29775 6.51616,4.90593 l 8.73316,18.47997 c 1.23236,2.60818 1.18062,5.64204 -0.13952,8.20634 -3.32471,6.45816 -12.61213,6.30057 -15.71576,-0.26726 l -12.48435,-26.419 c -1.23235,-2.60818 -3.66965,-4.44262 -6.51615,-4.90593 l -28.84138,-4.69269 c -7.17155,-1.16654 -9.89105,-10.04784 -4.60412,-15.02904 z"
       fill="url(#SVGID_8_)"
       id="path42"
       style="fill:url(#SVGID_8_);stroke-width:0.783944" />
  </g>
</svg>
