<?xml version="1.0" encoding="UTF-8" standalone="no"?>
<svg
   xmlns:dc="http://purl.org/dc/elements/1.1/"
   xmlns:cc="http://creativecommons.org/ns#"
   xmlns:rdf="http://www.w3.org/1999/02/22-rdf-syntax-ns#"
   xmlns:svg="http://www.w3.org/2000/svg"
   xmlns="http://www.w3.org/2000/svg"
   xmlns:xlink="http://www.w3.org/1999/xlink"
   xmlns:sodipodi="http://sodipodi.sourceforge.net/DTD/sodipodi-0.dtd"
   xmlns:inkscape="http://www.inkscape.org/namespaces/inkscape"
   id="Capa_1"
   enable-background="new 0 0 510 510"
   height="512"
   viewBox="0 0 510 510"
   width="512"
   version="1.1"
   sodipodi:docname="extra-2-left.svg"
   inkscape:version="1.0.1 (3bc2e813f5, 2020-09-07)">
  <metadata
     id="metadata51">
    <rdf:RDF>
      <cc:Work
         rdf:about="">
        <dc:format>image/svg+xml</dc:format>
        <dc:type
           rdf:resource="http://purl.org/dc/dcmitype/StillImage" />
        <dc:title></dc:title>
      </cc:Work>
    </rdf:RDF>
  </metadata>
  <defs
     id="defs49" />
  <sodipodi:namedview
     pagecolor="#ffffff"
     bordercolor="#666666"
     borderopacity="1"
     objecttolerance="10"
     gridtolerance="10"
     guidetolerance="10"
     inkscape:pageopacity="0"
     inkscape:pageshadow="2"
     inkscape:window-width="2560"
     inkscape:window-height="1377"
     id="namedview47"
     showgrid="false"
     inkscape:zoom="1.96875"
     inkscape:cx="246.41765"
     inkscape:cy="255.85004"
     inkscape:window-x="-8"
     inkscape:window-y="-8"
     inkscape:window-maximized="1"
     inkscape:current-layer="g44" />
  <linearGradient
     id="lg1">
    <stop
       offset="0"
       stop-color="#fbc56d"
       id="stop2" />
    <stop
       offset=".5841"
       stop-color="#fe9738"
       id="stop4" />
    <stop
       offset=".9984"
       stop-color="#fb2b3a"
       id="stop6" />
  </linearGradient>
  <linearGradient
     id="SVGID_1_"
     gradientUnits="userSpaceOnUse"
     x1="142.069"
     x2="586.05"
     xlink:href="#lg1"
     y1="366.515"
     y2="366.515" />
  <linearGradient
     id="SVGID_2_"
     gradientUnits="userSpaceOnUse"
     x1="-9"
     x2="527.766"
     xlink:href="#lg1"
     y1="366.515"
     y2="366.515" />
  <linearGradient
     id="SVGID_3_"
     gradientUnits="userSpaceOnUse"
     x1="-44.131"
     x2="399.85"
     xlink:href="#lg1"
     y1="160.917"
     y2="160.917" />
  <linearGradient
     id="SVGID_4_"
     gradientUnits="userSpaceOnUse"
     x1="-195.2"
     x2="341.566"
     xlink:href="#lg1"
     y1="160.916"
     y2="160.916" />
  <linearGradient
     id="lg2">
    <stop
       offset="0"
       stop-color="#fef056"
       id="stop13" />
    <stop
       offset=".5213"
       stop-color="#f4d902"
       id="stop15" />
    <stop
       offset="1"
       stop-color="#fe9738"
       id="stop17" />
  </linearGradient>
  <linearGradient
     id="SVGID_5_"
     gradientUnits="userSpaceOnUse"
     x1="-14.423"
     x2="541.206"
     xlink:href="#lg2"
     y1="255"
     y2="255"
     gradientTransform="matrix(0,0.7839459,0.7839459,0,62.001892,33.391417)" />
  <linearGradient
     id="SVGID_6_"
     gradientUnits="userSpaceOnUse"
     x1="-148"
     x2="438.223"
     xlink:href="#lg2"
     y1="255"
     y2="255"
     gradientTransform="matrix(0,0.7839459,0.7839459,0,62.001892,33.391417)" />
  <linearGradient
     id="SVGID_7_"
     gradientUnits="userSpaceOnUse"
     x1="-169"
     x2="217.021"
     xlink:href="#lg2"
     y1="388.774"
     y2="388.774"
     gradientTransform="matrix(0,0.7839459,0.7839459,0,62.001892,33.391417)" />
  <linearGradient
     id="SVGID_8_"
     gradientUnits="userSpaceOnUse"
     x1="5"
     x2="299.532"
     xlink:href="#lg1"
     y1="388.774"
     y2="388.774"
     gradientTransform="matrix(0,0.7839459,0.7839459,0,62.001892,33.391417)" />
  <g
     id="g44"
     transform="rotate(45,254.99991,255.00046)">
    <g
       id="g28"
       transform="matrix(0,0.7839459,0.7839459,0,62.001928,33.391417)">
      <path
         d="M 360.201,422.841 484.468,298.574 c 16.626,-16.626 25.833,-39.266 25.525,-62.783 -0.093,-7.072 -5.858,-12.757 -12.93,-12.757 -23.742,0 -46.512,9.432 -63.3,26.22 l -134.26,134.26 c -4.349,4.349 -10.555,6.058 -16.376,4.756 l -24.134,-11.237 c -7.145,-3.603 -15.319,2.552 -13.833,10.414 l 5.98,31.629 c 0.59,3.122 -0.393,6.335 -2.631,8.591 l -22.665,22.857 c -5.634,5.682 -2.307,15.358 5.63,16.374 l 31.929,4.086 c 3.152,0.403 5.903,2.332 7.358,5.157 l 14.734,28.619 c 3.663,7.114 13.893,6.94 17.312,-0.294 l 13.753,-29.103 c 1.358,-2.873 4.042,-4.894 7.178,-5.404 l 31.771,-5.17 c 7.832,-1.274 10.839,-10.905 5.208,-16.416 l -4.72,-7.217 c -2.143,-6.193 -0.761,-13.351 4.204,-18.315 z"
         fill="url(#SVGID_1_)"
         id="path24"
         style="fill:url(#SVGID_1_)" />
      <path
         d="m 484.467,298.574 c 16.626,-16.626 25.833,-39.267 25.525,-62.783 -0.093,-7.072 -5.858,-12.757 -12.93,-12.757 -10.232,0 -20.279,1.761 -29.749,5.098 1.628,2.131 2.621,4.776 2.659,7.659 0.308,23.516 -8.899,46.156 -25.525,62.783 L 320.181,422.841 c -4.964,4.964 -6.346,12.123 -4.203,18.314 l 4.72,7.217 c 5.631,5.511 2.625,15.142 -5.208,16.416 l -31.771,5.17 c -3.136,0.51 -5.821,2.531 -7.178,5.404 -1.865,3.946 -1.787,8.534 0.211,12.414 l 8.744,16.983 c 3.663,7.114 13.893,6.94 17.312,-0.294 l 13.753,-29.103 c 1.358,-2.873 4.042,-4.894 7.178,-5.404 l 31.771,-5.17 c 7.832,-1.274 10.839,-10.905 5.208,-16.416 l -4.72,-7.217 c -2.143,-6.192 -0.761,-13.35 4.203,-18.314 z"
         fill="url(#SVGID_2_)"
         id="path26"
         style="fill:url(#SVGID_2_)" />
    </g>
    <g
       id="g34"
       transform="matrix(0,0.7839459,0.7839459,0,62.001928,33.391417)">
      <path
         d="M 174,217.243 298.267,92.976 C 314.893,76.35 324.1,53.71 323.792,30.193 c -0.093,-7.072 -5.858,-12.757 -12.93,-12.757 -23.742,0 -46.512,9.432 -63.3,26.22 l -134.26,134.26 c -4.349,4.349 -10.555,6.058 -16.376,4.756 L 72.792,171.435 c -7.145,-3.603 -15.319,2.552 -13.833,10.414 l 5.98,31.629 c 0.59,3.122 -0.393,6.335 -2.631,8.591 l -22.665,22.857 c -5.634,5.682 -2.307,15.358 5.63,16.374 l 31.929,4.086 c 3.152,0.403 5.903,2.332 7.358,5.157 l 14.734,28.619 c 3.663,7.114 13.893,6.94 17.312,-0.294 9.967,-21.093 29.676,-35.93 52.702,-39.677 7.832,-1.274 10.839,-10.905 5.208,-16.416 l -4.72,-7.217 c -2.142,-6.193 -0.76,-13.351 4.204,-18.315 z"
         fill="url(#SVGID_3_)"
         id="path30"
         style="fill:url(#SVGID_3_)" />
      <path
         d="M 298.267,92.976 C 314.893,76.35 324.1,53.71 323.792,30.193 c -0.093,-7.072 -5.858,-12.757 -12.93,-12.757 -10.232,0 -20.279,1.761 -29.749,5.098 1.628,2.131 2.621,4.776 2.659,7.659 0.308,23.516 -8.899,46.156 -25.525,62.783 L 133.98,217.243 c -4.964,4.964 -6.346,12.123 -4.203,18.314 l 4.72,7.217 c 5.631,5.511 2.625,15.142 -5.208,16.416 l -31.771,5.17 c -3.136,0.51 -5.821,2.531 -7.178,5.404 -1.865,3.946 -1.787,8.534 0.211,12.414 l 8.744,16.983 c 3.663,7.114 13.893,6.94 17.312,-0.294 9.967,-21.093 29.676,-35.93 52.702,-39.677 7.832,-1.274 10.839,-10.905 5.208,-16.416 l -4.72,-7.217 c -2.143,-6.192 -0.761,-13.35 4.203,-18.314 z"
         fill="url(#SVGID_4_)"
         id="path32"
         style="fill:url(#SVGID_4_)" />
    </g>
    <path
       d="m 340.38426,224.49784 -173.1329,173.13288 c -23.1491,23.14913 -54.66608,35.9745 -87.406847,35.56371 -9.879245,-0.12385 -17.838694,-8.1358 -17.838694,-18.01587 0,-33.07859 13.140531,-64.80254 36.530328,-88.19235 L 285.59273,139.92966 c 0.25242,-0.25242 0.49869,-0.50954 0.73846,-0.77061 4.99062,-5.43982 -3.11854,-13.03859 -8.33961,-7.8183 l -81.86357,81.86356 c -2.29694,2.29618 -6.01913,2.29618 -8.31529,0 -2.2954,-2.29696 -2.2954,-6.01914 0,-8.31532 l 85.25486,-85.25569 c 8.49566,-8.49563 10.66327,-21.447969 5.39514,-32.246826 l -1.90028,-3.896213 c -5.0196,-9.954544 3.55517,-21.343712 14.50926,-19.272524 l 44.0664,8.331776 c 4.35011,0.822359 8.82642,-0.547978 11.97005,-3.665731 L 378.95363,37.30644 c 7.91628,-7.849651 21.39781,-3.214961 22.81282,7.843379 l 5.69303,44.484227 c 0.56207,4.390881 3.24864,8.225157 7.18485,10.251658 l 39.87225,20.528406 c 9.91222,5.10349 9.66922,19.35719 -0.41011,24.11966 l -40.54723,19.16121 c -4.00281,1.89166 -6.81876,5.63109 -7.52901,10.0008 l -7.20292,44.26472 c -1.13433,6.97164 -7.021,11.19946 -13.1264,11.29746 -8.69708,0.13954 -17.07274,3.2863 -23.22278,9.43635 L 223.74017,377.43156 c -2.29694,2.29619 -6.01913,2.29619 -8.31534,0 -2.2954,-2.29696 -2.2954,-6.01913 0,-8.3153 L 350.71667,233.82522 c 6.31465,-6.31468 -2.83945,-16.16653 -9.45285,-10.16543 -0.29798,0.27046 -0.59187,0.54955 -0.87956,0.83805 z"
       fill="url(#SVGID_5_)"
       id="path36"
       style="fill:url(#SVGID_5_);stroke-width:0.783944" />
    <path
       d="m 340.38426,224.49784 -173.1329,173.13288 c -23.1491,23.14913 -54.66608,35.9745 -87.406847,35.56371 -9.879245,-0.12385 -17.838694,-8.1358 -17.838694,-18.01587 0,-7.73284 0.726733,-15.38886 2.12608,-22.88416 3.008,5.60756 8.904089,9.44027 15.712614,9.52572 32.740767,0.41155 64.257747,-12.41378 87.406847,-35.5637 L 333.70737,199.80118 c 5.51588,-5.51583 14.40112,-5.70085 20.14192,-0.41862 4.49593,4.13688 11.08112,4.99295 16.52327,2.217 4.68562,-2.38948 9.94514,-3.62811 15.32846,-3.71434 6.10539,-0.098 11.99206,-4.32502 13.1264,-11.29744 l 7.20291,-44.26472 c 0.71102,-4.36972 3.52697,-8.10915 7.52902,-10.00081 l 33.41567,-15.79102 7.54238,3.88288 c 9.91222,5.10349 9.66917,19.35719 -0.41011,24.11966 l -40.54728,19.16121 c -4.00281,1.89166 -6.81876,5.63109 -7.52901,10.0008 l -7.20292,44.26472 c -1.13433,6.97164 -7.021,11.19946 -13.12635,11.29746 -8.69713,0.13954 -17.07279,3.2863 -23.22283,9.43635 L 223.74093,377.43156 c -2.29693,2.29619 -6.01912,2.29619 -8.31528,0 -2.2954,-2.29696 -2.2954,-6.01913 0,-8.3153 L 350.71667,233.82522 c 6.31465,-6.31468 -2.83945,-16.16653 -9.45285,-10.16543 -0.29798,0.27046 -0.59187,0.54955 -0.87956,0.83805 z"
       fill="url(#SVGID_6_)"
       id="path38"
       style="fill:url(#SVGID_6_);stroke-width:0.783944" />
    <path
       d="M 372.12073,191.59406 352.0831,170.3256 c -1.97791,-2.09941 -4.86282,-3.0911 -7.71328,-2.65209 l -28.88054,4.4489 c -7.17936,1.10614 -12.5102,-6.50048 -9.02164,-12.87161 l 14.03576,-25.62955 c 1.38522,-2.52979 1.43693,-5.58013 0.13875,-8.15539 L 307.48677,99.374569 c -3.27065,-6.486364 2.31655,-13.907194 9.45357,-12.55724 l 28.71204,5.428823 c 2.83397,0.536223 5.75099,-0.357478 7.79945,-2.387896 L 374.20058,69.28281 c 5.15834,-5.114465 13.94165,-2.094705 14.86438,5.110543 l 3.70964,28.984047 c 0.36608,2.8614 2.11661,5.35905 4.68173,6.67922 l 25.97996,13.37568 c 6.45811,3.32471 6.30057,12.61213 -0.26727,15.71576 l -26.41976,12.48435 c -2.60823,1.23235 -4.44262,3.66886 -4.90593,6.51615 l -4.69274,28.84138 c -1.16731,7.17155 -10.04861,9.89105 -15.02981,4.60412 z"
       fill="url(#SVGID_7_)"
       id="path40"
       style="fill:url(#SVGID_7_);stroke-width:0.783944" />
    <path
       d="M 372.12073,191.59406 352.0831,170.3256 c -1.97791,-2.09941 -4.86282,-3.0911 -7.71328,-2.65209 l -28.87977,4.4489 c -7.17937,1.10614 -12.51021,-6.50048 -9.02164,-12.87161 l 4.05458,-7.4036 c 1.4636,0.66951 3.15617,0.94624 4.96706,0.66715 l 28.87977,-4.44889 c 2.85122,-0.43899 5.73537,0.55267 7.71328,2.65209 l 20.03763,21.26845 c 4.9812,5.28692 13.8625,2.56742 15.02904,-4.60255 l 4.69269,-28.84137 c 0.46336,-2.84729 2.29775,-5.2838 4.90593,-6.51616 l 18.47997,-8.73316 c 2.60818,-1.23236 5.64204,-1.18062 8.20634,0.13952 6.45816,3.32471 6.30057,12.61213 -0.26726,15.71576 l -26.419,12.48435 c -2.60818,1.23235 -4.44262,3.66965 -4.90593,6.51615 l -4.69269,28.84138 c -1.16654,7.17155 -10.04784,9.89105 -15.02904,4.60412 z"
       fill="url(#SVGID_8_)"
       id="path42"
       style="fill:url(#SVGID_8_);stroke-width:0.783944" />
  </g>
</svg>
