<?xml version="1.0" encoding="UTF-8" standalone="no"?>
<svg
   xmlns:dc="http://purl.org/dc/elements/1.1/"
   xmlns:cc="http://creativecommons.org/ns#"
   xmlns:rdf="http://www.w3.org/1999/02/22-rdf-syntax-ns#"
   xmlns:svg="http://www.w3.org/2000/svg"
   xmlns="http://www.w3.org/2000/svg"
   xmlns:xlink="http://www.w3.org/1999/xlink"
   xmlns:sodipodi="http://sodipodi.sourceforge.net/DTD/sodipodi-0.dtd"
   xmlns:inkscape="http://www.inkscape.org/namespaces/inkscape"
   id="Capa_1"
   enable-background="new 0 0 510 510"
   height="512"
   viewBox="0 0 510 510"
   width="512"
   version="1.1"
   sodipodi:docname="extra-1-yellow.svg"
   inkscape:version="1.0.1 (3bc2e813f5, 2020-09-07)">
  <metadata
     id="metadata116">
    <rdf:RDF>
      <cc:Work
         rdf:about="">
        <dc:format>image/svg+xml</dc:format>
        <dc:type
           rdf:resource="http://purl.org/dc/dcmitype/StillImage" />
      </cc:Work>
    </rdf:RDF>
  </metadata>
  <defs
     id="defs114" />
  <sodipodi:namedview
     pagecolor="#ffffff"
     bordercolor="#666666"
     borderopacity="1"
     objecttolerance="10"
     gridtolerance="10"
     guidetolerance="10"
     inkscape:pageopacity="0"
     inkscape:pageshadow="2"
     inkscape:window-width="2560"
     inkscape:window-height="1377"
     id="namedview112"
     showgrid="false"
     inkscape:zoom="1.96875"
     inkscape:cx="256"
     inkscape:cy="256"
     inkscape:window-x="-8"
     inkscape:window-y="-8"
     inkscape:window-maximized="1"
     inkscape:current-layer="Capa_1"
     inkscape:document-rotation="0" />
  <linearGradient
     id="lg1">
    <stop
       offset="0"
       stop-color="#fd8087"
       id="stop2" />
    <stop
       offset=".5213"
       stop-color="#fb2b3a"
       id="stop4" />
    <stop
       offset="1"
       stop-color="#d90d80"
       id="stop6" />
  </linearGradient>
  <linearGradient
     id="SVGID_1_"
     gradientTransform="matrix(1,0,0,-1,0,512)"
     gradientUnits="userSpaceOnUse"
     x1="0"
     x2="510"
     xlink:href="#lg1"
     y1="257"
     y2="257" />
  <linearGradient
     id="lg2">
    <stop
       offset="0"
       stop-color="#fef056"
       id="stop10" />
    <stop
       offset=".5213"
       stop-color="#f4d902"
       id="stop12" />
    <stop
       offset="1"
       stop-color="#fe9738"
       id="stop14" />
  </linearGradient>
  <linearGradient
     id="SVGID_2_"
     gradientTransform="matrix(1,0,0,-1,0,512)"
     gradientUnits="userSpaceOnUse"
     x1="299.575"
     x2="561.11"
     xlink:href="#lg2"
     y1="121"
     y2="121" />
  <linearGradient
     id="SVGID_3_"
     gradientTransform="matrix(1,0,0,-1,0,512)"
     gradientUnits="userSpaceOnUse"
     x1="187.997"
     x2="480.652"
     xlink:href="#lg2"
     y1="197.372"
     y2="197.372" />
  <linearGradient
     id="SVGID_4_"
     gradientTransform="matrix(1,0,0,-1,0,512)"
     gradientUnits="userSpaceOnUse"
     x1="187.997"
     x2="480.652"
     xlink:href="#lg2"
     y1="121"
     y2="121" />
  <linearGradient
     id="SVGID_5_"
     gradientTransform="matrix(1,0,0,-1,0,512)"
     gradientUnits="userSpaceOnUse"
     x1="295.699"
     x2="444.353"
     xlink:href="#lg2"
     y1="100.026"
     y2="100.026" />
  <linearGradient
     id="SVGID_6_"
     gradientTransform="matrix(1,0,0,-1,0,512)"
     gradientUnits="userSpaceOnUse"
     x1="287.493"
     x2="428.255"
     xlink:href="#lg2"
     y1="100.026"
     y2="100.026" />
  <linearGradient
     id="SVGID_7_"
     gradientTransform="matrix(1,0,0,-1,0,512)"
     gradientUnits="userSpaceOnUse"
     x1="287.493"
     x2="428.255"
     xlink:href="#lg2"
     y1="101.654"
     y2="101.654" />
  <linearGradient
     id="SVGID_8_"
     gradientTransform="matrix(1,0,0,-1,0,512)"
     gradientUnits="userSpaceOnUse"
     x1="287.493"
     x2="428.255"
     xlink:href="#lg2"
     y1="133.102"
     y2="133.102" />
  <linearGradient
     id="SVGID_9_"
     gradientTransform="matrix(1,0,0,-1,0,512)"
     gradientUnits="userSpaceOnUse"
     x1="-57"
     x2="409.01"
     xlink:href="#lg1"
     y1="132.401"
     y2="132.401" />
  <linearGradient
     id="SVGID_10_"
     gradientTransform="matrix(1,0,0,-1,0,512)"
     gradientUnits="userSpaceOnUse"
     x1="-57"
     x2="409.01"
     xlink:href="#lg1"
     y1="349.384"
     y2="349.384" />
  <linearGradient
     id="SVGID_11_"
     gradientTransform="matrix(1,0,0,-1,0,512)"
     gradientUnits="userSpaceOnUse"
     x1="-57"
     x2="409.01"
     xlink:href="#lg1"
     y1="98.927"
     y2="98.927" />
  <linearGradient
     id="SVGID_12_"
     gradientTransform="matrix(1,0,0,-1,0,512)"
     gradientUnits="userSpaceOnUse"
     x1="35.461"
     x2="275.363"
     xlink:href="#lg1"
     y1="157.412"
     y2="157.412" />
  <linearGradient
     id="SVGID_13_"
     gradientTransform="matrix(1,0,0,-1,0,512)"
     gradientUnits="userSpaceOnUse"
     x1="-20.422"
     x2="267.579"
     xlink:href="#lg1"
     y1="157.411"
     y2="157.411" />
  <linearGradient
     id="SVGID_14_"
     gradientTransform="matrix(1,0,0,-1,0,512)"
     gradientUnits="userSpaceOnUse"
     x1="-20.422"
     x2="267.579"
     xlink:href="#lg1"
     y1="160.039"
     y2="160.039" />
  <linearGradient
     id="SVGID_15_"
     gradientTransform="matrix(1,0,0,-1,0,512)"
     gradientUnits="userSpaceOnUse"
     x1="-20.422"
     x2="267.579"
     xlink:href="#lg1"
     y1="210.79"
     y2="210.79" />
  <linearGradient
     id="lg3">
    <stop
       offset="0"
       stop-color="#814aa0"
       id="stop31" />
    <stop
       offset="1"
       stop-color="#192a7d"
       id="stop33" />
  </linearGradient>
  <linearGradient
     id="SVGID_16_"
     gradientTransform="matrix(1,0,0,-1,0,512)"
     gradientUnits="userSpaceOnUse"
     x1="25.867"
     x2="271.201"
     xlink:href="#lg3"
     y1="400.372"
     y2="400.372" />
  <linearGradient
     id="SVGID_17_"
     gradientTransform="matrix(1,0,0,-1,0,512)"
     gradientUnits="userSpaceOnUse"
     x1="-78.8"
     x2="195.727"
     xlink:href="#lg3"
     y1="472.013"
     y2="472.013" />
  <linearGradient
     id="SVGID_18_"
     gradientTransform="matrix(1,0,0,-1,0,512)"
     gradientUnits="userSpaceOnUse"
     x1="-78.8"
     x2="195.727"
     xlink:href="#lg3"
     y1="400.372"
     y2="400.372" />
  <linearGradient
     id="SVGID_19_"
     gradientTransform="matrix(1,0,0,-1,0,512)"
     gradientUnits="userSpaceOnUse"
     x1="22.231"
     x2="161.677"
     xlink:href="#lg3"
     y1="380.697"
     y2="380.697" />
  <linearGradient
     id="SVGID_20_"
     gradientTransform="matrix(1,0,0,-1,0,512)"
     gradientUnits="userSpaceOnUse"
     x1="14.534"
     x2="146.576"
     xlink:href="#lg3"
     y1="380.698"
     y2="380.698" />
  <linearGradient
     id="SVGID_21_"
     gradientTransform="matrix(1,0,0,-1,0,512)"
     gradientUnits="userSpaceOnUse"
     x1="14.534"
     x2="146.576"
     xlink:href="#lg3"
     y1="382.224"
     y2="382.224" />
  <linearGradient
     id="SVGID_22_"
     gradientTransform="matrix(1,0,0,-1,0,512)"
     gradientUnits="userSpaceOnUse"
     x1="14.534"
     x2="146.576"
     xlink:href="#lg3"
     y1="411.724"
     y2="411.724" />
  <g
     id="g65"
     transform="matrix(-1.2403161,-1.2403161,1.2403161,-1.2403161,286.02789,1224.9287)">
    <path
       d="m 509.994,284.465 c -0.076,-6.849 -5.61,-12.383 -12.459,-12.459 -22.596,-0.251 -44.339,8.615 -60.317,24.593 -14.295,14.295 -34.45,20.759 -54.498,18.164 -5.165,-0.669 -10.456,-0.935 -15.841,-0.766 -52.89,1.66 -95.201,45.677 -94.876,98.593 0.33,53.649 43.757,97.076 97.405,97.408 52.916,0.327 96.935,-41.983 98.596,-94.873 0.169,-5.387 -0.097,-10.679 -0.766,-15.845 -2.595,-20.048 3.869,-40.203 18.164,-54.497 15.977,-15.979 24.843,-37.722 24.592,-60.318 z"
       fill="url(#SVGID_2_)"
       id="path45"
       style="fill:url(#SVGID_2_)" />
    <g
       id="g51">
      <path
         d="m 376.818,314.199 c -3.273,-0.224 -6.586,-0.307 -9.94,-0.202 -3.405,0.107 -6.766,0.392 -10.075,0.841 6.745,0.798 13.489,0.564 20.015,-0.639 z"
         fill="url(#SVGID_3_)"
         id="path47"
         style="fill:url(#SVGID_3_)" />
      <path
         d="m 497.535,272.006 c -6.706,-0.074 -13.332,0.673 -19.759,2.152 3.315,2.24 5.508,6.014 5.556,10.307 0.251,22.596 -8.615,44.339 -24.593,60.317 -14.295,14.295 -20.759,34.449 -18.164,54.497 0.669,5.166 0.935,10.459 0.766,15.845 -1.513,48.183 -38.182,87.58 -84.704,93.964 4.179,0.571 8.441,0.883 12.771,0.909 52.916,0.327 96.935,-41.983 98.596,-94.873 0.169,-5.387 -0.097,-10.679 -0.766,-15.845 -2.595,-20.048 3.869,-40.203 18.164,-54.497 15.978,-15.978 24.844,-37.722 24.593,-60.317 -0.077,-6.849 -5.611,-12.383 -12.46,-12.459 z"
         fill="url(#SVGID_4_)"
         id="path49"
         style="fill:url(#SVGID_4_)" />
    </g>
    <g
       id="g63">
      <circle
         cx="370.026"
         cy="411.974"
         fill="url(#SVGID_5_)"
         r="74.327003"
         id="circle53"
         style="fill:url(#SVGID_5_)" />
      <g
         id="g61">
        <path
           d="m 370.026,337.646 c -4.554,0 -9.004,0.432 -13.331,1.216 34.684,6.285 60.996,36.615 60.996,73.112 0,11.886 -2.805,23.109 -7.767,33.07 -2.515,-11.322 -12.936,-19.667 -25.176,-18.927 -11.894,0.719 -21.682,10.274 -22.661,22.149 -0.514,6.239 1.335,12.033 4.749,16.588 5.421,7.231 1.617,17.668 -7.203,19.638 -0.973,0.217 -1.953,0.416 -2.939,0.594 4.327,0.784 8.778,1.216 13.331,1.216 41.05,0 74.327,-33.277 74.327,-74.327 0,-41.05 -33.276,-74.329 -74.326,-74.329 z"
           fill="url(#SVGID_6_)"
           id="path55"
           style="fill:url(#SVGID_6_)" />
        <circle
           cx="332.44299"
           cy="410.34601"
           fill="url(#SVGID_7_)"
           r="15.724"
           id="circle57"
           style="fill:url(#SVGID_7_)" />
        <circle
           cx="380.33301"
           cy="378.89801"
           fill="url(#SVGID_8_)"
           r="15.724"
           id="circle59"
           style="fill:url(#SVGID_8_)" />
      </g>
    </g>
  </g>
</svg>
