<?xml version="1.0" encoding="UTF-8" standalone="no"?>
<svg
   xmlns:dc="http://purl.org/dc/elements/1.1/"
   xmlns:cc="http://creativecommons.org/ns#"
   xmlns:rdf="http://www.w3.org/1999/02/22-rdf-syntax-ns#"
   xmlns:svg="http://www.w3.org/2000/svg"
   xmlns="http://www.w3.org/2000/svg"
   xmlns:xlink="http://www.w3.org/1999/xlink"
   xmlns:sodipodi="http://sodipodi.sourceforge.net/DTD/sodipodi-0.dtd"
   xmlns:inkscape="http://www.inkscape.org/namespaces/inkscape"
   id="Capa_1"
   enable-background="new 0 0 510 510"
   height="512"
   viewBox="0 0 510 510"
   width="512"
   version="1.1"
   sodipodi:docname="extra-1-violet.svg"
   inkscape:version="1.0.1 (3bc2e813f5, 2020-09-07)">
  <metadata
     id="metadata116">
    <rdf:RDF>
      <cc:Work
         rdf:about="">
        <dc:format>image/svg+xml</dc:format>
        <dc:type
           rdf:resource="http://purl.org/dc/dcmitype/StillImage" />
      </cc:Work>
    </rdf:RDF>
  </metadata>
  <defs
     id="defs114" />
  <sodipodi:namedview
     pagecolor="#ffffff"
     bordercolor="#666666"
     borderopacity="1"
     objecttolerance="10"
     gridtolerance="10"
     guidetolerance="10"
     inkscape:pageopacity="0"
     inkscape:pageshadow="2"
     inkscape:window-width="2560"
     inkscape:window-height="1377"
     id="namedview112"
     showgrid="false"
     inkscape:zoom="1.96875"
     inkscape:cx="256"
     inkscape:cy="256"
     inkscape:window-x="-8"
     inkscape:window-y="-8"
     inkscape:window-maximized="1"
     inkscape:current-layer="Capa_1"
     inkscape:document-rotation="0" />
  <linearGradient
     id="lg1">
    <stop
       offset="0"
       stop-color="#fd8087"
       id="stop2" />
    <stop
       offset=".5213"
       stop-color="#fb2b3a"
       id="stop4" />
    <stop
       offset="1"
       stop-color="#d90d80"
       id="stop6" />
  </linearGradient>
  <linearGradient
     id="SVGID_1_"
     gradientTransform="matrix(1,0,0,-1,0,512)"
     gradientUnits="userSpaceOnUse"
     x1="0"
     x2="510"
     xlink:href="#lg1"
     y1="257"
     y2="257" />
  <linearGradient
     id="lg2">
    <stop
       offset="0"
       stop-color="#fef056"
       id="stop10" />
    <stop
       offset=".5213"
       stop-color="#f4d902"
       id="stop12" />
    <stop
       offset="1"
       stop-color="#fe9738"
       id="stop14" />
  </linearGradient>
  <linearGradient
     id="SVGID_2_"
     gradientTransform="matrix(1,0,0,-1,0,512)"
     gradientUnits="userSpaceOnUse"
     x1="299.575"
     x2="561.11"
     xlink:href="#lg2"
     y1="121"
     y2="121" />
  <linearGradient
     id="SVGID_3_"
     gradientTransform="matrix(1,0,0,-1,0,512)"
     gradientUnits="userSpaceOnUse"
     x1="187.997"
     x2="480.652"
     xlink:href="#lg2"
     y1="197.372"
     y2="197.372" />
  <linearGradient
     id="SVGID_4_"
     gradientTransform="matrix(1,0,0,-1,0,512)"
     gradientUnits="userSpaceOnUse"
     x1="187.997"
     x2="480.652"
     xlink:href="#lg2"
     y1="121"
     y2="121" />
  <linearGradient
     id="SVGID_5_"
     gradientTransform="matrix(1,0,0,-1,0,512)"
     gradientUnits="userSpaceOnUse"
     x1="295.699"
     x2="444.353"
     xlink:href="#lg2"
     y1="100.026"
     y2="100.026" />
  <linearGradient
     id="SVGID_6_"
     gradientTransform="matrix(1,0,0,-1,0,512)"
     gradientUnits="userSpaceOnUse"
     x1="287.493"
     x2="428.255"
     xlink:href="#lg2"
     y1="100.026"
     y2="100.026" />
  <linearGradient
     id="SVGID_7_"
     gradientTransform="matrix(1,0,0,-1,0,512)"
     gradientUnits="userSpaceOnUse"
     x1="287.493"
     x2="428.255"
     xlink:href="#lg2"
     y1="101.654"
     y2="101.654" />
  <linearGradient
     id="SVGID_8_"
     gradientTransform="matrix(1,0,0,-1,0,512)"
     gradientUnits="userSpaceOnUse"
     x1="287.493"
     x2="428.255"
     xlink:href="#lg2"
     y1="133.102"
     y2="133.102" />
  <linearGradient
     id="SVGID_9_"
     gradientTransform="matrix(1,0,0,-1,0,512)"
     gradientUnits="userSpaceOnUse"
     x1="-57"
     x2="409.01"
     xlink:href="#lg1"
     y1="132.401"
     y2="132.401" />
  <linearGradient
     id="SVGID_10_"
     gradientTransform="matrix(1,0,0,-1,0,512)"
     gradientUnits="userSpaceOnUse"
     x1="-57"
     x2="409.01"
     xlink:href="#lg1"
     y1="349.384"
     y2="349.384" />
  <linearGradient
     id="SVGID_11_"
     gradientTransform="matrix(1,0,0,-1,0,512)"
     gradientUnits="userSpaceOnUse"
     x1="-57"
     x2="409.01"
     xlink:href="#lg1"
     y1="98.927"
     y2="98.927" />
  <linearGradient
     id="SVGID_12_"
     gradientTransform="matrix(1,0,0,-1,0,512)"
     gradientUnits="userSpaceOnUse"
     x1="35.461"
     x2="275.363"
     xlink:href="#lg1"
     y1="157.412"
     y2="157.412" />
  <linearGradient
     id="SVGID_13_"
     gradientTransform="matrix(1,0,0,-1,0,512)"
     gradientUnits="userSpaceOnUse"
     x1="-20.422"
     x2="267.579"
     xlink:href="#lg1"
     y1="157.411"
     y2="157.411" />
  <linearGradient
     id="SVGID_14_"
     gradientTransform="matrix(1,0,0,-1,0,512)"
     gradientUnits="userSpaceOnUse"
     x1="-20.422"
     x2="267.579"
     xlink:href="#lg1"
     y1="160.039"
     y2="160.039" />
  <linearGradient
     id="SVGID_15_"
     gradientTransform="matrix(1,0,0,-1,0,512)"
     gradientUnits="userSpaceOnUse"
     x1="-20.422"
     x2="267.579"
     xlink:href="#lg1"
     y1="210.79"
     y2="210.79" />
  <linearGradient
     id="lg3">
    <stop
       offset="0"
       stop-color="#814aa0"
       id="stop31" />
    <stop
       offset="1"
       stop-color="#192a7d"
       id="stop33" />
  </linearGradient>
  <linearGradient
     id="SVGID_16_"
     gradientTransform="matrix(1,0,0,-1,0,512)"
     gradientUnits="userSpaceOnUse"
     x1="25.867"
     x2="271.201"
     xlink:href="#lg3"
     y1="400.372"
     y2="400.372" />
  <linearGradient
     id="SVGID_17_"
     gradientTransform="matrix(1,0,0,-1,0,512)"
     gradientUnits="userSpaceOnUse"
     x1="-78.8"
     x2="195.727"
     xlink:href="#lg3"
     y1="472.013"
     y2="472.013" />
  <linearGradient
     id="SVGID_18_"
     gradientTransform="matrix(1,0,0,-1,0,512)"
     gradientUnits="userSpaceOnUse"
     x1="-78.8"
     x2="195.727"
     xlink:href="#lg3"
     y1="400.372"
     y2="400.372" />
  <linearGradient
     id="SVGID_19_"
     gradientTransform="matrix(1,0,0,-1,0,512)"
     gradientUnits="userSpaceOnUse"
     x1="22.231"
     x2="161.677"
     xlink:href="#lg3"
     y1="380.697"
     y2="380.697" />
  <linearGradient
     id="SVGID_20_"
     gradientTransform="matrix(1,0,0,-1,0,512)"
     gradientUnits="userSpaceOnUse"
     x1="14.534"
     x2="146.576"
     xlink:href="#lg3"
     y1="380.698"
     y2="380.698" />
  <linearGradient
     id="SVGID_21_"
     gradientTransform="matrix(1,0,0,-1,0,512)"
     gradientUnits="userSpaceOnUse"
     x1="14.534"
     x2="146.576"
     xlink:href="#lg3"
     y1="382.224"
     y2="382.224" />
  <linearGradient
     id="SVGID_22_"
     gradientTransform="matrix(1,0,0,-1,0,512)"
     gradientUnits="userSpaceOnUse"
     x1="14.534"
     x2="146.576"
     xlink:href="#lg3"
     y1="411.724"
     y2="411.724" />
  <g
     id="g107"
     transform="matrix(-1.3222129,-1.3222129,1.3222129,-1.3222129,286.02854,550.19335)">
    <path
       d="M 223.252,11.692 C 223.181,5.267 217.99,0.076 211.565,0.005 190.369,-0.23 169.973,8.086 154.984,23.075 141.575,36.484 122.668,42.548 103.861,40.114 99.016,39.487 94.053,39.237 89.001,39.396 39.387,40.952 -0.304,82.243 0.002,131.881 c 0.31,50.325 41.046,91.063 91.371,91.374 49.638,0.307 90.931,-39.382 92.489,-88.997 0.159,-5.053 -0.091,-10.017 -0.719,-14.864 -2.435,-18.806 3.629,-37.712 17.039,-51.121 14.989,-14.988 23.305,-35.385 23.07,-56.581 z"
       fill="url(#SVGID_16_)"
       id="path87"
       style="fill:url(#SVGID_16_)" />
    <g
       id="g93">
      <path
         d="m 98.325,39.585 c -3.071,-0.211 -6.178,-0.288 -9.324,-0.19 -3.194,0.1 -6.347,0.368 -9.451,0.789 6.328,0.749 12.653,0.529 18.775,-0.599 z"
         fill="url(#SVGID_17_)"
         id="path89"
         style="fill:url(#SVGID_17_)" />
      <path
         d="m 211.565,0.005 c -6.291,-0.07 -12.506,0.631 -18.535,2.019 3.11,2.101 5.167,5.642 5.211,9.668 0.235,21.196 -8.081,41.592 -23.07,56.581 -13.409,13.409 -19.473,32.315 -17.039,51.121 0.627,4.846 0.877,9.811 0.719,14.864 -1.419,45.199 -35.817,82.155 -79.458,88.143 3.92,0.536 7.918,0.828 11.98,0.853 49.638,0.307 90.931,-39.382 92.489,-88.997 0.159,-5.053 -0.091,-10.018 -0.719,-14.864 -2.435,-18.806 3.63,-37.712 17.039,-51.121 14.989,-14.989 23.305,-35.385 23.07,-56.581 C 223.181,5.267 217.99,0.076 211.565,0.005 Z"
         fill="url(#SVGID_18_)"
         id="path91"
         style="fill:url(#SVGID_18_)" />
    </g>
    <g
       id="g105">
      <circle
         cx="91.954002"
         cy="131.30299"
         fill="url(#SVGID_19_)"
         r="69.723"
         id="circle95"
         style="fill:url(#SVGID_19_)" />
      <g
         id="g103">
        <path
           d="m 91.954,61.579 c -4.271,0 -8.446,0.405 -12.506,1.14 32.536,5.896 57.218,34.347 57.218,68.583 0,11.15 -2.632,21.678 -7.286,31.021 -2.359,-10.62 -12.135,-18.449 -23.616,-17.755 -11.157,0.674 -20.339,9.637 -21.257,20.777 -0.482,5.852 1.252,11.288 4.455,15.56 5.085,6.783 1.517,16.574 -6.756,18.422 -0.912,0.204 -1.832,0.39 -2.757,0.558 4.059,0.736 8.234,1.14 12.506,1.14 38.507,0 69.723,-31.216 69.723,-69.723 0,-38.507 -31.217,-69.723 -69.724,-69.723 z"
           fill="url(#SVGID_20_)"
           id="path97"
           style="fill:url(#SVGID_20_)" />
        <circle
           cx="56.699001"
           cy="129.776"
           fill="url(#SVGID_21_)"
           r="14.75"
           id="circle99"
           style="fill:url(#SVGID_21_)" />
        <circle
           cx="101.622"
           cy="100.276"
           fill="url(#SVGID_22_)"
           r="14.75"
           id="circle101"
           style="fill:url(#SVGID_22_)" />
      </g>
    </g>
  </g>
</svg>
