<?xml version="1.0" encoding="UTF-8" standalone="no"?>
<svg
   xmlns:dc="http://purl.org/dc/elements/1.1/"
   xmlns:cc="http://creativecommons.org/ns#"
   xmlns:rdf="http://www.w3.org/1999/02/22-rdf-syntax-ns#"
   xmlns:svg="http://www.w3.org/2000/svg"
   xmlns="http://www.w3.org/2000/svg"
   xmlns:xlink="http://www.w3.org/1999/xlink"
   xmlns:sodipodi="http://sodipodi.sourceforge.net/DTD/sodipodi-0.dtd"
   xmlns:inkscape="http://www.inkscape.org/namespaces/inkscape"
   id="Capa_1"
   enable-background="new 0 0 510 510"
   height="512"
   viewBox="0 0 510 510"
   width="512"
   version="1.1"
   sodipodi:docname="extra-1-red.svg"
   inkscape:version="1.0.1 (3bc2e813f5, 2020-09-07)">
  <metadata
     id="metadata116">
    <rdf:RDF>
      <cc:Work
         rdf:about="">
        <dc:format>image/svg+xml</dc:format>
        <dc:type
           rdf:resource="http://purl.org/dc/dcmitype/StillImage" />
        <dc:title></dc:title>
      </cc:Work>
    </rdf:RDF>
  </metadata>
  <defs
     id="defs114" />
  <sodipodi:namedview
     pagecolor="#ffffff"
     bordercolor="#666666"
     borderopacity="1"
     objecttolerance="10"
     gridtolerance="10"
     guidetolerance="10"
     inkscape:pageopacity="0"
     inkscape:pageshadow="2"
     inkscape:window-width="2560"
     inkscape:window-height="1377"
     id="namedview112"
     showgrid="false"
     inkscape:zoom="1.3921165"
     inkscape:cx="429.96475"
     inkscape:cy="171.48223"
     inkscape:window-x="-8"
     inkscape:window-y="-8"
     inkscape:window-maximized="1"
     inkscape:current-layer="Capa_1"
     inkscape:document-rotation="0" />
  <linearGradient
     id="lg1">
    <stop
       offset="0"
       stop-color="#fd8087"
       id="stop2" />
    <stop
       offset=".5213"
       stop-color="#fb2b3a"
       id="stop4" />
    <stop
       offset="1"
       stop-color="#d90d80"
       id="stop6" />
  </linearGradient>
  <linearGradient
     id="SVGID_1_"
     gradientTransform="matrix(1,0,0,-1,0,512)"
     gradientUnits="userSpaceOnUse"
     x1="0"
     x2="510"
     xlink:href="#lg1"
     y1="257"
     y2="257" />
  <linearGradient
     id="lg2">
    <stop
       offset="0"
       stop-color="#fef056"
       id="stop10" />
    <stop
       offset=".5213"
       stop-color="#f4d902"
       id="stop12" />
    <stop
       offset="1"
       stop-color="#fe9738"
       id="stop14" />
  </linearGradient>
  <linearGradient
     id="SVGID_2_"
     gradientTransform="matrix(1,0,0,-1,0,512)"
     gradientUnits="userSpaceOnUse"
     x1="299.575"
     x2="561.11"
     xlink:href="#lg2"
     y1="121"
     y2="121" />
  <linearGradient
     id="SVGID_3_"
     gradientTransform="matrix(1,0,0,-1,0,512)"
     gradientUnits="userSpaceOnUse"
     x1="187.997"
     x2="480.652"
     xlink:href="#lg2"
     y1="197.372"
     y2="197.372" />
  <linearGradient
     id="SVGID_4_"
     gradientTransform="matrix(1,0,0,-1,0,512)"
     gradientUnits="userSpaceOnUse"
     x1="187.997"
     x2="480.652"
     xlink:href="#lg2"
     y1="121"
     y2="121" />
  <linearGradient
     id="SVGID_5_"
     gradientTransform="matrix(1,0,0,-1,0,512)"
     gradientUnits="userSpaceOnUse"
     x1="295.699"
     x2="444.353"
     xlink:href="#lg2"
     y1="100.026"
     y2="100.026" />
  <linearGradient
     id="SVGID_6_"
     gradientTransform="matrix(1,0,0,-1,0,512)"
     gradientUnits="userSpaceOnUse"
     x1="287.493"
     x2="428.255"
     xlink:href="#lg2"
     y1="100.026"
     y2="100.026" />
  <linearGradient
     id="SVGID_7_"
     gradientTransform="matrix(1,0,0,-1,0,512)"
     gradientUnits="userSpaceOnUse"
     x1="287.493"
     x2="428.255"
     xlink:href="#lg2"
     y1="101.654"
     y2="101.654" />
  <linearGradient
     id="SVGID_8_"
     gradientTransform="matrix(1,0,0,-1,0,512)"
     gradientUnits="userSpaceOnUse"
     x1="287.493"
     x2="428.255"
     xlink:href="#lg2"
     y1="133.102"
     y2="133.102" />
  <linearGradient
     id="SVGID_9_"
     gradientTransform="matrix(1,0,0,-1,0,512)"
     gradientUnits="userSpaceOnUse"
     x1="-57"
     x2="409.01"
     xlink:href="#lg1"
     y1="132.401"
     y2="132.401" />
  <linearGradient
     id="SVGID_10_"
     gradientTransform="matrix(1,0,0,-1,0,512)"
     gradientUnits="userSpaceOnUse"
     x1="-57"
     x2="409.01"
     xlink:href="#lg1"
     y1="349.384"
     y2="349.384" />
  <linearGradient
     id="SVGID_11_"
     gradientTransform="matrix(1,0,0,-1,0,512)"
     gradientUnits="userSpaceOnUse"
     x1="-57"
     x2="409.01"
     xlink:href="#lg1"
     y1="98.927"
     y2="98.927" />
  <linearGradient
     id="SVGID_12_"
     gradientTransform="matrix(1,0,0,-1,0,512)"
     gradientUnits="userSpaceOnUse"
     x1="35.461"
     x2="275.363"
     xlink:href="#lg1"
     y1="157.412"
     y2="157.412" />
  <linearGradient
     id="SVGID_13_"
     gradientTransform="matrix(1,0,0,-1,0,512)"
     gradientUnits="userSpaceOnUse"
     x1="-20.422"
     x2="267.579"
     xlink:href="#lg1"
     y1="157.411"
     y2="157.411" />
  <linearGradient
     id="SVGID_14_"
     gradientTransform="matrix(1,0,0,-1,0,512)"
     gradientUnits="userSpaceOnUse"
     x1="-20.422"
     x2="267.579"
     xlink:href="#lg1"
     y1="160.039"
     y2="160.039" />
  <linearGradient
     id="SVGID_15_"
     gradientTransform="matrix(1,0,0,-1,0,512)"
     gradientUnits="userSpaceOnUse"
     x1="-20.422"
     x2="267.579"
     xlink:href="#lg1"
     y1="210.79"
     y2="210.79" />
  <linearGradient
     id="lg3">
    <stop
       offset="0"
       stop-color="#814aa0"
       id="stop31" />
    <stop
       offset="1"
       stop-color="#192a7d"
       id="stop33" />
  </linearGradient>
  <linearGradient
     id="SVGID_16_"
     gradientTransform="matrix(1,0,0,-1,0,512)"
     gradientUnits="userSpaceOnUse"
     x1="25.867"
     x2="271.201"
     xlink:href="#lg3"
     y1="400.372"
     y2="400.372" />
  <linearGradient
     id="SVGID_17_"
     gradientTransform="matrix(1,0,0,-1,0,512)"
     gradientUnits="userSpaceOnUse"
     x1="-78.8"
     x2="195.727"
     xlink:href="#lg3"
     y1="472.013"
     y2="472.013" />
  <linearGradient
     id="SVGID_18_"
     gradientTransform="matrix(1,0,0,-1,0,512)"
     gradientUnits="userSpaceOnUse"
     x1="-78.8"
     x2="195.727"
     xlink:href="#lg3"
     y1="400.372"
     y2="400.372" />
  <linearGradient
     id="SVGID_19_"
     gradientTransform="matrix(1,0,0,-1,0,512)"
     gradientUnits="userSpaceOnUse"
     x1="22.231"
     x2="161.677"
     xlink:href="#lg3"
     y1="380.697"
     y2="380.697" />
  <linearGradient
     id="SVGID_20_"
     gradientTransform="matrix(1,0,0,-1,0,512)"
     gradientUnits="userSpaceOnUse"
     x1="14.534"
     x2="146.576"
     xlink:href="#lg3"
     y1="380.698"
     y2="380.698" />
  <linearGradient
     id="SVGID_21_"
     gradientTransform="matrix(1,0,0,-1,0,512)"
     gradientUnits="userSpaceOnUse"
     x1="14.534"
     x2="146.576"
     xlink:href="#lg3"
     y1="382.224"
     y2="382.224" />
  <linearGradient
     id="SVGID_22_"
     gradientTransform="matrix(1,0,0,-1,0,512)"
     gradientUnits="userSpaceOnUse"
     x1="14.534"
     x2="146.576"
     xlink:href="#lg3"
     y1="411.724"
     y2="411.724" />
  <g
     id="g985"
     transform="matrix(-0.55869606,-0.55869606,0.55869606,-0.55869606,275.99891,540.12768)">
    <path
       d="m 509.926,39.06 c 0.009,-0.089 0.019,-0.178 0.028,-0.268 0.754,-7.245 -8.031,-11.426 -13.193,-6.275 l -15.403,15.368 c -1.468,1.464 -3.392,2.197 -5.316,2.197 -1.865,0 -3.729,-0.687 -5.178,-2.063 -3.072,-2.916 -2.909,-7.975 0.09,-10.967 L 495.998,12.064 C 500.361,7.71 497.445,0.121 491.275,0.011 491.228,0.01 491.181,0.009 491.133,0.009 454.865,-0.392 419.966,13.806 394.319,39.395 l -105.606,105.37 c -2.405,2.4 -4.87,4.727 -7.389,6.981 -8.117,7.259 -19.252,-4.586 -11.544,-12.276 l 23.099,-23.048 c 2.911,-2.904 3.206,-7.674 0.384,-10.664 -2.92,-3.093 -7.8,-3.148 -10.792,-0.165 l -88.656,88.458 c -1.205,1.203 -2.747,2.023 -4.426,2.318 -0.089,0.016 -0.178,0.031 -0.267,0.047 -8.083,1.408 -13.216,-8.341 -7.414,-14.13 l 37.196,-37.113 c 2.911,-2.904 3.206,-7.674 0.384,-10.664 -2.92,-3.093 -7.8,-3.148 -10.792,-0.165 l -48.601,48.493 c -9.935,9.913 -22.523,16.784 -36.27,19.686 C 51.319,217.79 -2.638,283.48 0.1,360.207 c 2.862,80.215 67.242,145.49 147.582,149.588 72.494,3.698 135.578,-42.94 156.489,-108.141 3.622,-11.295 9.723,-21.642 18.127,-30.027 l 42.548,-42.453 c 2.911,-2.904 3.206,-7.674 0.384,-10.664 -2.92,-3.093 -7.8,-3.148 -10.792,-0.165 l -23.277,23.225 c -7.125,7.109 -19.286,1.508 -18.459,-8.512 0.01,-0.116 0.019,-0.232 0.029,-0.347 0.215,-2.536 1.329,-4.908 3.133,-6.708 l 146.46,-146.132 c 2.911,-2.904 3.206,-7.674 0.384,-10.664 -2.92,-3.093 -7.8,-3.148 -10.792,-0.165 L 349.179,271.547 c -6.976,6.96 -18.166,-1.609 -13.284,-10.163 8.169,-14.315 18.279,-27.603 30.158,-39.455 l 105.606,-105.37 c 1.977,-1.973 3.886,-4.001 5.726,-6.08 4.648,-5.253 -2.92,-12.383 -7.886,-7.428 -1.468,1.464 -3.392,2.197 -5.316,2.197 -1.865,0 -3.729,-0.687 -5.178,-2.063 -3.072,-2.916 -2.909,-7.975 0.09,-10.967 l 48.602,-48.493 c 1.258,-1.255 2.04,-2.9 2.229,-4.665 z"
       fill="url(#SVGID_1_)"
       id="path43"
       style="fill:url(#SVGID_1_)" />
    <g
       id="g73">
      <circle
         cx="130.401"
         cy="379.599"
         fill="url(#SVGID_9_)"
         r="119.951"
         id="circle67"
         style="fill:url(#SVGID_9_)" />
      <path
         d="m 496.761,32.517 -15.402,15.368 c -1.468,1.464 -3.392,2.197 -5.316,2.197 -1.865,0 -3.729,-0.688 -5.178,-2.063 -3.072,-2.915 -2.908,-7.975 0.09,-10.966 L 495.999,12.065 C 500.363,7.711 497.446,0.122 491.277,0.012 491.23,0.011 491.183,0.011 491.135,0.01 476.24,-0.155 461.577,2.148 447.689,6.686 c 0.106,1.882 -0.511,3.834 -2.06,5.38 l -25.044,24.988 c -2.998,2.991 -3.161,8.051 -0.09,10.966 1.449,1.376 3.313,2.063 5.178,2.063 1.923,0 3.848,-0.732 5.316,-2.197 l 15.402,-15.368 c 5.165,-5.154 13.952,-0.968 13.192,6.29 -0.009,0.09 -0.019,0.18 -0.028,0.268 -0.187,1.76 -0.975,3.4 -2.228,4.65 l -48.602,48.493 c -2.999,2.992 -3.162,8.052 -0.089,10.968 1.449,1.375 3.313,2.062 5.177,2.062 1.923,0 3.847,-0.732 5.315,-2.197 h 2.228 c 6.768,0 8.666,4.175 4.094,9.165 -1.352,1.475 -2.739,2.923 -4.162,4.342 L 291.102,246.524 c -4.491,4.483 -4.63,11.716 -0.316,16.369 2.83,3.053 3.707,7.088 -0.025,13.601 -5.551,9.688 -4.1,21.881 3.237,30.297 l 0.567,0.651 c 4.178,4.792 9.98,7.655 16.227,8.836 1.502,0.284 2.934,1.027 4.069,2.23 1.744,1.848 2.294,4.376 1.775,6.723 L 462.324,179.869 c 2.911,-2.904 3.206,-7.674 0.384,-10.664 -2.92,-3.093 -7.8,-3.148 -10.792,-0.165 L 349.179,271.547 c -6.979,6.964 -18.155,-1.631 -13.266,-10.194 8.166,-14.303 18.27,-27.581 30.14,-39.424 l 105.606,-105.37 c 1.423,-1.419 2.81,-2.867 4.162,-4.342 4.573,-4.99 2.674,-9.165 -4.094,-9.165 h -2.228 c -1.468,1.464 -3.392,2.197 -5.315,2.197 -1.864,0 -3.728,-0.687 -5.177,-2.062 -3.073,-2.915 -2.91,-7.976 0.089,-10.968 l 48.602,-48.493 c 1.253,-1.25 2.041,-2.89 2.228,-4.65 0.01,-0.089 0.019,-0.178 0.028,-0.268 0.759,-7.258 -8.027,-11.445 -13.193,-6.291 z"
         fill="url(#SVGID_10_)"
         id="path69"
         style="fill:url(#SVGID_10_)" />
      <path
         d="m 354.439,318.343 -23.277,23.225 c -7.125,7.109 -19.286,1.508 -18.459,-8.512 0.01,-0.116 0.019,-0.232 0.029,-0.347 0.065,-0.766 0.221,-1.514 0.445,-2.239 l -41.543,38.701 c -8.404,8.386 -14.21,21.187 -17.832,32.482 -17.638,54.998 -65.284,96.788 -123.274,106.301 5.624,0.918 11.346,1.544 17.155,1.841 72.494,3.698 135.578,-42.94 156.489,-108.141 3.622,-11.295 9.723,-21.642 18.127,-30.027 l 42.548,-42.453 c 2.911,-2.904 3.206,-7.674 0.384,-10.664 -2.92,-3.095 -7.801,-3.15 -10.792,-0.167 z"
         fill="url(#SVGID_11_)"
         id="path71"
         style="fill:url(#SVGID_11_)" />
    </g>
    <g
       id="g85">
      <circle
         cx="155.412"
         cy="354.58801"
         fill="url(#SVGID_12_)"
         r="119.951"
         id="circle75"
         style="fill:url(#SVGID_12_)" />
      <g
         id="g83">
        <path
           d="m 155.412,234.637 c -7.349,0 -14.531,0.696 -21.515,1.962 55.975,10.143 98.437,59.091 98.437,117.99 0,19.182 -4.527,37.294 -12.535,53.369 -4.058,-18.271 -20.877,-31.74 -40.629,-30.546 -19.195,1.16 -34.991,16.58 -36.571,35.745 -0.83,10.068 2.154,19.42 7.664,26.77 8.748,11.669 2.609,28.513 -11.624,31.693 -1.57,0.351 -3.151,0.671 -4.743,0.959 6.984,1.266 14.166,1.962 21.515,1.962 66.247,0 119.951,-53.704 119.951,-119.951 0,-66.247 -53.703,-119.953 -119.95,-119.953 z"
           fill="url(#SVGID_13_)"
           id="path77"
           style="fill:url(#SVGID_13_)" />
        <circle
           cx="94.759003"
           cy="351.961"
           fill="url(#SVGID_14_)"
           r="25.375999"
           id="circle79"
           style="fill:url(#SVGID_14_)" />
        <circle
           cx="172.045"
           cy="301.20999"
           fill="url(#SVGID_15_)"
           r="25.375999"
           id="circle81"
           style="fill:url(#SVGID_15_)" />
      </g>
    </g>
  </g>
</svg>
