<?xml version="1.0" encoding="UTF-8" standalone="no"?>
<svg
   xmlns:dc="http://purl.org/dc/elements/1.1/"
   xmlns:cc="http://creativecommons.org/ns#"
   xmlns:rdf="http://www.w3.org/1999/02/22-rdf-syntax-ns#"
   xmlns:svg="http://www.w3.org/2000/svg"
   xmlns="http://www.w3.org/2000/svg"
   xmlns:xlink="http://www.w3.org/1999/xlink"
   xmlns:sodipodi="http://sodipodi.sourceforge.net/DTD/sodipodi-0.dtd"
   xmlns:inkscape="http://www.inkscape.org/namespaces/inkscape"
   id="Capa_1"
   enable-background="new 0 0 510 510"
   height="512"
   viewBox="0 0 510 510"
   width="512"
   version="1.1"
   sodipodi:docname="bonus-constellation.svg"
   inkscape:version="1.0.1 (3bc2e813f5, 2020-09-07)">
  <metadata
     id="metadata122">
    <rdf:RDF>
      <cc:Work
         rdf:about="">
        <dc:format>image/svg+xml</dc:format>
        <dc:type
           rdf:resource="http://purl.org/dc/dcmitype/StillImage" />
        <dc:title></dc:title>
      </cc:Work>
    </rdf:RDF>
  </metadata>
  <defs
     id="defs120" />
  <sodipodi:namedview
     pagecolor="#ffffff"
     bordercolor="#666666"
     borderopacity="1"
     objecttolerance="10"
     gridtolerance="10"
     guidetolerance="10"
     inkscape:pageopacity="0"
     inkscape:pageshadow="2"
     inkscape:window-width="2560"
     inkscape:window-height="1377"
     id="namedview118"
     showgrid="false"
     inkscape:zoom="1.3921165"
     inkscape:cx="112.97908"
     inkscape:cy="253.36405"
     inkscape:window-x="-8"
     inkscape:window-y="-8"
     inkscape:window-maximized="1"
     inkscape:current-layer="Capa_1" />
  <linearGradient
     id="lg1">
    <stop
       offset="0"
       stop-color="#814aa0"
       id="stop2" />
    <stop
       offset="1"
       stop-color="#192a7d"
       id="stop4" />
  </linearGradient>
  <linearGradient
     id="SVGID_1_"
     gradientUnits="userSpaceOnUse"
     x1="-7.711"
     x2="580.47"
     xlink:href="#lg1"
     y1="255"
     y2="255" />
  <linearGradient
     id="SVGID_2_"
     gradientUnits="userSpaceOnUse"
     x1="-225"
     x2="413.05"
     xlink:href="#lg1"
     y1="242.829"
     y2="242.829" />
  <linearGradient
     id="SVGID_3_"
     gradientUnits="userSpaceOnUse"
     x1="-74.893"
     x2="479.237"
     xlink:href="#lg1"
     y1="255"
     y2="255" />
  <linearGradient
     id="lg2">
    <stop
       offset="0"
       stop-color="#eaf6ff"
       id="stop10" />
    <stop
       offset=".5213"
       stop-color="#d8ecfe"
       id="stop12" />
    <stop
       offset="1"
       stop-color="#b3dafe"
       id="stop14" />
  </linearGradient>
  <linearGradient
     id="SVGID_4_"
     gradientUnits="userSpaceOnUse"
     x1="66.123"
     x2="444.54"
     xlink:href="#lg2"
     y1="242.83"
     y2="242.83" />
  <linearGradient
     id="lg3">
    <stop
       offset="0"
       stop-color="#d8ecfe"
       id="stop18" />
    <stop
       offset=".5667"
       stop-color="#b3dafe"
       id="stop20" />
    <stop
       offset=".9955"
       stop-color="#8ac9fe"
       id="stop22" />
  </linearGradient>
  <linearGradient
     id="SVGID_5_"
     gradientUnits="userSpaceOnUse"
     x1="-100"
     x2="273.837"
     xlink:href="#lg3"
     y1="78.961"
     y2="78.961" />
  <linearGradient
     id="SVGID_6_"
     gradientUnits="userSpaceOnUse"
     x1="-100"
     x2="273.837"
     xlink:href="#lg3"
     y1="239.52"
     y2="239.52" />
  <linearGradient
     id="SVGID_7_"
     gradientUnits="userSpaceOnUse"
     x1="-100"
     x2="273.837"
     xlink:href="#lg3"
     y1="291.948"
     y2="291.948" />
  <linearGradient
     id="SVGID_8_"
     gradientUnits="userSpaceOnUse"
     x1="-100"
     x2="273.837"
     xlink:href="#lg3"
     y1="137.5"
     y2="137.5" />
  <linearGradient
     id="SVGID_9_"
     gradientUnits="userSpaceOnUse"
     x1="187.388"
     x2="323.341"
     y1="238.61"
     y2="238.61">
    <stop
       offset="0"
       stop-color="#feca9c"
       id="stop29" />
    <stop
       offset=".5213"
       stop-color="#fd8087"
       id="stop31" />
    <stop
       offset="1"
       stop-color="#f46700"
       id="stop33" />
  </linearGradient>
  <linearGradient
     id="SVGID_10_"
     gradientUnits="userSpaceOnUse"
     x1="35.384"
     x2="125.938"
     y1="420.988"
     y2="420.988">
    <stop
       offset="0"
       stop-color="#fd8087"
       id="stop36" />
    <stop
       offset=".5213"
       stop-color="#fb2b3a"
       id="stop38" />
    <stop
       offset="1"
       stop-color="#d90d80"
       id="stop40" />
  </linearGradient>
  <linearGradient
     id="SVGID_11_"
     gradientUnits="userSpaceOnUse"
     x1="265.901"
     x2="356.455"
     y1="64.671"
     y2="64.671">
    <stop
       offset="0"
       stop-color="#60b7ff"
       id="stop43" />
    <stop
       offset=".5857"
       stop-color="#0182fc"
       id="stop45" />
    <stop
       offset="1"
       stop-color="#2740b0"
       id="stop47" />
  </linearGradient>
  <linearGradient
     id="SVGID_12_"
     gradientUnits="userSpaceOnUse"
     x1="344.518"
     x2="425.82"
     y1="299.019"
     y2="299.019">
    <stop
       offset="0"
       stop-color="#a2e62e"
       id="stop50" />
    <stop
       offset=".5857"
       stop-color="#81b823"
       id="stop52" />
    <stop
       offset="1"
       stop-color="#037e73"
       id="stop54" />
  </linearGradient>
  <linearGradient
     id="SVGID_13_"
     gradientUnits="userSpaceOnUse"
     x1="397.801"
     x2="479.103"
     y1="136"
     y2="136">
    <stop
       offset="0"
       stop-color="#fef056"
       id="stop57" />
    <stop
       offset=".5213"
       stop-color="#f4d902"
       id="stop59" />
    <stop
       offset="1"
       stop-color="#fe9738"
       id="stop61" />
  </linearGradient>
  <linearGradient
     id="SVGID_14_"
     gradientUnits="userSpaceOnUse"
     x1="-80"
     x2="476.299"
     xlink:href="#lg2"
     y1="58.801"
     y2="58.801" />
  <linearGradient
     id="SVGID_15_"
     gradientUnits="userSpaceOnUse"
     x1="-80"
     x2="476.299"
     xlink:href="#lg2"
     y1="269.678"
     y2="269.678" />
  <linearGradient
     id="SVGID_16_"
     gradientUnits="userSpaceOnUse"
     x1="-80"
     x2="476.299"
     xlink:href="#lg3"
     y1="451.199"
     y2="451.199" />
  <linearGradient
     id="SVGID_17_"
     gradientUnits="userSpaceOnUse"
     x1="-80"
     x2="476.299"
     xlink:href="#lg2"
     y1="116.391"
     y2="116.391" />
  <linearGradient
     id="SVGID_18_"
     gradientUnits="userSpaceOnUse"
     x1="-80"
     x2="476.299"
     xlink:href="#lg3"
     y1="66.647"
     y2="66.647" />
  <linearGradient
     id="SVGID_19_"
     gradientUnits="userSpaceOnUse"
     x1="-80"
     x2="476.299"
     xlink:href="#lg3"
     y1="439.991"
     y2="439.991" />
  <linearGradient
     id="SVGID_20_"
     gradientUnits="userSpaceOnUse"
     x1="-80"
     x2="476.299"
     xlink:href="#lg3"
     y1="390.445"
     y2="390.445" />
  <path
     d="m 421.412,109.947 c -7.245,0 -13.798,2.96 -18.521,7.734 L 323.005,75.285 c 1.031,-3.356 1.589,-6.919 1.589,-10.614 0,-19.927 -16.154,-36.081 -36.081,-36.081 -19.927,0 -36.081,16.154 -36.081,36.081 0,12.94 6.816,24.283 17.05,30.651 l -30.395,96.44 c -2.254,-0.329 -4.557,-0.506 -6.902,-0.506 -26.154,0 -47.355,21.202 -47.355,47.355 0,10.76 3.594,20.677 9.64,28.629 L 76.949,390.287 c -5.508,-3.408 -11.999,-5.379 -18.952,-5.379 -19.927,0 -36.081,16.154 -36.081,36.081 0,19.927 16.154,36.081 36.081,36.081 19.927,0 36.081,-16.154 36.081,-36.081 0,-7.547 -2.32,-14.55 -6.282,-20.341 L 205.318,277.6 c 7.635,5.271 16.888,8.366 26.868,8.366 16.618,0 31.226,-8.567 39.677,-21.517 l 70.424,31.294 c -0.135,1.074 -0.212,2.166 -0.212,3.277 0,14.389 11.664,26.053 26.053,26.053 14.389,0 26.053,-11.664 26.053,-26.053 0,-8.855 -4.422,-16.674 -11.174,-21.382 l 37.784,-115.6 c 0.207,0.005 0.412,0.016 0.62,0.016 14.389,0 26.053,-11.664 26.053,-26.053 10e-4,-14.39 -11.663,-26.054 -26.052,-26.054 z m -52.664,163.034 c -0.207,-0.005 -0.412,-0.016 -0.62,-0.016 -7.899,0 -14.971,3.52 -19.749,9.071 l -70.415,-31.29 c 1.024,-3.874 1.576,-7.94 1.576,-12.135 0,-18.527 -10.645,-34.558 -26.147,-42.339 l 30.213,-95.862 c 1.606,0.218 3.242,0.341 4.907,0.341 10.845,0 20.566,-4.792 27.18,-12.366 l 80.163,42.542 c -0.324,1.641 -0.497,3.336 -0.497,5.072 0,8.856 4.422,16.674 11.174,21.382 z"
     fill="url(#SVGID_2_)"
     id="path73"
     style="fill:url(#SVGID_2_)" />
  <path
     d="m 73.623,428.488 c -1.862,0 -3.727,-0.688 -5.179,-2.076 -2.996,-2.861 -3.104,-7.608 -0.244,-10.604 L 241.185,234.691 295.48,62.416 c 0.67,-2.124 2.249,-3.841 4.311,-4.686 2.062,-0.844 4.392,-0.728 6.358,0.315 l 134.405,71.329 c 3.222,1.71 4.746,5.488 3.613,8.955 l -53.283,163.019 c -0.659,2.018 -2.143,3.661 -4.082,4.523 -1.939,0.861 -4.153,0.861 -6.093,0 L 249.59,247.606 79.047,426.168 c -1.473,1.543 -3.447,2.32 -5.424,2.32 z M 256.979,234.477 379.208,288.791 427.95,139.667 307.078,75.521 Z"
     fill="url(#SVGID_4_)"
     id="path77"
     style="fill:url(#SVGID_4_)" />
  <g
     id="g87">
    <path
       d="m 299.79,57.73 c -2.06,0.85 -3.64,2.56 -4.31,4.69 l -11.96,37.94 c 1.73,0.26 3.51,0.39 5.31,0.39 3.77,0 7.41,-0.58 10.82,-1.65 l 7.43,-23.58 13.13,6.97 c 2.48,-4.36 4.08,-9.3 4.55,-14.56 l -18.61,-9.88 c -1.97,-1.05 -4.3,-1.16 -6.36,-0.32 z"
       fill="url(#SVGID_5_)"
       id="path79"
       style="fill:url(#SVGID_5_)" />
    <path
       d="m 266.17,205.32 c -3.7,-3.75 -8.03,-6.89 -12.82,-9.23 l -12.17,38.6 -38.72,40.54 c 3.97,3.25 8.47,5.88 13.37,7.72 l 33.76,-35.34 25.66,11.4 c 2.15,-4.5 3.61,-9.38 4.25,-14.52 l -22.52,-10.01 z"
       fill="url(#SVGID_6_)"
       id="path81"
       style="fill:url(#SVGID_6_)" />
    <path
       d="m 382.94,277.38 -3.73,11.41 -25.43,-11.3 c -4.33,2.95 -7.72,7.17 -9.64,12.13 l 36.57,16.25 c 1.94,0.86 4.15,0.86 6.09,0 1.94,-0.86 3.43,-2.5 4.08,-4.52 l 2.84,-8.68 c -1.59,-6.34 -5.5,-11.76 -10.78,-15.29 z"
       fill="url(#SVGID_7_)"
       id="path83"
       style="fill:url(#SVGID_7_)" />
    <path
       d="m 440.55,129.38 -30.96,-16.43 c -4.72,2.48 -8.58,6.38 -11.03,11.12 l 29.39,15.6 -7.31,22.36 c 0.36,0.01 0.72,0.02 1.09,0.02 6.33,0 12.15,-2.26 16.66,-6.02 l 5.78,-17.7 c 1.13,-3.47 -0.39,-7.25 -3.62,-8.95 z"
       fill="url(#SVGID_8_)"
       id="path85"
       style="fill:url(#SVGID_8_)" />
  </g>
  <circle
     cx="247.813"
     cy="238.61099"
     fill="url(#SVGID_9_)"
     r="47.355"
     id="circle89"
     style="fill:url(#SVGID_9_)" />
  <circle
     cx="73.624001"
     cy="420.98801"
     fill="url(#SVGID_10_)"
     r="36.081001"
     id="circle91"
     style="fill:url(#SVGID_10_)" />
  <circle
     cx="304.14001"
     cy="64.670998"
     fill="url(#SVGID_11_)"
     r="36.081001"
     id="circle93"
     style="fill:url(#SVGID_11_)" />
  <circle
     cx="383.755"
     cy="299.01901"
     fill="url(#SVGID_12_)"
     r="26.052999"
     id="circle95"
     style="fill:url(#SVGID_12_)" />
  <circle
     cx="437.039"
     cy="136"
     fill="url(#SVGID_13_)"
     r="26.052999"
     id="circle97"
     style="fill:url(#SVGID_13_)" />
  <g
     id="g113">
    <path
       d="m 57.465,69.068 c -2.094,-3.547 -5.056,-6.52 -8.596,-8.625 -1.245,-0.741 -1.245,-2.543 0,-3.284 3.54,-2.106 6.502,-5.078 8.596,-8.625 0.741,-1.255 2.553,-1.255 3.294,0 2.094,3.547 5.056,6.52 8.596,8.625 1.245,0.741 1.245,2.543 0,3.284 -3.54,2.106 -6.502,5.078 -8.596,8.625 -0.741,1.255 -2.553,1.255 -3.294,0 z"
       fill="url(#SVGID_14_)"
       id="path99"
       style="fill:url(#SVGID_14_)" />
    <path
       d="m 85.057,279.945 c -2.094,-3.547 -5.056,-6.52 -8.596,-8.625 -1.245,-0.741 -1.245,-2.543 0,-3.284 3.539,-2.106 6.502,-5.078 8.596,-8.625 0.741,-1.255 2.553,-1.255 3.294,0 2.094,3.547 5.056,6.52 8.596,8.625 1.245,0.741 1.245,2.543 0,3.284 -3.54,2.106 -6.502,5.078 -8.596,8.625 -0.741,1.255 -2.553,1.255 -3.294,0 z"
       fill="url(#SVGID_15_)"
       id="path101"
       style="fill:url(#SVGID_15_)" />
    <path
       d="m 194.676,461.466 c -2.094,-3.547 -5.056,-6.52 -8.596,-8.625 -1.245,-0.741 -1.245,-2.543 0,-3.284 3.54,-2.106 6.502,-5.078 8.596,-8.625 0.741,-1.255 2.553,-1.255 3.294,0 2.094,3.547 5.056,6.52 8.596,8.625 1.245,0.741 1.245,2.543 0,3.284 -3.54,2.106 -6.502,5.078 -8.596,8.625 -0.741,1.255 -2.553,1.255 -3.294,0 z"
       fill="url(#SVGID_16_)"
       id="path103"
       style="fill:url(#SVGID_16_)" />
    <path
       d="m 139.924,133.845 c -3.56,-6.03 -8.596,-11.083 -14.613,-14.663 -2.116,-1.259 -2.116,-4.323 0,-5.582 6.017,-3.579 11.053,-8.632 14.613,-14.663 1.259,-2.133 4.34,-2.133 5.599,0 3.56,6.03 8.596,11.083 14.613,14.663 2.116,1.259 2.116,4.323 0,5.582 -6.017,3.58 -11.053,8.633 -14.613,14.663 -1.259,2.134 -4.34,2.134 -5.599,0 z"
       fill="url(#SVGID_17_)"
       id="path105"
       style="fill:url(#SVGID_17_)" />
    <path
       d="m 440.266,84.1 c -3.56,-6.03 -8.596,-11.083 -14.613,-14.663 -2.116,-1.259 -2.116,-4.323 0,-5.582 6.017,-3.579 11.053,-8.632 14.613,-14.663 1.259,-2.133 4.34,-2.133 5.599,0 3.56,6.03 8.596,11.083 14.613,14.663 2.116,1.259 2.116,4.323 0,5.582 -6.017,3.58 -11.053,8.633 -14.613,14.663 -1.259,2.134 -4.34,2.134 -5.599,0 z"
       fill="url(#SVGID_18_)"
       id="path107"
       style="fill:url(#SVGID_18_)" />
    <path
       d="m 421.266,457.445 c -3.56,-6.03 -8.596,-11.083 -14.613,-14.663 -2.116,-1.259 -2.116,-4.323 0,-5.582 6.017,-3.579 11.053,-8.632 14.613,-14.663 1.259,-2.133 4.34,-2.133 5.599,0 3.56,6.03 8.596,11.083 14.613,14.663 2.116,1.259 2.116,4.323 0,5.582 -6.017,3.579 -11.053,8.633 -14.613,14.663 -1.259,2.133 -4.34,2.133 -5.599,0 z"
       fill="url(#SVGID_19_)"
       id="path109"
       style="fill:url(#SVGID_19_)" />
    <path
       d="m 324.67,418.941 c -5.811,-9.845 -14.033,-18.095 -23.857,-23.939 -3.455,-2.056 -3.455,-7.058 0,-9.114 9.824,-5.844 18.045,-14.094 23.857,-23.939 2.056,-3.483 7.086,-3.483 9.142,0 5.811,9.845 14.033,18.095 23.857,23.939 3.455,2.056 3.455,7.058 0,9.114 -9.824,5.844 -18.046,14.094 -23.857,23.939 -2.057,3.483 -7.087,3.483 -9.142,0 z"
       fill="url(#SVGID_20_)"
       id="path111"
       style="fill:url(#SVGID_20_)" />
  </g>
</svg>
