<svg id="Capa_1" enable-background="new 0 0 510 510" height="512" viewBox="0 0 510 510" width="512" xmlns="http://www.w3.org/2000/svg" xmlns:xlink="http://www.w3.org/1999/xlink"><linearGradient id="lg1"><stop offset="0" stop-color="#814aa0"/><stop offset="1" stop-color="#192a7d"/></linearGradient><linearGradient id="SVGID_1_" gradientUnits="userSpaceOnUse" x1="-55.394" x2="490.653" xlink:href="#lg1" y1="346.02" y2="346.02"/><linearGradient id="SVGID_2_" gradientUnits="userSpaceOnUse" x1="-55.394" x2="490.653" xlink:href="#lg1" y1="409.757" y2="409.757"/><linearGradient id="SVGID_3_" gradientUnits="userSpaceOnUse" x1="-55.394" x2="490.653" xlink:href="#lg1" y1="217.949" y2="217.949"/><linearGradient id="SVGID_4_" gradientUnits="userSpaceOnUse" x1="-55.394" x2="490.653" xlink:href="#lg1" y1="283.56" y2="283.56"/><linearGradient id="SVGID_5_" gradientUnits="userSpaceOnUse" x1="-55.394" x2="490.653" xlink:href="#lg1" y1="411.945" y2="411.945"/><linearGradient id="SVGID_6_" gradientUnits="userSpaceOnUse" x1="-55.394" x2="490.653" xlink:href="#lg1" y1="138.657" y2="138.657"/><linearGradient id="SVGID_7_" gradientUnits="userSpaceOnUse" x1="-55.394" x2="490.653" xlink:href="#lg1" y1="69.037" y2="69.037"/><linearGradient id="lg2"><stop offset="0" stop-color="#eaf6ff"/><stop offset=".5213" stop-color="#d8ecfe"/><stop offset="1" stop-color="#b3dafe"/></linearGradient><linearGradient id="SVGID_8_" gradientUnits="userSpaceOnUse" x1="438.716" x2="546.07" xlink:href="#lg2" y1="51.877" y2="51.877"/><linearGradient id="SVGID_9_" gradientUnits="userSpaceOnUse" x1="7.102" x2="103.143" xlink:href="#lg2" y1="94.304" y2="94.304"/><linearGradient id="lg3"><stop offset="0" stop-color="#fef056"/><stop offset=".5213" stop-color="#f4d902"/><stop offset="1" stop-color="#fe9738"/></linearGradient><linearGradient id="SVGID_10_" gradientUnits="userSpaceOnUse" x1="357.989" x2="481.552" xlink:href="#lg3" y1="90.23" y2="90.23"/><linearGradient id="SVGID_11_" gradientUnits="userSpaceOnUse" x1="351.168" x2="468.17" xlink:href="#lg3" y1="90.23" y2="90.23"/><linearGradient id="SVGID_12_" gradientUnits="userSpaceOnUse" x1="351.168" x2="468.17" xlink:href="#lg3" y1="88.877" y2="88.877"/><linearGradient id="SVGID_13_" gradientUnits="userSpaceOnUse" x1="351.168" x2="468.17" xlink:href="#lg3" y1="62.737" y2="62.737"/><linearGradient id="SVGID_14_" gradientUnits="userSpaceOnUse" x1="-33.039" x2="132.397" y1="144.744" y2="144.744"><stop offset="0" stop-color="#60b7ff"/><stop offset=".5857" stop-color="#0182fc"/><stop offset="1" stop-color="#2740b0"/></linearGradient><linearGradient id="SVGID_15_" gradientUnits="userSpaceOnUse" x1="391" x2="494.586" y1="398.377" y2="398.377"><stop offset="0" stop-color="#feca9c"/><stop offset=".5213" stop-color="#fd8087"/><stop offset="1" stop-color="#f46700"/></linearGradient><linearGradient id="SVGID_16_" gradientUnits="userSpaceOnUse" x1="104.511" x2="195.065" y1="394.071" y2="394.071"><stop offset="0" stop-color="#fd8087"/><stop offset=".5213" stop-color="#fb2b3a"/><stop offset="1" stop-color="#d90d80"/></linearGradient><linearGradient id="SVGID_17_" gradientUnits="userSpaceOnUse" x1="181.53" x2="262.832" y1="75.807" y2="75.807"><stop offset="0" stop-color="#a2e62e"/><stop offset=".5857" stop-color="#81b823"/><stop offset="1" stop-color="#037e73"/></linearGradient><linearGradient id="SVGID_18_" gradientUnits="userSpaceOnUse" x1="6.145" x2="136.196" xlink:href="#lg2" y1="459.894" y2="459.894"/><linearGradient id="lg4"><stop offset="0" stop-color="#fbc56d"/><stop offset=".5841" stop-color="#fe9738"/><stop offset=".9984" stop-color="#fb2b3a"/></linearGradient><linearGradient id="SVGID_19_" gradientUnits="userSpaceOnUse" x1="111.992" x2="414.121" xlink:href="#lg4" y1="255" y2="255"/><linearGradient id="SVGID_20_" gradientUnits="userSpaceOnUse" x1="154.654" x2="355.346" xlink:href="#lg3" y1="255" y2="255"/><linearGradient id="SVGID_21_" gradientUnits="userSpaceOnUse" x1="105" x2="321.113" xlink:href="#lg3" y1="255" y2="255"/><linearGradient id="SVGID_22_" gradientUnits="userSpaceOnUse" x1="96" x2="391.169" xlink:href="#lg4" y1="255" y2="255"/><g><g><path d="m65.461 255c0 104.512 85.027 189.539 189.539 189.539 4.143 0 7.5-3.358 7.5-7.5s-3.357-7.5-7.5-7.5c-96.241 0-174.539-78.298-174.539-174.539 0-4.142-3.358-7.5-7.5-7.5s-7.5 3.358-7.5 7.5z" fill="url(#SVGID_1_)"/><path d="m365.179 390.375c-13.225 10.778-27.894 19.531-43.599 26.018-3.828 1.582-5.65 5.967-4.068 9.795 1.194 2.892 3.988 4.639 6.935 4.639.954 0 1.924-.183 2.86-.57 17.058-7.045 32.988-16.551 47.349-28.254 3.211-2.617 3.692-7.341 1.075-10.552s-7.341-3.694-10.552-1.076z" fill="url(#SVGID_2_)"/><path d="m397.151 368.973c1.34.988 2.899 1.464 4.445 1.464 2.301 0 4.571-1.055 6.042-3.049 24.141-32.734 36.9-71.598 36.9-112.388 0-104.512-85.026-189.539-189.539-189.539-31.553 0-62.795 7.912-90.351 22.881-3.64 1.977-4.987 6.531-3.01 10.17s6.53 4.987 10.17 3.01c25.366-13.778 54.132-21.061 83.192-21.061 96.241 0 174.539 78.298 174.539 174.539 0 37.563-11.747 73.348-33.973 103.485-2.458 3.334-1.749 8.029 1.585 10.488z" fill="url(#SVGID_3_)"/><path d="m133.221 444.451c-64.75-41.711-103.408-112.534-103.408-189.451 0-48.755 15.323-95.148 44.312-134.164 2.471-3.325 1.778-8.023-1.547-10.493-3.325-2.469-8.023-1.778-10.493 1.547-30.925 41.622-47.272 91.109-47.272 143.11 0 82.04 41.228 157.577 110.285 202.061 1.256.809 2.663 1.196 4.055 1.196 2.464 0 4.878-1.214 6.312-3.439 2.243-3.483 1.239-8.124-2.244-10.367z" fill="url(#SVGID_4_)"/><path d="m475.742 329.178c-3.884-1.445-8.201.528-9.646 4.411-15.865 42.598-43.958 79.047-81.24 105.409-38.108 26.946-83.012 41.189-129.855 41.189-26.875 0-53.164-4.684-78.133-13.922-3.885-1.436-8.199.548-9.637 4.432-1.437 3.885.547 8.199 4.432 9.637 26.642 9.856 54.681 14.854 83.338 14.854 49.962 0 97.86-15.195 138.516-43.941 39.756-28.11 69.714-66.985 86.637-112.421 1.444-3.884-.531-8.202-4.412-9.648z" fill="url(#SVGID_5_)"/><path d="m424.837 85.163c-45.365-45.366-105.681-70.35-169.837-70.35-35.699 0-70.058 7.647-102.121 22.73-3.748 1.763-5.357 6.231-3.594 9.979 1.763 3.749 6.233 5.357 9.979 3.594 30.05-14.135 62.261-21.303 95.736-21.303 60.149 0 116.698 23.423 159.23 65.956s65.957 99.082 65.957 159.231c0 4.142 3.357 7.5 7.5 7.5s7.5-3.358 7.5-7.5c0-64.156-24.984-124.472-70.35-169.837z" fill="url(#SVGID_6_)"/><path d="m104.206 85.285c1.72 0 3.448-.588 4.86-1.791 2.799-2.385 5.701-4.736 8.625-6.988 4.516-3.479 9.218-6.826 13.975-9.945 3.464-2.271 4.43-6.92 2.159-10.384s-6.922-4.43-10.384-2.159c-5.074 3.327-10.088 6.896-14.904 10.606-3.117 2.402-6.211 4.909-9.196 7.452-3.153 2.686-3.532 7.419-.846 10.573 1.481 1.741 3.589 2.636 5.711 2.636z" fill="url(#SVGID_7_)"/></g><circle cx="480.867" cy="51.877" fill="url(#SVGID_8_)" r="29.133"/><circle cx="44.811" cy="94.304" fill="url(#SVGID_9_)" r="26.063"/><g><circle cx="419.77" cy="90.23" fill="url(#SVGID_10_)" r="61.781"/><g><path d="m419.77 28.448c-3.785 0-7.484.359-11.081 1.01 28.83 5.224 50.7 30.435 50.7 60.771 0 9.88-2.332 19.209-6.456 27.488-2.09-9.411-10.753-16.348-20.926-15.733-9.886.598-18.022 8.54-18.836 18.411-.427 5.186 1.11 10.002 3.948 13.788 4.506 6.01 1.344 14.686-5.987 16.324-.808.181-1.623.345-2.443.494 3.597.652 7.296 1.01 11.081 1.01 34.121 0 61.781-27.661 61.781-61.781s-27.66-61.782-61.781-61.782z" fill="url(#SVGID_11_)"/><circle cx="388.53" cy="88.877" fill="url(#SVGID_12_)" r="13.07"/><circle cx="428.337" cy="62.737" fill="url(#SVGID_13_)" r="13.07"/></g></g><circle cx="50.44" cy="144.744" fill="url(#SVGID_14_)" r="50.44"/><circle cx="437.039" cy="398.377" fill="url(#SVGID_15_)" r="36.081"/><circle cx="142.75" cy="394.071" fill="url(#SVGID_16_)" r="36.081"/><circle cx="220.768" cy="75.807" fill="url(#SVGID_17_)" r="26.053"/><circle cx="57.208" cy="459.895" fill="url(#SVGID_18_)" r="35.292"/><g><g><path d="m393.634 263.754-.043.028c-10.455 6.733-12.947 21.121-5.381 31.066l.007.01c4.584 6.025 1.421 14.839-5.908 16.466l-.014.003c-12.097 2.685-19.306 15.331-15.565 27.305l.013.043c2.264 7.247-3.674 14.42-11.103 13.411l-.024-.003c-12.282-1.668-23.321 7.733-23.825 20.292v.008c-.305 7.6-8.305 12.292-14.951 8.769l-.041-.022c-10.968-5.815-24.492-.823-29.209 10.783l-.018.045c-2.858 7.032-11.96 8.653-17.01 3.031-8.349-9.296-22.771-9.296-31.12 0-5.05 5.623-14.151 4.001-17.01-3.031l-.019-.046c-4.718-11.605-18.241-16.597-29.209-10.783l-.042.022c-6.646 3.523-14.646-1.169-14.951-8.769v-.009c-.504-12.559-11.542-21.96-23.825-20.292l-.024.003c-7.429 1.009-13.367-6.164-11.103-13.411l.013-.043c3.741-11.974-3.468-24.62-15.565-27.305l-.014-.003c-7.329-1.627-10.492-10.441-5.908-16.466l.007-.009c7.566-9.945 5.074-24.333-5.381-31.066l-.043-.028c-6.325-4.073-6.325-13.435 0-17.508l.043-.028c10.455-6.733 12.947-21.121 5.381-31.066l-.007-.01c-4.584-6.025-1.421-14.839 5.908-16.466l.014-.003c12.097-2.685 19.306-15.331 15.565-27.305l-.013-.043c-2.264-7.247 3.674-14.42 11.103-13.411l.024.003c12.282 1.668 23.321-7.733 23.825-20.292v-.008c.305-7.6 8.305-12.292 14.951-8.769l.041.022c10.968 5.815 24.492.823 29.209-10.783l.018-.045c2.858-7.032 11.96-8.653 17.01-3.031 8.349 9.296 22.771 9.296 31.12 0 5.05-5.623 14.151-4.001 17.01 3.031l.019.046c4.718 11.605 18.241 16.597 29.209 10.783l.042-.022c6.646-3.523 14.646 1.169 14.951 8.769v.009c.504 12.559 11.542 21.96 23.825 20.292l.024-.003c7.429-1.009 13.367 6.164 11.103 13.411l-.013.043c-3.741 11.974 3.468 24.62 15.565 27.305l.014.003c7.329 1.627 10.492 10.441 5.908 16.466l-.007.009c-7.566 9.945-5.074 24.333 5.381 31.066l.043.028c6.324 4.073 6.324 13.435 0 17.508z" fill="url(#SVGID_19_)"/><circle cx="255" cy="255" fill="url(#SVGID_20_)" r="100.346"/></g><path d="m255 154.654c-6.852 0-13.544.689-20.01 1.998 45.832 9.275 80.336 49.781 80.336 98.348s-34.504 89.073-80.336 98.348c6.466 1.309 13.158 1.998 20.01 1.998 55.419 0 100.346-44.926 100.346-100.346s-44.927-100.346-100.346-100.346z" fill="url(#SVGID_21_)"/><path d="m393.634 246.246-.043-.028c-10.455-6.733-12.947-21.122-5.381-31.066l.007-.009c4.584-6.025 1.421-14.839-5.908-16.466l-.014-.003c-12.098-2.685-19.306-15.332-15.565-27.305l.013-.043c2.264-7.247-3.674-14.42-11.103-13.411l-.024.003c-12.282 1.668-23.321-7.734-23.825-20.292v-.009c-.305-7.6-8.305-12.292-14.951-8.769l-.042.022c-4.061 2.153-8.472 2.821-12.657 2.224 1.528 1.703 2.535 3.938 2.639 6.523v.009c.504 12.559 11.542 21.96 23.825 20.292l.024-.003c7.429-1.009 13.367 6.164 11.103 13.411l-.013.043c-3.741 11.974 3.468 24.62 15.565 27.305l.014.003c7.329 1.627 10.492 10.441 5.908 16.466l-.007.009c-7.566 9.945-5.074 24.333 5.381 31.066l.043.028c6.325 4.073 6.325 13.435 0 17.509l-.043.028c-10.455 6.733-12.947 21.121-5.381 31.066l.007.01c4.584 6.025 1.421 14.839-5.908 16.466l-.014.003c-12.097 2.685-19.306 15.331-15.565 27.305l.013.043c2.264 7.247-3.674 14.42-11.103 13.411l-.024-.003c-12.282-1.668-23.321 7.733-23.825 20.292v.008c-.104 2.585-1.111 4.82-2.639 6.523 4.185-.597 8.596.071 12.657 2.224l.041.022c6.646 3.523 14.646-1.169 14.951-8.769v-.008c.504-12.559 11.542-21.96 23.825-20.292l.024.003c7.429 1.009 13.367-6.164 11.103-13.411l-.014-.043c-3.741-11.974 3.468-24.62 15.565-27.305l.014-.003c7.329-1.627 10.492-10.441 5.908-16.466l-.007-.01c-7.566-9.945-5.074-24.333 5.381-31.066l.043-.028c6.326-4.074 6.326-13.436.002-17.509z" fill="url(#SVGID_22_)"/></g></g></svg>