<svg id="Capa_1" enable-background="new 0 0 510 510" height="512" viewBox="0 0 510 510" width="512" xmlns="http://www.w3.org/2000/svg" xmlns:xlink="http://www.w3.org/1999/xlink"><linearGradient id="lg1"><stop offset="0" stop-color="#814aa0"/><stop offset="1" stop-color="#192a7d"/></linearGradient><linearGradient id="SVGID_1_" gradientUnits="userSpaceOnUse" x1="-2.606" x2="653.627" xlink:href="#lg1" y1="254.984" y2="254.984"/><linearGradient id="SVGID_2_" gradientUnits="userSpaceOnUse" x1="93.183" x2="511.786" xlink:href="#lg1" y1="254.984" y2="254.984"/><linearGradient id="lg2"><stop offset="0" stop-color="#feca9c"/><stop offset=".5213" stop-color="#fd8087"/><stop offset="1" stop-color="#f46700"/></linearGradient><linearGradient id="SVGID_3_" gradientUnits="userSpaceOnUse" x1="-141.941" x2="510.865" xlink:href="#lg2" y1="359.683" y2="359.683"/><linearGradient id="SVGID_4_" gradientUnits="userSpaceOnUse" x1="-141.941" x2="510.865" xlink:href="#lg2" y1="45.428" y2="45.428"/><linearGradient id="SVGID_5_" gradientUnits="userSpaceOnUse" x1="-141.941" x2="510.865" xlink:href="#lg2" y1="105.655" y2="105.655"/><linearGradient id="SVGID_6_" gradientUnits="userSpaceOnUse" x1="-141.941" x2="510.865" xlink:href="#lg2" y1="493.772" y2="493.772"/><linearGradient id="SVGID_7_" gradientUnits="userSpaceOnUse" x1="-141.941" x2="510.865" xlink:href="#lg2" y1="443.316" y2="443.316"/><linearGradient id="SVGID_8_" gradientUnits="userSpaceOnUse" x1="71.28" x2="392.504" xlink:href="#lg1" y1="227.438" y2="227.438"/><linearGradient id="SVGID_9_" gradientUnits="userSpaceOnUse" x1="-125.796" x2="451.646" xlink:href="#lg1" y1="232.235" y2="232.235"/><linearGradient id="SVGID_10_" gradientUnits="userSpaceOnUse" x1="-91.609" x2="454.784" xlink:href="#lg1" y1="232.235" y2="232.235"/><linearGradient id="lg3"><stop offset="0" stop-color="#60b7ff"/><stop offset=".5857" stop-color="#0182fc"/><stop offset="1" stop-color="#2740b0"/></linearGradient><linearGradient id="SVGID_11_" gradientTransform="matrix(.964 -.265 .265 .964 101.509 198.604)" gradientUnits="userSpaceOnUse" x1="-12.478" x2="278.617" xlink:href="#lg3" y1="95.03" y2="95.03"/><linearGradient id="SVGID_12_" gradientUnits="userSpaceOnUse" x1="19.266" x2="304.157" xlink:href="#lg3" y1="363.052" y2="363.052"/><linearGradient id="SVGID_13_" gradientUnits="userSpaceOnUse" x1="19.266" x2="304.157" xlink:href="#lg3" y1="242.729" y2="242.729"/><linearGradient id="lg4"><stop offset="0" stop-color="#eaf6ff"/><stop offset=".5213" stop-color="#d8ecfe"/><stop offset="1" stop-color="#b3dafe"/></linearGradient><linearGradient id="SVGID_14_" gradientUnits="userSpaceOnUse" x1="181.416" x2="328.583" xlink:href="#lg4" y1="254.984" y2="254.984"/><linearGradient id="SVGID_15_" gradientUnits="userSpaceOnUse" x1="121.484" x2="313.509" xlink:href="#lg4" y1="254.984" y2="254.984"/><linearGradient id="SVGID_16_" gradientUnits="userSpaceOnUse" x1="121.484" x2="313.509" xlink:href="#lg4" y1="253.372" y2="253.372"/><linearGradient id="SVGID_17_" gradientUnits="userSpaceOnUse" x1="121.484" x2="313.509" xlink:href="#lg4" y1="222.239" y2="222.239"/><g><path d="m505.974 268.857c-5.056-5.173-13.346-5.182-18.416-.066-57.315 57.859-132.965 107.536-213.01 139.88-87.997 35.554-170.66 39.612-215.728 10.589-.077-.049-.154-.099-.23-.149-4.357-2.825-1.178-9.543 3.799-8.06 59.006 17.575 152.241 5.382 246.403-37.247 119.424-54.066 201.082-139.315 201.156-203.795.007-5.939.01-11.878.05-17.817.011-1.591-.017-3.171-.083-4.741-1.421-33.391-16.895-60.522-44.749-78.459-25.736-16.572-61.378-24.581-103.019-23.163-41.693 1.419-88.849 12.318-136.371 31.521-83.075 33.566-161.669 85.166-221.359 145.32-5.026 5.065-5.38 13.339-.392 18.441 5.057 5.173 13.346 5.182 18.416.066 57.315-57.859 132.965-107.537 213.01-139.88 87.996-35.555 170.659-39.613 215.728-10.589.077.05.154.099.231.149 4.357 2.825 1.178 9.543-3.799 8.06-59.006-17.575-152.241-5.382-246.403 37.247-119.424 54.066-201.081 139.315-201.155 203.795-.007 5.938-.01 11.876-.05 17.814-.011 1.592.017 3.173.084 4.743 1.421 33.391 16.895 60.522 44.749 78.459 23.636 15.221 55.612 23.219 92.948 23.323 3.316.009 6.674-.044 10.07-.16 41.693-1.419 88.849-12.319 136.371-31.521 83.075-33.566 161.669-85.165 221.359-145.319 5.025-5.064 5.379-13.338.39-18.441z" fill="url(#SVGID_1_)"/><path d="m451.025 165.579c21.633 47.43-48.594 125.908-156.855 175.285s-213.562 50.956-235.195 3.525 48.594-125.908 156.855-175.285 213.562-50.955 235.195-3.525z" fill="url(#SVGID_2_)"/><g><path d="m491.882 338.174c-2.643-3.184-7.368-3.622-10.549-.979-13.713 11.383-28.466 22.496-43.85 33.03-3.414 2.338-4.286 7-1.949 10.414 1.451 2.12 3.799 3.26 6.188 3.26 1.458 0 2.932-.425 4.226-1.311 15.763-10.794 30.888-22.188 44.954-33.865 3.184-2.642 3.622-7.366.98-10.549z" fill="url(#SVGID_3_)"/><path d="m490.93 23.195c.781-4.063-1.879-7.99-5.942-8.772-42.353-8.148-93.003-7.793-146.468 1.033-55.786 9.208-112.581 26.881-168.81 52.526-3.764 1.718-5.424 6.161-3.707 9.925 1.257 2.757 3.976 4.385 6.82 4.385 1.04 0 2.097-.218 3.104-.677 54.251-24.744 111.318-42.51 165.032-51.376 51.738-8.541 100.564-8.921 141.198-1.102 4.062.778 7.99-1.879 8.773-5.942z" fill="url(#SVGID_4_)"/><path d="m126.307 89.528c-11.404 6.142-22.691 12.625-33.549 19.269-3.529 2.16-4.639 6.772-2.479 10.301 1.412 2.309 3.875 3.582 6.397 3.582 1.333 0 2.683-.356 3.903-1.102 10.624-6.501 21.67-12.846 32.832-18.858 3.643-1.963 5.006-6.505 3.043-10.149-1.962-3.643-6.506-5.003-10.147-3.043z" fill="url(#SVGID_5_)"/><path d="m107.944 486.113c-9.081.362-18.095.436-26.787.218-.064-.001-.128-.002-.191-.002-4.05 0-7.384 3.232-7.486 7.304-.104 4.136 3.165 7.573 7.301 7.677 3.381.084 6.807.127 10.265.127 5.764 0 11.618-.118 17.495-.352 4.134-.165 7.352-3.65 7.187-7.784-.165-4.136-3.663-7.355-7.784-7.188z" fill="url(#SVGID_6_)"/><path d="m403.513 391.965c-22.074 13.198-45.437 25.441-69.441 36.389-56.67 25.847-116.134 43.992-171.964 52.475-4.091.621-6.903 4.441-6.281 8.532.564 3.709 3.757 6.367 7.397 6.367.374 0 .754-.028 1.134-.086 57.182-8.688 118.017-27.242 175.931-53.655 24.507-11.177 48.364-23.68 70.912-37.161 3.552-2.124 4.709-6.724 2.586-10.275-2.123-3.55-6.724-4.707-10.274-2.586z" fill="url(#SVGID_7_)"/></g><g><path d="m287.983 325.185c-24.313 9.899-54.838 16.661-81.668 18.07-22.694 1.189-29.776-24.302-1.358-25.801 24.103-1.259 51.502-7.312 73.287-16.192 67.344-27.429 122.691-84.764 120.853-125.199-.479-10.538-5.654-18.819-15.822-25.331-14.466-9.259-36.93-13.582-62.965-13.191-7.275.109-13.259-5.69-13.259-12.966 0-7.112 5.732-12.886 12.844-12.975 31.18-.394 58.509 5.348 77.304 17.377 17.261 11.047 26.84 26.93 27.699 45.918 2.367 52.041-57.775 118.056-136.915 150.29z" fill="url(#SVGID_8_)"/><path d="m509.914 147.451c-1.421-33.391-16.895-60.522-44.749-78.459-25.735-16.572-61.377-24.581-103.018-23.163-3.29.112-6.625.304-9.98.534 29.665 2.238 55.265 9.907 75.021 22.63 9.834 6.332 18.116 13.815 24.79 22.31.478.417.836.885 1.077 1.389 11.556 15.303 17.99 33.797 18.882 54.76.083 1.96.106 3.937.068 5.929-.103 5.477-.043 10.957-.035 16.435.009 6.299-.765 12.798-2.279 19.447-3.024 13.285-8.918 25.731-16.752 36.878-6.928 9.858-15.019 19.775-24.186 29.573-36.788 39.316-86.612 73.008-140.292 94.883-62.449 25.431-133.689 29.147-165.733 8.64-10.169-6.513-15.343-14.793-15.822-25.331-1.838-40.434 53.51-97.77 120.853-125.199 21.785-8.88 49.184-14.933 73.287-16.192 28.408-1.498 21.346-26.99-1.358-25.801-26.83 1.408-57.355 8.171-81.668 18.07-79.141 32.234-139.283 98.249-136.915 150.29.859 18.989 10.438 34.871 27.699 45.918 18.209 11.647 44.42 17.401 74.396 17.401 9.1 0 18.551-.54 28.224-1.596-37.887 12.22-74.429 19.335-107.321 21.388 56.771 3.91 130.434-10.764 204.687-44.38 119.432-54.069 201.093-139.326 201.156-203.808.006-5.917.006-11.833.05-17.75.013-1.609-.014-3.208-.082-4.796z" fill="url(#SVGID_9_)"/></g><path d="m509.914 147.451c-1.421-33.391-16.895-60.522-44.749-78.459-25.735-16.572-61.377-24.581-103.018-23.163-3.29.112-6.625.304-9.98.534 29.665 2.238 55.265 9.907 75.021 22.63 9.834 6.332 18.116 13.815 24.79 22.31.478.417.836.885 1.077 1.389 11.556 15.303 17.99 33.797 18.882 54.76.067 1.569.094 3.15.083 4.741-.04 5.939-.043 11.878-.05 17.817-.074 64.48-81.731 149.729-201.156 203.795-58.607 26.533-116.851 41.268-166.71 44.38 56.771 3.91 130.434-10.764 204.687-44.38 119.424-54.066 201.082-139.315 201.156-203.795.007-5.939.01-11.878.05-17.817.012-1.592-.016-3.172-.083-4.742z" fill="url(#SVGID_10_)"/><path d="m338.974 138.618-8.504 8.543c-12.931 12.991-31.846 17.678-49.522 12.829-16.887-4.632-35.235-4.82-53.334.415-51.325 14.844-81.603 68.658-67.675 120.238.086.317.173.634.262.95 4.943 17.614.105 36.521-12.801 49.486l-8.308 8.347c-5.737 5.74-7.953 14.117-5.803 21.943 4.588 16.699 25.494 22.228 37.737 9.98l8.504-8.543c12.931-12.991 31.846-17.678 49.522-12.829 16.887 4.632 35.235 4.82 53.334-.415 51.325-14.844 81.603-68.658 67.675-120.238-.086-.317-.173-.634-.262-.95-4.943-17.614-.105-36.521 12.801-49.486l8.308-8.347c5.737-5.74 7.953-14.117 5.803-21.943-4.588-16.699-25.493-22.228-37.737-9.98z" fill="url(#SVGID_11_)"/><g><path d="m154.546 362.806-8.504 8.543c-1.095 1.096-2.262 2.043-3.478 2.859 8.451 5.561 20.353 5.252 28.461-2.859l8.504-8.543c6.519-6.549 14.56-10.981 23.195-13.152-17.287-4.257-35.573.49-48.178 13.152z" fill="url(#SVGID_12_)"/><path d="m376.711 148.598c-4.178-15.205-21.882-21.143-34.259-12.839 4.311 2.837 7.727 7.197 9.277 12.838 2.15 7.826-.065 16.203-5.803 21.943l-8.308 8.347c-12.906 12.966-17.744 31.872-12.801 49.486.089.316.176.633.262.95 13.928 51.581-16.351 105.394-67.675 120.238-4.982 1.441-9.982 2.456-14.965 3.096 12.989 1.678 26.536.783 39.948-3.096 51.324-14.844 81.603-68.658 67.675-120.238-.086-.317-.173-.634-.261-.95-4.943-17.614-.105-36.521 12.801-49.486l8.308-8.347c5.736-5.739 7.952-14.117 5.801-21.942z" fill="url(#SVGID_13_)"/></g><g><circle cx="255" cy="254.984" fill="url(#SVGID_14_)" r="73.584"/><g><path d="m255 181.4c-4.508 0-8.914.427-13.198 1.204 34.337 6.222 60.386 36.249 60.386 72.38 0 11.767-2.777 22.878-7.689 32.739-2.49-11.209-12.807-19.47-24.924-18.738-11.775.712-21.465 10.171-22.434 21.928-.509 6.176 1.322 11.913 4.702 16.422 5.367 7.158 1.601 17.491-7.131 19.442-.963.215-1.933.411-2.91.588 4.284.776 8.69 1.203 13.198 1.203 40.639 0 73.583-32.944 73.583-73.584s-32.944-73.584-73.583-73.584z" fill="url(#SVGID_15_)"/><circle cx="217.792" cy="253.372" fill="url(#SVGID_16_)" r="15.567"/><circle cx="265.203" cy="222.239" fill="url(#SVGID_17_)" r="15.567"/></g></g></g></svg>