<svg id="Capa_1" enable-background="new 0 0 510 510" height="512" viewBox="0 0 510 510" width="512" xmlns="http://www.w3.org/2000/svg" xmlns:xlink="http://www.w3.org/1999/xlink"><linearGradient id="lg1"><stop offset="0" stop-color="#fbc56d"/><stop offset=".5841" stop-color="#fe9738"/><stop offset=".9984" stop-color="#fb2b3a"/></linearGradient><linearGradient id="SVGID_1_" gradientUnits="userSpaceOnUse" x1=".59" x2="483.701" xlink:href="#lg1" y1="229.264" y2="229.264"/><linearGradient id="SVGID_2_" gradientUnits="userSpaceOnUse" x1="-138" x2="462.004" xlink:href="#lg1" y1="242.083" y2="242.083"/><linearGradient id="lg2"><stop offset="0" stop-color="#fef056"/><stop offset=".5213" stop-color="#f4d902"/><stop offset="1" stop-color="#fe9738"/></linearGradient><linearGradient id="SVGID_3_" gradientUnits="userSpaceOnUse" x1="68.808" x2="389.719" xlink:href="#lg2" y1="229.264" y2="229.264"/><linearGradient id="SVGID_4_" gradientUnits="userSpaceOnUse" x1="-101" x2="364.636" xlink:href="#lg2" y1="249.342" y2="249.342"/><linearGradient id="lg3"><stop offset="0" stop-color="#eaf6ff"/><stop offset=".5213" stop-color="#d8ecfe"/><stop offset="1" stop-color="#b3dafe"/></linearGradient><linearGradient id="SVGID_5_" gradientUnits="userSpaceOnUse" x1="129.086" x2="521.563" xlink:href="#lg3" y1="323.516" y2="323.516"/><linearGradient id="SVGID_6_" gradientUnits="userSpaceOnUse" x1="-179.32" x2="421.492" xlink:href="#lg3" y1="323.516" y2="323.516"/><linearGradient id="SVGID_7_" gradientUnits="userSpaceOnUse" x1="-179.32" x2="421.492" xlink:href="#lg3" y1="224.416" y2="224.416"/><linearGradient id="SVGID_8_" gradientUnits="userSpaceOnUse" x1="-179.32" x2="421.492" xlink:href="#lg3" y1="415.128" y2="415.128"/><linearGradient id="SVGID_9_" gradientUnits="userSpaceOnUse" x1="-179.32" x2="421.492" xlink:href="#lg3" y1="310.731" y2="310.731"/><g><g><path d="m450.942 243.262-.069.045c-16.717 10.767-20.702 33.774-8.604 49.675l.012.015c7.329 9.634 2.272 23.727-9.448 26.329l-.023.005c-19.344 4.294-30.871 24.515-24.889 43.662l.022.069c3.62 11.588-5.876 23.058-17.754 21.444l-.038-.005c-19.64-2.667-37.29 12.366-38.096 32.448l-.001.013c-.488 12.152-13.28 19.655-23.907 14.021l-.066-.035c-17.539-9.298-39.163-1.315-46.707 17.242l-.029.072c-4.571 11.244-19.124 13.837-27.199 4.846-13.35-14.864-36.411-14.864-49.762 0-8.075 8.991-22.628 6.398-27.199-4.846l-.03-.073c-7.544-18.557-29.168-26.539-46.706-17.242l-.067.035c-10.627 5.634-23.42-1.869-23.907-14.021l-.001-.014c-.806-20.082-18.456-35.115-38.096-32.448l-.038.005c-11.879 1.613-21.374-9.857-17.754-21.445l.021-.068c5.982-19.147-5.545-39.368-24.889-43.662l-.022-.005c-11.72-2.602-16.777-16.695-9.447-26.329l.011-.015c12.098-15.902 8.113-38.909-8.604-49.675l-.069-.044c-10.113-6.513-10.113-21.483 0-27.997l.069-.045c16.717-10.767 20.702-33.774 8.604-49.675l-.012-.015c-7.329-9.634-2.272-23.727 9.448-26.329l.023-.005c19.344-4.294 30.871-24.515 24.889-43.662l-.022-.069c-3.62-11.588 5.876-23.058 17.754-21.444l.038.005c19.64 2.667 37.29-12.366 38.096-32.448l.001-.013c.488-12.153 13.28-19.655 23.907-14.021l.066.035c17.539 9.298 39.163 1.315 46.707-17.242l.029-.072c4.571-11.244 19.124-13.837 27.199-4.846 13.35 14.864 36.411 14.864 49.762 0 8.075-8.991 22.628-6.398 27.199 4.846l.03.073c7.544 18.557 29.168 26.539 46.706 17.242l.067-.035c10.627-5.634 23.42 1.869 23.907 14.021l.001.014c.806 20.082 18.456 35.115 38.096 32.448l.038-.005c11.879-1.613 21.374 9.857 17.754 21.445l-.021.068c-5.982 19.147 5.545 39.368 24.889 43.662l.022.005c11.72 2.602 16.777 16.695 9.448 26.329l-.011.015c-12.098 15.902-8.113 38.909 8.604 49.675l.069.044c10.112 6.514 10.112 21.483-.001 27.997z" fill="url(#SVGID_1_)"/><path d="m450.965 215.28-.092-.059c-16.717-10.767-20.702-33.774-8.604-49.675l.011-.015c7.33-9.634 2.272-23.727-9.447-26.329l-.022-.005c-19.344-4.294-30.871-24.516-24.889-43.662l.021-.068c3.621-11.588-5.875-23.058-17.754-21.445l-.038.005c-19.64 2.667-37.29-12.366-38.096-32.448v-.014c-.488-12.152-13.28-19.655-23.907-14.021l-.067.036c-5.107 2.707-10.56 3.94-15.911 3.883 2.273 2.679 3.745 6.141 3.904 10.103v.014c.806 20.082 18.456 35.115 38.096 32.448l.038-.005c11.879-1.613 21.375 9.857 17.754 21.445l-.021.068c-.043.137-.085.274-.126.412-4.197 14.041-18.624 22.172-32.803 18.468-13.623-3.559-28.125-5.45-43.563-5.45-102.992 0-186.484 83.492-186.484 186.484 0 68.428 36.863 128.237 91.807 160.681 1.295-.801 2.514-1.801 3.61-3.022 13.35-14.864 36.411-14.864 49.762 0 8.075 8.991 22.628 6.398 27.199-4.846l.029-.072c5.347-13.153 17.768-20.994 30.794-21.134h.009c-.003.003-.005.007-.008.01 5.352-.057 10.804 1.175 15.912 3.883l.066.035c10.627 5.634 23.42-1.869 23.907-14.021v-.013c.806-20.082 18.457-35.115 38.096-32.448l.038.005c11.879 1.613 21.375-9.856 17.754-21.445l-.021-.069c-5.982-19.147 5.545-39.368 24.889-43.662l.023-.005c11.72-2.602 16.777-16.695 9.448-26.329l-.012-.015c-12.098-15.902-8.113-38.909 8.604-49.675l.07-.045c10.188-6.542 10.2-21.426.024-27.983z" fill="url(#SVGID_2_)"/><circle cx="229.264" cy="229.264" fill="url(#SVGID_3_)" r="160.455"/><path d="m389.719 229.264c0-44.721-18.302-85.162-47.817-114.26-.962-.144-1.927-.337-2.89-.588-13.623-3.558-28.125-5.45-43.563-5.45-102.992 0-186.484 83.492-186.484 186.484 0 15.952 2.027 31.427 5.796 46.205 29.116 29.66 69.657 48.065 114.503 48.065 88.617-.001 160.455-71.839 160.455-160.456z" fill="url(#SVGID_4_)"/></g><g><circle cx="323.516" cy="323.516" fill="url(#SVGID_5_)" r="186.484"/><g><path d="m323.516 137.032c-5.018 0-9.988.204-14.906.593 48.112 3.806 91.084 25.871 121.99 59.266-4.806-1.316-9.859-2.033-15.083-2.033-31.474 0-56.988 25.514-56.988 56.988 0 29.667 22.673 54.03 51.634 56.73-4.507 5.183-7.112 12.064-6.703 19.561.748 13.73 11.795 24.952 25.514 25.892 16.06 1.1 29.429-11.602 29.429-27.426 0-5.967-1.901-11.489-5.13-15.995-3.933-5.488-3.075-13.045 1.784-17.732.113-.109.225-.218.337-.328 8.206-8.047 22.028-3.188 23.418 8.221.908 7.455 1.376 15.046 1.376 22.746 0 51.417-20.818 97.965-54.475 131.698 2.304-5.671 3.454-11.934 3.125-18.505-1.111-22.21-19.212-40.166-41.431-41.091-24.777-1.031-45.187 18.75-45.187 43.298 0 5.113.885 10.018 2.511 14.573 9.079 25.433-7.62 53.012-34.485 55.769-.55.057-1.096.106-1.637.149 4.918.389 9.888.593 14.906.593 102.993.001 186.485-83.491 186.485-186.483s-83.492-186.484-186.484-186.484z" fill="url(#SVGID_6_)"/><circle cx="305.659" cy="224.416" fill="url(#SVGID_7_)" r="27.492"/><circle cx="275.53" cy="415.128" fill="url(#SVGID_8_)" r="27.492"/><circle cx="207.254" cy="310.73" fill="url(#SVGID_9_)" r="43.337"/></g></g></g></svg>