<svg id="Capa_1" enable-background="new 0 0 510 510" height="512" viewBox="0 0 510 510" width="512" xmlns="http://www.w3.org/2000/svg" xmlns:xlink="http://www.w3.org/1999/xlink"><linearGradient id="lg1"><stop offset="0" stop-color="#814aa0"/><stop offset="1" stop-color="#192a7d"/></linearGradient><linearGradient id="SVGID_1_" gradientUnits="userSpaceOnUse" x1="0" x2="153.354" xlink:href="#lg1" y1="318.514" y2="318.514"/><linearGradient id="SVGID_2_" gradientUnits="userSpaceOnUse" x1="-70.667" x2="107.578" xlink:href="#lg1" y1="186.925" y2="186.925"/><linearGradient id="lg2"><stop offset="0" stop-color="#60b7ff"/><stop offset=".5857" stop-color="#0182fc"/><stop offset="1" stop-color="#2740b0"/></linearGradient><linearGradient id="SVGID_3_" gradientUnits="userSpaceOnUse" x1="69.402" x2="129.227" xlink:href="#lg2" y1="160.78" y2="160.78"/><linearGradient id="SVGID_4_" gradientUnits="userSpaceOnUse" x1="391.483" x2="510" xlink:href="#lg1" y1="318.513" y2="318.513"/><linearGradient id="SVGID_5_" gradientUnits="userSpaceOnUse" x1="285.333" x2="432.074" xlink:href="#lg1" y1="186.925" y2="186.925"/><linearGradient id="SVGID_6_" gradientUnits="userSpaceOnUse" x1="381.333" x2="452.717" xlink:href="#lg2" y1="160.78" y2="160.78"/><linearGradient id="SVGID_7_" gradientUnits="userSpaceOnUse" x1="259.333" x2="362.078" xlink:href="#lg1" y1="318.515" y2="318.515"/><linearGradient id="SVGID_8_" gradientUnits="userSpaceOnUse" x1="122.667" x2="348.951" xlink:href="#lg1" y1="234.275" y2="234.275"/><linearGradient id="lg3"><stop offset="0" stop-color="#d8ecfe"/><stop offset=".5667" stop-color="#b3dafe"/><stop offset=".9955" stop-color="#8ac9fe"/></linearGradient><linearGradient id="SVGID_9_" gradientUnits="userSpaceOnUse" x1="126.944" x2="437.08" xlink:href="#lg3" y1="160.409" y2="160.409"/><linearGradient id="SVGID_10_" gradientUnits="userSpaceOnUse" x1="-44" x2="388.227" xlink:href="#lg3" y1="160.409" y2="160.409"/><linearGradient id="SVGID_11_" gradientUnits="userSpaceOnUse" x1="144.667" x2="260.017" xlink:href="#lg1" y1="318.516" y2="318.516"/><linearGradient id="SVGID_12_" gradientUnits="userSpaceOnUse" x1="129.333" x2="241.494" xlink:href="#lg1" y1="178.286" y2="178.286"/><linearGradient id="SVGID_13_" gradientUnits="userSpaceOnUse" x1="199.333" x2="263.559" xlink:href="#lg2" y1="160.78" y2="160.78"/><linearGradient id="SVGID_14_" gradientUnits="userSpaceOnUse" x1="160.667" x2="268.003" xlink:href="#lg2" y1="160.78" y2="160.78"/><g><path d="m12.511 510c-1.046 0-2.108-.132-3.167-.409-6.68-1.744-10.68-8.573-8.935-15.253l93.511-357.966c1.745-6.679 8.576-10.682 15.253-8.935 6.68 1.744 10.68 8.573 8.935 15.253l-93.511 357.966c-1.468 5.62-6.536 9.344-12.086 9.344z" fill="url(#SVGID_1_)"/><path d="m118.11 142.69-27.2 104.13c-6.6-12.51-11.81-25.86-15.43-39.85l18.44-70.6c1.74-6.68 8.58-10.68 15.25-8.93 6.68 1.74 10.68 8.57 8.94 15.25z" fill="url(#SVGID_2_)"/><path d="m128.485 145.22-12.829 49.122c-1.567 6.001-6.988 10.188-13.19 10.188h-23.115c-6.513 0-11.267-6.156-9.621-12.457l15.215-58.233c2.59-9.9 11.54-16.81 21.76-16.81 1.92 0 3.84.25 5.7.73 5.81 1.52 10.69 5.21 13.73 10.4 3.04 5.18 3.87 11.24 2.35 17.06z" fill="url(#SVGID_3_)"/><path d="m497.489 510c-5.55 0-10.618-3.723-12.086-9.344l-93.511-357.966c-1.745-6.68 2.255-13.509 8.935-15.253 6.678-1.75 13.508 2.255 15.253 8.935l93.511 357.966c1.745 6.68-2.255 13.509-8.935 15.253-1.058.277-2.122.409-3.167.409z" fill="url(#SVGID_4_)"/><path d="m434.52 206.97c-3.62 13.99-8.83 27.34-15.43 39.85l-27.2-104.13c-1.74-6.68 2.26-13.51 8.94-15.25 6.67-1.75 13.51 2.25 15.25 8.93z" fill="url(#SVGID_5_)"/><path d="m381.515 145.22 12.829 49.122c1.567 6.001 6.988 10.188 13.19 10.188h23.115c6.513 0 11.267-6.156 9.621-12.457l-15.215-58.233c-2.59-9.9-11.54-16.81-21.76-16.81-1.92 0-3.84.25-5.7.73-5.81 1.52-10.69 5.21-13.73 10.4-3.04 5.18-3.87 11.24-2.35 17.06z" fill="url(#SVGID_6_)"/><path d="m331.702 510c-6.06 0-11.381-4.415-12.337-10.59l-55.413-357.966c-1.056-6.822 3.619-13.209 10.441-14.265 6.82-1.06 13.208 3.618 14.265 10.44l55.413 357.966c1.056 6.822-3.619 13.209-10.441 14.265-.648.101-1.292.15-1.928.15z" fill="url(#SVGID_7_)"/><path d="m319.13 334.44c-7.83 2.89-15.92 5.26-24.21 7.08l-30.97-200.08c-1.05-6.82 3.62-13.2 10.44-14.26s13.21 3.62 14.27 10.44z" fill="url(#SVGID_8_)"/><g><circle cx="255" cy="160.409" fill="url(#SVGID_9_)" r="160.409"/><path d="m255 0c-6.777 0-13.454.425-20.01 1.241 69.152 8.606 124.641 61.225 137.553 128.947-33.727 10.985-74.548 16.924-117.543 16.924-46.941 0-91.285-7.081-126.64-20.079-4.753-1.747-9.579.894-10.285 5.909-.503 3.575 1.555 6.931 4.849 8.147 35.763 13.199 81.553 21.024 132.075 21.024 35.156 0 68.018-3.79 96.807-10.543 11.907-2.793 23.209 6.579 22.765 18.8-.006.159-.012.318-.018.476-.304 8.087-5.82 15.035-13.615 17.212-31.304 8.741-67.763 13.427-105.94 13.427-37.039 0-72.463-4.41-103.129-12.655-4.791-1.288-9.497 2.305-9.497 7.266 0 3.413 2.29 6.399 5.586 7.283 31.132 8.35 67.65 13.105 107.04 13.105 21.292 0 41.743-1.39 60.959-3.986 25.062-3.386 41.751 25.416 26.355 45.479-25.491 33.216-63.687 56.171-107.323 61.601 6.556.816 13.233 1.241 20.01 1.241 88.592 0 160.409-71.818 160.409-160.409s-71.816-160.41-160.408-160.41z" fill="url(#SVGID_10_)"/></g><path d="m178.298 510c-.636 0-1.28-.049-1.928-.149-6.822-1.056-11.497-7.442-10.441-14.265l55.413-357.966c1.056-6.822 7.448-11.494 14.265-10.44 6.822 1.056 11.497 7.442 10.441 14.265l-55.413 357.965c-.956 6.175-6.278 10.59-12.337 10.59z" fill="url(#SVGID_11_)"/><path d="m246.05 141.44-9.77 63.09-3.87 25.01h-25.3l3.87-25.01 10.36-66.91c1.06-6.82 7.45-11.49 14.27-10.44 6.82 1.06 11.49 7.44 10.44 14.26z" fill="url(#SVGID_12_)"/><path d="m255.93 142.97-7.742 50.013c-1.029 6.645-6.748 11.547-13.472 11.547h-17.941c-8.36 0-14.751-7.456-13.472-15.717l8.158-52.723c1.71-11.04 11.06-19.06 22.22-19.06 1.15 0 2.31.09 3.45.27 5.95.92 11.17 4.09 14.72 8.94 3.549 4.85 4.999 10.79 4.079 16.73z" fill="url(#SVGID_13_)"/><path d="m251.85 126.24c-3.55-4.85-8.77-8.02-14.72-8.94-1.14-.18-2.3-.27-3.45-.27-4.627 0-8.931 1.395-12.52 3.795 2.165 1.444 4.095 3.251 5.679 5.415 3.55 4.85 5 10.79 4.08 16.73l-7.742 50.013c-.841 5.433-4.819 9.697-9.917 11.073 1.12.298 2.292.474 3.514.474h17.941c6.724 0 12.443-4.902 13.472-11.547l7.742-50.013c.921-5.94-.529-11.88-4.079-16.73z" fill="url(#SVGID_14_)"/></g></svg>