<svg id="Capa_1" enable-background="new 0 0 510 510" height="512" viewBox="0 0 510 510" width="512" xmlns="http://www.w3.org/2000/svg" xmlns:xlink="http://www.w3.org/1999/xlink"><linearGradient id="lg1"><stop offset="0" stop-color="#d8ecfe"/><stop offset=".5667" stop-color="#b3dafe"/><stop offset=".9955" stop-color="#8ac9fe"/></linearGradient><linearGradient id="SVGID_1_" gradientUnits="userSpaceOnUse" x1="197.962" x2="567.001" xlink:href="#lg1" y1="198.906" y2="198.906"/><linearGradient id="SVGID_2_" gradientUnits="userSpaceOnUse" x1="-37.395" x2="387.214" xlink:href="#lg1" y1="198.905" y2="198.905"/><linearGradient id="SVGID_3_" gradientUnits="userSpaceOnUse" x1="-37.395" x2="387.214" xlink:href="#lg1" y1="198.906" y2="198.906"/><linearGradient id="SVGID_4_" gradientUnits="userSpaceOnUse" x1="114.82" x2="218.26" y1="329.041" y2="329.041"><stop offset="0" stop-color="#feca9c"/><stop offset=".5213" stop-color="#fd8087"/><stop offset="1" stop-color="#f46700"/></linearGradient><linearGradient id="lg2"><stop offset="0" stop-color="#a2e62e"/><stop offset=".4477" stop-color="#81b823"/><stop offset=".5319" stop-color="#75b32a"/><stop offset=".6827" stop-color="#56a53e"/><stop offset=".8811" stop-color="#248d5e"/><stop offset="1" stop-color="#037e73"/></linearGradient><linearGradient id="SVGID_5_" gradientUnits="userSpaceOnUse" x1="-.77" x2="377.172" xlink:href="#lg2" y1="274.321" y2="274.321"/><linearGradient id="SVGID_6_" gradientUnits="userSpaceOnUse" x1="-151" x2="326.655" xlink:href="#lg2" y1="274.321" y2="274.321"/><linearGradient id="lg3"><stop offset="0" stop-color="#fef056"/><stop offset=".5213" stop-color="#f4d902"/><stop offset="1" stop-color="#fe9738"/></linearGradient><linearGradient id="SVGID_7_" gradientUnits="userSpaceOnUse" x1="290.74" x2="399.129" xlink:href="#lg3" y1="198.906" y2="198.906"/><linearGradient id="SVGID_8_" gradientUnits="userSpaceOnUse" x1="368.193" x2="476.582" xlink:href="#lg3" y1="198.906" y2="198.906"/><linearGradient id="SVGID_9_" gradientUnits="userSpaceOnUse" x1="104.104" x2="163.946" y1="179.657" y2="179.657"><stop offset="0" stop-color="#fd8087"/><stop offset=".5213" stop-color="#fb2b3a"/><stop offset="1" stop-color="#d90d80"/></linearGradient><linearGradient id="SVGID_10_" gradientUnits="userSpaceOnUse" x1="148.679" x2="208.52" xlink:href="#lg3" y1="179.657" y2="179.657"/><linearGradient id="SVGID_11_" gradientUnits="userSpaceOnUse" x1="193.253" x2="253.094" xlink:href="#lg3" y1="179.657" y2="179.657"/><g><path d="m503.145 182.33c-30.43-30.43-71.703-47.526-114.737-47.526h-195.155v128.202h196.929c42.592 0 83.384-17.195 113.125-47.693 8.975-9.201 8.927-23.894-.162-32.983z" fill="url(#SVGID_1_)"/><g><path d="m311.24 134.8h28.01v128.21h-28.01z" fill="url(#SVGID_2_)"/><path d="m503.145 182.33c-30.43-30.43-71.703-47.526-114.737-47.526h-40.02c5.898 0 11.763.323 17.572.957 12.969 1.416 22.731 12.489 22.731 25.534v75.377c0 13.269-10.105 24.318-23.312 25.598-5.035.488-10.112.736-15.216.736h40.02c42.592 0 83.384-17.195 113.125-47.693 8.973-9.201 8.926-23.894-.163-32.983zm-39.857 32.984c-13.531 13.875-29.354 24.985-46.588 32.987v-98.405c17.095 7.935 32.842 18.852 46.425 32.434 9.089 9.089 9.136 23.782.163 32.984z" fill="url(#SVGID_3_)"/></g><path d="m193.528 367.172h-46.233v-76.262h67.158v55.337c0 11.556-9.368 20.925-20.925 20.925z" fill="url(#SVGID_4_)"/><path d="m59.975 227.185v7.111c0 45.243-10.466 89.873-30.579 130.4l-26.82 54.04c-8.051 16.222 3.75 35.254 21.86 35.254h74.286c9.27 0 17.739-5.252 21.86-13.555l56.195-113.228c7.334-14.778 22.408-24.125 38.906-24.125h13.006c36.396 0 65.902-29.505 65.902-65.902v-76.628c0-36.396-29.505-65.902-65.902-65.902h-36.18c-73.197.001-132.534 59.339-132.534 132.535z" fill="url(#SVGID_5_)"/><path d="m228.689 94.651h-36.18c-.856 0-1.708.016-2.56.032 35.803.685 64.621 29.902 64.621 65.869v76.627c0 36.396-29.505 65.902-65.902 65.902h-13.006c-16.498 0-31.572 9.347-38.906 24.125l-56.194 113.229c-4.121 8.303-12.591 13.555-21.861 13.555h40.02c9.27 0 17.74-5.252 21.861-13.555l56.195-113.229c7.334-14.778 22.408-24.125 38.906-24.125h13.006c36.396 0 65.902-29.505 65.902-65.902v-76.627c0-36.396-29.505-65.901-65.902-65.901z" fill="url(#SVGID_6_)"/><path d="m351.626 341.802c-8.492 0-15.375-6.884-15.375-15.375v-255.042c0-8.492 6.884-15.375 15.375-15.375 8.492 0 15.375 6.884 15.375 15.375v255.041c.001 8.492-6.883 15.376-15.375 15.376z" fill="url(#SVGID_7_)"/><path d="m429.079 317.78c-8.492 0-15.375-6.884-15.375-15.375v-206.998c0-8.492 6.884-15.375 15.375-15.375 8.492 0 15.375 6.884 15.375 15.375v206.997c.001 8.492-6.883 15.376-15.375 15.376z" fill="url(#SVGID_8_)"/><circle cx="123.353" cy="179.657" fill="url(#SVGID_9_)" r="19.248"/><circle cx="167.927" cy="179.657" fill="url(#SVGID_10_)" r="19.248"/><circle cx="212.501" cy="179.657" fill="url(#SVGID_11_)" r="19.248"/></g></svg>