<svg id="Capa_1" enable-background="new 0 0 510 510" height="512" viewBox="0 0 510 510" width="512" xmlns="http://www.w3.org/2000/svg" xmlns:xlink="http://www.w3.org/1999/xlink"><linearGradient id="lg1"><stop offset="0" stop-color="#a2e62e"/><stop offset=".4477" stop-color="#81b823"/><stop offset=".5319" stop-color="#75b32a"/><stop offset=".6827" stop-color="#56a53e"/><stop offset=".8811" stop-color="#248d5e"/><stop offset="1" stop-color="#037e73"/></linearGradient><linearGradient id="SVGID_1_" gradientUnits="userSpaceOnUse" x1="28.128" x2="338.132" xlink:href="#lg1" y1="371.633" y2="371.633"/><linearGradient id="SVGID_2_" gradientUnits="userSpaceOnUse" x1="-23" x2="262.002" xlink:href="#lg1" y1="404.825" y2="404.825"/><linearGradient id="SVGID_3_" gradientUnits="userSpaceOnUse" x1="103.737" x2="624.145" xlink:href="#lg1" y1="255" y2="255"/><linearGradient id="SVGID_4_" gradientUnits="userSpaceOnUse" x1="-30.842" x2="507.84" xlink:href="#lg1" y1="124.595" y2="124.595"/><linearGradient id="SVGID_6_" gradientUnits="userSpaceOnUse" x1="-30.842" x2="507.84" xlink:href="#lg1" y1="255" y2="255"/><g><path d="m250.354 421.965-122.714-86.808c-2.465-1.744-3.857-4.594-3.854-7.614 0-.016 0-.032 0-.048 0-25.598-21.237-46.235-47.053-45.255-23.473.891-42.599 20.017-43.491 43.49-.981 25.816 19.657 47.054 45.255 47.054 4.029 0 7.934-.527 11.652-1.514 2.599-.69 5.367-.177 7.562 1.376l124.986 88.414z" fill="url(#SVGID_1_)"/><path d="m250.354 421.965-103.724-73.374 19.4 72.382 56.668 40.087z" fill="url(#SVGID_2_)"/><path d="m476.791 45.289c0-25.601-21.243-46.241-47.063-45.255-23.011.879-41.942 19.289-43.418 42.27-.52 8.089 1.09 15.755 4.319 22.498 4.739 9.894 5.666 21.191 3.192 31.879l-31.297 135.227c-2.342 10.118-11.354 17.282-21.739 17.282-12.323 0-22.313-9.99-22.313-22.313v-121.858c0-11.357 3.982-22.331 11.164-31.13 6.68-8.185 10.555-18.749 10.152-30.229-.847-24.148-20.97-43.594-45.133-43.66-25.07-.069-45.415 20.234-45.415 45.288 0 11.005 3.928 21.09 10.457 28.936 7.201 8.653 10.887 19.7 10.887 30.958v121.694c0 12.323-9.99 22.313-22.313 22.313-10.385 0-19.397-7.165-21.739-17.282l-31.296-135.227c-2.474-10.688-1.547-21.985 3.192-31.879 3.229-6.743 4.839-14.409 4.32-22.498-1.476-22.981-20.406-41.391-43.417-42.27-25.821-.987-47.064 19.653-47.064 45.255 0 14.872 7.169 28.069 18.24 36.325 9.367 6.985 16.022 16.999 18.657 28.382l29.126 125.849c4.454 19.245 2.053 39.367-6.41 57.216-6.122 12.913-7.665 27.821-3.826 42.146l40.411 150.776c3.797 14.168 16.636 24.018 31.302 24.018h109.523c14.667 0 27.505-9.85 31.302-24.017l40.411-150.776c3.839-14.325 2.297-29.233-3.826-42.146-8.463-17.849-10.864-37.971-6.41-57.216l29.126-125.849c2.635-11.384 9.29-21.397 18.657-28.382 11.072-8.256 18.241-21.453 18.241-36.325z" fill="url(#SVGID_3_)"/><g><path d="m315.775 249.19c4.588 0 8.905-1.402 12.5-3.836-5.915-4.013-9.803-10.791-9.803-18.478v-121.857c0-11.357 3.982-22.331 11.164-31.13 6.68-8.185 10.555-18.749 10.152-30.229-.847-24.149-20.97-43.594-45.133-43.66-4.403-.012-8.656.616-12.683 1.777 18.333 5.311 32.107 21.997 32.805 41.883.403 11.48-3.472 22.044-10.152 30.229-7.181 8.799-11.164 19.772-11.164 31.13v121.858c.001 12.323 9.991 22.313 22.314 22.313z" fill="url(#SVGID_4_)"/><path d="m226.532 231.907-31.296-135.227c-2.474-10.688-1.547-21.984 3.192-31.879 3.229-6.743 4.839-14.408 4.319-22.498-1.476-22.98-20.406-41.39-43.417-42.27-4.979-.19-9.785.431-14.304 1.73 17.929 5.182 31.471 21.248 32.71 40.54.519 8.089-1.09 15.755-4.32 22.498-4.739 9.894-5.666 21.191-3.192 31.879l31.297 135.227c2.342 10.118 11.354 17.282 21.739 17.282 4.637 0 8.943-1.415 12.511-3.836-4.543-3.074-7.932-7.798-9.239-13.446z" fill="url(#SVGID_4_)"/><path d="m429.728.034c-6.494.248-12.662 1.893-18.205 4.642 14.957 7.395 25.248 22.798 25.248 40.612 0 14.873-7.169 28.069-18.24 36.325-9.367 6.985-16.022 16.999-18.657 28.382l-29.126 125.849c-4.454 19.245-2.053 39.367 6.41 57.216 6.122 12.913 7.665 27.821 3.826 42.146l-40.411 150.776c-3.798 14.168-16.636 24.018-31.303 24.018h40.02c14.667 0 27.505-9.85 31.302-24.017l40.411-150.776c3.839-14.325 2.297-29.233-3.826-42.146-8.463-17.849-10.864-37.971-6.41-57.216l29.126-125.849c2.635-11.384 9.29-21.397 18.657-28.382 11.071-8.256 18.24-21.452 18.24-36.325.001-25.602-21.241-46.241-47.062-45.255z" fill="url(#SVGID_6_)"/></g></g></svg>