<svg id="Capa_1" enable-background="new 0 0 510 510" height="512" viewBox="0 0 510 510" width="512" xmlns="http://www.w3.org/2000/svg" xmlns:xlink="http://www.w3.org/1999/xlink"><linearGradient id="lg1"><stop offset="0" stop-color="#814aa0"/><stop offset="1" stop-color="#192a7d"/></linearGradient><linearGradient id="SVGID_1_" gradientUnits="userSpaceOnUse" x1="80" x2="468" xlink:href="#lg1" y1="76.625" y2="76.625"/><linearGradient id="SVGID_2_" gradientUnits="userSpaceOnUse" x1="258.673" x2="597.42" xlink:href="#lg1" y1="76.755" y2="76.755"/><linearGradient id="SVGID_3_" gradientUnits="userSpaceOnUse" x1="-90.667" x2="140.078" xlink:href="#lg1" y1="255" y2="255"/><linearGradient id="SVGID_4_" gradientUnits="userSpaceOnUse" x1="0" x2="208.669" xlink:href="#lg1" y1="255" y2="255"/><linearGradient id="SVGID_5_" gradientUnits="userSpaceOnUse" x1="-92.667" x2="140.691" xlink:href="#lg1" y1="255" y2="255"/><linearGradient id="lg2"><stop offset="0" stop-color="#60b7ff"/><stop offset=".5857" stop-color="#0182fc"/><stop offset="1" stop-color="#2740b0"/></linearGradient><linearGradient id="SVGID_6_" gradientUnits="userSpaceOnUse" x1="188.143" x2="330.407" xlink:href="#lg2" y1="455.755" y2="455.755"/><linearGradient id="SVGID_7_" gradientUnits="userSpaceOnUse" x1="144.027" x2="282.217" xlink:href="#lg2" y1="455.75" y2="455.75"/><linearGradient id="lg3"><stop offset="0" stop-color="#d8ecfe"/><stop offset=".5667" stop-color="#b3dafe"/><stop offset=".9955" stop-color="#8ac9fe"/></linearGradient><linearGradient id="SVGID_8_" gradientUnits="userSpaceOnUse" x1="191.762" x2="310.75" xlink:href="#lg3" y1="238.633" y2="238.633"/><linearGradient id="SVGID_9_" gradientUnits="userSpaceOnUse" x1="46.761" x2="294.144" xlink:href="#lg3" y1="238.633" y2="238.633"/><linearGradient id="lg4"><stop offset="0" stop-color="#eaf6ff"/><stop offset=".5213" stop-color="#d8ecfe"/><stop offset="1" stop-color="#b3dafe"/></linearGradient><linearGradient id="SVGID_10_" gradientUnits="userSpaceOnUse" x1="173.372" x2="398.964" xlink:href="#lg4" y1="332.309" y2="332.309"/><linearGradient id="SVGID_11_" gradientUnits="userSpaceOnUse" x1="382.902" x2="525.165" xlink:href="#lg2" y1="455.755" y2="455.755"/><linearGradient id="SVGID_12_" gradientUnits="userSpaceOnUse" x1="338.785" x2="476.976" xlink:href="#lg2" y1="455.75" y2="455.75"/><linearGradient id="SVGID_13_" gradientUnits="userSpaceOnUse" x1="386.521" x2="505.509" xlink:href="#lg3" y1="238.633" y2="238.633"/><linearGradient id="SVGID_14_" gradientUnits="userSpaceOnUse" x1="241.519" x2="488.903" xlink:href="#lg3" y1="238.633" y2="238.633"/><linearGradient id="SVGID_15_" gradientUnits="userSpaceOnUse" x1="289.014" x2="554.62" xlink:href="#lg4" y1="332.309" y2="332.309"/><linearGradient id="SVGID_16_" gradientUnits="userSpaceOnUse" x1="209.299" x2="492.444" xlink:href="#lg4" y1="332.309" y2="332.309"/><linearGradient id="SVGID_17_" gradientUnits="userSpaceOnUse" x1="279.697" x2="436.723" xlink:href="#lg2" y1="455.755" y2="455.755"/><linearGradient id="SVGID_18_" gradientUnits="userSpaceOnUse" x1="222.295" x2="416.633" xlink:href="#lg2" y1="455.75" y2="455.75"/><linearGradient id="SVGID_19_" gradientUnits="userSpaceOnUse" x1="279.845" x2="436.495" xlink:href="#lg4" y1="262.763" y2="262.763"/><linearGradient id="SVGID_20_" gradientUnits="userSpaceOnUse" x1="140.314" x2="411.961" xlink:href="#lg4" y1="262.766" y2="262.766"/><linearGradient id="SVGID_21_" gradientUnits="userSpaceOnUse" x1="300.824" x2="395.884" xlink:href="#lg1" y1="173.355" y2="173.355"/><linearGradient id="SVGID_22_" gradientUnits="userSpaceOnUse" x1="233.457" x2="354.386" xlink:href="#lg1" y1="174.103" y2="174.103"/><g><g><path d="m492.641 43.008c-4.142 0-7.5 3.357-7.5 7.5v36.848l-54.666-42.755c-.018-.014-.038-.021-.056-.034-1.265-.974-2.845-1.559-4.565-1.559-4.142 0-7.5 3.357-7.5 7.5v36.848l-54.665-42.755c-.018-.014-.038-.021-.056-.034-1.265-.974-2.845-1.559-4.565-1.559-4.142 0-7.5 3.357-7.5 7.5v36.848l-54.665-42.755c-.018-.014-.038-.021-.056-.034-1.265-.974-2.845-1.559-4.565-1.559-4.142 0-7.5 3.357-7.5 7.5v36.848l-54.666-42.755c-.018-.014-.038-.021-.056-.034-1.265-.974-2.845-1.559-4.565-1.559-4.142 0-7.5 3.357-7.5 7.5v36.848l-54.665-42.755c-3.263-2.553-7.977-1.977-10.528 1.287-2.552 3.263-1.976 7.976 1.287 10.527l66.786 52.235c1.345 1.053 2.977 1.593 4.622 1.593 1.118 0 2.242-.25 3.285-.758 2.578-1.257 4.214-3.874 4.214-6.742v-36.848l54.666 42.755c1.345 1.053 2.977 1.593 4.622 1.593 1.118 0 2.242-.25 3.285-.758 2.578-1.257 4.214-3.874 4.214-6.742v-36.848l54.665 42.755c1.345 1.053 2.977 1.593 4.622 1.593 1.118 0 2.242-.25 3.285-.758 2.578-1.257 4.214-3.874 4.214-6.742v-36.848l54.665 42.755c1.345 1.053 2.977 1.593 4.622 1.593 1.118 0 2.242-.25 3.285-.758 2.578-1.257 4.214-3.874 4.214-6.742v-36.848l54.666 42.755c1.345 1.053 2.977 1.593 4.622 1.593 1.118 0 2.242-.25 3.285-.758 2.578-1.257 4.214-3.874 4.214-6.742v-52.235c-.001-4.143-3.359-7.5-7.501-7.5z" fill="url(#SVGID_1_)"/><path d="m497.5 38.01h-338.06v25h325.56v27.49h-325.56v25h338.06c6.9 0 12.5-5.59 12.5-12.5v-52.49c0-6.91-5.6-12.5-12.5-12.5z" fill="url(#SVGID_2_)"/></g><g><g><path d="m170.332 179.685c2.587-2.837 2.627-7.23-.019-10.115l-69.073-75.29 69.073-75.29c2.8-3.053 2.596-7.797-.456-10.597-3.052-2.802-7.797-2.598-10.597.456l-68.197 74.337-68.198-74.337c-2.8-3.053-7.544-3.257-10.597-.456-3.052 2.8-3.256 7.544-.456 10.597l69.073 75.29-69.073 75.29c-.008.008-.013.019-.02.027-2.586 2.837-2.625 7.229.02 10.113l69.073 75.29-69.073 75.29c-.008.008-.013.019-.02.027-2.586 2.837-2.625 7.229.02 10.113l69.073 75.29-69.073 75.29c-2.011 2.192-2.537 5.365-1.339 8.089s3.891 4.481 6.866 4.481h147.407c.005 0 .009-.001.013-.001.01 0 .02.001.031.001 1.812 0 3.628-.652 5.068-1.974 3.052-2.8 3.256-7.544.456-10.597l-69.073-75.29 69.073-75.29c.007-.008.012-.018.019-.026 2.587-2.837 2.627-7.23-.019-10.115l-69.073-75.29 69.073-75.29c.007-.006.011-.015.018-.023zm-79.269-74.311 56.666 61.766h-113.332zm56.666 383.208h-113.332l56.666-61.766zm-113.332-145.721h113.331l-56.666 61.766zm113.332-15h-113.332l56.666-61.766zm-113.332-145.721h113.331l-56.666 61.766z" fill="url(#SVGID_3_)"/><path d="m153.187 510h-133.002c-11.13 0-20.185-9.055-20.185-20.185v-469.63c0-11.13 9.055-20.185 20.185-20.185h133.003c11.129 0 20.184 9.055 20.184 20.185v469.631c-.001 11.129-9.055 20.184-20.185 20.184zm-128.047-25.14h123.092v-459.72h-123.092z" fill="url(#SVGID_4_)"/></g><path d="m153.187 0h-25.693c11.129 0 20.184 9.055 20.184 20.185v4.955h.554v459.72h-.554v4.955c0 11.129-9.055 20.185-20.184 20.185h25.693c11.129 0 20.184-9.055 20.184-20.185v-469.63c.001-11.13-9.054-20.185-20.184-20.185z" fill="url(#SVGID_5_)"/></g><g><g><g><g><path d="m226.222 412.473c-15.955 22.939-28.552 49.965-37.334 79.426-2.544 8.535 1.741 18.101 8.08 18.101h94.672c6.339 0 10.624-9.566 8.08-18.101-8.782-29.461-21.379-56.487-37.334-79.426-9.945-14.619-26.218-14.619-36.164 0z" fill="url(#SVGID_6_)"/><path d="m291.644 510h-24.739c6.331 0 10.623-9.57 8.071-18.1-.011-.039-.023-.077-.034-.116-2.009-6.75-8.208-11.334-15.18-11.334h-67.221c2.918-8.59 6.162-16.95 9.743-25.02 6.825-15.45 14.837-29.87 23.937-42.96 1.731-2.55 3.66-4.66 5.717-6.31 3.828-3.11 8.091-4.66 12.364-4.66 6.558 0 13.106 3.66 18.082 10.97 9.1 13.09 17.112 27.51 23.947 42.96 3.581 8.07 6.825 16.43 9.743 25.02 1.286 3.77 2.503 7.59 3.65 11.45 2.543 8.53-1.74 18.1-8.08 18.1z" fill="url(#SVGID_7_)"/><path d="m271.875 454.953h-55.142c-11.976 0-21.684-9.708-21.684-21.684v-361.7c0-27.203 22.052-49.255 49.255-49.255 27.203 0 49.255 22.052 49.255 49.255v361.7c.001 11.975-9.708 21.684-21.684 21.684z" fill="url(#SVGID_8_)"/><path d="m244.304 22.313c-7.043 0-13.734 1.505-19.793 4.197 17.344 7.706 29.462 25.217 29.462 45.599v360.922c0 12.107-9.708 21.922-21.684 21.922h39.586c11.976 0 21.684-9.815 21.684-21.922v-360.922c0-27.501-22.052-49.796-49.255-49.796z" fill="url(#SVGID_9_)"/></g><path d="m340.951 209.665-162.248 164.028c-3.414 3.451-5.332 8.132-5.332 13.013v51.684c0 9.147 7.335 16.562 16.382 16.562h151.197v-245.287z" fill="url(#SVGID_10_)"/></g><g><g><path d="m420.981 412.473c-15.955 22.939-28.552 49.965-37.334 79.426-2.544 8.535 1.741 18.101 8.08 18.101h94.672c6.339 0 10.624-9.566 8.08-18.101-8.782-29.461-21.379-56.487-37.334-79.426-9.945-14.619-26.219-14.619-36.164 0z" fill="url(#SVGID_11_)"/><path d="m486.402 510h-24.739c6.331 0 10.623-9.57 8.071-18.1-.011-.039-.023-.077-.034-.116-2.009-6.75-8.208-11.334-15.18-11.334h-67.22c2.918-8.59 6.162-16.95 9.743-25.02 6.825-15.45 14.837-29.87 23.937-42.96 1.731-2.55 3.66-4.66 5.717-6.31 3.828-3.11 8.091-4.66 12.364-4.66 6.558 0 13.106 3.66 18.082 10.97 9.1 13.09 17.112 27.51 23.947 42.96 3.581 8.07 6.825 16.43 9.743 25.02 1.286 3.77 2.503 7.59 3.65 11.45 2.543 8.53-1.74 18.1-8.081 18.1z" fill="url(#SVGID_12_)"/><path d="m466.634 454.953h-55.142c-11.976 0-21.684-9.708-21.684-21.684v-361.7c0-27.203 22.052-49.255 49.255-49.255 27.203 0 49.255 22.052 49.255 49.255v361.7c0 11.975-9.708 21.684-21.684 21.684z" fill="url(#SVGID_13_)"/><path d="m439.063 22.313c-7.043 0-13.734 1.505-19.793 4.197 17.344 7.706 29.462 25.217 29.462 45.599v360.922c0 12.107-9.708 21.922-21.684 21.922h39.586c11.976 0 21.684-9.815 21.684-21.922v-360.922c0-27.501-22.052-49.796-49.255-49.796z" fill="url(#SVGID_14_)"/></g><path d="m342.42 209.665 162.248 164.028c3.414 3.451 5.332 8.132 5.332 13.013v51.684c0 9.147-7.335 16.562-16.382 16.562h-151.198z" fill="url(#SVGID_15_)"/><path d="m504.668 373.693-162.248-164.028v40.02l122.662 124.008c3.414 3.451 5.332 8.132 5.332 13.013v51.684c0 9.147-7.335 16.562-16.383 16.562h39.586c9.048 0 16.383-7.415 16.383-16.562v-51.684c0-4.881-1.918-9.562-5.332-13.013z" fill="url(#SVGID_16_)"/></g></g><g><g><path d="m321.727 412.473c-17.611 22.939-31.515 49.965-41.208 79.426-2.808 8.535 1.921 18.101 8.918 18.101h104.496c6.997 0 11.726-9.566 8.918-18.101-9.693-29.461-23.597-56.487-41.208-79.426-10.976-14.619-28.939-14.619-39.916 0z" fill="url(#SVGID_17_)"/><path d="m393.932 510h-30.05c6.998 0 11.729-9.57 8.921-18.1-.013-.04-.027-.081-.04-.121-2.384-7.218-7.798-11.819-13.719-11.819h-74.313c3.236-8.59 6.841-16.94 10.798-25.01 7.494-15.27 16.257-29.53 26.198-42.48 1.524-2.03 3.176-3.77 4.933-5.24 4.565-3.82 9.792-5.73 15.025-5.73 7.239 0 14.47 3.66 19.959 10.97 9.942 12.95 18.705 27.21 26.198 42.48 3.957 8.07 7.561 16.42 10.798 25.01 1.479 3.93 2.883 7.91 4.212 11.94 2.809 8.53-1.922 18.1-8.92 18.1z" fill="url(#SVGID_18_)"/></g><g><path d="m393.446 454.953h-103.521c-5.567 0-10.08-7.501-10.08-16.755v-175.641c0-68.176 16.528-133.476 45.85-181.146 8.888-14.45 23.093-14.45 31.981 0 29.322 47.67 45.85 112.97 45.85 181.146v175.641c-.001 9.253-4.513 16.755-10.08 16.755z" fill="url(#SVGID_19_)"/><path d="m357.676 81.411c-7.663-12.459-19.276-14.166-28.029-5.141 1.399 1.443 2.728 3.149 3.952 5.141 27.744 45.105 44.024 105.995 45.697 170.169h-78.21c-2.294 0-4.339 2.739-4.627 6.522-.349 4.576 1.79 8.478 4.475 8.478h56.989c11.889 0 21.527 16.02 21.527 35.782v77.638h-37.612c-2.294 0-4.339 2.739-4.627 6.522-.349 4.576 1.79 8.478 4.475 8.478h16.237c11.889 0 21.527 16.02 21.527 35.782v24.17h13.997c5.567 0 10.08-7.501 10.08-16.755v-175.64c-.001-68.176-16.529-133.476-45.851-181.146z" fill="url(#SVGID_20_)"/></g><path d="m307.467 152.97c-2.632 12.489-4.812 25.458-6.515 38.774-.832 6.506 2.502 12.366 6.455 11.327 10.629-2.793 22.189-4.326 34.278-4.326 12.09 0 23.649 1.533 34.278 4.326 3.952 1.038 7.287-4.822 6.455-11.327-1.703-13.316-3.883-26.285-6.515-38.774-.71-3.37-2.497-5.787-4.627-6.261-9.31-2.069-19.257-3.191-29.591-3.191-10.335 0-20.281 1.122-29.591 3.191-2.129.473-3.916 2.891-4.627 6.261z" fill="url(#SVGID_21_)"/><path d="m375.903 152.97c-.71-3.37-2.497-5.787-4.627-6.261-3.012-.669-6.097-1.228-9.233-1.693 5.766 18.303 10.17 37.732 13.105 57.856.27.069.546.129.815.2 3.952 1.038 7.287-4.822 6.455-11.327-1.703-13.318-3.882-26.286-6.515-38.775z" fill="url(#SVGID_22_)"/></g></g></g></svg>