<svg id="Capa_1" enable-background="new 0 0 510 510" height="512" viewBox="0 0 510 510" width="512" xmlns="http://www.w3.org/2000/svg" xmlns:xlink="http://www.w3.org/1999/xlink"><linearGradient id="lg1"><stop offset="0" stop-color="#eaf6ff"/><stop offset=".5213" stop-color="#d8ecfe"/><stop offset="1" stop-color="#b3dafe"/></linearGradient><linearGradient id="SVGID_1_" gradientUnits="userSpaceOnUse" x1="170.189" x2="278.526" xlink:href="#lg1" y1="417.305" y2="417.305"/><linearGradient id="SVGID_2_" gradientUnits="userSpaceOnUse" x1="132.467" x2="244.409" xlink:href="#lg1" y1="417.305" y2="417.305"/><linearGradient id="SVGID_3_" gradientUnits="userSpaceOnUse" x1="132.467" x2="244.409" xlink:href="#lg1" y1="416.118" y2="416.118"/><linearGradient id="SVGID_4_" gradientUnits="userSpaceOnUse" x1="132.467" x2="244.409" xlink:href="#lg1" y1="393.2" y2="393.2"/><linearGradient id="lg2"><stop offset="0" stop-color="#fbc56d"/><stop offset=".5841" stop-color="#fe9738"/><stop offset=".9984" stop-color="#fb2b3a"/></linearGradient><linearGradient id="SVGID_5_" gradientUnits="userSpaceOnUse" x1=".369" x2="302.498" xlink:href="#lg2" y1="143.377" y2="143.377"/><linearGradient id="lg3"><stop offset="0" stop-color="#fef056"/><stop offset=".5213" stop-color="#f4d902"/><stop offset="1" stop-color="#fe9738"/></linearGradient><linearGradient id="SVGID_6_" gradientUnits="userSpaceOnUse" x1="43.031" x2="243.723" xlink:href="#lg3" y1="143.377" y2="143.377"/><linearGradient id="SVGID_7_" gradientUnits="userSpaceOnUse" x1="-6.623" x2="209.491" xlink:href="#lg3" y1="143.377" y2="143.377"/><linearGradient id="SVGID_8_" gradientUnits="userSpaceOnUse" x1="-15.623" x2="279.547" xlink:href="#lg2" y1="143.377" y2="143.377"/><linearGradient id="lg4"><stop offset="0" stop-color="#60b7ff"/><stop offset=".5857" stop-color="#0182fc"/><stop offset="1" stop-color="#2740b0"/></linearGradient><linearGradient id="SVGID_9_" gradientUnits="userSpaceOnUse" x1="167.14" x2="306.586" xlink:href="#lg4" y1="236.863" y2="236.863"/><linearGradient id="SVGID_10_" gradientUnits="userSpaceOnUse" x1="159.442" x2="291.484" xlink:href="#lg4" y1="236.863" y2="236.863"/><linearGradient id="SVGID_11_" gradientUnits="userSpaceOnUse" x1="159.442" x2="291.484" xlink:href="#lg4" y1="235.336" y2="235.336"/><linearGradient id="SVGID_12_" gradientUnits="userSpaceOnUse" x1="159.442" x2="291.484" xlink:href="#lg4" y1="205.836" y2="205.836"/><linearGradient id="lg5"><stop offset="0" stop-color="#fd8087"/><stop offset=".5213" stop-color="#fb2b3a"/><stop offset="1" stop-color="#d90d80"/></linearGradient><linearGradient id="SVGID_13_" gradientUnits="userSpaceOnUse" x1="201.782" x2="469.006" xlink:href="#lg5" y1="321.733" y2="321.733"/><linearGradient id="SVGID_14_" gradientUnits="userSpaceOnUse" x1="147" x2="389.019" xlink:href="#lg5" y1="321.733" y2="321.733"/><linearGradient id="SVGID_15_" gradientUnits="userSpaceOnUse" x1="147" x2="389.019" xlink:href="#lg5" y1="319.107" y2="319.107"/><linearGradient id="SVGID_16_" gradientUnits="userSpaceOnUse" x1="147" x2="389.019" xlink:href="#lg5" y1="268.355" y2="268.355"/><linearGradient id="lg6"><stop offset="0" stop-color="#a2e62e"/><stop offset=".4477" stop-color="#81b823"/><stop offset=".5319" stop-color="#75b32a"/><stop offset=".6827" stop-color="#56a53e"/><stop offset=".8811" stop-color="#248d5e"/><stop offset="1" stop-color="#037e73"/></linearGradient><linearGradient id="SVGID_17_" gradientUnits="userSpaceOnUse" x1="361.345" x2="510" xlink:href="#lg6" y1="435.673" y2="435.673"/><linearGradient id="SVGID_18_" gradientUnits="userSpaceOnUse" x1="292.5" x2="484.147" xlink:href="#lg6" y1="435.673" y2="435.673"/><linearGradient id="SVGID_19_" gradientUnits="userSpaceOnUse" x1="292.5" x2="484.147" xlink:href="#lg6" y1="434.045" y2="434.045"/><linearGradient id="SVGID_20_" gradientUnits="userSpaceOnUse" x1="292.5" x2="484.147" xlink:href="#lg6" y1="402.597" y2="402.597"/><linearGradient id="SVGID_21_" gradientUnits="userSpaceOnUse" x1="348.667" x2="526.791" y1="432.087" y2="432.087"><stop offset="0" stop-color="#feca9c"/><stop offset=".5213" stop-color="#fd8087"/><stop offset="1" stop-color="#f46700"/></linearGradient><linearGradient id="SVGID_22_" gradientUnits="userSpaceOnUse" x1="451.231" x2="516.257" xlink:href="#lg1" y1="321.733" y2="321.733"/><g><g><circle cx="224.357" cy="417.305" fill="url(#SVGID_1_)" r="54.169"/><g><path d="m224.357 363.136c-3.319 0-6.562.314-9.716.886 25.278 4.58 44.453 26.685 44.453 53.283 0 8.662-2.045 16.842-5.661 24.101-1.833-8.251-9.428-14.333-18.348-13.794-8.668.524-15.802 7.487-16.515 16.142-.375 4.547.973 8.77 3.461 12.089 3.951 5.27 1.178 12.876-5.249 14.312-.709.158-1.423.303-2.142.433 3.154.572 6.397.886 9.716.886 29.916 0 54.169-24.252 54.169-54.169s-24.251-54.169-54.168-54.169z" fill="url(#SVGID_2_)"/><circle cx="196.967" cy="416.118" fill="url(#SVGID_3_)" r="11.459"/><circle cx="231.869" cy="393.199" fill="url(#SVGID_4_)" r="11.459"/></g></g><g><g><path d="m282.011 152.132-.043.028c-10.455 6.733-12.947 21.121-5.381 31.066l.007.01c4.584 6.025 1.421 14.839-5.908 16.466l-.014.003c-12.097 2.685-19.306 15.331-15.565 27.305l.013.043c2.264 7.247-3.674 14.42-11.103 13.411l-.024-.003c-12.282-1.668-23.321 7.733-23.825 20.292v.008c-.305 7.6-8.305 12.292-14.951 8.769l-.041-.022c-10.968-5.815-24.492-.823-29.209 10.783l-.018.045c-2.859 7.032-11.96 8.653-17.01 3.031-8.349-9.296-22.771-9.296-31.12 0-5.05 5.623-14.151 4.001-17.01-3.031l-.019-.046c-4.718-11.605-18.241-16.597-29.209-10.783l-.042.022c-6.646 3.523-14.646-1.169-14.951-8.769v-.009c-.504-12.559-11.542-21.96-23.825-20.292l-.024.003c-7.429 1.009-13.367-6.164-11.103-13.411l.013-.043c3.741-11.974-3.468-24.62-15.565-27.305l-.014-.003c-7.329-1.627-10.492-10.441-5.908-16.466l.007-.009c7.566-9.945 5.074-24.333-5.381-31.066l-.043-.028c-6.325-4.073-6.325-13.435 0-17.509l.043-.028c10.455-6.733 12.947-21.121 5.381-31.066l-.007-.01c-4.584-6.025-1.421-14.839 5.908-16.466l.014-.003c12.097-2.685 19.306-15.331 15.565-27.305l-.013-.043c-2.264-7.247 3.674-14.42 11.103-13.411l.024.003c12.282 1.668 23.321-7.733 23.825-20.292v-.008c.305-7.6 8.305-12.292 14.951-8.769l.041.022c10.968 5.815 24.492.823 29.209-10.783l.018-.045c2.858-7.032 11.96-8.653 17.01-3.031 8.349 9.296 22.771 9.296 31.12 0 5.05-5.623 14.151-4.001 17.01 3.031l.019.046c4.718 11.605 18.241 16.597 29.209 10.783l.042-.022c6.646-3.523 14.646 1.169 14.951 8.769v.009c.504 12.559 11.542 21.96 23.825 20.292l.024-.003c7.429-1.009 13.367 6.164 11.103 13.411l-.013.043c-3.741 11.974 3.468 24.62 15.565 27.305l.014.003c7.329 1.627 10.492 10.441 5.908 16.466l-.007.009c-7.566 9.945-5.074 24.333 5.381 31.066l.043.028c6.325 4.073 6.325 13.435 0 17.509z" fill="url(#SVGID_5_)"/><circle cx="143.377" cy="143.377" fill="url(#SVGID_6_)" r="100.346"/></g><path d="m143.377 43.031c-6.852 0-13.544.689-20.01 1.998 45.832 9.275 80.336 49.781 80.336 98.348s-34.504 89.073-80.336 98.348c6.466 1.309 13.158 1.998 20.01 1.998 55.419 0 100.346-44.926 100.346-100.346 0-55.419-44.926-100.346-100.346-100.346z" fill="url(#SVGID_7_)"/><path d="m282.011 134.623-.043-.028c-10.455-6.733-12.947-21.122-5.381-31.066l.007-.009c4.584-6.025 1.421-14.839-5.908-16.466l-.014-.003c-12.098-2.685-19.306-15.332-15.565-27.305l.013-.043c2.264-7.247-3.674-14.42-11.103-13.411l-.024.003c-12.282 1.668-23.321-7.734-23.825-20.292v-.009c-.305-7.6-8.305-12.292-14.951-8.769l-.042.022c-4.061 2.153-8.472 2.821-12.657 2.224 1.528 1.703 2.535 3.938 2.639 6.523v.009c.504 12.559 11.542 21.96 23.825 20.292l.024-.003c7.429-1.009 13.367 6.164 11.103 13.411l-.013.043c-3.741 11.974 3.468 24.62 15.565 27.305l.014.003c7.329 1.627 10.492 10.441 5.908 16.466l-.007.009c-7.566 9.945-5.074 24.333 5.381 31.066l.043.028c6.325 4.073 6.325 13.435 0 17.509l-.043.028c-10.455 6.733-12.947 21.121-5.381 31.066l.007.01c4.584 6.025 1.421 14.839-5.908 16.466l-.014.003c-12.097 2.685-19.306 15.331-15.565 27.305l.013.043c2.264 7.247-3.674 14.42-11.103 13.411l-.024-.003c-12.282-1.668-23.321 7.733-23.825 20.292v.008c-.104 2.585-1.111 4.82-2.639 6.523 4.185-.597 8.596.071 12.657 2.224l.041.022c6.646 3.523 14.646-1.169 14.951-8.769v-.008c.504-12.559 11.542-21.96 23.825-20.292l.024.003c7.429 1.009 13.367-6.164 11.103-13.411l-.014-.043c-3.741-11.974 3.468-24.62 15.565-27.305l.014-.003c7.329-1.627 10.492-10.441 5.908-16.466l-.007-.01c-7.566-9.945-5.074-24.333 5.381-31.066l.043-.028c6.327-4.074 6.327-13.436.002-17.509z" fill="url(#SVGID_8_)"/></g><g><g><circle cx="236.863" cy="236.863" fill="url(#SVGID_9_)" r="69.723"/><g><path d="m236.863 167.14c-4.271 0-8.446.405-12.506 1.14 32.536 5.896 57.218 34.347 57.218 68.583 0 11.15-2.632 21.678-7.286 31.021-2.359-10.62-12.135-18.449-23.616-17.755-11.157.674-20.339 9.637-21.257 20.777-.482 5.852 1.252 11.288 4.455 15.56 5.085 6.783 1.517 16.574-6.756 18.422-.912.204-1.832.39-2.757.558 4.059.736 8.234 1.14 12.506 1.14 38.507 0 69.723-31.216 69.723-69.723s-31.217-69.723-69.724-69.723z" fill="url(#SVGID_10_)"/><circle cx="201.607" cy="235.336" fill="url(#SVGID_11_)" r="14.75"/><circle cx="246.531" cy="205.836" fill="url(#SVGID_12_)" r="14.75"/></g></g></g><g><circle cx="321.733" cy="321.733" fill="url(#SVGID_13_)" r="119.951"/><g><path d="m321.734 201.782c-7.349 0-14.531.696-21.515 1.962 55.975 10.143 98.437 59.091 98.437 117.99 0 19.182-4.527 37.294-12.535 53.369-4.058-18.271-20.877-31.74-40.629-30.546-19.195 1.16-34.991 16.58-36.571 35.745-.83 10.068 2.154 19.42 7.664 26.77 8.748 11.669 2.609 28.513-11.624 31.693-1.57.351-3.151.671-4.743.959 6.984 1.266 14.166 1.962 21.515 1.962 66.247 0 119.951-53.704 119.951-119.951s-53.704-119.953-119.95-119.953z" fill="url(#SVGID_14_)"/><circle cx="261.08" cy="319.107" fill="url(#SVGID_15_)" r="25.376"/><circle cx="338.367" cy="268.355" fill="url(#SVGID_16_)" r="25.376"/></g></g><g><g><circle cx="435.673" cy="435.673" fill="url(#SVGID_17_)" r="74.327"/><g><path d="m435.673 361.345c-4.554 0-9.004.432-13.331 1.216 34.684 6.285 60.996 36.615 60.996 73.112 0 11.886-2.805 23.109-7.767 33.07-2.515-11.322-12.936-19.667-25.176-18.927-11.894.719-21.682 10.274-22.661 22.149-.514 6.239 1.335 12.034 4.749 16.588 5.421 7.231 1.617 17.668-7.203 19.638-.973.217-1.953.416-2.939.594 4.327.784 8.778 1.216 13.331 1.216 41.05 0 74.327-33.277 74.327-74.327s-33.277-74.329-74.326-74.329z" fill="url(#SVGID_18_)"/><circle cx="398.089" cy="434.045" fill="url(#SVGID_19_)" r="15.724"/><circle cx="445.979" cy="402.597" fill="url(#SVGID_20_)" r="15.724"/></g></g></g><path d="m501.87 362.3c-9.78-9.78-26.43-10.77-46.89-2.77-2.22.87-4.46 1.83-6.72 2.89 8.09 1.37 15.73 4.06 22.7 7.83 3.21-.71 6.19-1.06 8.86-1.06 2.5 0 4.75.31 6.67.93 1.93.61 3.54 1.54 4.78 2.78 3.38 3.39 4.45 9.51 3.21 17.32-.64 4.09-1.91 8.65-3.81 13.52-6.47 16.57-19.13 34.79-35.64 51.29-16.5 16.51-34.72 29.17-51.29 35.64-4.87 1.9-9.43 3.17-13.52 3.81-7.81 1.24-13.93.17-17.32-3.21-3.8-3.81-4.68-11.08-2.65-20.31-3.77-6.97-6.46-14.61-7.83-22.7-1.06 2.26-2.02 4.5-2.89 6.72-8 20.46-7.01 37.11 2.77 46.89 5.41 5.41 12.91 8.13 22 8.13 7.18 0 15.36-1.7 24.25-5.11.21-.07.42-.16.64-.24 18.46-7.22 38.51-21.07 56.45-39.01s31.79-37.99 39.01-56.45c.08-.21.17-.43.24-.64 3.41-8.9 5.11-17.07 5.11-24.25 0-9.09-2.72-16.59-8.13-22z" fill="url(#SVGID_21_)"/><circle cx="476.763" cy="321.733" fill="url(#SVGID_22_)" r="17.646"/></g></svg>