<svg id="Capa_1" enable-background="new 0 0 510.001 510.001" height="512" viewBox="0 0 510.001 510.001" width="512" xmlns="http://www.w3.org/2000/svg" xmlns:xlink="http://www.w3.org/1999/xlink"><linearGradient id="lg1"><stop offset="0" stop-color="#a2e62e"/><stop offset=".4477" stop-color="#81b823"/><stop offset=".5319" stop-color="#75b32a"/><stop offset=".6827" stop-color="#56a53e"/><stop offset=".8811" stop-color="#248d5e"/><stop offset="1" stop-color="#037e73"/></linearGradient><linearGradient id="SVGID_1_" gradientUnits="userSpaceOnUse" x1="36.099" x2="473.905" xlink:href="#lg1" y1="232.821" y2="232.821"/><linearGradient id="SVGID_2_" gradientUnits="userSpaceOnUse" x1="-189.439" x2="434.618" xlink:href="#lg1" y1="165.749" y2="165.749"/><linearGradient id="SVGID_3_" gradientUnits="userSpaceOnUse" x1="-189.439" x2="434.618" xlink:href="#lg1" y1="232.821" y2="232.821"/><linearGradient id="lg2"><stop offset="0" stop-color="#fef056"/><stop offset=".5213" stop-color="#f4d902"/><stop offset="1" stop-color="#fe9738"/></linearGradient><linearGradient id="SVGID_4_" gradientUnits="userSpaceOnUse" x1="-13.87" x2="533.605" xlink:href="#lg2" y1="232.824" y2="232.824"/><linearGradient id="SVGID_5_" gradientUnits="userSpaceOnUse" x1="-26.337" x2="250.878" xlink:href="#lg2" y1="372.036" y2="372.036"/><linearGradient id="SVGID_6_" gradientUnits="userSpaceOnUse" x1="179.335" x2="457.386" xlink:href="#lg2" y1="159.558" y2="159.558"/><linearGradient id="SVGID_7_" gradientUnits="userSpaceOnUse" x1="-69.459" x2="180.363" xlink:href="#lg2" y1="298.962" y2="298.962"/><linearGradient id="lg3"><stop offset="0" stop-color="#eaf6ff"/><stop offset=".5213" stop-color="#d8ecfe"/><stop offset="1" stop-color="#b3dafe"/></linearGradient><linearGradient id="SVGID_8_" gradientUnits="userSpaceOnUse" x1="49.497" x2="460.506" xlink:href="#lg3" y1="232.813" y2="232.813"/><linearGradient id="lg4"><stop offset="0" stop-color="#60b7ff"/><stop offset=".5857" stop-color="#0182fc"/><stop offset="1" stop-color="#2740b0"/></linearGradient><linearGradient id="SVGID_9_" gradientUnits="userSpaceOnUse" x1="110.002" x2="286.141" xlink:href="#lg4" y1="287.228" y2="287.228"/><linearGradient id="SVGID_10_" gradientUnits="userSpaceOnUse" x1="43.002" x2="292.139" xlink:href="#lg4" y1="301.786" y2="301.786"/><linearGradient id="SVGID_11_" gradientUnits="userSpaceOnUse" x1="196.002" x2="331.238" xlink:href="#lg4" y1="423.412" y2="423.412"/><linearGradient id="SVGID_12_" gradientUnits="userSpaceOnUse" x1="110.002" x2="345.014" xlink:href="#lg4" y1="423.41" y2="423.41"/><linearGradient id="SVGID_13_" gradientUnits="userSpaceOnUse" x1="151.002" x2="457.026" xlink:href="#lg3" y1="343.7" y2="343.7"/><linearGradient id="SVGID_14_" gradientUnits="userSpaceOnUse" x1="5.002" x2="392.048" xlink:href="#lg3" y1="343.704" y2="343.704"/><linearGradient id="lg5"><stop offset="0" stop-color="#814aa0"/><stop offset="1" stop-color="#192a7d"/></linearGradient><linearGradient id="SVGID_15_" gradientUnits="userSpaceOnUse" x1="286.002" x2="387.318" xlink:href="#lg5" y1="310.671" y2="310.671"/><linearGradient id="SVGID_16_" gradientUnits="userSpaceOnUse" x1="154.002" x2="307.002" xlink:href="#lg5" y1="330.046" y2="330.046"/><linearGradient id="SVGID_17_" gradientUnits="userSpaceOnUse" x1="130.002" x2="220.671" y1="378.593" y2="378.593"><stop offset="0" stop-color="#fd8087"/><stop offset=".5213" stop-color="#fb2b3a"/><stop offset="1" stop-color="#d90d80"/></linearGradient><g><circle cx="255.002" cy="232.821" fill="url(#SVGID_1_)" r="218.903"/><g><path d="m100.005 190.635c7.251-2.129 14.541-4.423 21.856-6.879 11.869-3.984 18.172-16.932 14.03-28.747l-.003-.009c-4.063-11.59-16.687-17.8-28.328-13.885-6.762 2.274-13.493 4.396-20.179 6.362-10.259 3.018-16.99 12.812-16.088 23.468 1.199 14.162 15.075 23.694 28.712 19.69z" fill="url(#SVGID_2_)"/><path d="m255.002 13.918c-6.747 0-13.418.322-20.01.92.001.02-.001-.014 0 .006 29.451 2.17 39.082 40.22 14.807 56.563-15.227 10.25-31.554 20.051-48.757 29.244-11.148 5.957-15.689 19.997-10.037 31.302 5.43 10.86 18.64 15.065 29.365 9.373 40.679-21.59 77.146-46.513 106.897-73.015 9.048-8.06 22.655-8.25 31.782-.279.15.132.301.264.451.396 10.424 9.183 11.16 24.781 1.551 34.814-3.13 3.269-6.067 6.259-8.115 8.194-20.367 19.237-44.903 37.77-72.448 54.798-9.021 5.577-13.325 16.635-9.813 26.643 4.901 13.962 21.094 19.254 33.186 11.781 30.734-18.996 58.208-39.833 81.082-61.581 10.37-9.859 27.387-6.137 32.794 7.111.055.135.11.269.164.404 2.951 7.273 1.439 15.598-3.874 21.375-6.185 6.724-14.118 15.135-18.213 18.987-23.761 22.348-53.144 43.733-86.323 62.902-24.964-1.127-50.084 3.682-73.203 14.368l-9.878 4.566-60.198-41.763c-6.436-4.465-14.756-5.189-21.867-1.902l-32.849 15.185c-7.05 3.259-10.124 11.616-6.865 18.667l21.856 47.281c-.675.184-1.345.412-2.001.715l-9.767 4.515c-6.34 2.931-9.104 10.447-6.173 16.787l24.069 52.069c-15.642.003-29.299-1.761-40.338-5.112 18.13 20.136 39.942 36.886 64.378 49.196l.001.001c9.577 4.824 19.558 8.964 29.877 12.359.075-.049.154-.093.227-.143l.118.255c15.359 5.026 31.464 8.406 48.107 9.919.19.017.406.029.638.037 6.386.561 12.846.869 19.378.869 120.897 0 218.903-98.006 218.903-218.903s-98.005-218.904-218.902-218.904zm96.258 390.201c-22.381 17.829-48.334 31.362-76.614 39.356l4.465-45.293c17.396-6.771 34.885-14.548 52.222-23.296.299-.151.597-.302.896-.453 19.106-9.683 35.785 16.34 19.031 29.686zm18.639-103.972c.822-2.039 1.613-4.093 2.351-6.173 2.97-8.361.949-17.302-4.541-23.539 24.699-16.749 46.846-34.664 65.627-53.182.362 5.143.549 10.334.549 15.569 0 5.146-.184 10.248-.533 15.305-17.705 18.077-39.195 35.669-63.453 52.02z" fill="url(#SVGID_3_)"/></g><g><path d="m502.032 108.171c-16.81-33.33-57.24-50.74-114.34-49.47 18.68 14.26 35 31.46 48.27 50.91 12.64 4.21 21.57 10.62 25.75 18.9 4.18 8.27 4.03 19.24-.07 31.89-4.6 14.16-14.15 30.42-28.16 47.37-.5.6-1 1.2-1.51 1.8-3.591 4.269-7.403 8.524-11.425 12.755-8.438 8.876-8.272 22.86.387 31.522 8.931 8.934 23.507 8.85 32.227-.291 5.371-5.63 10.426-11.308 15.142-17.016 1.93-2.33 3.79-4.65 5.57-6.97 23.89-30.86 36.13-60.64 36.13-87.05-.002-12.26-2.642-23.78-7.971-34.35zm-370.851 253.19c-.79.05-1.58.1-2.37.14-21.93 1.2-40.67-.77-54.77-5.48-12.64-4.21-21.57-10.62-25.75-18.9-4.18-8.27-4.03-19.23.07-31.88-7.6-21.7-11.88-44.96-12.23-69.17-34.97 45.18-44.99 88.06-28.16 121.4 16.24 32.2 54.52 49.54 108.57 49.54 1.9 0 3.82-.02 5.77-.07 2.94-.06 5.93-.18 8.96-.34 18.17-.99 37.41-3.73 57.3-8.09 40.74-8.93 84.21-24.66 126.76-46.13.83-.42 1.66-.84 2.49-1.27l-33.72-33.71c-53.43 25.55-107.23 41.06-152.92 43.96z" fill="url(#SVGID_4_)"/><path d="m303.762 337.061 14.06 14.05c-.83.43-1.66.85-2.49 1.27-42.55 21.47-86.02 37.2-126.76 46.13-19.89 4.36-39.13 7.1-57.3 8.09-3.03.16-6.02.28-8.96.34-1.95.05-3.87.07-5.77.07-6.71 0-13.18-.27-19.4-.8 6.96-.52 14.07-1.28 21.31-2.29 9.82-1.36 19.88-3.17 30.1-5.41 40.74-8.93 84.21-24.66 126.76-46.13 9.71-4.9 19.2-10.02 28.45-15.32z" fill="url(#SVGID_5_)"/><path d="m510.001 142.521c0 26.41-12.24 56.19-36.13 87.05-1.78 2.32-3.64 4.64-5.57 6.97-4.715 5.708-9.77 11.385-15.14 17.015-8.72 9.141-23.297 9.225-32.228.289-2.318-2.319-2.41-6.04-.226-8.486 2.614-2.929 5.137-5.871 7.575-8.817 18.41-22.28 30.83-44.09 37.05-64.58 3.09-10.17 4.65-20.02 4.65-29.44 0-12.26-2.64-23.78-7.97-34.35-12.05-23.89-36.25-39.6-70.03-46.11-1.41-1.14-2.84-2.26-4.29-3.36 57.1-1.27 97.53 16.14 114.34 49.47 5.329 10.569 7.969 22.089 7.969 34.349z" fill="url(#SVGID_6_)"/><path d="m74.032 356.021c-12.64-4.21-21.57-10.62-25.74-18.9-4.18-8.27-4.03-19.23.07-31.88-3.588-10.239-6.427-20.812-8.463-31.68-2.29-12.172-3.582-24.697-3.767-37.49-8.93 11.537-16.222 22.923-21.867 34.039.997 5.81 2.227 11.54 3.677 17.182 2.701 10.513 3.277 21.413 2.414 32.233-.534 6.692.411 12.631 2.916 17.595 6.88 13.62 26.58 22.16 54.51 24.23 8.23.62 17.16.67 26.69.12 0-.01 0-.01 0-.01-11.63-.739-21.89-2.589-30.44-5.439z" fill="url(#SVGID_7_)"/></g><path d="m453.991 324.151c-3.2 6.98-6.77 13.77-10.67 20.33 5.01 27.76.96 49.87-12.1 63.04-13.06 13.18-35.12 17.43-62.94 12.65-11.71-2.01-24.45-5.62-37.96-10.84-48.24-18.6-101.12-54.93-148.89-102.3-47.78-47.36-84.57-99.92-103.59-148-5.33-13.47-9.05-26.17-11.16-37.87-1.39-7.69-2.08-14.94-2.08-21.69 0-17.63 4.73-31.83 14.18-41.36 13.06-13.17 35.13-17.4 62.93-12.63 6.53-3.96 13.29-7.59 20.25-10.86-14.92-4.11-28.74-6.16-41.24-6.16-22.06 0-40 6.39-52.6 19.09-19.72 19.9-23.82 52.77-12.11 93.94 2.11 7.43 4.74 15.12 7.88 23.06 19.77 49.96 57.76 104.35 106.98 153.14 49.21 48.78 103.92 86.3 154.05 105.64 1.29.5 2.57.98 3.85 1.45 6.61 2.44 13.05 4.52 19.29 6.23 41.26 11.35 74.09 6.97 93.82-12.92 19.721-19.91 23.82-52.77 12.11-93.94z" fill="url(#SVGID_8_)"/><g><g><path d="m282.84 294.587-114.185 52.783-39.012-84.393c-3.259-7.05-.186-15.408 6.865-18.667l32.849-15.185c7.111-3.287 15.43-2.563 21.867 1.902z" fill="url(#SVGID_9_)"/><path d="m282.842 294.591-114.19 52.78-13.87-30-10.49-22.71 83.209-38.46 23.841 16.54z" fill="url(#SVGID_10_)"/><path d="m308.798 350.74-114.185 52.783 39.012 84.393c3.259 7.05 11.617 10.124 18.667 6.865l32.849-15.185c7.111-3.287 11.949-10.093 12.718-17.889z" fill="url(#SVGID_11_)"/><path d="m282.593 362.854-9.745 98.854c-.769 7.796-5.607 14.602-12.718 17.889l-24.577 11.361c3.968 4.814 10.81 6.565 16.738 3.824l32.849-15.185c7.111-3.287 11.949-10.093 12.718-17.889l10.939-110.967z" fill="url(#SVGID_12_)"/></g><path d="m207.873 433.715-53.625-116.006 107.051-49.486c38.47-17.783 82.483-19.314 122.095-4.246 12.007 4.567 18.166 17.891 13.866 29.997-14.186 39.937-43.866 72.472-82.336 90.255z" fill="url(#SVGID_13_)"/><path d="m383.395 263.977c-24.444-9.298-50.563-12.266-76.022-9.005 12.213 1.563 24.3 4.554 36.002 9.005 12.008 4.567 18.167 17.891 13.866 29.997-14.186 39.937-43.866 72.472-82.336 90.255l-74.077 34.243 7.046 15.242 107.051-49.486c38.47-17.783 68.151-50.318 82.336-90.255 4.3-12.105-1.859-25.429-13.866-29.996z" fill="url(#SVGID_14_)"/><path d="m326.653 270.631c-8.039.806-16.149 2.151-24.247 4.025-3.956.915-5.766 5.495-3.495 8.861 6.109 9.052 11.92 19.285 17.111 30.402s9.306 22.142 12.325 32.637c1.123 3.902 5.796 5.455 9.038 3.009 6.635-5.006 12.873-10.36 18.652-16.007 1.559-1.524 2.129-3.791 1.477-5.872-2.853-9.095-6.503-18.531-10.941-28.034-4.437-9.503-9.329-18.359-14.471-26.385-1.175-1.834-3.28-2.853-5.449-2.636z" fill="url(#SVGID_15_)"/><path d="m337.386 349.566c6.635-5.006 12.873-10.36 18.652-16.007 1.559-1.524 2.129-3.792 1.477-5.872-1.879-5.99-4.111-12.13-6.679-18.337-6.123 12.771-13.902 24.594-23.094 35.178.202.676.413 1.356.606 2.028 1.123 3.903 5.797 5.456 9.038 3.01z" fill="url(#SVGID_16_)"/><path d="m183.373 440.039-49.815-107.764c-2.931-6.34-.167-13.856 6.173-16.787l9.767-4.515c6.34-2.931 13.856-.167 16.787 6.173l49.815 107.764c2.931 6.34.167 13.856-6.173 16.787l-9.767 4.515c-6.34 2.931-13.856.167-16.787-6.173z" fill="url(#SVGID_17_)"/></g></g></svg>