<svg id="Capa_1" enable-background="new 0 0 510 510" height="512" viewBox="0 0 510 510" width="512" xmlns="http://www.w3.org/2000/svg" xmlns:xlink="http://www.w3.org/1999/xlink"><linearGradient id="SVGID_1_" gradientUnits="userSpaceOnUse" x1="-21.333" x2="100.017" y1="416.853" y2="416.853"><stop offset="0" stop-color="#fef056"/><stop offset=".5213" stop-color="#f4d902"/><stop offset="1" stop-color="#fe9738"/></linearGradient><linearGradient id="SVGID_2_" gradientUnits="userSpaceOnUse" x1="-11.646" x2="84.394" y1="371.3" y2="371.3"><stop offset="0" stop-color="#feca9c"/><stop offset=".5213" stop-color="#fd8087"/><stop offset="1" stop-color="#f46700"/></linearGradient><linearGradient id="lg1"><stop offset="0" stop-color="#eaf6ff"/><stop offset=".5213" stop-color="#d8ecfe"/><stop offset="1" stop-color="#b3dafe"/></linearGradient><linearGradient id="SVGID_3_" gradientUnits="userSpaceOnUse" x1="-5.1" x2="225.601" xlink:href="#lg1" y1="428.51" y2="428.51"/><linearGradient id="SVGID_4_" gradientUnits="userSpaceOnUse" x1="-168.282" x2="139.317" xlink:href="#lg1" y1="428.447" y2="428.447"/><linearGradient id="lg2"><stop offset="0" stop-color="#fd8087"/><stop offset=".5213" stop-color="#fb2b3a"/><stop offset="1" stop-color="#d90d80"/></linearGradient><linearGradient id="SVGID_5_" gradientTransform="matrix(.707 .707 -.707 .707 -1686.133 -792.621)" gradientUnits="userSpaceOnUse" x1="2267.69" x2="2388.301" xlink:href="#lg2" y1="-561.072" y2="-561.072"/><linearGradient id="SVGID_6_" gradientTransform="matrix(.707 .707 -.707 .707 -1841.312 -532.716)" gradientUnits="userSpaceOnUse" x1="2122.498" x2="2301.066" xlink:href="#lg2" y1="-854.584" y2="-854.584"/><linearGradient id="SVGID_7_" gradientTransform="matrix(.707 .707 -.707 .707 -1841.312 -532.716)" gradientUnits="userSpaceOnUse" x1="2173.998" x2="2317.012" xlink:href="#lg1" y1="-963.282" y2="-963.282"/><linearGradient id="SVGID_8_" gradientTransform="matrix(.707 .707 -.707 .707 -1841.312 -532.716)" gradientUnits="userSpaceOnUse" x1="2083.331" x2="2288.037" xlink:href="#lg1" y1="-963.893" y2="-963.893"/><linearGradient id="lg3"><stop offset="0" stop-color="#60b7ff"/><stop offset=".5857" stop-color="#0182fc"/><stop offset="1" stop-color="#2740b0"/></linearGradient><linearGradient id="SVGID_9_" gradientUnits="userSpaceOnUse" x1="36.097" x2="466.903" xlink:href="#lg3" y1="258.653" y2="258.653"/><linearGradient id="SVGID_10_" gradientUnits="userSpaceOnUse" x1="-51" x2="357.256" xlink:href="#lg3" y1="255.116" y2="255.116"/><linearGradient id="SVGID_11_" gradientUnits="userSpaceOnUse" x1="-109.391" x2="418.719" xlink:href="#lg3" y1="256.5" y2="256.5"/><linearGradient id="lg4"><stop offset="0" stop-color="#a2e62e"/><stop offset=".5857" stop-color="#81b823"/><stop offset="1" stop-color="#037e73"/></linearGradient><linearGradient id="SVGID_12_" gradientUnits="userSpaceOnUse" x1="42.106" x2="491.997" xlink:href="#lg4" y1="230.105" y2="230.105"/><linearGradient id="SVGID_13_" gradientUnits="userSpaceOnUse" x1="16" x2="388" xlink:href="#lg4" y1="230.105" y2="230.105"/><linearGradient id="SVGID_14_" gradientUnits="userSpaceOnUse" x1="42.106" x2="491.997" xlink:href="#lg4" y1="372.785" y2="372.785"/><linearGradient id="SVGID_15_" gradientUnits="userSpaceOnUse" x1="42.106" x2="491.997" xlink:href="#lg4" y1="274.321" y2="274.321"/><linearGradient id="lg5"><stop offset="0" stop-color="#814aa0"/><stop offset="1" stop-color="#192a7d"/></linearGradient><linearGradient id="SVGID_16_" gradientTransform="matrix(0 1 -1 0 -2592.996 -2312.219)" gradientUnits="userSpaceOnUse" x1="2310.132" x2="2433.764" xlink:href="#lg5" y1="-2719.262" y2="-2719.262"/><linearGradient id="SVGID_17_" gradientTransform="matrix(0 1 -1 0 -2592.996 -2312.219)" gradientUnits="userSpaceOnUse" x1="2375.886" x2="2499.518" xlink:href="#lg5" y1="-2653.508" y2="-2653.508"/><linearGradient id="SVGID_18_" gradientUnits="userSpaceOnUse" x1="8.166" x2="295.291" xlink:href="#lg5" y1="134.5" y2="134.5"/><linearGradient id="SVGID_19_" gradientTransform="matrix(.707 .707 -.707 .707 -1841.312 -532.716)" gradientUnits="userSpaceOnUse" x1="1768.046" x2="1969.77" xlink:href="#lg1" y1="-925.317" y2="-925.317"/><linearGradient id="lg6"><stop offset="0" stop-color="#d8ecfe"/><stop offset=".5667" stop-color="#b3dafe"/><stop offset=".9955" stop-color="#8ac9fe"/></linearGradient><linearGradient id="SVGID_20_" gradientTransform="matrix(.707 .707 -.707 .707 -1841.312 -532.716)" gradientUnits="userSpaceOnUse" x1="1671.903" x2="1931.237" xlink:href="#lg6" y1="-925.316" y2="-925.316"/><linearGradient id="SVGID_21_" gradientTransform="matrix(.707 .707 -.707 .707 -1841.312 -532.716)" gradientUnits="userSpaceOnUse" x1="1719.736" x2="1918.391" xlink:href="#lg5" y1="-972.402" y2="-972.402"/><linearGradient id="SVGID_22_" gradientTransform="matrix(.707 .707 -.707 .707 -1841.312 -532.716)" gradientUnits="userSpaceOnUse" x1="1719.736" x2="1918.342" xlink:href="#lg5" y1="-972.402" y2="-972.402"/><linearGradient id="SVGID_23_" gradientTransform="matrix(.707 .707 -.707 .707 -1841.312 -532.716)" gradientUnits="userSpaceOnUse" x1="1719.736" x2="1918.342" xlink:href="#lg5" y1="-878.23" y2="-878.23"/><linearGradient id="SVGID_25_" gradientUnits="userSpaceOnUse" x1="346.431" x2="511.298" xlink:href="#lg6" y1="122.465" y2="122.465"/><linearGradient id="SVGID_26_" gradientUnits="userSpaceOnUse" x1="264.412" x2="480.672" xlink:href="#lg6" y1="122.464" y2="122.464"/><linearGradient id="SVGID_27_" gradientUnits="userSpaceOnUse" x1="224" x2="355.095" xlink:href="#lg6" y1="413.703" y2="413.703"/><linearGradient id="SVGID_28_" gradientUnits="userSpaceOnUse" x1="222.5" x2="328.03" xlink:href="#lg6" y1="413.703" y2="413.703"/><g><g><path d="m42.948 469.908c-3.544 0-6.696-2.523-7.366-6.134l-16.894-91.106c-.45-2.429.324-4.924 2.071-6.671 1.746-1.747 4.241-2.522 6.67-2.07l91.106 16.894c4.073.755 6.762 4.669 6.007 8.741-.755 4.073-4.669 6.768-8.742 6.007l-80.375-14.903 14.904 80.375c.755 4.072-1.935 7.986-6.007 8.741-.461.084-.921.126-1.374.126z" fill="url(#SVGID_1_)"/><circle cx="26.063" cy="371.3" fill="url(#SVGID_2_)" r="26.063"/><g><path d="m149.857 350.346c26.933 26.933 16.363 81.17-23.608 121.141s-94.208 50.541-121.141 23.608 117.816-171.682 144.749-144.749z" fill="url(#SVGID_3_)"/><path d="m149.857 350.346c-6.357-6.357-19.278-3.147-34.955 5.818.995.504 1.897 1.145 2.694 1.941 26.933 26.933 16.363 81.17-23.608 121.141-13.855 13.855-29.423 24.173-44.975 30.626 25.008-1.412 53.613-14.762 77.236-38.385 39.971-39.972 50.541-94.208 23.608-121.141z" fill="url(#SVGID_4_)"/></g></g><g><path d="m362.597 411.303c-23.167 4.038-46.745 12.512-69.479 24.717-6.586 3.536-9.69 11.777-5.889 15.577l56.754 56.754c3.8 3.8 12.041.697 15.577-5.889 12.205-22.734 20.68-46.312 24.717-69.479 2.706-14.631-7.05-24.387-21.68-21.68z" fill="url(#SVGID_5_)"/><path d="m343.981 508.346-17.685-17.685c3.804 3.804 12.042.7 15.578-5.89.023-.042.046-.085.068-.127 3.96-7.388 2.542-16.51-3.385-22.437l-32.626-32.626c8.337-3.91 16.758-7.311 25.201-10.168 10.493-3.564 21.015-6.293 31.459-8.111 1.527-.283 3.012-.424 4.441-.438 5.339-.078 9.793 1.662 12.905 4.773 3.932 3.932 5.685 10.027 4.335 17.345-1.817 10.444-4.54 20.973-8.103 31.466-2.857 8.443-6.258 16.865-10.168 25.201-2.015 4.292-4.165 8.563-6.442 12.806-3.536 6.591-11.773 9.695-15.578 5.891z" fill="url(#SVGID_6_)"/><path d="m495.622 367.292-94.282 94.282c-7.746 7.746-20.304 7.746-28.05 0l-39.285-39.285c-7.746-7.746-7.746-20.304 0-28.05l94.282-94.282c18.594-18.594 48.741-18.594 67.335 0 18.594 18.594 18.594 48.741 0 67.335z" fill="url(#SVGID_7_)"/><path d="m496.054 299.525c-5.055-5.055-10.968-8.725-17.267-11.031 5.381 14.695 3.286 31.508-6.292 44.547l-17.925-17.925c-2.696-2.696-7.036-3.163-10.05-.827-3.645 2.826-3.891 8.099-.736 11.254l4.847 4.847c7.538 7.538 7.538 19.759 0 27.297l-14.761 14.761-18.316-18.316c-2.696-2.696-7.036-3.163-10.05-.827-3.645 2.826-3.891 8.099-.736 11.254l4.847 4.847c7.538 7.538 7.538 19.759 0 27.297l-11.887 11.887-18.316-18.316c-2.696-2.696-7.036-3.163-10.05-.827-3.645 2.826-3.891 8.099-.736 11.254l4.847 4.847c7.538 7.538 7.538 19.759 0 27.297-7.746 7.746-20.304 7.746-28.05 0l28.298 28.298c7.746 7.746 20.304 7.746 28.05 0l94.282-94.282c18.596-18.595 18.596-48.742.001-67.336z" fill="url(#SVGID_8_)"/></g><g><g><path d="m466.903 255c0 67.537-23.585 127.931-71.66 168.086-37.983 31.725-86.883 50.817-140.243 50.817-37.401 0-72.612-9.38-103.408-25.916-24.271-13.032-36.445-35.617-54.142-56.45-18.183-21.404-41.677-41.244-50.591-68.553-6.985-21.4-10.762-44.251-10.762-67.984 0-58.075 22.615-110.868 59.519-150.052 39.921-42.388 96.562-51.436 159.384-51.436 21.151 0 41.602-14.415 60.949-8.818 61.14 17.688 111.266 61.316 137.686 118.189 13.007 28 13.268 59.211 13.268 92.117z" fill="url(#SVGID_9_)"/><path d="m300.177 72.604c-22.033-7.454-45.638-11.496-70.188-11.496-54.059 0-103.539 19.598-141.728 52.074-19.829 23.291-34.867 50.783-43.584 80.962.58.581 1.184 1.143 1.842 1.662 5.495 4.339 12.794 5.646 19.453 3.484l59.553-19.336c7.211-2.341 15.127-.44 20.488 4.921l14.306 14.306c5.793 5.793 7.506 14.514 4.334 22.067-4.57 10.884 1.144 23.348 12.372 26.99l17.212 5.583c2.595.842 4.867 2.465 6.504 4.648 4.324 5.766 3.24 13.932-2.44 18.369l-6.959 5.437c-6.492 5.072-10.286 12.851-10.286 21.089v6.146c0 10.551 5.195 20.427 13.89 26.404l11.94 8.208c1.084.745 2.299 1.28 3.581 1.576l7.044 1.626c14.859 3.429 26.242 15.387 28.936 30.396 1.031 5.747.728 11.654-.886 17.266l-11.725 40.758c-1.927 6.7 3.101 13.379 10.073 13.379 2.639 0 5.182-.996 7.119-2.789l44.918-41.566c6.33-5.858 11.472-12.88 15.144-20.684l10.029-21.312c3.317-7.049 5.382-14.621 6.101-22.378l3.9-42.036c1.7-18.32-6.29-36.198-21.073-47.152-9.067-6.718-20.052-10.345-31.337-10.345h-8.036c-11.961 0-22.047-8.914-23.516-20.785-1.061-8.57 2.624-17.038 9.618-22.103l8.882-6.432c3.072-2.224 6.632-3.679 10.383-4.241l21.79-3.269c15.133-2.27 28.344-11.46 35.736-24.858 9.567-17.341 10.054-38.262 1.303-56.029-7.072-14.363-19.524-25.408-34.693-30.54z" fill="url(#SVGID_10_)"/><path d="m255 39.097c-6.576 0-13.08.307-19.509.875 47.306 4.179 90.29 20.402 124.136 49.856 46.111 40.127 75.258 99.243 75.258 165.172 0 114.32-87.638 208.156-199.394 218.028 6.429.568 12.932.875 19.509.875 63.075 0 119.919-26.677 159.865-69.364 0 0 56.113-91.717 56.113-149.539 0-42.193-29.694-115.021-29.694-115.021-25.11-40.582-63.112-72.347-108.288-89.579-24.229-9.241-50.521-11.303-77.996-11.303z" fill="url(#SVGID_11_)"/><g><path d="m359.884 78.135c-7.075-14.365-19.527-25.41-34.696-30.542-22.033-7.454-45.638-11.496-70.188-11.496-80.245 0-150.404 43.179-188.514 107.57-5.345 9.031-3.192 20.625 5.045 27.128 5.495 4.339 12.794 5.646 19.453 3.484l59.553-19.336c7.211-2.341 15.127-.44 20.488 4.921l14.306 14.306c5.793 5.793 7.506 14.514 4.334 22.067-4.57 10.884 1.144 23.348 12.372 26.99l17.212 5.583c2.595.842 4.867 2.465 6.504 4.648 4.324 5.766 3.24 13.932-2.44 18.369l-6.959 5.437c-6.492 5.072-10.286 12.851-10.286 21.089v6.146c0 10.551 5.195 20.427 13.89 26.404l11.94 8.208c1.084.745 2.299 1.28 3.581 1.576l7.044 1.625c14.859 3.429 26.242 15.387 28.936 30.396 1.032 5.747.728 11.654-.886 17.265l-11.725 40.758c-1.927 6.7 3.101 13.379 10.073 13.379 2.639 0 5.182-.996 7.119-2.788l44.918-41.566c6.33-5.858 11.472-12.88 15.144-20.684l10.029-21.312c3.317-7.049 5.382-14.621 6.101-22.378l3.9-42.036c1.7-18.32-6.29-36.198-21.073-47.152-9.067-6.718-20.052-10.345-31.337-10.345h-8.036c-11.961 0-22.047-8.914-23.516-20.785-1.061-8.57 2.624-17.038 9.618-22.103l8.882-6.432c3.072-2.224 6.632-3.679 10.383-4.241l21.79-3.269c15.133-2.27 28.344-11.46 35.736-24.858 9.569-17.338 10.055-38.26 1.305-56.026z" fill="url(#SVGID_12_)"/><path d="m281.79 172.964 8.882-6.432c3.072-2.224 6.632-3.679 10.383-4.241l21.79-3.269c15.133-2.27 28.344-11.46 35.736-24.858 9.567-17.341 10.053-38.262 1.303-56.029-7.075-14.365-19.527-25.41-34.696-30.542-22.033-7.454-45.638-11.496-70.188-11.496-4.204 0-8.379.126-12.524.359 20.076 1.129 39.431 4.955 57.702 11.137 15.168 5.132 27.62 16.177 34.695 30.542 8.751 17.766 8.264 38.688-1.303 56.029-7.392 13.398-20.603 22.588-35.736 24.858l-21.79 3.269c-3.75.562-7.311 2.017-10.383 4.241l-8.882 6.432c-6.994 5.065-10.679 13.533-9.618 22.103 1.469 11.871 11.555 20.785 23.516 20.785h8.036c11.284 0 22.27 3.627 31.337 10.345 14.783 10.954 22.773 28.832 21.073 47.152l-3.9 42.036c-.72 7.757-2.784 15.329-6.101 22.378l-10.029 21.312c-3.672 7.804-8.814 14.826-15.144 20.684l-37.483 34.686c.404 5.253 4.788 9.669 10.457 9.669 2.639 0 5.182-.996 7.119-2.788l44.918-41.566c6.33-5.858 11.472-12.88 15.144-20.684l10.029-21.312c3.317-7.049 5.382-14.621 6.101-22.378l3.9-42.036c1.7-18.32-6.29-36.198-21.073-47.152-9.067-6.718-20.052-10.345-31.337-10.345h-8.036c-11.961 0-22.047-8.914-23.516-20.785-1.061-8.571 2.624-17.04 9.618-22.104z" fill="url(#SVGID_13_)"/><path d="m124.879 361.747c-14.886-7.391-26.604-19.907-32.999-35.248l-6.948-16.667c-2.84-6.813-9.175-11.529-16.516-12.294-14.567-1.52-25.839 12.511-21.229 26.413 17.765 53.567 55.662 97.951 104.726 124.193l3.173-31.784c2.268-22.714-9.761-44.461-30.207-54.613z" fill="url(#SVGID_14_)"/><path d="m441.273 139.986-1.371 2.57c-11.55 21.656-8.377 48.215 7.95 66.541 9.592 10.766 14.892 24.683 14.892 39.102 0 16.876-7.253 32.938-19.913 44.097l-17.123 15.093c-11.128 9.808-17.503 23.926-17.503 38.76v4.479c0 8.784-2.24 17.424-6.507 25.102l-7.627 13.722c-1.922 3.458-2.155 7.605-.633 11.257 3.621 8.687 14.987 10.693 21.418 3.822 36.621-39.13 59.048-91.707 59.048-149.53-.001-42.194-11.95-81.591-32.631-115.015z" fill="url(#SVGID_15_)"/></g></g></g><g><g><path d="m69.495 21.881 95.409 95.409c4.979 4.979 13.051 4.979 18.029 0l.111-.111c4.979-4.979 4.979-13.051 0-18.029l-95.409-95.409c-4.965-4.965-13.029-5-17.994-.036-.06.06-.121.121-.181.181-4.965 4.967-4.93 13.03.035 17.995z" fill="url(#SVGID_16_)"/><path d="m3.741 87.635 95.409 95.409c4.979 4.979 13.051 4.979 18.029 0l.111-.111c4.979-4.979 4.979-13.051 0-18.029l-95.409-95.409c-4.965-4.965-13.029-5-17.994-.036-.06.06-.121.121-.181.181-4.964 4.966-4.93 13.03.035 17.995z" fill="url(#SVGID_17_)"/></g><g><g><path d="m253.623 151.484-102.14 102.14c-10.73 10.73-26.6 12.32-35.37 3.55l-67.08-71.08-4-23.192c0-3.081-2.498-5.578-5.578-5.578l-12.991-4c-2.684 0-2.86 1.824-2.86-.86l-2-4c0-2.684-2.176-4.86-4.86-4.86h-6.61c-4.23-8.97-3.58-17.26 5.24-26.08l102.14-102.15c10.73-10.73 26.6-12.32 35.38-3.54l104.28 104.28c8.769 8.77 7.179 24.64-3.551 35.37z" fill="url(#SVGID_18_)"/></g><path d="m263.063 115.234-109.29-109.29c-9.2-9.2-25.83-7.53-37.07 3.72l-107.04 107.04c-7.911 7.911-11.089 18.487-9.072 27.265.495 2.156 2.491 3.635 4.703 3.635h9.449c2.684 0 4.86 2.176 4.86 4.86 0 2.684 2.176 4.86 4.86 4.86h14.33l-16.37-16.37c-3.6-3.61-2.95-10.1 1.45-14.5l35.99-35.99c4.4-4.4 10.89-5.05 14.5-1.45l40.3 40.3c3.6 3.6 2.95 10.09-1.46 14.5l-35.98 35.98c-4.41 4.41-10.9 5.06-14.5 1.46l-17.69-17.69v27.287c0 1.289.512 2.525 1.423 3.437l68.777 68.776c9.19 9.19 25.82 7.52 37.06-3.72l107.05-107.04c11.24-11.25 12.91-27.88 3.72-37.07zm-17.94 27.32-35.98 35.98c-4.41 4.41-10.9 5.06-14.5 1.46l-40.3-40.3c-3.61-3.61-2.95-10.1 1.45-14.51l35.98-35.98c4.41-4.4 10.9-5.05 14.51-1.45l40.3 40.3c3.6 3.6 2.95 10.09-1.46 14.5zm-156.11-68.19c-3.6-3.6-2.95-10.1 1.45-14.5l35.98-35.99c4.41-4.4 10.9-5.05 14.51-1.45l40.3 40.3c3.6 3.6 2.95 10.1-1.46 14.5l-35.98 35.98c-4.41 4.41-10.9 5.06-14.5 1.46zm.19 117.41 35.98-35.98c4.41-4.4 10.9-5.05 14.51-1.45l40.3 40.3c3.6 3.6 2.95 10.09-1.46 14.5l-35.98 35.98c-4.41 4.41-10.9 5.06-14.5 1.46l-40.3-40.3c-3.6-3.61-2.95-10.1 1.45-14.51z" fill="url(#SVGID_19_)"/><g><path d="m263.059 115.23-12.035-12.035c9.195 9.195 7.529 25.825-3.716 37.069l-1.262 1.262c-.288.352-.591.698-.921 1.028l-35.982 35.982c-.331.331-.676.633-1.028.921l-28.658 28.658c-.288.352-.591.698-.921 1.028l-35.982 35.982c-.331.331-.676.633-1.028.921l-1.262 1.262c-11.244 11.244-27.874 12.911-37.069 3.716l12.035 12.035c9.196 9.196 25.825 7.529 37.069-3.716l107.045-107.045c11.243-11.243 12.91-27.873 3.715-37.068z" fill="url(#SVGID_20_)"/></g><g><path d="m246.578 128.052-40.298-40.299 22.614 22.614c3.603 3.603 2.952 10.096-1.454 14.503l-35.982 35.982c-4.406 4.406-10.899 5.057-14.503 1.454l17.685 17.685c3.603 3.603 10.097 2.953 14.503-1.454l35.982-35.982c4.406-4.407 5.057-10.9 1.453-14.503z" fill="url(#SVGID_21_)"/><path d="m181.249 62.723-17.685-17.685c3.603 3.603 2.952 10.097-1.454 14.503l-35.982 35.982c-4.406 4.406-10.899 5.057-14.503 1.454l17.685 17.685c3.603 3.603 10.097 2.953 14.503-1.454l35.982-35.982c4.407-4.407 5.058-10.9 1.454-14.503z" fill="url(#SVGID_22_)"/><g fill="url(#SVGID_23_)"><path d="m114.66 129.312-17.685-17.685c3.603 3.603 2.952 10.096-1.454 14.503l-35.982 35.982c-4.406 4.406-10.899 5.057-14.503 1.454l17.685 17.685c3.603 3.603 10.097 2.953 14.503-1.454l35.982-35.982c4.406-4.406 5.057-10.899 1.454-14.503z"/><path d="m179.989 194.641-17.685-17.685c3.603 3.603 2.952 10.097-1.454 14.503l-35.982 35.982c-4.406 4.406-10.899 5.057-14.503 1.454l17.685 17.685c3.603 3.603 10.097 2.952 14.503-1.454l35.982-35.982c4.406-4.406 5.057-10.899 1.454-14.503z"/></g></g></g></g><g><path d="m478.521 176.181 22.432-24.119c12.063-12.97 12.063-33.999 0-46.97-5.428-5.836-8.477-13.751-8.477-22.005 0-17.187-12.958-31.119-28.942-31.119h-1.89c-5.01 0-9.814 2.14-13.357 5.949-3.542 3.809-8.347 5.949-13.357 5.949h-9.66-18.513c-9.591 0-17.366 8.36-17.366 18.673 0 4.952-1.83 9.702-5.086 13.204l-11.084 11.918c-8.835 9.5-13.799 22.385-13.799 35.819v17.596c0 17.61 13.277 31.886 29.655 31.886 14.72 0 29.296-3.111 42.899-9.157 6.016-2.674 12.73-2.912 18.897-.671 9.696 3.522 20.411.828 27.648-6.953z" fill="url(#SVGID_25_)"/><path d="m500.953 105.092c-5.428-5.836-8.477-13.751-8.477-22.005 0-17.187-12.958-31.119-28.942-31.119h-1.89c-5.01 0-9.814 2.14-13.357 5.949-.16.172-.335.322-.5.487 2.95 4.876 4.67 10.691 4.67 16.941 0 8.253 3.049 16.169 8.477 22.005 12.063 12.97 12.063 33.999 0 46.97l-22.432 24.119c-7.237 7.781-17.951 10.475-27.647 6.952-6.167-2.241-12.881-2.003-18.897.671-7.726 3.434-15.766 5.918-23.968 7.426 5.376 5.847 12.837 9.473 21.088 9.473 14.72 0 29.296-3.111 42.899-9.157 6.016-2.674 12.73-2.912 18.897-.671 9.695 3.523 20.41.829 27.647-6.952l22.432-24.119c12.063-12.971 12.063-34 0-46.97z" fill="url(#SVGID_26_)"/></g><g><path d="m278.314 386.844-11.216 12.06c-6.031 6.485-6.031 17 0 23.485 2.714 2.918 4.238 6.876 4.238 11.002 0 8.593 6.479 15.56 14.471 15.56h.945c2.505 0 4.907-1.07 6.678-2.974 1.771-1.904 4.173-2.974 6.678-2.974h4.83 9.256c4.796 0 8.683-4.18 8.683-9.336 0-2.476.915-4.851 2.543-6.602l5.542-5.959c4.418-4.75 6.899-11.192 6.899-17.91v-8.798c0-8.805-6.639-15.943-14.828-15.943-7.36 0-14.648 1.556-21.45 4.578-3.008 1.337-6.365 1.456-9.448.335-4.845-1.761-10.203-.414-13.821 3.476z" fill="url(#SVGID_27_)"/><path d="m323.036 378.455c-5.673 0-11.3.934-16.698 2.741 3.931 2.867 6.514 7.709 6.514 13.201v8.798c0 6.717-2.482 13.16-6.899 17.91l-5.542 5.959c-1.628 1.751-2.543 4.126-2.543 6.602 0 5.156-3.888 9.336-8.683 9.336h-9.256-4.83c-.212 0-.422.018-.633.034 2.651 3.599 6.741 5.915 11.342 5.915h.945c2.505 0 4.907-1.07 6.678-2.974 1.771-1.904 4.173-2.974 6.678-2.974h4.83 9.256c4.796 0 8.683-4.18 8.683-9.336 0-2.476.915-4.851 2.543-6.602l5.542-5.959c4.418-4.75 6.899-11.192 6.899-17.91v-8.798c.001-8.806-6.637-15.943-14.826-15.943z" fill="url(#SVGID_28_)"/></g></g></svg>