<svg id="Capa_1" enable-background="new 0 0 510 510" height="512" viewBox="0 0 510 510" width="512" xmlns="http://www.w3.org/2000/svg" xmlns:xlink="http://www.w3.org/1999/xlink"><linearGradient id="SVGID_1_" gradientUnits="userSpaceOnUse" x1="55" x2="455" y1="245.048" y2="245.048"><stop offset="0" stop-color="#814aa0"/><stop offset="1" stop-color="#192a7d"/></linearGradient><linearGradient id="lg1"><stop offset="0" stop-color="#ffdcbd"/><stop offset=".0028" stop-color="#ffdcbd"/><stop offset="1" stop-color="#ffa9b1"/></linearGradient><linearGradient id="SVGID_2_" gradientUnits="userSpaceOnUse" x1="-8.962" x2="147.09" xlink:href="#lg1" y1="249.666" y2="249.666"/><linearGradient id="lg2"><stop offset="0" stop-color="#ffc2b5"/><stop offset="1" stop-color="#ff89a8"/></linearGradient><linearGradient id="SVGID_3_" gradientUnits="userSpaceOnUse" x1="29.543" x2="174.968" xlink:href="#lg2" y1="249.666" y2="249.666"/><linearGradient id="SVGID_4_" gradientUnits="userSpaceOnUse" x1="344.083" x2="500.135" xlink:href="#lg1" y1="249.666" y2="249.666"/><linearGradient id="lg3"><stop offset="0" stop-color="#feca9c"/><stop offset=".5213" stop-color="#fd8087"/><stop offset="1" stop-color="#f46700"/></linearGradient><linearGradient id="SVGID_5_" gradientUnits="userSpaceOnUse" x1="82.089" x2="476.362" xlink:href="#lg3" y1="242.799" y2="242.799"/><linearGradient id="SVGID_6_" gradientUnits="userSpaceOnUse" x1="-18.622" x2="388.793" xlink:href="#lg3" y1="242.799" y2="242.799"/><linearGradient id="SVGID_7_" gradientUnits="userSpaceOnUse" x1="117.479" x2="392.521" xlink:href="#lg1" y1="274.783" y2="274.783"/><linearGradient id="SVGID_8_" gradientUnits="userSpaceOnUse" x1="233.566" x2="392.521" xlink:href="#lg2" y1="274.783" y2="274.783"/><linearGradient id="SVGID_9_" gradientUnits="userSpaceOnUse" x1="191.121" x2="305.125" xlink:href="#lg3" y1="296.772" y2="296.772"/><linearGradient id="lg4"><stop offset="0" stop-color="#814aa0"/><stop offset=".4701" stop-color="#5b3374"/><stop offset="1" stop-color="#192a7d"/></linearGradient><linearGradient id="SVGID_10_" gradientUnits="userSpaceOnUse" x1="120.276" x2="227" xlink:href="#lg4" y1="242.701" y2="242.701"/><linearGradient id="SVGID_11_" gradientUnits="userSpaceOnUse" x1="256.224" x2="359.677" xlink:href="#lg4" y1="242.701" y2="242.701"/><linearGradient id="lg5"><stop offset="0" stop-color="#eaf6ff"/><stop offset=".5213" stop-color="#d8ecfe"/><stop offset="1" stop-color="#b3dafe"/></linearGradient><linearGradient id="SVGID_12_" gradientUnits="userSpaceOnUse" x1="10.009" x2="526.038" xlink:href="#lg5" y1="461.851" y2="461.851"/><linearGradient id="SVGID_13_" gradientUnits="userSpaceOnUse" x1="-133" x2="323.986" xlink:href="#lg5" y1="458.593" y2="458.593"/><linearGradient id="SVGID_14_" gradientUnits="userSpaceOnUse" x1="29.627" x2="364.678" xlink:href="#lg5" y1="475.185" y2="475.185"/><linearGradient id="lg6"><stop offset="0" stop-color="#60b7ff"/><stop offset=".5857" stop-color="#0182fc"/><stop offset="1" stop-color="#2740b0"/></linearGradient><linearGradient id="SVGID_15_" gradientUnits="userSpaceOnUse" x1="139.444" x2="403.525" xlink:href="#lg6" y1="436.037" y2="436.037"/><linearGradient id="SVGID_16_" gradientUnits="userSpaceOnUse" x1="4.5" x2="333.097" xlink:href="#lg6" y1="436.037" y2="436.037"/><linearGradient id="lg7"><stop offset="0" stop-color="#d8ecfe"/><stop offset=".5667" stop-color="#b3dafe"/><stop offset=".9955" stop-color="#8ac9fe"/></linearGradient><linearGradient id="SVGID_17_" gradientUnits="userSpaceOnUse" x1="0" x2="71.999" xlink:href="#lg7" y1="234.838" y2="234.838"/><linearGradient id="SVGID_18_" gradientUnits="userSpaceOnUse" x1="-66.667" x2="54.93" xlink:href="#lg7" y1="234.838" y2="234.838"/><linearGradient id="SVGID_19_" gradientUnits="userSpaceOnUse" x1="430.582" x2="519.192" xlink:href="#lg7" y1="234.838" y2="234.838"/><linearGradient id="SVGID_20_" gradientUnits="userSpaceOnUse" x1="36.097" x2="473.903" xlink:href="#lg5" y1="218.903" y2="218.903"/><linearGradient id="SVGID_21_" gradientUnits="userSpaceOnUse" x1="1.428" x2="387.397" xlink:href="#lg5" y1="218.903" y2="218.903"/><linearGradient id="SVGID_22_" gradientUnits="userSpaceOnUse" x1="-37.739" x2="179.46" xlink:href="#lg5" y1="245.048" y2="245.048"/><g><ellipse cx="255" cy="245.048" fill="url(#SVGID_1_)" rx="200" ry="172.497"/><g><circle cx="78.478" cy="249.666" fill="url(#SVGID_2_)" r="45.091"/><path d="m78.478 204.575c-6.647 0-12.952 1.45-18.633 4.032-2.217 11.053-3.387 22.485-3.387 34.192 0 17.186 2.519 33.781 7.188 49.45 4.647 1.619 9.634 2.509 14.832 2.509 24.903 0 45.091-20.188 45.091-45.091s-20.188-45.092-45.091-45.092z" fill="url(#SVGID_3_)"/><circle cx="431.522" cy="249.666" fill="url(#SVGID_4_)" r="45.091"/><circle cx="255" cy="242.799" fill="url(#SVGID_5_)" r="172.911"/><path d="m255 69.887c-6.94 0-13.78.421-20.506 1.216 85.829 10.143 152.405 83.139 152.405 171.696 0 88.556-66.576 161.552-152.405 171.695 6.726.795 13.567 1.216 20.506 1.216 95.496 0 172.911-77.415 172.911-172.911 0-95.497-77.415-172.912-172.911-172.912z" fill="url(#SVGID_6_)"/><path d="m392.512 208.44c-.599-40.286-33.235-73.406-73.509-74.564-22.166-.637-42.251 8.26-56.486 22.885-4.12 4.233-10.915 4.233-15.035 0-14.235-14.625-34.32-23.522-56.486-22.885-40.274 1.158-72.911 34.278-73.509 74.564-.437 29.411 15.893 55.045 40.046 67.973 5.011 2.682 7.12 8.799 4.6 13.893-7.26 14.681-11.142 31.328-10.626 48.931 1.644 56.096 48.474 77.056 104.591 76.473 56.676-.589 102.44-22.765 102.44-79.581 0-16.417-3.824-31.939-10.626-45.729-2.532-5.134-.494-11.285 4.553-13.987 24.154-12.927 40.484-38.562 40.047-67.973z" fill="url(#SVGID_7_)"/><path d="m352.465 276.413c24.153-12.927 40.484-38.562 40.047-67.973-.599-40.286-33.235-73.406-73.509-74.564-7.905-.227-15.537.778-22.741 2.803 31.442 8.909 54.733 37.786 55.238 71.761.437 29.411-15.893 55.046-40.047 67.973-5.047 2.701-7.085 8.852-4.553 13.986 6.802 13.79 10.626 29.313 10.626 45.729 0 50.489-36.139 73.621-83.959 78.561 7.273.77 14.814 1.1 22.533 1.02 56.676-.589 102.44-22.765 102.44-79.581 0-16.417-3.824-31.939-10.626-45.729-2.534-5.134-.496-11.285 4.551-13.986z" fill="url(#SVGID_8_)"/><path d="m265.872 268.252h-21.744c-16.964 0-27.567 18.364-19.085 33.055l5.793 10.034c10.739 18.601 37.588 18.601 48.327 0l5.793-10.034c8.482-14.691-2.12-33.055-19.084-33.055z" fill="url(#SVGID_9_)"/><g><path d="m187.613 264.191c-18.507 0-33.564-15.057-33.564-33.563 0-5.2 4.216-9.416 9.416-9.416s9.416 4.216 9.416 9.416c0 8.123 6.608 14.731 14.732 14.731 8.123 0 14.731-6.608 14.731-14.731 0-5.2 4.216-9.416 9.416-9.416s9.416 4.216 9.416 9.416c0 18.506-15.057 33.563-33.563 33.563z" fill="url(#SVGID_10_)"/><path d="m322.387 264.191c-18.507 0-33.563-15.057-33.563-33.563 0-5.2 4.216-9.416 9.416-9.416s9.416 4.216 9.416 9.416c0 8.123 6.608 14.731 14.731 14.731s14.732-6.608 14.732-14.731c0-5.2 4.216-9.416 9.416-9.416s9.416 4.216 9.416 9.416c0 18.506-15.056 33.563-33.564 33.563z" fill="url(#SVGID_11_)"/></g></g><g><path d="m483.247 510c28.016 0 37.138-37.644 12.223-50.457-54.017-27.78-141.601-45.84-240.47-45.84s-186.454 18.06-240.47 45.84c-24.915 12.813-15.794 50.457 12.223 50.457z" fill="url(#SVGID_12_)"/><path d="m242.495 422.583c-20.791 0-40.225-1.986-58.328-5.699-24.355 2.228-47.52 5.584-69.104 9.902-1.866 9.631.292 20.399 8.363 28.128 30.298 29.016 69.89 46.836 119.069 46.836h.001c49.179 0 88.771-17.82 119.069-46.836 9.404-9.006 10.781-22.136 7.116-32.787-19.461-3.016-39.97-5.275-61.259-6.693-19.956 4.643-41.586 7.149-64.927 7.149z" fill="url(#SVGID_13_)"/><path d="m495.47 459.543c-13.741-7.067-29.665-13.501-47.384-19.172 2.511 1.528 4.982 3.072 7.364 4.65 24.915 16.5 15.794 64.979-12.223 64.979h40.02c28.017 0 37.138-37.644 12.223-50.457z" fill="url(#SVGID_14_)"/><path d="m255 410.71c-32.917 0-62.08-5.082-87.559-14.14-22.477-7.991-38.381 24.732-19.884 41.107 27.34 24.201 63.066 39.063 107.443 39.063 44.376 0 80.103-14.863 107.442-39.064 18.497-16.374 2.594-49.098-19.883-41.107-25.479 9.06-54.643 14.141-87.559 14.141z" fill="url(#SVGID_15_)"/><path d="m342.559 396.57c-5.967 2.121-12.143 4.015-18.515 5.686 8.124 9.176 9.727 25.374-1.622 35.42-23.102 20.45-52.194 34.231-87.432 38.012 6.463.693 13.132 1.052 20.01 1.052 44.376 0 80.103-14.863 107.442-39.064 18.497-16.373 2.594-49.097-19.883-41.106z" fill="url(#SVGID_16_)"/><path d="m71.999 319.165h-47.332c-13.623 0-24.667-11.044-24.667-24.668v-119.318c0-13.623 11.044-24.667 24.667-24.667h47.332l-15.354 84.327z" fill="url(#SVGID_17_)"/><path d="m35.354 319.165h36.645l-15.354-84.327 15.354-84.327h-47.332c-.919 0-1.826.054-2.719.152-7.04 21.476-10.862 44.409-10.862 68.239 0 36.136 8.762 70.223 24.268 100.263z" fill="url(#SVGID_18_)"/><path d="m438.001 319.165h47.332c13.623 0 24.667-11.044 24.667-24.667v-119.319c0-13.623-11.044-24.667-24.667-24.667h-47.332l13.999 86.734z" fill="url(#SVGID_19_)"/><path d="m255 0c-120.897 0-218.903 98.006-218.903 218.903s98.006 218.903 218.903 218.903 218.903-98.006 218.903-218.903-98.006-218.903-218.903-218.903zm0 409.033c-105.006 0-190.13-73.418-190.13-163.984s85.124-163.985 190.13-163.985 190.13 73.418 190.13 163.984-85.124 163.985-190.13 163.985z" fill="url(#SVGID_20_)"/><path d="m255 0c-6.693 0-13.311.319-19.852.907-.099-.003-.159-.005-.159-.005-2.93.266-5.843.588-8.739.968v81.059c4.94-.646 9.943-1.123 15-1.435v-63.977c0-8.616 7.892-15.01 16.345-13.341.091.018.183.036.274.054 6.342 1.261 10.881 6.876 10.881 13.342v63.922c6.57.405 13.049 1.095 19.418 2.062 14.139-32.087 58.984-43.535 86.104-14.78 29.115 30.871 49.343 70.208 56.621 113.928 9.168 19.221 14.237 40.271 14.237 62.344 0 55.809-32.332 105.097-81.714 134.715-34.421 31.772-79.053 52.647-128.426 57.122 6.592.597 13.263.92 20.01.92 120.897 0 218.903-98.006 218.903-218.903s-98.006-218.902-218.903-218.902z" fill="url(#SVGID_21_)"/><path d="m64.87 245.048c0-87.087 78.714-158.305 178.124-163.649-3.971-.214-7.972-.335-12.006-.335-105.006 0-190.13 73.418-190.13 163.984s85.124 163.984 190.13 163.984c4.034 0 8.034-.121 12.006-.335-99.41-5.343-178.124-76.562-178.124-163.649z" fill="url(#SVGID_22_)"/></g></g></svg>