<svg id="Capa_1" enable-background="new 0 0 510 510" height="512" viewBox="0 0 510 510" width="512" xmlns="http://www.w3.org/2000/svg" xmlns:xlink="http://www.w3.org/1999/xlink"><linearGradient id="lg1"><stop offset="0" stop-color="#60b7ff"/><stop offset=".5857" stop-color="#0182fc"/><stop offset="1" stop-color="#2740b0"/></linearGradient><linearGradient id="SVGID_1_" gradientUnits="userSpaceOnUse" x1="170.834" x2="384.037" xlink:href="#lg1" y1="455.755" y2="455.755"/><linearGradient id="SVGID_2_" gradientUnits="userSpaceOnUse" x1="92.897" x2="356.76" xlink:href="#lg1" y1="455.75" y2="455.75"/><linearGradient id="lg2"><stop offset="0" stop-color="#fd8087"/><stop offset=".5213" stop-color="#fb2b3a"/><stop offset="1" stop-color="#d90d80"/></linearGradient><linearGradient id="SVGID_3_" gradientUnits="userSpaceOnUse" x1="14.934" x2="158.758" xlink:href="#lg2" y1="455.755" y2="455.755"/><linearGradient id="SVGID_4_" gradientUnits="userSpaceOnUse" x1="-29.667" x2="110.04" xlink:href="#lg2" y1="455.75" y2="455.75"/><linearGradient id="lg3"><stop offset="0" stop-color="#d8ecfe"/><stop offset=".5667" stop-color="#b3dafe"/><stop offset=".9955" stop-color="#8ac9fe"/></linearGradient><linearGradient id="SVGID_5_" gradientUnits="userSpaceOnUse" x1="18.593" x2="138.886" xlink:href="#lg3" y1="238.633" y2="238.633"/><linearGradient id="SVGID_6_" gradientUnits="userSpaceOnUse" x1="-128" x2="122.098" xlink:href="#lg3" y1="238.633" y2="238.633"/><linearGradient id="SVGID_7_" gradientUnits="userSpaceOnUse" x1="381.508" x2="525.332" xlink:href="#lg2" y1="455.755" y2="455.755"/><linearGradient id="SVGID_8_" gradientUnits="userSpaceOnUse" x1="336.907" x2="476.613" xlink:href="#lg2" y1="455.75" y2="455.75"/><linearGradient id="SVGID_9_" gradientUnits="userSpaceOnUse" x1="385.166" x2="505.46" xlink:href="#lg3" y1="238.633" y2="238.633"/><linearGradient id="SVGID_10_" gradientUnits="userSpaceOnUse" x1="238.574" x2="488.672" xlink:href="#lg3" y1="238.633" y2="238.633"/><linearGradient id="SVGID_11_" gradientUnits="userSpaceOnUse" x1="112.598" x2="435.084" xlink:href="#lg3" y1="186.741" y2="186.741"/><linearGradient id="SVGID_12_" gradientUnits="userSpaceOnUse" x1="-24" x2="224.582" xlink:href="#lg3" y1="222.027" y2="222.027"/><linearGradient id="SVGID_13_" gradientUnits="userSpaceOnUse" x1="69.1" x2="367.751" xlink:href="#lg3" y1="186.741" y2="186.741"/><linearGradient id="lg4"><stop offset="0" stop-color="#eaf6ff"/><stop offset=".5213" stop-color="#d8ecfe"/><stop offset="1" stop-color="#b3dafe"/></linearGradient><linearGradient id="SVGID_14_" gradientUnits="userSpaceOnUse" x1="0" x2="228.068" xlink:href="#lg4" y1="332.309" y2="332.309"/><linearGradient id="SVGID_15_" gradientUnits="userSpaceOnUse" x1="-47" x2="174.036" xlink:href="#lg4" y1="332.309" y2="332.309"/><linearGradient id="SVGID_16_" gradientUnits="userSpaceOnUse" x1="286.589" x2="555.11" xlink:href="#lg4" y1="332.309" y2="332.309"/><linearGradient id="SVGID_17_" gradientUnits="userSpaceOnUse" x1="206" x2="492.252" xlink:href="#lg4" y1="332.309" y2="332.309"/><linearGradient id="SVGID_18_" gradientUnits="userSpaceOnUse" x1="152.208" x2="412.595" xlink:href="#lg4" y1="262.763" y2="262.763"/><linearGradient id="SVGID_19_" gradientUnits="userSpaceOnUse" x1="-79.724" x2="371.814" xlink:href="#lg4" y1="262.766" y2="262.766"/><linearGradient id="lg5"><stop offset="0" stop-color="#814aa0"/><stop offset="1" stop-color="#192a7d"/></linearGradient><linearGradient id="SVGID_20_" gradientUnits="userSpaceOnUse" x1="187.079" x2="345.091" xlink:href="#lg5" y1="173.355" y2="173.355"/><linearGradient id="SVGID_21_" gradientUnits="userSpaceOnUse" x1="75.1" x2="276.112" xlink:href="#lg5" y1="174.103" y2="174.103"/><g><path d="m227.901 412.473c-23.911 22.939-42.789 49.965-55.95 79.426-3.813 8.535 2.609 18.101 12.109 18.101h141.88c9.5 0 15.922-9.566 12.109-18.101-13.161-29.461-32.039-56.487-55.95-79.426-14.905-14.619-39.293-14.619-54.198 0z" fill="url(#SVGID_1_)"/><path d="m325.938 510h-40.801c9.502 0 15.925-9.57 12.112-18.1-.018-.04-.036-.081-.054-.121-3.237-7.218-10.587-11.819-18.627-11.819h-100.898c4.394-8.59 9.288-16.94 14.661-25.01 10.175-15.27 22.073-29.53 35.571-42.48 2.07-2.03 4.313-3.77 6.698-5.24 6.199-3.82 13.295-5.73 20.401-5.73 9.828 0 19.646 3.66 27.099 10.97 13.498 12.95 25.396 27.21 35.571 42.48 5.373 8.07 10.267 16.42 14.661 25.01 2.009 3.93 3.915 7.91 5.719 11.94 3.812 8.53-2.611 18.1-12.113 18.1z" fill="url(#SVGID_2_)"/><g><g><path d="m53.431 412.473c-16.131 22.94-28.865 49.965-37.744 79.427-2.572 8.534 1.76 18.1 8.169 18.1h95.711c6.409 0 10.741-9.566 8.169-18.101-8.878-29.461-21.613-56.487-37.743-79.426-10.056-14.619-26.508-14.619-36.562 0z" fill="url(#SVGID_3_)"/><path d="m119.57 510h-25.01c6.4 0 10.74-9.57 8.16-18.1-.012-.039-.023-.077-.035-.116-2.031-6.75-8.298-11.334-15.347-11.334h-67.958c2.95-8.59 6.23-16.95 9.85-25.02 6.9-15.45 15-29.87 24.2-42.96 1.75-2.55 3.7-4.66 5.78-6.31 3.87-3.11 8.18-4.66 12.5-4.66 6.63 0 13.25 3.66 18.28 10.97 9.2 13.09 17.3 27.51 24.21 42.96 3.62 8.07 6.9 16.43 9.85 25.02 1.3 3.77 2.53 7.59 3.69 11.45 2.57 8.53-1.76 18.1-8.17 18.1z" fill="url(#SVGID_4_)"/><path d="m99.585 454.953h-55.747c-12.107 0-21.922-9.815-21.922-21.922v-360.922c0-27.501 22.294-49.795 49.795-49.795 27.501 0 49.795 22.294 49.795 49.795v360.922c.001 12.107-9.814 21.922-21.921 21.922z" fill="url(#SVGID_5_)"/><path d="m71.711 22.313c-7.12 0-13.885 1.505-20.01 4.197 17.535 7.706 29.785 25.217 29.785 45.599v360.922c0 12.107-9.815 21.922-21.922 21.922h40.02c12.107 0 21.922-9.815 21.922-21.922v-360.922c.001-27.501-22.293-49.796-49.795-49.796z" fill="url(#SVGID_6_)"/></g><g><path d="m420.004 412.473c-16.13 22.939-28.865 49.965-37.743 79.426-2.572 8.535 1.76 18.101 8.169 18.101h95.711c6.409 0 10.741-9.566 8.169-18.101-8.878-29.461-21.613-56.487-37.743-79.426-10.056-14.619-26.509-14.619-36.563 0z" fill="url(#SVGID_7_)"/><path d="m486.144 510h-25.01c6.4 0 10.74-9.57 8.16-18.1-.012-.039-.023-.077-.035-.116-2.031-6.75-8.298-11.334-15.347-11.334h-67.959c2.95-8.59 6.23-16.95 9.85-25.02 6.9-15.45 15-29.87 24.2-42.96 1.75-2.55 3.7-4.66 5.78-6.31 3.87-3.11 8.18-4.66 12.5-4.66 6.63 0 13.25 3.66 18.28 10.97 9.2 13.09 17.3 27.51 24.21 42.96 3.62 8.07 6.9 16.43 9.85 25.02 1.3 3.77 2.53 7.59 3.69 11.45 2.571 8.53-1.76 18.1-8.169 18.1z" fill="url(#SVGID_8_)"/><path d="m466.158 454.953h-55.747c-12.107 0-21.922-9.815-21.922-21.922v-360.922c0-27.501 22.294-49.795 49.795-49.795 27.501 0 49.795 22.294 49.795 49.795v360.922c.001 12.107-9.814 21.922-21.921 21.922z" fill="url(#SVGID_9_)"/><path d="m438.285 22.313c-7.12 0-13.885 1.505-20.01 4.197 17.535 7.706 29.785 25.217 29.785 45.599v360.922c0 12.107-9.815 21.922-21.922 21.922h40.02c12.107 0 21.922-9.815 21.922-21.922v-360.922c0-27.501-22.294-49.796-49.795-49.796z" fill="url(#SVGID_10_)"/></g></g><path d="m388.493 373.481h-266.986v-239.988c0-73.726 59.767-133.493 133.493-133.493 73.726 0 133.493 59.767 133.493 133.493z" fill="url(#SVGID_11_)"/><path d="m332.782 262.557c0-68.176-27.473-133.476-76.213-181.146-14.774-14.45-38.386-14.45-53.16 0-39.428 38.563-64.932 88.666-73.24 142.493l-8.662 8.662v140.916h211.275z" fill="url(#SVGID_12_)"/><path d="m255 0c-6.801 0-13.483.512-20.01 1.493 64.233 9.656 113.483 65.075 113.483 132v239.988h40.02v-239.988c0-73.726-59.767-133.493-133.493-133.493z" fill="url(#SVGID_13_)"/><path d="m169.418 209.665-164.028 164.028c-3.451 3.452-5.39 8.132-5.39 13.013v51.684c0 9.147 7.415 16.562 16.562 16.562h152.856z" fill="url(#SVGID_14_)"/><path d="m127.448 251.635c-.157 3.632-.252 7.271-.252 10.922v166.077c0 14.536 11.783 26.319 26.319 26.319h15.903v-245.288z" fill="url(#SVGID_15_)"/><path d="m340.582 209.665 164.028 164.028c3.451 3.451 5.39 8.132 5.39 13.013v51.684c0 9.147-7.415 16.562-16.562 16.562h-152.856z" fill="url(#SVGID_16_)"/><path d="m504.61 373.693-164.028-164.028v40.02l124.008 124.008c3.451 3.451 5.39 8.132 5.39 13.013v51.684c0 9.147-7.415 16.562-16.562 16.562h40.02c9.147 0 16.562-7.415 16.562-16.562v-51.684c0-4.881-1.939-9.561-5.39-13.013z" fill="url(#SVGID_17_)"/><g><path d="m341.038 454.953h-172.076c-9.253 0-16.755-7.501-16.755-16.755v-175.641c0-68.176 27.473-133.476 76.212-181.146 14.774-14.45 38.386-14.45 53.16 0 48.739 47.67 76.212 112.97 76.212 181.146v175.641c.001 9.253-7.5 16.755-16.753 16.755z" fill="url(#SVGID_18_)"/><path d="m281.58 81.411c-12.738-12.459-32.041-14.166-46.59-5.141 2.325 1.443 4.534 3.149 6.57 5.141 46.117 45.105 73.178 105.995 75.959 170.169h-130.003c-3.813 0-7.212 2.739-7.691 6.522-.58 4.576 2.976 8.478 7.438 8.478h94.728c19.762 0 35.782 16.02 35.782 35.782v77.638h-62.519c-3.813 0-7.212 2.739-7.691 6.522-.58 4.576 2.976 8.478 7.438 8.478h26.99c19.762 0 35.782 16.02 35.782 35.782v24.17h23.265c9.253 0 16.755-7.501 16.755-16.755v-175.64c0-68.176-27.474-133.476-76.213-181.146z" fill="url(#SVGID_19_)"/></g><path d="m198.122 152.97c-4.376 12.489-7.998 25.458-10.83 38.774-1.383 6.506 4.16 12.366 10.729 11.327 17.668-2.793 36.882-4.326 56.979-4.326s39.31 1.533 56.979 4.326c6.569 1.038 12.112-4.822 10.729-11.327-2.831-13.316-6.454-26.285-10.83-38.774-1.181-3.37-4.151-5.787-7.691-6.261-15.476-2.069-32.009-3.191-49.187-3.191s-33.712 1.122-49.187 3.191c-3.54.473-6.51 2.891-7.691 6.261z" fill="url(#SVGID_20_)"/><path d="m311.878 152.97c-1.181-3.37-4.151-5.787-7.691-6.261-5.006-.669-10.134-1.228-15.348-1.693 9.585 18.303 16.905 37.732 21.784 57.856.449.069.908.129 1.355.2 6.569 1.038 12.112-4.822 10.729-11.327-2.83-13.318-6.453-26.286-10.829-38.775z" fill="url(#SVGID_21_)"/></g></svg>