<?xml version="1.0" encoding="UTF-8" standalone="no"?>
<svg
   xmlns:dc="http://purl.org/dc/elements/1.1/"
   xmlns:cc="http://creativecommons.org/ns#"
   xmlns:rdf="http://www.w3.org/1999/02/22-rdf-syntax-ns#"
   xmlns:svg="http://www.w3.org/2000/svg"
   xmlns="http://www.w3.org/2000/svg"
   xmlns:xlink="http://www.w3.org/1999/xlink"
   xmlns:sodipodi="http://sodipodi.sourceforge.net/DTD/sodipodi-0.dtd"
   xmlns:inkscape="http://www.inkscape.org/namespaces/inkscape"
   id="Capa_1"
   enable-background="new 0 0 510 510"
   height="324.20557"
   viewBox="0 0 327.26899 322.93914"
   width="328.5524"
   version="1.1"
   sodipodi:docname="balls.svg"
   inkscape:version="1.0.1 (3bc2e813f5, 2020-09-07)">
  <metadata
     id="metadata153">
    <rdf:RDF>
      <cc:Work
         rdf:about="">
        <dc:format>image/svg+xml</dc:format>
        <dc:type
           rdf:resource="http://purl.org/dc/dcmitype/StillImage" />
        <dc:title></dc:title>
      </cc:Work>
    </rdf:RDF>
  </metadata>
  <defs
     id="defs151" />
  <sodipodi:namedview
     pagecolor="#ffffff"
     bordercolor="#666666"
     borderopacity="1"
     objecttolerance="10"
     gridtolerance="10"
     guidetolerance="10"
     inkscape:pageopacity="0"
     inkscape:pageshadow="2"
     inkscape:window-width="2560"
     inkscape:window-height="1377"
     id="namedview149"
     showgrid="false"
     inkscape:zoom="1.96875"
     inkscape:cx="164.2762"
     inkscape:cy="162.10278"
     inkscape:window-x="-8"
     inkscape:window-y="-8"
     inkscape:window-maximized="1"
     inkscape:current-layer="Capa_1"
     fit-margin-top="0"
     fit-margin-left="0"
     fit-margin-right="0"
     fit-margin-bottom="0" />
  <linearGradient
     id="lg1">
    <stop
       offset="0"
       stop-color="#eaf6ff"
       id="stop2" />
    <stop
       offset=".5213"
       stop-color="#d8ecfe"
       id="stop4" />
    <stop
       offset="1"
       stop-color="#b3dafe"
       id="stop6" />
  </linearGradient>
  <linearGradient
     id="SVGID_1_"
     gradientUnits="userSpaceOnUse"
     x1="170.189"
     x2="278.526"
     xlink:href="#lg1"
     y1="417.30499"
     y2="417.30499" />
  <linearGradient
     id="SVGID_2_"
     gradientUnits="userSpaceOnUse"
     x1="132.467"
     x2="244.409"
     xlink:href="#lg1"
     y1="417.30499"
     y2="417.30499" />
  <linearGradient
     id="SVGID_3_"
     gradientUnits="userSpaceOnUse"
     x1="132.467"
     x2="244.409"
     xlink:href="#lg1"
     y1="416.11801"
     y2="416.11801" />
  <linearGradient
     id="SVGID_4_"
     gradientUnits="userSpaceOnUse"
     x1="132.467"
     x2="244.409"
     xlink:href="#lg1"
     y1="393.20001"
     y2="393.20001" />
  <linearGradient
     id="lg2">
    <stop
       offset="0"
       stop-color="#fbc56d"
       id="stop13" />
    <stop
       offset=".5841"
       stop-color="#fe9738"
       id="stop15" />
    <stop
       offset=".9984"
       stop-color="#fb2b3a"
       id="stop17" />
  </linearGradient>
  <linearGradient
     id="SVGID_5_"
     gradientUnits="userSpaceOnUse"
     x1="0.36899999"
     x2="302.49799"
     xlink:href="#lg2"
     y1="143.377"
     y2="143.377" />
  <linearGradient
     id="lg3">
    <stop
       offset="0"
       stop-color="#fef056"
       id="stop21" />
    <stop
       offset=".5213"
       stop-color="#f4d902"
       id="stop23" />
    <stop
       offset="1"
       stop-color="#fe9738"
       id="stop25" />
  </linearGradient>
  <linearGradient
     id="SVGID_6_"
     gradientUnits="userSpaceOnUse"
     x1="43.030998"
     x2="243.72301"
     xlink:href="#lg3"
     y1="143.377"
     y2="143.377" />
  <linearGradient
     id="SVGID_7_"
     gradientUnits="userSpaceOnUse"
     x1="-6.6230001"
     x2="209.491"
     xlink:href="#lg3"
     y1="143.377"
     y2="143.377" />
  <linearGradient
     id="SVGID_8_"
     gradientUnits="userSpaceOnUse"
     x1="-15.623"
     x2="279.547"
     xlink:href="#lg2"
     y1="143.377"
     y2="143.377" />
  <linearGradient
     id="lg4">
    <stop
       offset="0"
       stop-color="#60b7ff"
       id="stop31" />
    <stop
       offset=".5857"
       stop-color="#0182fc"
       id="stop33" />
    <stop
       offset="1"
       stop-color="#2740b0"
       id="stop35" />
  </linearGradient>
  <linearGradient
     id="SVGID_9_"
     gradientUnits="userSpaceOnUse"
     x1="167.14"
     x2="306.586"
     xlink:href="#lg4"
     y1="236.86301"
     y2="236.86301" />
  <linearGradient
     id="SVGID_10_"
     gradientUnits="userSpaceOnUse"
     x1="159.442"
     x2="291.48401"
     xlink:href="#lg4"
     y1="236.86301"
     y2="236.86301" />
  <linearGradient
     id="SVGID_11_"
     gradientUnits="userSpaceOnUse"
     x1="159.442"
     x2="291.48401"
     xlink:href="#lg4"
     y1="235.336"
     y2="235.336" />
  <linearGradient
     id="SVGID_12_"
     gradientUnits="userSpaceOnUse"
     x1="159.442"
     x2="291.48401"
     xlink:href="#lg4"
     y1="205.836"
     y2="205.836" />
  <linearGradient
     id="lg5">
    <stop
       offset="0"
       stop-color="#fd8087"
       id="stop42" />
    <stop
       offset=".5213"
       stop-color="#fb2b3a"
       id="stop44" />
    <stop
       offset="1"
       stop-color="#d90d80"
       id="stop46" />
  </linearGradient>
  <linearGradient
     id="SVGID_13_"
     gradientUnits="userSpaceOnUse"
     x1="201.782"
     x2="469.00601"
     xlink:href="#lg5"
     y1="321.733"
     y2="321.733" />
  <linearGradient
     id="SVGID_14_"
     gradientUnits="userSpaceOnUse"
     x1="147"
     x2="389.01901"
     xlink:href="#lg5"
     y1="321.733"
     y2="321.733" />
  <linearGradient
     id="SVGID_15_"
     gradientUnits="userSpaceOnUse"
     x1="147"
     x2="389.01901"
     xlink:href="#lg5"
     y1="319.10699"
     y2="319.10699" />
  <linearGradient
     id="SVGID_16_"
     gradientUnits="userSpaceOnUse"
     x1="147"
     x2="389.01901"
     xlink:href="#lg5"
     y1="268.35501"
     y2="268.35501" />
  <linearGradient
     id="lg6">
    <stop
       offset="0"
       stop-color="#a2e62e"
       id="stop53" />
    <stop
       offset=".4477"
       stop-color="#81b823"
       id="stop55" />
    <stop
       offset=".5319"
       stop-color="#75b32a"
       id="stop57" />
    <stop
       offset=".6827"
       stop-color="#56a53e"
       id="stop59" />
    <stop
       offset=".8811"
       stop-color="#248d5e"
       id="stop61" />
    <stop
       offset="1"
       stop-color="#037e73"
       id="stop63" />
  </linearGradient>
  <linearGradient
     id="SVGID_17_"
     gradientUnits="userSpaceOnUse"
     x1="361.345"
     x2="510"
     xlink:href="#lg6"
     y1="435.673"
     y2="435.673" />
  <linearGradient
     id="SVGID_18_"
     gradientUnits="userSpaceOnUse"
     x1="292.5"
     x2="484.147"
     xlink:href="#lg6"
     y1="435.673"
     y2="435.673" />
  <linearGradient
     id="SVGID_19_"
     gradientUnits="userSpaceOnUse"
     x1="292.5"
     x2="484.147"
     xlink:href="#lg6"
     y1="434.04501"
     y2="434.04501" />
  <linearGradient
     id="SVGID_20_"
     gradientUnits="userSpaceOnUse"
     x1="292.5"
     x2="484.147"
     xlink:href="#lg6"
     y1="402.59698"
     y2="402.59698" />
  <linearGradient
     id="SVGID_21_"
     gradientUnits="userSpaceOnUse"
     x1="348.66699"
     x2="526.79102"
     y1="432.08701"
     y2="432.08701"
     gradientTransform="translate(-19.921875,-19.921875)">
    <stop
       offset="0"
       stop-color="#feca9c"
       id="stop70" />
    <stop
       offset=".5213"
       stop-color="#fd8087"
       id="stop72" />
    <stop
       offset="1"
       stop-color="#f46700"
       id="stop74" />
  </linearGradient>
  <linearGradient
     id="SVGID_22_"
     gradientUnits="userSpaceOnUse"
     x1="451.23099"
     x2="516.25702"
     xlink:href="#lg1"
     y1="321.733"
     y2="321.733" />
  <g
     id="g1040"
     transform="translate(-167.14001,-167.14)">
    <g
       id="g88">
      <circle
         cx="224.35699"
         cy="417.30499"
         fill="url(#SVGID_1_)"
         r="54.168999"
         id="circle78"
         style="fill:url(#SVGID_1_)" />
      <g
         id="g86">
        <path
           d="m 224.357,363.136 c -3.319,0 -6.562,0.314 -9.716,0.886 25.278,4.58 44.453,26.685 44.453,53.283 0,8.662 -2.045,16.842 -5.661,24.101 -1.833,-8.251 -9.428,-14.333 -18.348,-13.794 -8.668,0.524 -15.802,7.487 -16.515,16.142 -0.375,4.547 0.973,8.77 3.461,12.089 3.951,5.27 1.178,12.876 -5.249,14.312 -0.709,0.158 -1.423,0.303 -2.142,0.433 3.154,0.572 6.397,0.886 9.716,0.886 29.916,0 54.169,-24.252 54.169,-54.169 0,-29.917 -24.251,-54.169 -54.168,-54.169 z"
           fill="url(#SVGID_2_)"
           id="path80"
           style="fill:url(#SVGID_2_)" />
        <circle
           cx="196.967"
           cy="416.11801"
           fill="url(#SVGID_3_)"
           r="11.459"
           id="circle82"
           style="fill:url(#SVGID_3_)" />
        <circle
           cx="231.869"
           cy="393.19901"
           fill="url(#SVGID_4_)"
           r="11.459"
           id="circle84"
           style="fill:url(#SVGID_4_)" />
      </g>
    </g>
    <g
       id="g114">
      <g
         id="g112">
        <circle
           cx="236.86301"
           cy="236.86301"
           fill="url(#SVGID_9_)"
           r="69.723"
           id="circle102"
           style="fill:url(#SVGID_9_)" />
        <g
           id="g110">
          <path
             d="m 236.863,167.14 c -4.271,0 -8.446,0.405 -12.506,1.14 32.536,5.896 57.218,34.347 57.218,68.583 0,11.15 -2.632,21.678 -7.286,31.021 -2.359,-10.62 -12.135,-18.449 -23.616,-17.755 -11.157,0.674 -20.339,9.637 -21.257,20.777 -0.482,5.852 1.252,11.288 4.455,15.56 5.085,6.783 1.517,16.574 -6.756,18.422 -0.912,0.204 -1.832,0.39 -2.757,0.558 4.059,0.736 8.234,1.14 12.506,1.14 38.507,0 69.723,-31.216 69.723,-69.723 0,-38.507 -31.217,-69.723 -69.724,-69.723 z"
             fill="url(#SVGID_10_)"
             id="path104"
             style="fill:url(#SVGID_10_)" />
          <circle
             cx="201.60699"
             cy="235.336"
             fill="url(#SVGID_11_)"
             r="14.75"
             id="circle106"
             style="fill:url(#SVGID_11_)" />
          <circle
             cx="246.53101"
             cy="205.836"
             fill="url(#SVGID_12_)"
             r="14.75"
             id="circle108"
             style="fill:url(#SVGID_12_)" />
        </g>
      </g>
    </g>
    <g
       id="g126">
      <circle
         cx="321.733"
         cy="321.733"
         fill="url(#SVGID_13_)"
         r="119.951"
         id="circle116"
         style="fill:url(#SVGID_13_)" />
      <g
         id="g124">
        <path
           d="m 321.734,201.782 c -7.349,0 -14.531,0.696 -21.515,1.962 55.975,10.143 98.437,59.091 98.437,117.99 0,19.182 -4.527,37.294 -12.535,53.369 -4.058,-18.271 -20.877,-31.74 -40.629,-30.546 -19.195,1.16 -34.991,16.58 -36.571,35.745 -0.83,10.068 2.154,19.42 7.664,26.77 8.748,11.669 2.609,28.513 -11.624,31.693 -1.57,0.351 -3.151,0.671 -4.743,0.959 6.984,1.266 14.166,1.962 21.515,1.962 66.247,0 119.951,-53.704 119.951,-119.951 0,-66.247 -53.704,-119.953 -119.95,-119.953 z"
           fill="url(#SVGID_14_)"
           id="path118"
           style="fill:url(#SVGID_14_)" />
        <circle
           cx="261.07999"
           cy="319.10699"
           fill="url(#SVGID_15_)"
           r="25.375999"
           id="circle120"
           style="fill:url(#SVGID_15_)" />
        <circle
           cx="338.367"
           cy="268.35501"
           fill="url(#SVGID_16_)"
           r="25.375999"
           id="circle122"
           style="fill:url(#SVGID_16_)" />
      </g>
    </g>
    <g
       id="g140"
       transform="translate(-19.921876,-19.921876)">
      <g
         id="g138">
        <circle
           cx="435.673"
           cy="435.673"
           fill="url(#SVGID_17_)"
           r="74.327003"
           id="circle128"
           style="fill:url(#SVGID_17_)" />
        <g
           id="g136">
          <path
             d="m 435.673,361.345 c -4.554,0 -9.004,0.432 -13.331,1.216 34.684,6.285 60.996,36.615 60.996,73.112 0,11.886 -2.805,23.109 -7.767,33.07 -2.515,-11.322 -12.936,-19.667 -25.176,-18.927 -11.894,0.719 -21.682,10.274 -22.661,22.149 -0.514,6.239 1.335,12.034 4.749,16.588 5.421,7.231 1.617,17.668 -7.203,19.638 -0.973,0.217 -1.953,0.416 -2.939,0.594 4.327,0.784 8.778,1.216 13.331,1.216 41.05,0 74.327,-33.277 74.327,-74.327 0,-41.05 -33.277,-74.329 -74.326,-74.329 z"
             fill="url(#SVGID_18_)"
             id="path130"
             style="fill:url(#SVGID_18_)" />
          <circle
             cx="398.08899"
             cy="434.04501"
             fill="url(#SVGID_19_)"
             r="15.724"
             id="circle132"
             style="fill:url(#SVGID_19_)" />
          <circle
             cx="445.979"
             cy="402.59698"
             fill="url(#SVGID_20_)"
             r="15.724"
             id="circle134"
             style="fill:url(#SVGID_20_)" />
        </g>
      </g>
    </g>
    <path
       d="m 481.9481,342.3781 c -9.78,-9.78 -26.43,-10.77 -46.89,-2.77 -2.22,0.87 -4.46,1.83 -6.72,2.89 8.09,1.37 15.73,4.06 22.7,7.83 3.21,-0.71 6.19,-1.06 8.86,-1.06 2.5,0 4.75,0.31 6.67,0.93 1.93,0.61 3.54,1.54 4.78,2.78 3.38,3.39 4.45,9.51 3.21,17.32 -0.64,4.09 -1.91,8.65 -3.81,13.52 -6.47,16.57 -19.13,34.79 -35.64,51.29 -16.5,16.51 -34.72,29.17 -51.29,35.64 -4.87,1.9 -9.43,3.17 -13.52,3.81 -7.81,1.24 -13.93,0.17 -17.32,-3.21 -3.8,-3.81 -4.68,-11.08 -2.65,-20.31 -3.77,-6.97 -6.46,-14.61 -7.83,-22.7 -1.06,2.26 -2.02,4.5 -2.89,6.72 -8,20.46 -7.01,37.11 2.77,46.89 5.41,5.41 12.91,8.13 22,8.13 7.18,0 15.36,-1.7 24.25,-5.11 0.21,-0.07 0.42,-0.16 0.64,-0.24 18.46,-7.22 38.51,-21.07 56.45,-39.01 17.94,-17.94 31.79,-37.99 39.01,-56.45 0.08,-0.21 0.17,-0.43 0.24,-0.64 3.41,-8.9 5.11,-17.07 5.11,-24.25 0,-9.09 -2.72,-16.59 -8.13,-22 z"
       fill="url(#SVGID_21_)"
       id="path142"
       style="fill:url(#SVGID_21_)" />
    <circle
       cx="476.763"
       cy="321.733"
       fill="url(#SVGID_22_)"
       r="17.646"
       id="circle144"
       style="fill:url(#SVGID_22_)" />
  </g>
</svg>
