<?xml version="1.0" encoding="UTF-8" standalone="no"?>
<svg
   xmlns:dc="http://purl.org/dc/elements/1.1/"
   xmlns:cc="http://creativecommons.org/ns#"
   xmlns:rdf="http://www.w3.org/1999/02/22-rdf-syntax-ns#"
   xmlns:svg="http://www.w3.org/2000/svg"
   xmlns="http://www.w3.org/2000/svg"
   xmlns:sodipodi="http://sodipodi.sourceforge.net/DTD/sodipodi-0.dtd"
   xmlns:inkscape="http://www.inkscape.org/namespaces/inkscape"
   version="1.1"
   id="Capa_1"
   x="0px"
   y="0px"
   viewBox="0 0 399.151 399.151"
   style="enable-background:new 0 0 399.151 399.151;"
   xml:space="preserve"
   sodipodi:docname="select.svg"
   inkscape:version="1.0.1 (3bc2e813f5, 2020-09-07)"><metadata
   id="metadata39"><rdf:RDF><cc:Work
       rdf:about=""><dc:format>image/svg+xml</dc:format><dc:type
         rdf:resource="http://purl.org/dc/dcmitype/StillImage" /></cc:Work></rdf:RDF></metadata><defs
   id="defs37" /><sodipodi:namedview
   pagecolor="#ffffff"
   bordercolor="#666666"
   borderopacity="1"
   objecttolerance="10"
   gridtolerance="10"
   guidetolerance="10"
   inkscape:pageopacity="0"
   inkscape:pageshadow="2"
   inkscape:window-width="2560"
   inkscape:window-height="1377"
   id="namedview35"
   showgrid="false"
   inkscape:zoom="2.5253601"
   inkscape:cx="202.94083"
   inkscape:cy="180.63878"
   inkscape:window-x="-8"
   inkscape:window-y="-8"
   inkscape:window-maximized="1"
   inkscape:current-layer="Capa_1" />
<path
   style="fill:#1185e0"
   d="M 382.955,399.151 H 276.702 c -8.882,0 -15.673,-6.792 -15.673,-15.673 0,-8.881 6.792,-15.673 15.673,-15.673 h 90.58 v -91.103 c 0,-8.882 6.792,-15.673 15.673,-15.673 8.882,0 15.673,6.792 15.673,15.673 v 106.775 c 0.001,8.882 -6.791,15.674 -15.673,15.674 z M 121.927,398.629 H 15.673 C 6.792,398.629 0,391.837 0,382.955 V 276.702 c 0,-8.882 6.792,-15.673 15.673,-15.673 8.881,0 15.673,6.792 15.673,15.673 v 90.58 h 90.58 c 8.882,0 15.673,6.792 15.673,15.673 0.001,8.882 -6.791,15.674 -15.672,15.674 z M 383.478,138.122 c -8.882,0 -15.673,-6.792 -15.673,-15.673 V 31.347 h -91.103 c -8.882,0 -15.673,-6.792 -15.673,-15.673 C 261.029,6.793 267.82,0 276.702,0 h 106.776 c 8.882,0 15.673,6.792 15.673,15.673 v 106.776 c 0,8.882 -6.792,15.673 -15.673,15.673 z M 15.673,137.6 C 6.792,137.6 0,130.808 0,121.927 V 15.673 C 0,6.792 6.792,0 15.673,0 h 106.776 c 8.882,0 15.673,6.792 15.673,15.673 0,8.881 -6.792,15.673 -15.673,15.673 H 31.347 v 90.58 c 0,8.882 -6.792,15.674 -15.674,15.674 z"
   id="path2"
   sodipodi:nodetypes="sssscssscssssssscscssscsssssssssssssscss" />
<g
   id="g4">
</g>
<g
   id="g6">
</g>
<g
   id="g8">
</g>
<g
   id="g10">
</g>
<g
   id="g12">
</g>
<g
   id="g14">
</g>
<g
   id="g16">
</g>
<g
   id="g18">
</g>
<g
   id="g20">
</g>
<g
   id="g22">
</g>
<g
   id="g24">
</g>
<g
   id="g26">
</g>
<g
   id="g28">
</g>
<g
   id="g30">
</g>
<g
   id="g32">
</g>
</svg>
