<svg id="Capa_1" enable-background="new 0 0 510 510" height="512" viewBox="0 0 510 510" width="512" xmlns="http://www.w3.org/2000/svg" xmlns:xlink="http://www.w3.org/1999/xlink"><linearGradient id="lg1"><stop offset="0" stop-color="#d8ecfe"/><stop offset=".5667" stop-color="#b3dafe"/><stop offset=".9955" stop-color="#8ac9fe"/></linearGradient><linearGradient id="SVGID_1_" gradientUnits="userSpaceOnUse" x1="-44" x2="514.395" xlink:href="#lg1" y1="287.936" y2="287.936"/><linearGradient id="SVGID_2_" gradientUnits="userSpaceOnUse" x1="-300" x2="332.823" xlink:href="#lg1" y1="356.228" y2="356.228"/><linearGradient id="SVGID_3_" gradientUnits="userSpaceOnUse" x1="-300" x2="332.823" xlink:href="#lg1" y1="287.945" y2="287.945"/><linearGradient id="SVGID_4_" gradientUnits="userSpaceOnUse" x1="-300" x2="332.823" xlink:href="#lg1" y1="174.861" y2="174.861"/><linearGradient id="SVGID_5_" gradientUnits="userSpaceOnUse" x1="-300" x2="332.823" xlink:href="#lg1" y1="123.494" y2="123.494"/><linearGradient id="lg2"><stop offset="0" stop-color="#eaf6ff"/><stop offset=".5213" stop-color="#d8ecfe"/><stop offset="1" stop-color="#b3dafe"/></linearGradient><linearGradient id="SVGID_6_" gradientUnits="userSpaceOnUse" x1="190.756" x2="330.202" xlink:href="#lg2" y1="69.723" y2="69.723"/><linearGradient id="SVGID_7_" gradientUnits="userSpaceOnUse" x1="142.202" x2="286.289" xlink:href="#lg2" y1="69.723" y2="69.723"/><linearGradient id="SVGID_8_" gradientUnits="userSpaceOnUse" x1="142.202" x2="286.289" xlink:href="#lg2" y1="68.197" y2="68.197"/><linearGradient id="SVGID_9_" gradientUnits="userSpaceOnUse" x1="142.202" x2="286.289" xlink:href="#lg2" y1="38.697" y2="38.697"/><linearGradient id="SVGID_10_" gradientUnits="userSpaceOnUse" x1="445.731" x2="498.741" xlink:href="#lg1" y1="71.893" y2="71.893"/><linearGradient id="SVGID_11_" gradientUnits="userSpaceOnUse" x1="20.215" x2="73.224" xlink:href="#lg2" y1="174.861" y2="174.861"/><g><g><path d="m403.381 457.143 75.976-75.976c40.857-40.857 40.857-107.098 0-147.955-18.383-18.383-28.711-43.317-28.711-69.315 0-54.138-43.888-98.026-98.026-98.026h-6.402c-16.968 0-33.24 6.74-45.238 18.738-11.998 11.998-28.27 18.738-45.238 18.738h-95.418c-32.485 0-58.819 26.334-58.819 58.819 0 15.6-6.197 30.561-17.228 41.591l-37.54 37.54c-29.925 29.926-46.737 70.513-46.737 112.833v55.428c0 55.473 44.969 100.442 100.442 100.442 49.855 0 99.223-9.801 145.297-28.844 20.377-8.422 43.115-9.173 64.003-2.113 32.838 11.098 69.129 2.61 93.639-21.9z" fill="url(#SVGID_1_)"/><g><path d="m58.43 404.829c0 21.005 17.028 38.033 38.033 38.033s38.033-17.028 38.033-38.033c0-8.8-2.997-16.895-8.014-23.339 25.701-5.319 45.02-28.082 45.02-55.359 0-31.224-25.312-56.536-56.536-56.536s-56.536 25.311-56.536 56.535c0 18.017 8.438 34.053 21.566 44.406-12.759 6.138-21.566 19.187-21.566 34.293z" fill="url(#SVGID_2_)"/><path d="m479.36 233.21c-18.39-18.38-28.71-43.31-28.71-69.31 0-26.83-10.78-51.14-28.24-68.84-17.47-17.7-41.61-28.78-68.35-29.17 33.41 15.62 56.57 49.52 56.57 88.84 0 4.96.37 9.88 1.11 14.72.792 5.19 1.985 10.276 3.578 15.236 6.842 21.297 1 44.637-14.818 60.454l-.01.01c-5.73-2.89-12.31-4.35-19.26-3.89-18.09 1.2-32.89 15.56-34.6 33.6-.02.15-.03.29-.04.43-1.25 14.91-12.75 27.06-27.65 28.43-9.61.89-19.46-.19-28.95-3.4-7.3-2.47-14.91-3.7-22.5-3.7-9.14 0-18.27 1.78-26.85 5.33-.099.041-.198.082-.297.122-18.005 7.43-29.874 24.834-29.874 44.311v.064c0 22.737 23.059 38.391 44.086 29.741.145-.06.289-.119.434-.179.14-.06.29-.12.43-.18 17.27-7 35.85 6.69 34.69 25.29-.02.3-.04.6-.05.9-.58 12.66 3.05 24.46 9.6 34.1 11.12 16.34-2.8 38.42-22.35 35.53-2.68-.39-5.23-.97-7.59-1.77-9.48-3.2-19.34-4.8-29.19-4.8-10.18 0-20.34 1.7-30.06 5.1-1.6.56-3.18 1.16-4.75 1.81-15.01 6.21-30.36 11.43-45.97 15.65-8.35 2.26-16.77 4.23-25.26 5.92-24.33 4.83-49.14 7.28-74.07 7.28-.66 0-1.33-.01-1.99-.03 12.78 5.9 27.01 9.19 42.01 9.19 24.93 0 49.74-2.45 74.07-7.28s48.19-12.04 71.23-21.56c11.13-4.61 22.97-6.92 34.82-6.92 9.85 0 19.7 1.6 29.18 4.8 9.56 3.23 19.41 4.8 29.17 4.8 23.79 0 47.09-9.32 64.47-26.7l75.98-75.97c40.851-40.859 40.851-107.099.001-147.959zm-127.66 180.04c-11.87 0-21.5-9.62-21.5-21.49 0-11.88 9.63-21.5 21.5-21.5 11.88 0 21.5 9.62 21.5 21.5 0 11.87-9.62 21.49-21.5 21.49zm87.64-41.25-37.57 37.57c.14-1.62.23-3.25.23-4.91 0-19.72-10.2-37.05-25.6-47.03.05-.04.1-.09.14-.14l58.59-58.58c13.68-13.68 21.41-31.05 23.21-48.9 20.34 39.38 14.02 88.98-19 121.99z" fill="url(#SVGID_3_)"/><circle cx="190.755" cy="174.861" fill="url(#SVGID_4_)" r="37.3"/><circle cx="359.51" cy="123.494" fill="url(#SVGID_5_)" r="24.245"/></g></g><g><circle cx="260.479" cy="69.723" fill="url(#SVGID_6_)" r="69.723"/><g><path d="m260.479 0c-4.271 0-8.446.405-12.506 1.14 32.536 5.896 57.218 34.347 57.218 68.583 0 11.15-2.632 21.678-7.286 31.021-2.359-10.621-12.135-18.449-23.616-17.755-11.157.674-20.339 9.637-21.257 20.777-.482 5.852 1.252 11.288 4.455 15.56 5.085 6.783 1.517 16.574-6.756 18.422-.912.204-1.832.39-2.757.558 4.059.736 8.234 1.14 12.506 1.14 38.507 0 69.723-31.216 69.723-69.723s-31.217-69.723-69.724-69.723z" fill="url(#SVGID_7_)"/><circle cx="225.223" cy="68.197" fill="url(#SVGID_8_)" r="14.75"/><circle cx="270.147" cy="38.697" fill="url(#SVGID_9_)" r="14.75"/></g></g><circle cx="483.947" cy="71.893" fill="url(#SVGID_10_)" r="26.053"/><circle cx="58.43" cy="174.861" fill="url(#SVGID_11_)" r="26.053"/></g></svg>