<svg id="Capa_1" enable-background="new 0 0 510 510" height="512" viewBox="0 0 510 510" width="512" xmlns="http://www.w3.org/2000/svg" xmlns:xlink="http://www.w3.org/1999/xlink"><linearGradient id="lg1"><stop offset="0" stop-color="#814aa0"/><stop offset="1" stop-color="#192a7d"/></linearGradient><linearGradient id="SVGID_1_" gradientUnits="userSpaceOnUse" x1="-7.711" x2="580.47" xlink:href="#lg1" y1="255" y2="255"/><linearGradient id="SVGID_2_" gradientUnits="userSpaceOnUse" x1="-225" x2="413.05" xlink:href="#lg1" y1="242.829" y2="242.829"/><linearGradient id="SVGID_3_" gradientUnits="userSpaceOnUse" x1="-74.893" x2="479.237" xlink:href="#lg1" y1="255" y2="255"/><linearGradient id="lg2"><stop offset="0" stop-color="#eaf6ff"/><stop offset=".5213" stop-color="#d8ecfe"/><stop offset="1" stop-color="#b3dafe"/></linearGradient><linearGradient id="SVGID_4_" gradientUnits="userSpaceOnUse" x1="66.123" x2="444.54" xlink:href="#lg2" y1="242.83" y2="242.83"/><linearGradient id="lg3"><stop offset="0" stop-color="#d8ecfe"/><stop offset=".5667" stop-color="#b3dafe"/><stop offset=".9955" stop-color="#8ac9fe"/></linearGradient><linearGradient id="SVGID_5_" gradientUnits="userSpaceOnUse" x1="-100" x2="273.837" xlink:href="#lg3" y1="78.961" y2="78.961"/><linearGradient id="SVGID_6_" gradientUnits="userSpaceOnUse" x1="-100" x2="273.837" xlink:href="#lg3" y1="239.52" y2="239.52"/><linearGradient id="SVGID_7_" gradientUnits="userSpaceOnUse" x1="-100" x2="273.837" xlink:href="#lg3" y1="291.948" y2="291.948"/><linearGradient id="SVGID_8_" gradientUnits="userSpaceOnUse" x1="-100" x2="273.837" xlink:href="#lg3" y1="137.5" y2="137.5"/><linearGradient id="SVGID_9_" gradientUnits="userSpaceOnUse" x1="187.388" x2="323.341" y1="238.61" y2="238.61"><stop offset="0" stop-color="#feca9c"/><stop offset=".5213" stop-color="#fd8087"/><stop offset="1" stop-color="#f46700"/></linearGradient><linearGradient id="SVGID_10_" gradientUnits="userSpaceOnUse" x1="35.384" x2="125.938" y1="420.988" y2="420.988"><stop offset="0" stop-color="#fd8087"/><stop offset=".5213" stop-color="#fb2b3a"/><stop offset="1" stop-color="#d90d80"/></linearGradient><linearGradient id="SVGID_11_" gradientUnits="userSpaceOnUse" x1="265.901" x2="356.455" y1="64.671" y2="64.671"><stop offset="0" stop-color="#60b7ff"/><stop offset=".5857" stop-color="#0182fc"/><stop offset="1" stop-color="#2740b0"/></linearGradient><linearGradient id="SVGID_12_" gradientUnits="userSpaceOnUse" x1="344.518" x2="425.82" y1="299.019" y2="299.019"><stop offset="0" stop-color="#a2e62e"/><stop offset=".5857" stop-color="#81b823"/><stop offset="1" stop-color="#037e73"/></linearGradient><linearGradient id="SVGID_13_" gradientUnits="userSpaceOnUse" x1="397.801" x2="479.103" y1="136" y2="136"><stop offset="0" stop-color="#fef056"/><stop offset=".5213" stop-color="#f4d902"/><stop offset="1" stop-color="#fe9738"/></linearGradient><linearGradient id="SVGID_14_" gradientUnits="userSpaceOnUse" x1="-80" x2="476.299" xlink:href="#lg2" y1="58.801" y2="58.801"/><linearGradient id="SVGID_15_" gradientUnits="userSpaceOnUse" x1="-80" x2="476.299" xlink:href="#lg2" y1="269.678" y2="269.678"/><linearGradient id="SVGID_16_" gradientUnits="userSpaceOnUse" x1="-80" x2="476.299" xlink:href="#lg3" y1="451.199" y2="451.199"/><linearGradient id="SVGID_17_" gradientUnits="userSpaceOnUse" x1="-80" x2="476.299" xlink:href="#lg2" y1="116.391" y2="116.391"/><linearGradient id="SVGID_18_" gradientUnits="userSpaceOnUse" x1="-80" x2="476.299" xlink:href="#lg3" y1="66.647" y2="66.647"/><linearGradient id="SVGID_19_" gradientUnits="userSpaceOnUse" x1="-80" x2="476.299" xlink:href="#lg3" y1="439.991" y2="439.991"/><linearGradient id="SVGID_20_" gradientUnits="userSpaceOnUse" x1="-80" x2="476.299" xlink:href="#lg3" y1="390.445" y2="390.445"/><g><path d="m483.857 510h-457.714c-14.438 0-26.143-11.705-26.143-26.143v-457.714c0-14.438 11.705-26.143 26.143-26.143h457.713c14.439 0 26.144 11.705 26.144 26.143v457.713c0 14.439-11.705 26.144-26.143 26.144z" fill="url(#SVGID_1_)"/><path d="m421.412 109.947c-7.245 0-13.798 2.96-18.521 7.734l-79.886-42.396c1.031-3.356 1.589-6.919 1.589-10.614 0-19.927-16.154-36.081-36.081-36.081s-36.081 16.154-36.081 36.081c0 12.94 6.816 24.283 17.05 30.651l-30.395 96.44c-2.254-.329-4.557-.506-6.902-.506-26.154 0-47.355 21.202-47.355 47.355 0 10.76 3.594 20.677 9.64 28.629l-117.521 123.047c-5.508-3.408-11.999-5.379-18.952-5.379-19.927 0-36.081 16.154-36.081 36.081s16.154 36.081 36.081 36.081 36.081-16.154 36.081-36.081c0-7.547-2.32-14.55-6.282-20.341l117.522-123.048c7.635 5.271 16.888 8.366 26.868 8.366 16.618 0 31.226-8.567 39.677-21.517l70.424 31.294c-.135 1.074-.212 2.166-.212 3.277 0 14.389 11.664 26.053 26.053 26.053s26.053-11.664 26.053-26.053c0-8.855-4.422-16.674-11.174-21.382l37.784-115.6c.207.005.412.016.62.016 14.389 0 26.053-11.664 26.053-26.053.001-14.39-11.663-26.054-26.052-26.054zm-52.664 163.034c-.207-.005-.412-.016-.62-.016-7.899 0-14.971 3.52-19.749 9.071l-70.415-31.29c1.024-3.874 1.576-7.94 1.576-12.135 0-18.527-10.645-34.558-26.147-42.339l30.213-95.862c1.606.218 3.242.341 4.907.341 10.845 0 20.566-4.792 27.18-12.366l80.163 42.542c-.324 1.641-.497 3.336-.497 5.072 0 8.856 4.422 16.674 11.174 21.382z" fill="url(#SVGID_2_)"/><path d="m483.856 0h-40.02c14.439 0 26.144 11.705 26.144 26.143v457.713c0 14.439-11.705 26.144-26.144 26.144h40.02c14.439 0 26.144-11.705 26.144-26.144v-457.713c0-14.438-11.705-26.143-26.144-26.143z" fill="url(#SVGID_3_)"/><path d="m73.623 428.488c-1.862 0-3.727-.688-5.179-2.076-2.996-2.861-3.104-7.608-.244-10.604l172.985-181.117 54.295-172.275c.67-2.124 2.249-3.841 4.311-4.686 2.062-.844 4.392-.728 6.358.315l134.405 71.329c3.222 1.71 4.746 5.488 3.613 8.955l-53.283 163.019c-.659 2.018-2.143 3.661-4.082 4.523-1.939.861-4.153.861-6.093 0l-131.119-58.265-170.543 178.562c-1.473 1.543-3.447 2.32-5.424 2.32zm183.356-194.011 122.229 54.314 48.742-149.124-120.872-64.146z" fill="url(#SVGID_4_)"/><g><path d="m299.79 57.73c-2.06.85-3.64 2.56-4.31 4.69l-11.96 37.94c1.73.26 3.51.39 5.31.39 3.77 0 7.41-.58 10.82-1.65l7.43-23.58 13.13 6.97c2.48-4.36 4.08-9.3 4.55-14.56l-18.61-9.88c-1.97-1.05-4.3-1.16-6.36-.32z" fill="url(#SVGID_5_)"/><path d="m266.17 205.32c-3.7-3.75-8.03-6.89-12.82-9.23l-12.17 38.6-38.72 40.54c3.97 3.25 8.47 5.88 13.37 7.72l33.76-35.34 25.66 11.4c2.15-4.5 3.61-9.38 4.25-14.52l-22.52-10.01z" fill="url(#SVGID_6_)"/><path d="m382.94 277.38-3.73 11.41-25.43-11.3c-4.33 2.95-7.72 7.17-9.64 12.13l36.57 16.25c1.94.86 4.15.86 6.09 0s3.43-2.5 4.08-4.52l2.84-8.68c-1.59-6.34-5.5-11.76-10.78-15.29z" fill="url(#SVGID_7_)"/><path d="m440.55 129.38-30.96-16.43c-4.72 2.48-8.58 6.38-11.03 11.12l29.39 15.6-7.31 22.36c.36.01.72.02 1.09.02 6.33 0 12.15-2.26 16.66-6.02l5.78-17.7c1.13-3.47-.39-7.25-3.62-8.95z" fill="url(#SVGID_8_)"/></g><circle cx="247.813" cy="238.611" fill="url(#SVGID_9_)" r="47.355"/><circle cx="73.624" cy="420.988" fill="url(#SVGID_10_)" r="36.081"/><circle cx="304.14" cy="64.671" fill="url(#SVGID_11_)" r="36.081"/><circle cx="383.755" cy="299.019" fill="url(#SVGID_12_)" r="26.053"/><circle cx="437.039" cy="136" fill="url(#SVGID_13_)" r="26.053"/><g><path d="m57.465 69.068c-2.094-3.547-5.056-6.52-8.596-8.625-1.245-.741-1.245-2.543 0-3.284 3.54-2.106 6.502-5.078 8.596-8.625.741-1.255 2.553-1.255 3.294 0 2.094 3.547 5.056 6.52 8.596 8.625 1.245.741 1.245 2.543 0 3.284-3.54 2.106-6.502 5.078-8.596 8.625-.741 1.255-2.553 1.255-3.294 0z" fill="url(#SVGID_14_)"/><path d="m85.057 279.945c-2.094-3.547-5.056-6.52-8.596-8.625-1.245-.741-1.245-2.543 0-3.284 3.539-2.106 6.502-5.078 8.596-8.625.741-1.255 2.553-1.255 3.294 0 2.094 3.547 5.056 6.52 8.596 8.625 1.245.741 1.245 2.543 0 3.284-3.54 2.106-6.502 5.078-8.596 8.625-.741 1.255-2.553 1.255-3.294 0z" fill="url(#SVGID_15_)"/><path d="m194.676 461.466c-2.094-3.547-5.056-6.52-8.596-8.625-1.245-.741-1.245-2.543 0-3.284 3.54-2.106 6.502-5.078 8.596-8.625.741-1.255 2.553-1.255 3.294 0 2.094 3.547 5.056 6.52 8.596 8.625 1.245.741 1.245 2.543 0 3.284-3.54 2.106-6.502 5.078-8.596 8.625-.741 1.255-2.553 1.255-3.294 0z" fill="url(#SVGID_16_)"/><path d="m139.924 133.845c-3.56-6.03-8.596-11.083-14.613-14.663-2.116-1.259-2.116-4.323 0-5.582 6.017-3.579 11.053-8.632 14.613-14.663 1.259-2.133 4.34-2.133 5.599 0 3.56 6.03 8.596 11.083 14.613 14.663 2.116 1.259 2.116 4.323 0 5.582-6.017 3.58-11.053 8.633-14.613 14.663-1.259 2.134-4.34 2.134-5.599 0z" fill="url(#SVGID_17_)"/><path d="m440.266 84.1c-3.56-6.03-8.596-11.083-14.613-14.663-2.116-1.259-2.116-4.323 0-5.582 6.017-3.579 11.053-8.632 14.613-14.663 1.259-2.133 4.34-2.133 5.599 0 3.56 6.03 8.596 11.083 14.613 14.663 2.116 1.259 2.116 4.323 0 5.582-6.017 3.58-11.053 8.633-14.613 14.663-1.259 2.134-4.34 2.134-5.599 0z" fill="url(#SVGID_18_)"/><path d="m421.266 457.445c-3.56-6.03-8.596-11.083-14.613-14.663-2.116-1.259-2.116-4.323 0-5.582 6.017-3.579 11.053-8.632 14.613-14.663 1.259-2.133 4.34-2.133 5.599 0 3.56 6.03 8.596 11.083 14.613 14.663 2.116 1.259 2.116 4.323 0 5.582-6.017 3.579-11.053 8.633-14.613 14.663-1.259 2.133-4.34 2.133-5.599 0z" fill="url(#SVGID_19_)"/><path d="m324.67 418.941c-5.811-9.845-14.033-18.095-23.857-23.939-3.455-2.056-3.455-7.058 0-9.114 9.824-5.844 18.045-14.094 23.857-23.939 2.056-3.483 7.086-3.483 9.142 0 5.811 9.845 14.033 18.095 23.857 23.939 3.455 2.056 3.455 7.058 0 9.114-9.824 5.844-18.046 14.094-23.857 23.939-2.057 3.483-7.087 3.483-9.142 0z" fill="url(#SVGID_20_)"/></g></g></svg>