<svg id="Capa_1" enable-background="new 0 0 510 510" height="512" viewBox="0 0 510 510" width="512" xmlns="http://www.w3.org/2000/svg" xmlns:xlink="http://www.w3.org/1999/xlink"><linearGradient id="lg1"><stop offset="0" stop-color="#a2e62e"/><stop offset=".4477" stop-color="#81b823"/><stop offset=".5319" stop-color="#75b32a"/><stop offset=".6827" stop-color="#56a53e"/><stop offset=".8811" stop-color="#248d5e"/><stop offset="1" stop-color="#037e73"/></linearGradient><linearGradient id="SVGID_1_" gradientUnits="userSpaceOnUse" x1="10.009" x2="526.038" xlink:href="#lg1" y1="461.851" y2="461.851"/><linearGradient id="SVGID_2_" gradientUnits="userSpaceOnUse" x1="-36.667" x2="425.545" xlink:href="#lg1" y1="458.593" y2="458.593"/><linearGradient id="SVGID_3_" gradientUnits="userSpaceOnUse" x1="29.627" x2="364.678" xlink:href="#lg1" y1="475.185" y2="475.185"/><linearGradient id="lg2"><stop offset="0" stop-color="#fef056"/><stop offset=".5213" stop-color="#f4d902"/><stop offset="1" stop-color="#fe9738"/></linearGradient><linearGradient id="SVGID_4_" gradientUnits="userSpaceOnUse" x1="139.444" x2="403.525" xlink:href="#lg2" y1="432.704" y2="432.704"/><linearGradient id="SVGID_5_" gradientUnits="userSpaceOnUse" x1="4.5" x2="333.097" xlink:href="#lg2" y1="432.704" y2="432.704"/><linearGradient id="SVGID_6_" gradientUnits="userSpaceOnUse" x1="19" x2="125" xlink:href="#lg1" y1="215.5" y2="215.5"/><linearGradient id="SVGID_7_" gradientUnits="userSpaceOnUse" x1="345" x2="485.001" xlink:href="#lg1" y1="215.5" y2="215.5"/><linearGradient id="SVGID_8_" gradientUnits="userSpaceOnUse" x1="64.963" x2="499.255" xlink:href="#lg1" y1="223.553" y2="223.553"/><linearGradient id="lg3"><stop offset="0" stop-color="#814aa0"/><stop offset="1" stop-color="#192a7d"/></linearGradient><linearGradient id="SVGID_9_" gradientUnits="userSpaceOnUse" x1="108.753" x2="423.78" xlink:href="#lg3" y1="342.164" y2="342.164"/><linearGradient id="SVGID_10_" gradientUnits="userSpaceOnUse" x1="-70" x2="450.002" xlink:href="#lg1" y1="223.553" y2="223.553"/><linearGradient id="SVGID_11_" gradientUnits="userSpaceOnUse" x1="2.621" x2="438.499" xlink:href="#lg1" y1="195.851" y2="195.851"/><linearGradient id="SVGID_13_" gradientUnits="userSpaceOnUse" x1="56.547" x2="413.558" xlink:href="#lg3" y1="195.851" y2="195.851"/><g><path d="m483.247 510c28.016 0 37.138-37.644 12.223-50.457-54.017-27.78-141.601-45.84-240.47-45.84s-186.454 18.06-240.47 45.84c-24.915 12.813-15.794 50.457 12.223 50.457z" fill="url(#SVGID_1_)"/><path d="m242.495 422.583c-20.791 0-40.225-1.986-58.328-5.699-24.355 2.228-47.52 5.584-69.104 9.902-1.866 9.631.292 20.399 8.363 28.128 30.298 29.016 69.89 46.836 119.069 46.836h.001c49.179 0 88.771-17.82 119.069-46.836 9.404-9.006 10.781-22.136 7.116-32.787-19.461-3.016-39.97-5.275-61.259-6.693-19.956 4.643-41.586 7.149-64.927 7.149z" fill="url(#SVGID_2_)"/><path d="m495.47 459.543c-13.741-7.067-29.665-13.501-47.384-19.172 2.511 1.528 4.982 3.072 7.364 4.65 24.915 16.501 15.794 64.979-12.223 64.979h40.02c28.017 0 37.138-37.644 12.223-50.457z" fill="url(#SVGID_3_)"/><path d="m255 405.303c-32.916 0-62.08-5.498-87.559-15.298-22.477-8.646-38.381 26.758-19.884 44.473 27.34 26.182 63.067 42.262 107.443 42.262 44.376 0 80.103-16.08 107.442-42.263 18.497-17.715 2.594-53.119-19.883-44.473-25.479 9.801-54.643 15.299-87.559 15.299z" fill="url(#SVGID_4_)"/><path d="m342.559 390.005c-5.967 2.295-12.143 4.344-18.515 6.152 8.124 9.927 9.727 27.452-1.622 38.321-23.102 22.125-52.194 37.034-87.432 41.125 6.463.75 13.132 1.138 20.01 1.138 44.376 0 80.103-16.08 107.442-42.263 18.497-17.715 2.594-53.119-19.883-44.473z" fill="url(#SVGID_5_)"/><g><path d="m128.047 204.635c9.128 40.518-2.02 78.228-24.902 84.229-22.881 6-48.83-21.981-57.959-62.499s2.02-78.228 24.902-84.229c22.882-6 48.831 21.981 57.959 62.499z" fill="url(#SVGID_6_)"/><path d="m381.953 204.635c-9.128 40.518 2.02 78.228 24.902 84.229 22.881 6 48.83-21.981 57.959-62.499s-2.02-78.228-24.902-84.229c-22.882-6-48.831 21.981-57.959 62.499z" fill="url(#SVGID_7_)"/></g><path d="m255 447.106c-33.919 0-86.128-46.292-123.214-84.223-59.864-61.228-82.213-150.526-55.956-232.031 23.462-72.828 82.421-130.852 179.17-130.852 96.749 0 155.707 58.024 179.169 130.852 26.257 81.505 3.908 170.803-55.956 232.031-37.085 37.93-89.294 84.223-123.213 84.223z" fill="url(#SVGID_8_)"/><g><path d="m348.984 304.321c-3.515 1.726-53.968 29.787-93.984 29.713-40.279-.286-89.792-27.812-93.984-29.713-6.623-3.002-8.997.506-7.577 5.05 12.984 41.546 53.539 71.855 101.561 71.855s88.578-30.309 101.561-71.855c1.42-4.544-.976-8.291-7.577-5.05z" fill="url(#SVGID_9_)"/></g><path d="m434.169 130.852c-23.461-72.828-82.419-130.852-179.169-130.852-6.862 0-13.527.302-20.01.87 84.917 7.445 137.362 62.319 159.159 129.982 26.257 81.505 3.908 170.803-55.956 232.031-30.376 31.068-70.896 67.74-103.203 79.994 7.136 2.707 13.873 4.229 20.01 4.229 33.919 0 86.128-46.292 123.213-84.223 59.864-61.228 82.214-150.526 55.956-232.031z" fill="url(#SVGID_10_)"/><g><path d="m166.948 137.916c-37.533-17.735-80.216-6.173-95.335 25.824s3.052 72.312 40.585 90.047 80.216 6.173 95.335-25.824-3.051-72.313-40.585-90.047z" fill="url(#SVGID_11_)"/><path d="m389.629 163.74c-15.119-31.997-57.801-43.559-95.335-25.824-37.533 17.734-55.704 58.05-40.585 90.047s57.801 43.559 95.335 25.824c37.533-17.735 55.704-58.05 40.585-90.047z" fill="url(#SVGID_11_)"/><g fill="url(#SVGID_13_)"><path d="m191.327 137.916c-37.533-17.735-80.216-6.173-95.335 25.824s3.052 72.312 40.585 90.047 80.216 6.173 95.335-25.824-3.052-72.313-40.585-90.047z"/><path d="m414.008 163.74c-15.119-31.997-57.801-43.559-95.335-25.824-37.533 17.734-55.704 58.05-40.585 90.047s57.801 43.559 95.335 25.824c37.533-17.735 55.703-58.05 40.585-90.047z"/></g></g></g></svg>