<svg id="Capa_1" enable-background="new 0 0 510 510" height="512" viewBox="0 0 510 510" width="512" xmlns="http://www.w3.org/2000/svg" xmlns:xlink="http://www.w3.org/1999/xlink"><linearGradient id="lg1"><stop offset="0" stop-color="#814aa0"/><stop offset="1" stop-color="#192a7d"/></linearGradient><linearGradient id="SVGID_1_" gradientUnits="userSpaceOnUse" x1="-7.711" x2="580.47" xlink:href="#lg1" y1="255" y2="255"/><linearGradient id="SVGID_2_" gradientUnits="userSpaceOnUse" x1="-156.442" x2="394.161" xlink:href="#lg1" y1="255" y2="255"/><linearGradient id="lg2"><stop offset="0" stop-color="#eaf6ff"/><stop offset=".5213" stop-color="#d8ecfe"/><stop offset="1" stop-color="#b3dafe"/></linearGradient><linearGradient id="SVGID_3_" gradientUnits="userSpaceOnUse" x1="-80" x2="476.299" xlink:href="#lg2" y1="58.801" y2="58.801"/><linearGradient id="SVGID_4_" gradientUnits="userSpaceOnUse" x1="-91.176" x2="465.123" xlink:href="#lg2" y1="287.789" y2="287.789"/><linearGradient id="lg3"><stop offset="0" stop-color="#d8ecfe"/><stop offset=".5667" stop-color="#b3dafe"/><stop offset=".9955" stop-color="#8ac9fe"/></linearGradient><linearGradient id="SVGID_5_" gradientUnits="userSpaceOnUse" x1="-62.98" x2="493.319" xlink:href="#lg3" y1="462.408" y2="462.408"/><linearGradient id="SVGID_6_" gradientUnits="userSpaceOnUse" x1="-80" x2="476.299" xlink:href="#lg2" y1="89.74" y2="89.74"/><linearGradient id="SVGID_7_" gradientUnits="userSpaceOnUse" x1="-111.312" x2="444.987" xlink:href="#lg3" y1="35.334" y2="35.334"/><linearGradient id="SVGID_8_" gradientUnits="userSpaceOnUse" x1="-119.481" x2="436.819" xlink:href="#lg3" y1="454.562" y2="454.562"/><linearGradient id="lg4"><stop offset="0" stop-color="#feca9c"/><stop offset=".5213" stop-color="#fd8087"/><stop offset="1" stop-color="#f46700"/></linearGradient><linearGradient id="SVGID_9_" gradientUnits="userSpaceOnUse" x1="0" x2="510" xlink:href="#lg4" y1="255" y2="255"/><linearGradient id="SVGID_10_" gradientUnits="userSpaceOnUse" x1="-172" x2="424" xlink:href="#lg4" y1="273.742" y2="273.742"/><linearGradient id="SVGID_11_" gradientUnits="userSpaceOnUse" x1="-172" x2="424" xlink:href="#lg4" y1="375.831" y2="375.831"/><linearGradient id="SVGID_12_" gradientUnits="userSpaceOnUse" x1="-172" x2="424" xlink:href="#lg4" y1="243.28" y2="243.28"/><linearGradient id="lg5"><stop offset="0" stop-color="#fef056"/><stop offset=".5213" stop-color="#f4d902"/><stop offset="1" stop-color="#fe9738"/></linearGradient><linearGradient id="SVGID_13_" gradientUnits="userSpaceOnUse" x1="181.333" x2="328.667" xlink:href="#lg5" y1="255" y2="255"/><linearGradient id="SVGID_14_" gradientUnits="userSpaceOnUse" x1="173.201" x2="312.711" xlink:href="#lg5" y1="255" y2="255"/><linearGradient id="SVGID_15_" gradientUnits="userSpaceOnUse" x1="173.201" x2="312.711" xlink:href="#lg5" y1="253.387" y2="253.387"/><linearGradient id="SVGID_16_" gradientUnits="userSpaceOnUse" x1="173.201" x2="312.711" xlink:href="#lg5" y1="222.219" y2="222.219"/><linearGradient id="lg6"><stop offset="0" stop-color="#fd8087"/><stop offset=".5213" stop-color="#fb2b3a"/><stop offset="1" stop-color="#d90d80"/></linearGradient><linearGradient id="SVGID_17_" gradientUnits="userSpaceOnUse" x1="-42" x2="518.004" xlink:href="#lg6" y1="44.87" y2="44.87"/><linearGradient id="SVGID_18_" gradientUnits="userSpaceOnUse" x1="-42" x2="518.004" xlink:href="#lg6" y1="465.13" y2="465.13"/><linearGradient id="SVGID_19_" gradientUnits="userSpaceOnUse" x1="-42" x2="518.004" xlink:href="#lg6" y1="255" y2="255"/><linearGradient id="SVGID_21_" gradientUnits="userSpaceOnUse" x1="-42" x2="518.004" xlink:href="#lg6" y1="106.416" y2="106.416"/><linearGradient id="SVGID_22_" gradientUnits="userSpaceOnUse" x1="-42" x2="518.004" xlink:href="#lg6" y1="403.585" y2="403.585"/><linearGradient id="lg7"><stop offset="0" stop-color="#fbc56d"/><stop offset=".5841" stop-color="#fe9738"/><stop offset=".9984" stop-color="#fb2b3a"/></linearGradient><linearGradient id="SVGID_25_" gradientUnits="userSpaceOnUse" x1="-92" x2="458.233" xlink:href="#lg7" y1="83.956" y2="83.956"/><linearGradient id="SVGID_26_" gradientUnits="userSpaceOnUse" x1="-92" x2="458.233" xlink:href="#lg7" y1="426.044" y2="426.044"/><linearGradient id="SVGID_27_" gradientUnits="userSpaceOnUse" x1="-92" x2="458.233" xlink:href="#lg7" y1="324.882" y2="324.882"/><linearGradient id="SVGID_28_" gradientUnits="userSpaceOnUse" x1="-92" x2="458.233" xlink:href="#lg7" y1="185.12" y2="185.12"/><linearGradient id="SVGID_29_" gradientUnits="userSpaceOnUse" x1="-92" x2="458.233" xlink:href="#lg7" y1="425.364" y2="425.364"/><linearGradient id="SVGID_30_" gradientUnits="userSpaceOnUse" x1="-92" x2="458.233" xlink:href="#lg7" y1="84.638" y2="84.638"/><g><path d="m483.857 510h-457.714c-14.438 0-26.143-11.705-26.143-26.143v-457.714c0-14.438 11.705-26.143 26.143-26.143h457.713c14.439 0 26.144 11.705 26.144 26.143v457.713c0 14.439-11.705 26.144-26.143 26.144z" fill="url(#SVGID_1_)"/><path d="m483.857 0h-40.02c14.439 0 26.144 11.705 26.144 26.143v105.498l-101.671 57.869c-7.303 4.157-15.928 5.339-24.08 3.301-13.635-3.409-29.879-16.511-36.097-29.115l-4.751-9.631c-2.465-4.997-8.565-6.979-13.496-4.384l-13.925 7.326c-13.12 6.902-28.797 6.902-41.917 0l-13.926-7.326c-4.931-2.594-11.031-.612-13.496 4.384l-6.964 14.116c-6.554 13.285-19.225 22.496-33.885 24.63l-15.591 2.27c-5.508.802-9.274 5.983-8.338 11.469l2.043 11.975c2.818 16.516-3.77 33.231-17.099 43.383l-13.42 10.221c-5.205 3.965-5.205 11.797 0 15.761 15.732 13.984 13.075 39.284-5.217 49.696l-96.729 55.056c-7.061 4.021-11.422 11.52-11.422 19.645 0 17.337 18.715 28.219 33.783 19.643l104.647-59.563c8.285-4.716 17.907-6.531 27.341-5.157 14.659 2.134 27.33 11.345 33.885 24.63l6.965 14.117c2.465 4.997 8.565 6.978 13.496 4.384l13.926-7.326c13.12-6.902 28.797-6.902 41.916 0l13.926 7.326c4.931 2.594 11.031.612 13.496-4.384l6.964-14.116c6.554-13.285 19.225-22.496 33.885-24.63l15.591-2.27c5.508-.802 9.274-5.982 8.337-11.469l-2.043-11.975c-2.818-16.516 3.769-33.231 17.098-43.383l13.42-10.222c5.205-3.965 5.205-11.797 0-15.761-15.749-13.959-13.111-39.264 5.179-49.675 30.404-17.305 68.168 4.653 68.168 39.637v221.764c0 14.439-11.705 26.144-26.144 26.144h40.02c14.439-.001 26.144-11.706 26.144-26.145v-457.713c0-14.438-11.705-26.143-26.143-26.143z" fill="url(#SVGID_2_)"/><g><path d="m57.465 69.068c-2.094-3.547-5.056-6.52-8.596-8.625-1.245-.741-1.245-2.543 0-3.284 3.54-2.106 6.502-5.078 8.596-8.625.741-1.255 2.553-1.255 3.294 0 2.094 3.547 5.056 6.52 8.596 8.625 1.245.741 1.245 2.543 0 3.284-3.54 2.106-6.502 5.078-8.596 8.625-.741 1.255-2.553 1.255-3.294 0z" fill="url(#SVGID_3_)"/><path d="m73.881 298.056c-2.094-3.547-5.056-6.52-8.596-8.625-1.245-.741-1.245-2.543 0-3.284 3.54-2.106 6.502-5.078 8.596-8.625.741-1.255 2.553-1.255 3.294 0 2.094 3.547 5.056 6.52 8.596 8.625 1.245.741 1.245 2.543 0 3.284-3.54 2.106-6.502 5.078-8.596 8.625-.741 1.255-2.554 1.255-3.294 0z" fill="url(#SVGID_4_)"/><path d="m211.696 472.675c-2.094-3.547-5.056-6.52-8.596-8.625-1.245-.741-1.245-2.543 0-3.284 3.54-2.106 6.502-5.078 8.596-8.625.741-1.255 2.553-1.255 3.294 0 2.094 3.547 5.056 6.52 8.596 8.625 1.245.741 1.245 2.543 0 3.284-3.54 2.106-6.502 5.078-8.596 8.625-.741 1.255-2.553 1.255-3.294 0z" fill="url(#SVGID_5_)"/><path d="m139.924 107.194c-3.56-6.03-8.596-11.083-14.613-14.663-2.116-1.259-2.116-4.323 0-5.582 6.017-3.579 11.053-8.632 14.613-14.663 1.259-2.133 4.34-2.133 5.599 0 3.56 6.03 8.596 11.083 14.613 14.663 2.116 1.259 2.116 4.323 0 5.582-6.017 3.579-11.053 8.633-14.613 14.663-1.259 2.133-4.34 2.133-5.599 0z" fill="url(#SVGID_6_)"/><path d="m408.953 52.788c-3.56-6.03-8.596-11.083-14.613-14.663-2.116-1.259-2.116-4.323 0-5.582 6.017-3.579 11.053-8.632 14.613-14.663 1.259-2.133 4.34-2.133 5.599 0 3.56 6.03 8.596 11.083 14.613 14.663 2.116 1.259 2.116 4.323 0 5.582-6.017 3.58-11.053 8.633-14.613 14.663-1.258 2.134-4.339 2.134-5.599 0z" fill="url(#SVGID_7_)"/><path d="m381.785 472.016c-3.56-6.03-8.596-11.083-14.613-14.663-2.116-1.259-2.116-4.323 0-5.582 6.017-3.579 11.053-8.632 14.613-14.663 1.259-2.133 4.34-2.133 5.599 0 3.56 6.03 8.596 11.083 14.613 14.663 2.116 1.259 2.116 4.323 0 5.582-6.017 3.579-11.053 8.633-14.613 14.663-1.259 2.133-4.339 2.133-5.599 0z" fill="url(#SVGID_8_)"/></g><g><path d="m476.217 103.081-104.647 59.563c-8.285 4.716-17.907 6.531-27.341 5.157-14.66-2.135-27.331-11.345-33.885-24.63l-6.964-14.116c-2.465-4.997-8.565-6.978-13.496-4.384l-13.926 7.326c-13.12 6.902-28.797 6.902-41.917 0l-13.926-7.326c-4.931-2.594-11.031-.612-13.496 4.384l-6.964 14.117c-6.554 13.285-19.225 22.496-33.884 24.63l-15.591 2.27c-5.508.802-9.274 5.983-8.338 11.469l2.043 11.975c2.818 16.516-3.77 33.231-17.099 43.383l-13.42 10.221c-5.205 3.964-5.205 11.797 0 15.761 0 0 .008.007.024.021 15.713 13.984 13.036 39.272-5.245 49.677l-96.725 55.054c-7.059 4.019-11.42 11.518-11.42 19.643 0 17.337 18.715 28.219 33.783 19.643l104.647-59.563c8.285-4.716 17.907-6.531 27.341-5.157 14.659 2.134 27.33 11.345 33.885 24.63l6.965 14.117c2.465 4.997 8.565 6.978 13.496 4.384l13.926-7.326c13.12-6.902 28.797-6.902 41.916 0l13.926 7.326c4.931 2.594 11.031.612 13.496-4.384l6.964-14.116c6.554-13.285 19.225-22.496 33.885-24.63l15.591-2.27c5.508-.802 9.274-5.983 8.337-11.469l-2.043-11.975c-2.818-16.516 3.769-33.231 17.098-43.383l13.42-10.222c5.205-3.965 5.205-11.797 0-15.761 0 0-.008-.007-.024-.021-15.713-13.984-13.036-39.272 5.245-49.677l96.725-55.054c7.061-4.019 11.422-11.519 11.422-19.643-.001-17.338-18.716-28.22-33.784-19.644z" fill="url(#SVGID_9_)"/><g><circle cx="229.989" cy="273.742" fill="url(#SVGID_10_)" r="73.667"/><path d="m98.41 347.356-93.924 53.46c6.459 8.579 18.765 12.098 29.297 6.103l104.647-59.563c.423-.241.852-.469 1.281-.694-4.326-2.207-9.026-3.744-13.96-4.463-9.434-1.374-19.056.441-27.341 5.157z" fill="url(#SVGID_11_)"/><path d="m476.217 103.081-10.723 6.103c2.781 3.694 4.486 8.321 4.486 13.54 0 8.125-4.361 15.624-11.422 19.643l-96.725 55.054c-18.281 10.405-20.959 35.693-5.245 49.677.016.014.024.021.024.021 5.205 3.965 5.205 11.797 0 15.761l-13.42 10.222c-13.329 10.152-19.917 26.867-17.098 43.383l2.043 11.975c.936 5.486-2.83 10.667-8.337 11.469l-15.591 2.27c-14.659 2.135-27.33 11.345-33.885 24.63l-3.719 7.539c3.209.857 6.35 2.057 9.353 3.636l13.926 7.326c4.931 2.594 11.031.612 13.496-4.384l6.964-14.116c6.554-13.285 19.225-22.496 33.885-24.63l15.591-2.27c5.507-.802 9.274-5.983 8.337-11.469l-2.043-11.975c-2.818-16.516 3.769-33.231 17.098-43.383l13.42-10.222c5.205-3.964 5.205-11.797 0-15.761 0 0-.008-.007-.024-.021-15.713-13.984-13.036-39.272 5.245-49.677l96.725-55.054c7.061-4.019 11.422-11.519 11.422-19.643 0-17.338-18.715-28.22-33.783-19.644z" fill="url(#SVGID_12_)"/></g><g><circle cx="255" cy="255" fill="url(#SVGID_13_)" r="73.667"/><g><path d="m255 181.333c-4.513 0-8.924.428-13.213 1.205 34.376 6.229 60.454 36.29 60.454 72.462 0 11.78-2.78 22.904-7.698 32.776-2.492-11.221-12.821-19.492-24.952-18.759-11.788.713-21.489 10.182-22.46 21.952-.51 6.183 1.323 11.927 4.707 16.44 5.373 7.166 1.603 17.511-7.138 19.464-.964.215-1.935.412-2.913.589 4.289.777 8.7 1.205 13.213 1.205 40.685 0 73.667-32.982 73.667-73.667s-32.982-73.667-73.667-73.667z" fill="url(#SVGID_14_)"/><circle cx="217.751" cy="253.387" fill="url(#SVGID_15_)" r="15.584"/><circle cx="265.215" cy="222.218" fill="url(#SVGID_16_)" r="15.584"/></g></g><g><path d="m255 0c-4.231 0-7.661 3.429-7.661 7.661v74.418c0 4.231 3.429 7.661 7.661 7.661s7.661-3.429 7.661-7.661v-74.418c0-4.232-3.43-7.661-7.661-7.661z" fill="url(#SVGID_17_)"/><path d="m255 420.26c-4.231 0-7.661 3.43-7.661 7.661v74.418c0 4.231 3.429 7.661 7.661 7.661s7.661-3.429 7.661-7.661v-74.418c0-4.231-3.43-7.661-7.661-7.661z" fill="url(#SVGID_18_)"/><path d="m502.339 247.339h-74.418c-4.231 0-7.661 3.429-7.661 7.661 0 4.231 3.429 7.661 7.661 7.661h74.418c4.231 0 7.661-3.429 7.661-7.661s-3.429-7.661-7.661-7.661z" fill="url(#SVGID_19_)"/><path d="m89.74 255c0-4.232-3.429-7.661-7.661-7.661h-74.418c-4.232 0-7.661 3.429-7.661 7.661 0 4.231 3.429 7.661 7.661 7.661h74.418c4.231 0 7.661-3.43 7.661-7.661z" fill="url(#SVGID_19_)"/><path d="m377.273 140.387c1.96 0 3.921-.748 5.417-2.243l52.622-52.622c2.992-2.993 2.992-7.842 0-10.835-2.993-2.991-7.843-2.991-10.835 0l-52.622 52.622c-2.991 2.993-2.991 7.842 0 10.835 1.497 1.495 3.458 2.243 5.418 2.243z" fill="url(#SVGID_21_)"/><path d="m127.309 371.856-52.622 52.622c-2.992 2.993-2.992 7.842 0 10.835 1.496 1.495 3.457 2.243 5.417 2.243s3.921-.748 5.417-2.243l52.622-52.622c2.991-2.992 2.991-7.842 0-10.835-2.992-2.991-7.841-2.991-10.834 0z" fill="url(#SVGID_22_)"/><path d="m382.691 371.856c-2.992-2.991-7.842-2.991-10.835 0-2.991 2.992-2.991 7.842 0 10.835l52.622 52.622c1.496 1.495 3.457 2.243 5.417 2.243s3.921-.748 5.417-2.243c2.992-2.993 2.992-7.842 0-10.835z" fill="url(#SVGID_22_)"/><path d="m85.522 74.687c-2.992-2.991-7.842-2.991-10.835 0-2.992 2.993-2.992 7.842 0 10.835l52.622 52.622c1.496 1.495 3.457 2.243 5.418 2.243 1.96 0 3.921-.748 5.417-2.243 2.991-2.993 2.991-7.842 0-10.835z" fill="url(#SVGID_21_)"/></g><g><path d="m317.446 101.945c.047.019.094.039.142.058 3.875 1.589 8.301-.263 9.885-4.14l8.977-21.963c1.61-3.91-.27-8.39-4.19-9.99s-8.39.28-9.99 4.2l-8.971 21.961c-1.582 3.873.275 8.291 4.147 9.874z" fill="url(#SVGID_25_)"/><path d="m192.554 408.055c-.047-.019-.094-.039-.142-.058-3.875-1.588-8.301.263-9.885 4.14l-8.977 21.963c-1.61 3.91.27 8.39 4.19 9.99.95.38 1.93.57 2.89.57 3.02 0 5.89-1.8 7.1-4.77l8.971-21.961c1.582-3.873-.275-8.291-4.147-9.874z" fill="url(#SVGID_26_)"/><path d="m439.89 322.27-21.961-8.971c-3.873-1.582-8.291.275-9.874 4.148-.019.047-.039.095-.058.142-1.589 3.875.263 8.301 4.14 9.885l21.963 8.977c.95.39 1.93.58 2.89.58 3.02 0 5.88-1.8 7.1-4.77 1.6-3.921-.28-8.391-4.2-9.991z" fill="url(#SVGID_27_)"/><path d="m97.863 182.527-21.963-8.977c-3.91-1.61-8.39.27-9.99 4.19s.28 8.39 4.2 9.99l21.961 8.971c3.873 1.582 8.291-.275 9.874-4.148.019-.047.039-.095.058-.142 1.589-3.874-.263-8.3-4.14-9.884z" fill="url(#SVGID_28_)"/><path d="m328.983 411.431c-1.622-3.861-6.064-5.671-9.924-4.046-.049.021-.099.042-.148.062-3.858 1.62-5.673 6.056-4.054 9.914l9.183 21.879c1.24 2.93 4.08 4.7 7.07 4.7.99 0 1.99-.2 2.96-.6 3.9-1.64 5.74-6.13 4.1-10.03z" fill="url(#SVGID_29_)"/><path d="m190.941 102.615c.049-.021.099-.042.148-.062 3.858-1.62 5.673-6.056 4.054-9.914l-9.183-21.879c-1.64-3.9-6.13-5.73-10.03-4.1-3.9 1.64-5.74 6.13-4.1 10.03l9.187 21.879c1.622 3.861 6.064 5.671 9.924 4.046z" fill="url(#SVGID_30_)"/></g></g></g></svg>