<svg id="Capa_1" enable-background="new 0 0 510 510" height="512" viewBox="0 0 510 510" width="512" xmlns="http://www.w3.org/2000/svg" xmlns:xlink="http://www.w3.org/1999/xlink"><linearGradient id="lg1"><stop offset="0" stop-color="#d8ecfe"/><stop offset=".5667" stop-color="#b3dafe"/><stop offset=".9955" stop-color="#8ac9fe"/></linearGradient><linearGradient id="SVGID_1_" gradientUnits="userSpaceOnUse" x1="43.933" x2="261.01" xlink:href="#lg1" y1="240.219" y2="240.219"/><linearGradient id="SVGID_2_" gradientUnits="userSpaceOnUse" x1="-28.351" x2="137.03" xlink:href="#lg1" y1="263.579" y2="263.579"/><linearGradient id="SVGID_3_" gradientUnits="userSpaceOnUse" x1="-16.291" x2="136.839" xlink:href="#lg1" y1="240.219" y2="240.219"/><linearGradient id="lg2"><stop offset="0" stop-color="#60b7ff"/><stop offset=".5857" stop-color="#0182fc"/><stop offset="1" stop-color="#2740b0"/></linearGradient><linearGradient id="SVGID_4_" gradientUnits="userSpaceOnUse" x1="106.214" x2="224.367" xlink:href="#lg2" y1="164.544" y2="164.544"/><linearGradient id="SVGID_5_" gradientUnits="userSpaceOnUse" x1="58.857" x2="198.889" xlink:href="#lg2" y1="164.544" y2="164.544"/><linearGradient id="SVGID_6_" gradientUnits="userSpaceOnUse" x1="-19.968" x2="622.595" xlink:href="#lg1" y1="241.954" y2="241.954"/><linearGradient id="SVGID_7_" gradientUnits="userSpaceOnUse" x1="161" x2="257.687" xlink:href="#lg1" y1="327.366" y2="327.366"/><linearGradient id="SVGID_8_" gradientUnits="userSpaceOnUse" x1="62" x2="408.417" xlink:href="#lg1" y1="241.954" y2="241.954"/><linearGradient id="SVGID_9_" gradientUnits="userSpaceOnUse" x1="246" x2="351.005" xlink:href="#lg2" y1="237.15" y2="237.15"/><linearGradient id="SVGID_10_" gradientUnits="userSpaceOnUse" x1="160" x2="371.116" xlink:href="#lg2" y1="237.15" y2="237.15"/><linearGradient id="lg3"><stop offset="0" stop-color="#eaf6ff"/><stop offset=".5213" stop-color="#d8ecfe"/><stop offset="1" stop-color="#b3dafe"/></linearGradient><linearGradient id="SVGID_11_" gradientUnits="userSpaceOnUse" x1="0" x2="574.001" xlink:href="#lg3" y1="388.434" y2="388.434"/><linearGradient id="SVGID_12_" gradientUnits="userSpaceOnUse" x1="-286" x2="104.046" xlink:href="#lg3" y1="391.97" y2="391.97"/><linearGradient id="SVGID_14_" gradientUnits="userSpaceOnUse" x1="100.667" x2="368.734" xlink:href="#lg3" y1="388.434" y2="388.434"/><linearGradient id="lg4"><stop offset="0" stop-color="#814aa0"/><stop offset="1" stop-color="#192a7d"/></linearGradient><linearGradient id="SVGID_15_" gradientUnits="userSpaceOnUse" x1="29.272" x2="220.175" xlink:href="#lg4" y1="434.254" y2="434.254"/><linearGradient id="SVGID_16_" gradientUnits="userSpaceOnUse" x1="-36.329" x2="179.301" xlink:href="#lg4" y1="434.254" y2="434.254"/><linearGradient id="SVGID_17_" gradientUnits="userSpaceOnUse" x1="70.198" x2="153.59" xlink:href="#lg3" y1="434.254" y2="434.254"/><linearGradient id="SVGID_18_" gradientUnits="userSpaceOnUse" x1="329.236" x2="520.139" xlink:href="#lg4" y1="434.254" y2="434.254"/><linearGradient id="SVGID_19_" gradientUnits="userSpaceOnUse" x1="263.635" x2="479.265" xlink:href="#lg4" y1="434.254" y2="434.254"/><linearGradient id="SVGID_20_" gradientUnits="userSpaceOnUse" x1="370.162" x2="453.554" xlink:href="#lg3" y1="434.254" y2="434.254"/><linearGradient id="SVGID_21_" gradientUnits="userSpaceOnUse" x1="-21.333" x2="100.017" y1="71.616" y2="71.616"><stop offset="0" stop-color="#fef056"/><stop offset=".5213" stop-color="#f4d902"/><stop offset="1" stop-color="#fe9738"/></linearGradient><linearGradient id="SVGID_22_" gradientUnits="userSpaceOnUse" x1="-11.647" x2="84.394" y1="26.063" y2="26.063"><stop offset="0" stop-color="#feca9c"/><stop offset=".5213" stop-color="#fd8087"/><stop offset="1" stop-color="#f46700"/></linearGradient><linearGradient id="SVGID_23_" gradientUnits="userSpaceOnUse" x1="296.026" x2="488.102" xlink:href="#lg4" y1="193.119" y2="193.119"/><linearGradient id="SVGID_24_" gradientUnits="userSpaceOnUse" x1="243.333" x2="446.355" xlink:href="#lg4" y1="193.119" y2="193.119"/><linearGradient id="SVGID_25_" gradientUnits="userSpaceOnUse" x1="-.653" x2="250.806" xlink:href="#lg3" y1="95.672" y2="95.672"/><linearGradient id="SVGID_26_" gradientUnits="userSpaceOnUse" x1="-149.807" x2="158.952" xlink:href="#lg3" y1="95.67" y2="95.67"/><g><g><g><path d="m163.902 158.329c-2.31-3.91-6.51-6.31-11.04-6.31-4.54 0-8.74 2.4-11.05 6.31l-88.995 150.749c-5.045 8.548 1.117 19.341 11.043 19.341 4.537 0 8.737-2.398 11.043-6.305l65.128-110.315v103.797c0 7.082 5.741 12.823 12.823 12.823h.003c7.082 0 12.823-5.741 12.823-12.823v-103.797l65.128 110.315c2.306 3.907 6.506 6.305 11.043 6.305 9.926 0 16.089-10.793 11.043-19.341z" fill="url(#SVGID_1_)"/><g><path d="m140.082 198.739v13.01l-.05.08-65.15 110.32c-1.15 1.94-2.77 3.5-4.66 4.58-1.9 1.09-4.09 1.69-6.36 1.69h-.35l.01-.01z" fill="url(#SVGID_2_)"/><path d="m254.692 315.579c0 6.69-5.34 12.84-12.84 12.84-4.53 0-8.72-2.39-11.02-6.27l-65.15-110.35v103.8c0 7.08-5.74 12.82-12.82 12.82h-.01c-2.13 0-4.14-.52-5.91-1.45v-143.37c0-2.3-.62-4.55-1.79-6.53-2.25-3.81-6.29-6.16-10.7-6.28l7.36-12.46c2.31-3.91 6.51-6.31 11.05-6.31 4.53 0 8.73 2.4 11.04 6.31l88.99 150.75c1.24 2.1 1.8 4.33 1.8 6.5z" fill="url(#SVGID_3_)"/></g></g><g><circle cx="152.857" cy="164.544" fill="url(#SVGID_4_)" r="46.643"/><path d="m152.857 117.901c-4.334 0-8.524.604-12.505 1.709 19.685 5.468 34.138 23.507 34.138 44.934s-14.453 39.466-34.138 44.934c3.981 1.106 8.172 1.709 12.505 1.709 25.76 0 46.643-20.883 46.643-46.643s-20.883-46.643-46.643-46.643z" fill="url(#SVGID_5_)"/></g></g><path d="m361.182 116.175h-64.802c-12.235 0-22.154 9.919-22.154 22.154v148.671h-195.719c-31.76 0-57.507 25.747-57.507 57.507v23.226h468v-123.739c0-70.592-57.226-127.819-127.818-127.819z" fill="url(#SVGID_6_)"/><path d="m224.881 287h29.811v80.732h-29.811z" fill="url(#SVGID_7_)"/><path d="m361.182 116.175h-40.02c70.592 0 127.818 57.226 127.818 127.818v8.549h-27.534c-4.107 0-7.688 3.165-7.811 7.27-.127 4.247 3.278 7.73 7.497 7.73h17.956c5.463 0 9.892 4.429 9.892 9.892 0 5.463-4.429 9.892-9.892 9.892h-17.642c-4.107 0-7.688 3.165-7.811 7.27-.127 4.247 3.278 7.73 7.497 7.73h17.956c5.463 0 9.892 4.429 9.892 9.892 0 5.463-4.429 9.892-9.892 9.892h-17.642c-4.107 0-7.688 3.165-7.811 7.27-.127 4.247 3.278 7.73 7.497 7.73h17.956c5.463 0 9.892 4.429 9.892 9.892v20.73h40.02v-123.738c0-70.592-57.226-127.819-127.818-127.819z" fill="url(#SVGID_8_)"/><path d="m295.168 367.732h-45.168v-241.948c0-10.613 8.604-19.217 19.217-19.217h6.734c10.613 0 19.217 8.604 19.217 19.217z" fill="url(#SVGID_9_)"/><path d="m275.951 106.567h-6.734c-3.308 0-6.42.837-9.138 2.309 6.002 3.251 10.078 9.603 10.078 16.908v241.949h25.011v-241.949c0-10.613-8.604-19.217-19.217-19.217z" fill="url(#SVGID_10_)"/><path d="m484.523 424.434h-459.046c-14.071 0-25.477-11.406-25.477-25.477v-21.047c0-14.07 11.406-25.477 25.477-25.477h459.047c14.07 0 25.477 11.406 25.477 25.477v21.047c-.001 14.071-11.407 25.477-25.478 25.477z" fill="url(#SVGID_11_)"/><g fill="url(#SVGID_12_)"><path d="m154.99 424.43h-129.51c-7.43 0-14.13-3.18-18.78-8.26 8.45-32.59 38.07-56.66 73.32-56.66 38.16 0 69.72 28.21 74.97 64.92z"/><path d="m454.96 424.43h-149.95c5.25-36.71 36.81-64.92 74.97-64.92s69.73 28.21 74.98 64.92z"/></g><path d="m484.523 352.434h-40.02c14.07 0 25.477 11.406 25.477 25.477v21.047c0 14.07-11.406 25.477-25.477 25.477h40.02c14.07 0 25.477-11.406 25.477-25.477v-21.047c0-14.071-11.406-25.477-25.477-25.477z" fill="url(#SVGID_14_)"/><g><g><circle cx="105.018" cy="434.254" fill="url(#SVGID_15_)" r="75.746"/><path d="m105.018 358.508c-4.262 0-8.435.37-12.505 1.046 35.88 5.964 63.241 37.129 63.241 74.7 0 37.572-27.361 68.737-63.241 74.7 4.07.677 8.244 1.046 12.505 1.046 41.833 0 75.746-33.913 75.746-75.746 0-41.834-33.912-75.746-75.746-75.746z" fill="url(#SVGID_16_)"/><circle cx="105.018" cy="434.254" fill="url(#SVGID_17_)" r="34.82"/></g><g><circle cx="404.982" cy="434.254" fill="url(#SVGID_18_)" r="75.746"/><path d="m404.982 358.508c-4.262 0-8.435.37-12.505 1.046 35.88 5.964 63.241 37.129 63.241 74.7 0 37.572-27.361 68.737-63.241 74.7 4.07.677 8.244 1.046 12.505 1.046 41.833 0 75.746-33.913 75.746-75.746 0-41.834-33.913-75.746-75.746-75.746z" fill="url(#SVGID_19_)"/><circle cx="404.982" cy="434.254" fill="url(#SVGID_20_)" r="34.82"/></g></g><path d="m42.948 124.67c-3.544 0-6.696-2.523-7.366-6.134l-16.894-91.106c-.45-2.429.324-4.924 2.071-6.671 1.746-1.747 4.241-2.522 6.67-2.07l91.106 16.894c4.073.755 6.762 4.669 6.007 8.741-.755 4.073-4.669 6.768-8.742 6.007l-80.373-14.904 14.904 80.375c.755 4.072-1.935 7.986-6.007 8.741-.463.086-.923.127-1.376.127z" fill="url(#SVGID_21_)"/><circle cx="26.063" cy="26.063" fill="url(#SVGID_22_)" r="26.063"/><path d="m361.041 237.219h127.78c-1.826-34.97-17.71-66.216-42.105-88.2h-85.675c-24.356 0-44.1 19.744-44.1 44.1 0 24.356 19.745 44.1 44.1 44.1z" fill="url(#SVGID_23_)"/><path d="m446.717 149.019h-40.02c24.395 21.984 40.278 53.23 42.105 88.2h40.02c-1.827-34.97-17.71-66.216-42.105-88.2z" fill="url(#SVGID_24_)"/><g><path d="m157.724 12.976c37.423 37.423 35.357 100.163-4.615 140.134s-102.711 42.037-140.134 4.615 107.327-182.172 144.749-144.749z" fill="url(#SVGID_25_)"/><path d="m157.724 12.976c-8.833-8.833-23.645-7.514-40.629.144 1.287.795 2.49 1.737 3.596 2.844 37.423 37.423 35.357 100.163-4.615 140.134-13.855 13.855-30.446 23.151-47.769 27.832 29.603 3.183 61.178-7.196 84.802-30.819 39.972-39.973 42.038-102.713 4.615-140.135z" fill="url(#SVGID_26_)"/></g></g></svg>