<svg id="Capa_1" enable-background="new 0 0 510 510" height="512" viewBox="0 0 510 510" width="512" xmlns="http://www.w3.org/2000/svg" xmlns:xlink="http://www.w3.org/1999/xlink"><linearGradient id="lg1"><stop offset="0" stop-color="#60b7ff"/><stop offset=".5857" stop-color="#0182fc"/><stop offset="1" stop-color="#2740b0"/></linearGradient><linearGradient id="SVGID_1_" gradientUnits="userSpaceOnUse" x1="164.699" x2="263.93" xlink:href="#lg1" y1="142.519" y2="142.519"/><linearGradient id="lg2"><stop offset="0" stop-color="#d8ecfe"/><stop offset=".5667" stop-color="#b3dafe"/><stop offset=".9955" stop-color="#8ac9fe"/></linearGradient><linearGradient id="SVGID_2_" gradientUnits="userSpaceOnUse" x1="146.076" x2="363.153" xlink:href="#lg2" y1="399.689" y2="399.689"/><linearGradient id="SVGID_3_" gradientUnits="userSpaceOnUse" x1="73.792" x2="239.173" xlink:href="#lg2" y1="423.049" y2="423.049"/><linearGradient id="SVGID_4_" gradientUnits="userSpaceOnUse" x1="85.852" x2="238.982" xlink:href="#lg2" y1="399.689" y2="399.689"/><linearGradient id="lg3"><stop offset="0" stop-color="#eaf6ff"/><stop offset=".5213" stop-color="#d8ecfe"/><stop offset="1" stop-color="#b3dafe"/></linearGradient><linearGradient id="SVGID_5_" gradientUnits="userSpaceOnUse" x1="208.357" x2="326.51" xlink:href="#lg3" y1="324.014" y2="324.014"/><linearGradient id="SVGID_6_" gradientUnits="userSpaceOnUse" x1="79.828" x2="300.679" xlink:href="#lg3" y1="324.014" y2="324.014"/><linearGradient id="SVGID_7_" gradientUnits="userSpaceOnUse" x1="-1" x2="196.717" xlink:href="#lg2" y1="286.507" y2="286.507"/><linearGradient id="SVGID_8_" gradientUnits="userSpaceOnUse" x1="-96" x2="181.13" xlink:href="#lg2" y1="286.507" y2="286.507"/><linearGradient id="SVGID_9_" gradientUnits="userSpaceOnUse" x1="-6" x2="91.745" xlink:href="#lg1" y1="324.971" y2="324.971"/><linearGradient id="SVGID_10_" gradientUnits="userSpaceOnUse" x1="139" x2="496.179" xlink:href="#lg3" y1="198.635" y2="198.635"/><linearGradient id="SVGID_11_" gradientUnits="userSpaceOnUse" x1="57" x2="397.476" xlink:href="#lg3" y1="198.635" y2="198.635"/><linearGradient id="lg4"><stop offset="0" stop-color="#814aa0"/><stop offset="1" stop-color="#192a7d"/></linearGradient><linearGradient id="SVGID_12_" gradientUnits="userSpaceOnUse" x1="355" x2="548.507" xlink:href="#lg4" y1="136.376" y2="136.376"/><linearGradient id="SVGID_13_" gradientUnits="userSpaceOnUse" x1="227.333" x2="279.372" xlink:href="#lg4" y1="482.125" y2="482.125"/><linearGradient id="SVGID_14_" gradientUnits="userSpaceOnUse" x1="316.339" x2="368.378" xlink:href="#lg4" y1="482.125" y2="482.125"/><linearGradient id="SVGID_15_" gradientUnits="userSpaceOnUse" x1="138.328" x2="190.366" xlink:href="#lg4" y1="482.125" y2="482.125"/><linearGradient id="SVGID_16_" gradientUnits="userSpaceOnUse" x1="260" x2="495.019" xlink:href="#lg4" y1="136.375" y2="136.375"/><linearGradient id="SVGID_17_" gradientUnits="userSpaceOnUse" x1="115.164" x2="278.46" xlink:href="#lg2" y1="90.26" y2="90.26"/><linearGradient id="SVGID_18_" gradientUnits="userSpaceOnUse" x1="60.5" x2="196.023" xlink:href="#lg2" y1="90.259" y2="90.259"/><linearGradient id="SVGID_19_" gradientUnits="userSpaceOnUse" x1="207.336" x2="306.568" xlink:href="#lg4" y1="64.957" y2="64.957"/><g><path d="m240.851 180.539-24.517 11.354c-2.879 1.333-6.294.08-7.628-2.799l-35.643-76.966c-1.333-2.879-.08-6.294 2.799-7.628l24.517-11.354c2.879-1.333 6.294-.08 7.628 2.799l35.643 76.966c1.334 2.879.08 6.294-2.799 7.628z" fill="url(#SVGID_1_)"/><g><g><g><path d="m266.045 317.799c-2.31-3.91-6.51-6.31-11.04-6.31-4.54 0-8.74 2.4-11.05 6.31l-88.995 150.749c-5.045 8.548 1.117 19.341 11.043 19.341 4.537 0 8.737-2.398 11.043-6.305l65.128-110.315v103.797c0 7.082 5.741 12.823 12.823 12.823h.003c7.082 0 12.823-5.741 12.823-12.823v-103.797l65.128 110.315c2.306 3.907 6.506 6.305 11.043 6.305 9.926 0 16.089-10.793 11.043-19.341z" fill="url(#SVGID_2_)"/><g><path d="m242.225 358.209v13.01l-.05.08-65.15 110.32c-1.15 1.94-2.77 3.5-4.66 4.58-1.9 1.09-4.09 1.69-6.36 1.69h-.35l.01-.01z" fill="url(#SVGID_3_)"/><path d="m356.835 475.049c0 6.69-5.34 12.84-12.84 12.84-4.53 0-8.72-2.39-11.02-6.27l-65.15-110.35v103.8c0 7.08-5.74 12.82-12.82 12.82h-.01c-2.13 0-4.14-.52-5.91-1.45v-143.37c0-2.3-.62-4.55-1.79-6.53-2.25-3.81-6.29-6.16-10.7-6.28l7.36-12.46c2.31-3.91 6.51-6.31 11.05-6.31 4.53 0 8.73 2.4 11.04 6.31l88.99 150.75c1.24 2.1 1.8 4.33 1.8 6.5z" fill="url(#SVGID_4_)"/></g></g><g><circle cx="255" cy="324.014" fill="url(#SVGID_5_)" r="46.643"/></g><path d="m260.318 277.674c-6.218-.708-12.205-.147-17.784 1.397l-.042-.004c-19.686 5.467-34.135 23.52-34.135 44.947 0 8.091 2.062 15.699 5.686 22.332l56.577-26.164c2.776-1.284 6.007.709 6.011 3.767v.065c0 21.427-14.453 39.466-34.138 44.934 3.981 1.106 8.172 1.709 12.505 1.709 26.666 0 48.105-22.377 46.565-49.377-1.281-22.497-18.857-41.057-41.245-43.606z" fill="url(#SVGID_6_)"/></g><g><path d="m23.886 279.219 145.683-67.633 38.071 82.209-145.683 67.633z" fill="url(#SVGID_7_)"/><path d="m169.569 211.586-47.257 21.939 8.487 18.327c10.73 23.171.66 50.654-22.501 61.407l-56.501 26.231 10.16 21.939 145.683-67.633z" fill="url(#SVGID_8_)"/><path d="m18.199 275.053-13.88 6.428c-3.732 1.728-5.356 6.154-3.628 9.886l36.998 79.893c1.728 3.732 6.154 5.356 9.886 3.628l13.88-6.428c3.732-1.728 5.356-6.154 3.628-9.886l-36.998-79.893c-1.728-3.732-6.154-5.356-9.886-3.628z" fill="url(#SVGID_9_)"/><path d="m144.381 194.74 262.449-121.37c5.777-2.675 12.63-.161 15.305 5.616l50.125 108.239c2.675 5.777.161 12.63-5.616 15.305l-262.449 121.37c-5.777 2.675-12.63.161-15.305-5.616l-50.125-108.239c-2.676-5.777-.161-12.629 5.616-15.305z" fill="url(#SVGID_10_)"/><path d="m472.26 187.225-50.125-108.239c-2.675-5.777-9.528-8.292-15.305-5.616l-61.664 28.517 17.254 36.891c15.298 32.709 1.028 71.62-31.79 86.683l-152.344 69.924 10.605 22.901c2.675 5.777 9.528 8.292 15.305 5.616l262.449-121.37c5.776-2.677 8.29-9.529 5.615-15.307z" fill="url(#SVGID_11_)"/><path d="m503.502 210.516-47.81 22.141c-5.615 2.6-12.274.156-14.875-5.458l-69.505-150.089c-2.6-5.615-.156-12.274 5.458-14.875l47.81-22.141c5.615-2.6 12.274-.156 14.875 5.458l69.505 150.087c2.6 5.617.156 12.276-5.458 14.877z" fill="url(#SVGID_12_)"/></g><path d="m265.308 469.3h-20.617c-7.083 0-12.825 5.742-12.825 12.825 0 7.083 5.742 12.825 12.825 12.825h20.617c7.083 0 12.825-5.742 12.825-12.825 0-7.083-5.742-12.825-12.825-12.825z" fill="url(#SVGID_13_)"/><g><path d="m354.314 469.3h-20.617c-7.083 0-12.825 5.742-12.825 12.825 0 7.083 5.742 12.825 12.825 12.825h20.617c7.083 0 12.825-5.742 12.825-12.825 0-7.083-5.742-12.825-12.825-12.825z" fill="url(#SVGID_14_)"/><path d="m176.302 469.3h-20.617c-7.083 0-12.825 5.742-12.825 12.825 0 7.083 5.742 12.825 12.825 12.825h20.617c7.083 0 12.825-5.742 12.825-12.825 0-7.083-5.741-12.825-12.825-12.825z" fill="url(#SVGID_15_)"/></g><path d="m508.96 195.641-69.505-150.088c-2.6-5.615-9.26-8.059-14.875-5.458l-10.46 4.844c.11.203.225.402.323.615l69.505 150.088c2.6 5.615.156 12.274-5.458 14.875l-37.351 17.297c2.791 5.169 9.149 7.346 14.552 4.844l47.81-22.141c5.615-2.602 8.059-9.261 5.459-14.876z" fill="url(#SVGID_16_)"/></g><g><path d="m264.586 98.88-100.674 46.56c-16.148 7.468-35.293.435-42.766-15.711l-3.591-7.758c-7.477-16.153-.439-35.309 15.717-42.78l100.644-46.541c2.96-1.38 6.48-.09 7.85 2.88l25.7 55.5c1.37 2.97.08 6.48-2.88 7.85z" fill="url(#SVGID_17_)"/><path d="m267.466 91.03-25.7-55.5c-1.37-2.97-4.89-4.26-7.85-2.88l-38.917 17.997 6.833 14.756c8.868 19.149.528 41.861-18.624 50.722l-.268.124-53.263 24.632c9.267 7.763 22.536 9.969 34.235 4.558l100.674-46.559c2.96-1.37 4.25-4.88 2.88-7.85z" fill="url(#SVGID_18_)"/><path d="m283.489 102.977-24.517 11.354c-2.879 1.333-6.294.08-7.628-2.799l-35.643-76.966c-1.333-2.879-.08-6.294 2.799-7.628l24.517-11.354c2.879-1.333 6.294-.08 7.628 2.799l35.643 76.966c1.333 2.879.08 6.294-2.799 7.628z" fill="url(#SVGID_19_)"/></g></g></svg>