<svg id="Capa_1" enable-background="new 0 0 510.001 510.001" height="512" viewBox="0 0 510.001 510.001" width="512" xmlns="http://www.w3.org/2000/svg" xmlns:xlink="http://www.w3.org/1999/xlink"><linearGradient id="lg1"><stop offset="0" stop-color="#feca9c"/><stop offset=".5213" stop-color="#fd8087"/><stop offset="1" stop-color="#f46700"/></linearGradient><linearGradient id="SVGID_1_" gradientUnits="userSpaceOnUse" x1="-14.422" x2="405.311" xlink:href="#lg1" y1="184.405" y2="184.405"/><linearGradient id="SVGID_2_" gradientUnits="userSpaceOnUse" x1="48.001" x2="164.156" xlink:href="#lg1" y1="329.042" y2="329.042"/><linearGradient id="SVGID_3_" gradientUnits="userSpaceOnUse" x1="-90.999" x2="333.005" xlink:href="#lg1" y1="184.404" y2="184.404"/><linearGradient id="SVGID_4_" gradientUnits="userSpaceOnUse" x1="114.408" x2="534.142" xlink:href="#lg1" y1="325.597" y2="325.597"/><linearGradient id="SVGID_5_" gradientUnits="userSpaceOnUse" x1="118.001" x2="288.163" xlink:href="#lg1" y1="375.269" y2="375.269"/><linearGradient id="SVGID_6_" gradientUnits="userSpaceOnUse" x1="37.831" x2="461.836" xlink:href="#lg1" y1="325.595" y2="325.595"/><linearGradient id="SVGID_7_" gradientUnits="userSpaceOnUse" x1="102.572" x2="411.851" y1="255" y2="255"><stop offset="0" stop-color="#814aa0"/><stop offset="1" stop-color="#192a7d"/></linearGradient><linearGradient id="SVGID_8_" gradientTransform="matrix(.964 -.265 .265 .964 -58.446 76.67)" gradientUnits="userSpaceOnUse" x1="109.289" x2="400.713" y1="255" y2="255"><stop offset="0" stop-color="#eaf6ff"/><stop offset=".5213" stop-color="#d8ecfe"/><stop offset="1" stop-color="#b3dafe"/></linearGradient><linearGradient id="lg2"><stop offset="0" stop-color="#d8ecfe"/><stop offset=".5667" stop-color="#b3dafe"/><stop offset=".9955" stop-color="#8ac9fe"/></linearGradient><linearGradient id="SVGID_9_" gradientUnits="userSpaceOnUse" x1="19.001" x2="304.213" xlink:href="#lg2" y1="363.191" y2="363.191"/><linearGradient id="SVGID_10_" gradientUnits="userSpaceOnUse" x1="19.001" x2="304.213" xlink:href="#lg2" y1="242.732" y2="242.732"/><linearGradient id="lg3"><stop offset="0" stop-color="#60b7ff"/><stop offset=".5857" stop-color="#0182fc"/><stop offset="1" stop-color="#2740b0"/></linearGradient><linearGradient id="SVGID_11_" gradientUnits="userSpaceOnUse" x1="181.334" x2="328.667" xlink:href="#lg3" y1="255" y2="255"/><linearGradient id="SVGID_12_" gradientUnits="userSpaceOnUse" x1="121.334" x2="313.576" xlink:href="#lg3" y1="255" y2="255"/><linearGradient id="SVGID_13_" gradientUnits="userSpaceOnUse" x1="121.334" x2="313.576" xlink:href="#lg3" y1="253.387" y2="253.387"/><linearGradient id="SVGID_14_" gradientUnits="userSpaceOnUse" x1="121.334" x2="313.576" xlink:href="#lg3" y1="222.219" y2="222.219"/><g><g><path d="m369.201 146.91-.11-.15c-7.66-10.77-11.83-23.62-11.97-36.84v-.15c-.27-27.56-17.98-51.91-44.11-60.68l-.1-.03c-12.57-4.22-23.54-12.19-31.42-22.84l-.01-.02c-12.43-16.78-31.87-26.2-52-26.2-6.48 0-13.03.98-19.44 3-6.33 2-12.89 2.99-19.46 2.99-6.56 0-13.12-.99-19.45-2.99-26.32-8.3-55.01 1.02-71.44 23.2l-.01.02c-7.88 10.65-18.85 18.62-31.42 22.84l-.1.03c-26.13 8.77-43.84 33.12-44.11 60.68v.15c-.14 13.22-4.31 26.08-11.97 36.84l-.11.15c-15.96 22.45-15.96 52.54 0 74.98l.11.15c7.66 10.77 11.83 23.63 11.97 36.84v.15c.27 27.56 17.98 51.92 44.11 60.69l.1.03c12.57 4.21 23.54 12.19 31.42 22.84l.01.01c12.43 16.79 31.87 26.21 52 26.21 6.48 0 13.03-.98 19.44-3 6.33-1.99 12.89-2.99 19.45-2.99 6.57 0 13.13 1 19.46 2.99 26.32 8.3 55.01-1.02 71.44-23.21l.01-.01c7.88-10.65 18.85-18.63 31.42-22.84l.1-.03c26.13-8.77 43.84-33.13 44.11-60.69v-.15c.14-13.21 4.31-26.07 11.97-36.84l.11-.15c15.959-22.44 15.959-52.53 0-74.98zm-49.21 64.65-.07.11c-5.55 7.81-8.58 17.12-8.67 26.69l-.01.12c-.2 19.96-13.03 37.61-31.96 43.96l-.07.02c-9.1 3.06-17.05 8.83-22.76 16.55l-.01.01c-11.9 16.08-32.69 22.83-51.76 16.82-4.59-1.45-9.34-2.18-14.1-2.18-4.75 0-9.5.73-14.09 2.18-4.64 1.46-9.39 2.17-14.08 2.17-14.59 0-28.68-6.82-37.68-18.99l-.01-.01c-5.71-7.72-13.66-13.49-22.76-16.55l-.07-.02c-18.93-6.35-31.76-24-31.97-43.96v-.12c-.09-9.57-3.12-18.88-8.67-26.69l-.07-.11c-11.57-16.26-11.57-38.06 0-54.32l.07-.11c5.55-7.8 8.58-17.11 8.67-26.69v-.11c.21-19.97 13.04-37.61 31.97-43.96l.07-.03c9.1-3.05 17.05-8.83 22.76-16.55l.01-.01c11.9-16.07 32.69-22.82 51.76-16.81 4.59 1.45 9.34 2.17 14.09 2.17 4.76 0 9.51-.72 14.1-2.17 4.64-1.46 9.39-2.17 14.08-2.17 14.59 0 28.68 6.82 37.68 18.98l.01.01c5.71 7.72 13.66 13.5 22.76 16.55l.07.03c18.93 6.35 31.76 23.99 31.96 43.96l.01.11c.09 9.58 3.12 18.89 8.67 26.69l.07.11c11.57 16.26 11.57 38.06 0 54.32z" fill="url(#SVGID_1_)"/><path d="m165.07 352.861-.07-.11c-7.391-10.388-10.052-23.035-8-35.056-12.604-1.465-24.388-8.019-32.269-18.676l-.01-.01c-2.76-3.731-6.047-7.002-9.73-9.736-13.116 19.328-14.674 43.992-4.666 64.58 11.64 9.683 26.309 14.956 41.366 14.956 6.48 0 13.03-.98 19.44-3 .122-.039.246-.071.369-.108-1.464-4.556-3.623-8.89-6.43-12.84z" fill="url(#SVGID_2_)"/><path d="m369.199 146.915-.107-.151c-7.658-10.769-11.835-23.626-11.967-36.84l-.002-.152c-.277-27.56-17.985-51.917-44.115-60.681l-.096-.032c-12.567-4.215-23.537-12.189-31.423-22.842l-.01-.013c-16.425-22.186-45.117-31.506-71.443-23.206-.193.061-.389.112-.583.172 12.516 4.066 23.794 11.942 32.005 23.034l.01.013c7.887 10.654 18.856 18.628 31.423 22.842l.096.032c26.131 8.764 43.839 33.121 44.115 60.681l.002.152c.133 13.214 4.309 26.07 11.967 36.84l.107.151c15.961 22.444 15.961 52.533 0 74.978l-.107.15c-7.658 10.769-11.835 23.626-11.968 36.84l-.002.152c-.277 27.56-17.985 51.917-44.116 60.681l-.096.032c-12.568 4.215-23.537 12.189-31.423 22.843l-.01.013c-8.211 11.092-19.49 18.969-32.005 23.035.194.059.39.111.583.172 26.326 8.3 55.019-1.02 71.442-23.206l.01-.013c7.887-10.654 18.856-18.628 31.423-22.843l.096-.032c26.131-8.763 43.839-33.121 44.116-60.681l.002-.152c.133-13.214 4.309-26.07 11.968-36.84l.107-.15c15.962-22.446 15.962-52.535.001-74.979z" fill="url(#SVGID_3_)"/></g><g><path d="m498.031 288.101-.11-.15c-7.66-10.77-11.83-23.62-11.97-36.84v-.15c-.27-27.56-17.98-51.91-44.11-60.68l-.1-.03c-12.57-4.22-23.54-12.19-31.42-22.84l-.01-.02c-12.43-16.78-31.87-26.2-52-26.2-6.48 0-13.03.98-19.44 3-6.33 2-12.89 2.99-19.46 2.99-6.56 0-13.12-.99-19.45-2.99-26.32-8.3-55.01 1.02-71.44 23.2l-.01.02c-7.88 10.65-18.85 18.62-31.42 22.84l-.1.03c-26.13 8.77-43.84 33.12-44.11 60.68v.15c-.14 13.22-4.31 26.08-11.97 36.84l-.11.15c-15.96 22.45-15.96 52.54 0 74.98l.11.15c7.66 10.77 11.83 23.63 11.97 36.84v.15c.27 27.56 17.98 51.92 44.11 60.69l.1.03c12.57 4.21 23.54 12.19 31.42 22.84l.01.01c12.43 16.79 31.87 26.21 52 26.21 6.48 0 13.03-.98 19.44-3 6.33-1.99 12.89-2.99 19.45-2.99 6.57 0 13.13 1 19.46 2.99 26.32 8.3 55.01-1.02 71.44-23.21l.01-.01c7.88-10.65 18.85-18.63 31.42-22.84l.1-.03c26.13-8.77 43.84-33.13 44.11-60.69v-.15c.14-13.21 4.31-26.07 11.97-36.84l.11-.15c15.96-22.439 15.96-52.53 0-74.98zm-49.21 64.65-.07.11c-5.55 7.81-8.58 17.12-8.67 26.69l-.01.12c-.2 19.96-13.03 37.61-31.96 43.96l-.07.02c-9.1 3.06-17.05 8.83-22.76 16.55l-.01.01c-11.9 16.08-32.69 22.83-51.76 16.82-4.59-1.45-9.34-2.18-14.1-2.18-4.75 0-9.5.73-14.09 2.18-4.64 1.46-9.39 2.17-14.08 2.17-14.59 0-28.68-6.82-37.68-18.99l-.01-.01c-5.71-7.72-13.66-13.49-22.76-16.55l-.07-.02c-18.93-6.35-31.76-24-31.97-43.96v-.12c-.09-9.57-3.12-18.88-8.67-26.69l-.07-.11c-11.57-16.26-11.57-38.06 0-54.32l.07-.11c5.55-7.8 8.58-17.11 8.67-26.69v-.11c.21-19.97 13.04-37.61 31.97-43.96l.07-.03c9.1-3.05 17.05-8.83 22.76-16.55l.01-.01c11.9-16.07 32.69-22.82 51.76-16.81 4.59 1.45 9.34 2.17 14.09 2.17 4.76 0 9.51-.72 14.1-2.17 4.64-1.46 9.39-2.17 14.08-2.17 14.59 0 28.68 6.82 37.68 18.98l.01.01c5.71 7.72 13.66 13.5 22.76 16.55l.07.03c18.93 6.35 31.76 23.99 31.96 43.96l.01.11c.09 9.58 3.12 18.89 8.67 26.69l.07.11c11.57 16.26 11.57 38.06 0 54.32z" fill="url(#SVGID_4_)"/><path d="m198.751 379.671v-.12c-.049-5.272-.996-10.463-2.759-15.369-7.091-.832-14.031-.663-20.598.563-9.863 1.843-20.358 1.303-30.801-1.302-1.45-2.19-2.98-4.347-4.609-6.456l-.148-.191c-3.046-3.942-5.754-8.006-8.131-12.143 1.994 6.471 5.022 12.7 9.096 18.429l.11.15c7.66 10.77 11.83 23.63 11.97 36.84v.15c.015 1.498.09 2.985.207 4.462 7.594 1.065 15.118 1.002 22.306-.341 9.969-1.862 20.796-1.305 31.714 1.543-5.223-7.536-8.256-16.605-8.357-26.215z" fill="url(#SVGID_5_)"/><path d="m498.029 288.106-.107-.151c-7.658-10.769-11.835-23.626-11.967-36.84l-.002-.152c-.277-27.56-17.985-51.917-44.115-60.681l-.096-.032c-12.567-4.215-23.537-12.189-31.423-22.842l-.01-.013c-16.424-22.186-45.116-31.506-71.442-23.206-.193.061-.389.112-.583.172 12.516 4.066 23.794 11.942 32.005 23.034l.01.013c7.887 10.654 18.856 18.628 31.423 22.842l.096.032c26.131 8.764 43.839 33.121 44.115 60.681l.002.152c.133 13.214 4.309 26.07 11.967 36.84l.107.151c15.961 22.444 15.961 52.533 0 74.978l-.107.15c-7.658 10.769-11.835 23.626-11.968 36.84l-.002.152c-.277 27.56-17.985 51.917-44.116 60.681l-.096.032c-12.568 4.215-23.537 12.189-31.423 22.843l-.01.013c-8.211 11.092-19.49 18.969-32.005 23.035.194.059.39.111.583.172 26.326 8.3 55.019-1.02 71.442-23.206l.01-.013c7.887-10.654 18.856-18.628 31.423-22.843l.096-.032c26.131-8.763 43.839-33.121 44.116-60.681l.002-.152c.133-13.214 4.309-26.07 11.968-36.84l.107-.15c15.961-22.445 15.961-52.535 0-74.979z" fill="url(#SVGID_6_)"/></g><path d="m334.607 139.931c-14.03 2.621-29.758.474-45.051-6.149-31.8-13.774-63.554-7.516-79.067 15.581l-.009.014c-7.449 11.091-18.892 18.592-32.78 21.486l-.107.022c-28.876 6.018-45.533 31.427-41.497 63.299l.022.176c1.935 15.282-.869 29.51-8.036 40.771l-.1.157c-14.936 23.469-10.18 58.315 11.852 86.83l.148.191c1.629 2.109 3.159 4.266 4.609 6.456 10.443 2.605 20.938 3.145 30.801 1.302 14.03-2.621 29.758-.474 45.05 6.149 31.8 13.773 63.554 7.516 79.067-15.581l.009-.013c7.449-11.091 18.892-18.592 32.78-21.486l.107-.022c28.876-6.018 45.533-31.427 41.497-63.299l-.022-.176c-1.935-15.282.869-29.51 8.036-40.771l.1-.157c14.936-23.469 10.18-58.315-11.852-86.83l-.148-.191c-1.629-2.109-3.159-4.266-4.609-6.456-10.441-2.605-20.936-3.145-30.8-1.303z" fill="url(#SVGID_7_)"/><path d="m339.07 138.503-8.514 8.553c-12.945 13.005-31.882 17.698-49.578 12.844-16.906-4.638-35.274-4.825-53.394.416-51.383 14.861-81.695 68.735-67.752 120.374.086.318.173.635.262.951 4.948 17.634.105 36.562-12.816 49.542l-8.318 8.356c-5.744 5.746-7.962 14.133-5.809 21.967 4.593 16.718 25.522 22.253 37.78 9.991l8.514-8.553c12.945-13.005 31.882-17.698 49.578-12.844 16.906 4.638 35.274 4.825 53.394-.416 51.383-14.861 81.695-68.735 67.752-120.374-.086-.318-.173-.635-.262-.951-4.948-17.634-.105-36.562 12.816-49.542l8.318-8.356c5.744-5.746 7.962-14.133 5.809-21.967-4.594-16.718-25.523-22.253-37.78-9.991z" fill="url(#SVGID_8_)"/><g><path d="m154.434 362.944-8.514 8.553c-1.096 1.097-2.264 2.045-3.482 2.862 8.46 5.568 20.376 5.258 28.493-2.862l8.513-8.553c6.526-6.556 14.576-10.993 23.221-13.166-17.305-4.263-35.613.489-48.231 13.166z" fill="url(#SVGID_9_)"/><path d="m376.85 148.494c-4.182-15.223-21.907-21.167-34.298-12.853 4.316 2.84 7.735 7.206 9.287 12.853 2.152 7.834-.066 16.221-5.81 21.967l-8.318 8.356c-12.921 12.981-17.764 31.908-12.816 49.542.089.316.176.633.262.951 13.943 51.639-16.369 105.513-67.752 120.374-4.987 1.442-9.993 2.459-14.982 3.099 13.004 1.68 26.566.784 39.993-3.099 51.382-14.861 81.695-68.735 67.751-120.374-.086-.318-.173-.635-.262-.951-4.948-17.634-.105-36.562 12.816-49.542l8.318-8.356c5.745-5.746 7.963-14.133 5.811-21.967z" fill="url(#SVGID_10_)"/></g><g><circle cx="255.001" cy="255" fill="url(#SVGID_11_)" r="73.667"/><g><path d="m255.001 181.333c-4.513 0-8.924.428-13.213 1.205 34.376 6.229 60.454 36.29 60.454 72.462 0 11.78-2.78 22.904-7.698 32.776-2.492-11.221-12.821-19.492-24.952-18.759-11.788.713-21.49 10.182-22.459 21.952-.51 6.183 1.323 11.927 4.707 16.44 5.373 7.166 1.603 17.511-7.139 19.464-.964.215-1.935.412-2.913.589 4.289.777 8.7 1.205 13.213 1.205 40.685 0 73.667-32.982 73.667-73.667-.001-40.685-32.983-73.667-73.667-73.667z" fill="url(#SVGID_12_)"/><circle cx="217.751" cy="253.387" fill="url(#SVGID_13_)" r="15.584"/><circle cx="265.216" cy="222.218" fill="url(#SVGID_14_)" r="15.584"/></g></g></g></svg>