<svg id="Capa_1" enable-background="new 0 0 510 510" height="512" viewBox="0 0 510 510" width="512" xmlns="http://www.w3.org/2000/svg" xmlns:xlink="http://www.w3.org/1999/xlink"><linearGradient id="lg1"><stop offset="0" stop-color="#eaf6ff"/><stop offset=".5213" stop-color="#d8ecfe"/><stop offset="1" stop-color="#b3dafe"/></linearGradient><linearGradient id="SVGID_1_" gradientUnits="userSpaceOnUse" x1="32.848" x2="485.743" xlink:href="#lg1" y1="198.579" y2="198.579"/><linearGradient id="lg2"><stop offset="0" stop-color="#d8ecfe"/><stop offset=".5667" stop-color="#b3dafe"/><stop offset=".9955" stop-color="#8ac9fe"/></linearGradient><linearGradient id="SVGID_2_" gradientUnits="userSpaceOnUse" x1="-24" x2="452.105" xlink:href="#lg2" y1="198.579" y2="198.579"/><linearGradient id="lg3"><stop offset="0" stop-color="#814aa0"/><stop offset="1" stop-color="#192a7d"/></linearGradient><linearGradient id="SVGID_3_" gradientUnits="userSpaceOnUse" x1="196.242" x2="514.526" xlink:href="#lg3" y1="200.231" y2="200.231"/><linearGradient id="lg4"><stop offset="0" stop-color="#60b7ff"/><stop offset=".5857" stop-color="#0182fc"/><stop offset="1" stop-color="#2740b0"/></linearGradient><linearGradient id="SVGID_4_" gradientUnits="userSpaceOnUse" x1="338.286" x2="526.749" xlink:href="#lg4" y1="80.744" y2="80.744"/><linearGradient id="SVGID_5_" gradientUnits="userSpaceOnUse" x1="279.205" x2="496.033" xlink:href="#lg4" y1="80.743" y2="80.743"/><linearGradient id="SVGID_6_" gradientUnits="userSpaceOnUse" x1="430.515" x2="529.747" xlink:href="#lg3" y1="49.907" y2="49.907"/><linearGradient id="SVGID_7_" gradientUnits="userSpaceOnUse" x1="39.176" x2="404.079" xlink:href="#lg1" y1="201.302" y2="201.302"/><linearGradient id="SVGID_8_" gradientUnits="userSpaceOnUse" x1="25.049" x2="301.235" xlink:href="#lg1" y1="201.302" y2="201.302"/><linearGradient id="SVGID_9_" gradientUnits="userSpaceOnUse" x1="33.973" x2="558.013" xlink:href="#lg2" y1="371.625" y2="371.625"/><linearGradient id="SVGID_10_" gradientUnits="userSpaceOnUse" x1="15" x2="367.051" xlink:href="#lg2" y1="371.625" y2="371.625"/><linearGradient id="SVGID_11_" gradientUnits="userSpaceOnUse" x1="24" x2="427.001" xlink:href="#lg3" y1="403.246" y2="403.246"/><linearGradient id="SVGID_12_" gradientUnits="userSpaceOnUse" x1="24" x2="427.001" xlink:href="#lg3" y1="360.74" y2="360.74"/><linearGradient id="lg5"><stop offset="0" stop-color="#feca9c"/><stop offset=".5213" stop-color="#fd8087"/><stop offset="1" stop-color="#f46700"/></linearGradient><linearGradient id="SVGID_14_" gradientUnits="userSpaceOnUse" x1="0" x2="574.001" xlink:href="#lg5" y1="474" y2="474"/><linearGradient id="SVGID_15_" gradientUnits="userSpaceOnUse" x1="100.667" x2="368.734" xlink:href="#lg5" y1="474" y2="474"/><g><path d="m444.582 382.344h-379.164v-177.949c0-104.703 84.879-189.581 189.582-189.581 104.703 0 189.582 84.879 189.582 189.582z" fill="url(#SVGID_1_)"/><path d="m444.582 382.344h-379.164v-177.949c0-104.703 84.879-189.581 189.582-189.581 104.703 0 189.582 84.879 189.582 189.582z" fill="url(#SVGID_2_)"/><path d="m283.759 26.629c-30.582-11.359-64.337-11.372-94.877.1-71.545 26.875-121.464 96.279-121.464 177.666v177.949h339.915v-177.949c0-81.489-51.415-150.964-123.574-177.766z" fill="url(#SVGID_3_)"/><g><path d="m487.765 83.83-124.323 57.627c-16.148 7.468-35.293.435-42.766-15.711l-3.591-7.758c-7.477-16.153-.439-35.309 15.717-42.78l124.293-57.608c2.96-1.38 6.48-.09 7.85 2.88l25.7 55.5c1.37 2.97.08 6.48-2.88 7.85z" fill="url(#SVGID_4_)"/><path d="m490.645 75.98-25.7-55.5c-1.37-2.97-4.89-4.26-7.85-2.88l-38.917 17.997 6.833 14.756c8.868 19.149.528 41.861-18.624 50.722l-.268.124-76.912 35.7c9.267 7.763 22.536 9.969 34.235 4.558l124.323-57.627c2.96-1.37 4.25-4.88 2.88-7.85z" fill="url(#SVGID_5_)"/><path d="m506.668 87.926-24.518 11.354c-2.879 1.333-6.294.08-7.628-2.799l-35.642-76.966c-1.333-2.879-.08-6.294 2.799-7.628l24.517-11.354c2.879-1.333 6.294-.08 7.628 2.799l35.643 76.966c1.333 2.88.08 6.295-2.799 7.628z" fill="url(#SVGID_6_)"/></g><path d="m236.571 22.999c-12.009-3.652-24.8-3.652-36.809 0-77.757 23.647-134.344 95.909-134.344 181.396v177.949h305.497v-177.949c0-85.487-56.586-157.749-134.344-181.396z" fill="url(#SVGID_7_)"/><path d="m236.571 22.999c-12.009-3.652-24.8-3.652-36.809 0-.538.163-1.07.338-1.606.506 76.928 24.149 132.739 95.993 132.739 180.89v177.949h40.02v-177.949c0-85.487-56.586-157.749-134.344-181.396z" fill="url(#SVGID_8_)"/><path d="m476.027 482.478h-442.054v-188.508c0-18.335 14.864-33.199 33.199-33.199h375.656c18.335 0 33.199 14.864 33.199 33.199z" fill="url(#SVGID_9_)"/><path d="m442.828 260.771h-40.02c18.335 0 33.199 14.864 33.199 33.199v188.508h40.02v-188.508c0-18.335-14.863-33.199-33.199-33.199z" fill="url(#SVGID_10_)"/><g><path d="m158.603 324.014h-40.58c-8.672 0-15.702 7.03-15.702 15.701v142.763h71.983v-142.762c0-8.672-7.03-15.702-15.701-15.702z" fill="url(#SVGID_11_)"/><g fill="url(#SVGID_12_)"><path d="m284.452 324.014h-56.991c-5.096 0-9.227 5.052-9.227 11.283v50.886c0 6.231 4.131 11.283 9.227 11.283h56.991c5.096 0 9.227-5.052 9.227-11.283v-50.886c0-6.231-4.131-11.283-9.227-11.283z"/><path d="m398.452 324.014h-56.991c-5.096 0-9.227 5.052-9.227 11.283v50.886c0 6.231 4.131 11.283 9.227 11.283h56.991c5.096 0 9.227-5.052 9.227-11.283v-50.886c0-6.231-4.131-11.283-9.227-11.283z"/></g></g><g><path d="m484.523 510h-459.046c-14.071 0-25.477-11.406-25.477-25.476v-21.047c0-14.071 11.406-25.477 25.477-25.477h459.047c14.07 0 25.477 11.406 25.477 25.477v21.047c-.001 14.07-11.407 25.476-25.478 25.476z" fill="url(#SVGID_14_)"/><path d="m484.523 438h-40.02c14.07 0 25.477 11.406 25.477 25.477v21.047c0 14.07-11.406 25.477-25.477 25.477h40.02c14.07 0 25.477-11.406 25.477-25.477v-21.047c0-14.071-11.406-25.477-25.477-25.477z" fill="url(#SVGID_15_)"/></g></g></svg>