<svg id="Capa_1" enable-background="new 0 0 510 510" height="512" viewBox="0 0 510 510" width="512" xmlns="http://www.w3.org/2000/svg" xmlns:xlink="http://www.w3.org/1999/xlink"><linearGradient id="SVGID_1_" gradientUnits="userSpaceOnUse" x1="11.832" x2="498.169" y1="252.462" y2="252.462"><stop offset="0" stop-color="#814aa0"/><stop offset="1" stop-color="#192a7d"/></linearGradient><linearGradient id="lg1"><stop offset="0" stop-color="#d8ecfe"/><stop offset=".5667" stop-color="#b3dafe"/><stop offset=".9955" stop-color="#8ac9fe"/></linearGradient><linearGradient id="SVGID_2_" gradientUnits="userSpaceOnUse" x1="123.899" x2="423.421" xlink:href="#lg1" y1="399.932" y2="399.932"/><linearGradient id="SVGID_3_" gradientUnits="userSpaceOnUse" x1="-6" x2="315.875" xlink:href="#lg1" y1="399.934" y2="399.934"/><linearGradient id="lg2"><stop offset="0" stop-color="#fd8087"/><stop offset=".5213" stop-color="#fb2b3a"/><stop offset="1" stop-color="#d90d80"/></linearGradient><linearGradient id="SVGID_4_" gradientUnits="userSpaceOnUse" x1="-17.896" x2="258.42" xlink:href="#lg2" y1="112.284" y2="112.284"/><linearGradient id="SVGID_5_" gradientUnits="userSpaceOnUse" x1="75.099" x2="347" xlink:href="#lg2" y1="112.284" y2="112.284"/><linearGradient id="SVGID_6_" gradientUnits="userSpaceOnUse" x1="202.147" x2="487.58" xlink:href="#lg2" y1="112.28" y2="112.28"/><linearGradient id="SVGID_7_" gradientUnits="userSpaceOnUse" x1="213.093" x2="364.704" xlink:href="#lg2" y1="112.284" y2="112.284"/><linearGradient id="SVGID_8_" gradientUnits="userSpaceOnUse" x1="-71.893" x2="462.689" xlink:href="#lg2" y1="107.209" y2="107.209"/><linearGradient id="SVGID_9_" gradientUnits="userSpaceOnUse" x1="63.1" x2="405.822" xlink:href="#lg2" y1="112.279" y2="112.279"/><g><path d="m497.552 198.551c-1.644-3.802-6.06-5.55-9.86-3.909l-187.303 80.967 82.621-68.302c3.192-2.639 3.642-7.366 1.002-10.559-2.64-3.194-7.365-3.642-10.559-1.002l-110.953 91.723v-85.943c0-4.143-3.357-7.5-7.5-7.5-4.142 0-7.5 3.357-7.5 7.5v85.942l-110.953-91.723c-3.193-2.641-7.921-2.19-10.559 1.002-2.64 3.192-2.191 7.92 1.001 10.559l82.621 68.301-187.3-80.965c-3.802-1.641-8.217.107-9.86 3.909s.106 8.217 3.908 9.86l235.667 101.873c.95.41 1.963.615 2.976.615 1.014 0 2.026-.205 2.976-.615l235.667-101.873c3.801-1.643 5.551-6.059 3.908-9.86z" fill="url(#SVGID_1_)"/><path d="m197.869 322.848-82.752 143.333c-11.243 19.475 2.812 43.819 25.3 43.819h229.167c22.488 0 36.543-24.344 25.299-43.819l-82.752-143.333c-25.392-43.98-88.87-43.98-114.262 0z" fill="url(#SVGID_2_)"/><path d="m394.883 466.181-82.752-143.333c-16.558-28.68-49.313-38.651-77.141-29.925 14.844 4.655 28.288 14.626 37.121 29.925l26.357 45.652h-102.469c-4.142 0-7.5 3.358-7.5 7.5v73.543h-36.266c-4.107 0-7.688 3.165-7.811 7.27-.127 4.247 3.278 7.73 7.497 7.73h116.581v45.457h15v-45.457h51.389c15.603 0 27.277 15.016 22.665 29.922-2.636 8.519-10.206 15.535-27.99 15.535h40.02c22.487 0 36.542-24.344 25.299-43.819zm-191.384-16.638v-24.797h31.177c4.107 0 7.688-3.165 7.811-7.27.127-4.247-3.278-7.73-7.497-7.73h-31.491v-26.246h73.055c18.919 0 36.4 10.093 45.859 26.477l22.843 39.566z" fill="url(#SVGID_3_)"/><g><path d="m497.815 190.163c-28.269-109.375-133.315-190.163-242.815-190.163-118.209 0-217.547 80.788-245.815 190.163-4.016 15.539 11.369 28.747 26.273 22.795 8.382-3.347 17.528-5.189 27.106-5.189 13.053 0 25.306 3.418 35.915 9.409 8.727 4.927 18.479 7.391 28.23 7.391 9.752 0 19.504-4.464 28.23-9.391 10.609-5.99 22.862-9.409 35.915-9.409s25.306 3.418 35.915 9.408c17.454 9.855 39.007 9.855 56.461 0 10.609-5.99 22.862-9.408 35.915-9.408s25.306 3.418 35.915 9.409c17.454 9.855 39.007 9.855 56.461 0 10.609-5.99 22.862-9.409 35.915-9.409 9.578 0 18.724 1.841 27.106 5.189 14.904 5.952 27.289-5.256 23.273-20.795z" fill="url(#SVGID_4_)"/><path d="m127.292 224.55c9.557-.096 19.095-2.543 27.648-7.373 10.609-5.99 22.862-9.409 35.915-9.409s25.306 3.418 35.915 9.408c8.727 4.927 18.479 7.391 28.231 7.391v-224.567c-65.983 0-120.345 98.155-127.709 224.55z" fill="url(#SVGID_5_)"/><path d="m474.545 212.956c-8.386-3.35-17.53-5.185-27.111-5.185-13.049 0-25.308 3.414-35.913 9.41-8.898 5.025-18.864 7.479-28.808 7.373-7.372-126.402-61.733-224.55-127.713-224.55 118.207 0 217.55 80.789 245.814 190.162 4.022 15.534-11.364 28.743-26.269 22.79z" fill="url(#SVGID_6_)"/><path d="m255 0v224.569c9.752 0 19.504-2.464 28.231-7.391 10.609-5.99 22.862-9.408 35.915-9.408s25.306 3.418 35.915 9.409c8.553 4.829 18.091 7.277 27.648 7.373-7.366-126.397-61.728-224.552-127.709-224.552z" fill="url(#SVGID_7_)"/><path d="m500.813 190.166c-28.263-109.373-127.606-190.162-245.813-190.162 15.393 0 30.153 5.346 43.833 15.143 78.049 28.296 138.284 93.763 159.282 175.019 1.792 6.921-.274 13.374-4.427 17.883 7.311.618 14.317 2.294 20.858 4.907 14.904 5.953 30.29-7.256 26.267-22.79z" fill="url(#SVGID_8_)"/><path d="m255.354.008c43.297 32.497 75.904 112.608 83.708 210.515 5.637 1.592 11.001 3.834 15.997 6.655 8.553 4.829 18.091 7.277 27.648 7.373-7.35-126.169-61.532-224.191-127.353-224.543z" fill="url(#SVGID_9_)"/></g></g></svg>