<svg id="Capa_1" enable-background="new 0 0 510 510" height="512" viewBox="0 0 510 510" width="512" xmlns="http://www.w3.org/2000/svg" xmlns:xlink="http://www.w3.org/1999/xlink"><linearGradient id="lg1"><stop offset="0" stop-color="#eaf6ff"/><stop offset=".5213" stop-color="#d8ecfe"/><stop offset="1" stop-color="#b3dafe"/></linearGradient><linearGradient id="SVGID_1_" gradientUnits="userSpaceOnUse" x1="18.527" x2="663.537" xlink:href="#lg1" y1="321.582" y2="321.582"/><linearGradient id="SVGID_2_" gradientUnits="userSpaceOnUse" x1="-24.825" x2="273.022" xlink:href="#lg1" y1="223.359" y2="223.359"/><linearGradient id="SVGID_3_" gradientUnits="userSpaceOnUse" x1="-160.5" x2="323.504" xlink:href="#lg1" y1="351.828" y2="351.828"/><linearGradient id="SVGID_4_" gradientUnits="userSpaceOnUse" x1="-167.5" x2="316.504" xlink:href="#lg1" y1="321.582" y2="321.582"/><linearGradient id="SVGID_5_" gradientUnits="userSpaceOnUse" x1="187.747" x2="330.761" xlink:href="#lg1" y1="129.214" y2="129.214"/><linearGradient id="SVGID_6_" gradientUnits="userSpaceOnUse" x1="97.08" x2="301.786" xlink:href="#lg1" y1="128.603" y2="128.603"/><linearGradient id="lg2"><stop offset="0" stop-color="#60b7ff"/><stop offset=".5857" stop-color="#0182fc"/><stop offset="1" stop-color="#2740b0"/></linearGradient><linearGradient id="SVGID_7_" gradientUnits="userSpaceOnUse" x1="178.246" x2="372.674" xlink:href="#lg2" y1="220.132" y2="220.132"/><linearGradient id="SVGID_8_" gradientUnits="userSpaceOnUse" x1="120" x2="358.076" xlink:href="#lg2" y1="220.132" y2="220.132"/><linearGradient id="lg3"><stop offset="0" stop-color="#814aa0"/><stop offset="1" stop-color="#192a7d"/></linearGradient><linearGradient id="SVGID_9_" gradientUnits="userSpaceOnUse" x1="116.655" x2="521.285" xlink:href="#lg3" y1="413.601" y2="413.601"/><linearGradient id="SVGID_10_" gradientUnits="userSpaceOnUse" x1="7.865" x2="414.489" xlink:href="#lg3" y1="413.601" y2="413.601"/><linearGradient id="SVGID_11_" gradientUnits="userSpaceOnUse" x1="7.865" x2="414.489" xlink:href="#lg3" y1="406.722" y2="406.722"/><linearGradient id="SVGID_12_" gradientUnits="userSpaceOnUse" x1="7.865" x2="414.489" xlink:href="#lg3" y1="365.782" y2="365.782"/><linearGradient id="lg4"><stop offset="0" stop-color="#fef056"/><stop offset=".5213" stop-color="#f4d902"/><stop offset="1" stop-color="#fe9738"/></linearGradient><linearGradient id="SVGID_13_" gradientUnits="userSpaceOnUse" x1="-25.153" x2="154.074" xlink:href="#lg4" y1="69.667" y2="69.667"/><linearGradient id="SVGID_14_" gradientUnits="userSpaceOnUse" x1="-39.5" x2="116.789" xlink:href="#lg4" y1="69.667" y2="69.667"/><linearGradient id="SVGID_15_" gradientUnits="userSpaceOnUse" x1="414.258" x2="510.487" xlink:href="#lg4" y1="469.361" y2="469.361"/><linearGradient id="SVGID_16_" gradientUnits="userSpaceOnUse" x1="347.977" x2="519.011" xlink:href="#lg4" y1="469.361" y2="469.361"/><linearGradient id="SVGID_17_" gradientUnits="userSpaceOnUse" x1="333.189" x2="429.418" xlink:href="#lg4" y1="117.047" y2="117.047"/><linearGradient id="SVGID_18_" gradientUnits="userSpaceOnUse" x1="266.908" x2="437.942" xlink:href="#lg4" y1="117.047" y2="117.047"/><linearGradient id="SVGID_19_" gradientUnits="userSpaceOnUse" x1="101.527" x2="197.756" xlink:href="#lg4" y1="334.37" y2="334.37"/><linearGradient id="SVGID_20_" gradientUnits="userSpaceOnUse" x1="35.247" x2="206.28" xlink:href="#lg4" y1="334.37" y2="334.37"/><g><g><path d="m121.745 404.798-20.735-35.913c-4.005-6.937-4.005-15.484 0-22.42l47.207-81.764c4.005-6.937 11.407-11.21 19.417-11.21h174.733c8.01 0 15.412 4.273 19.417 11.21l47.207 81.764c4.005 6.937 4.005 15.484 0 22.42l-20.735 35.913c-11.642 20.164 2.91 45.369 26.194 45.369 10.806 0 20.791-5.765 26.194-15.123l36.44-63.116c5.092-8.82 5.092-19.687 0-28.507l-78.618-136.17c-5.092-8.82-14.503-14.253-24.687-14.253h-237.557c-10.184 0-19.595 5.433-24.687 14.253l-78.618 136.17c-5.092 8.82-5.092 19.687 0 28.507l36.44 63.116c5.403 9.358 15.388 15.123 26.194 15.123 23.284 0 37.836-25.205 26.194-45.369z" fill="url(#SVGID_1_)"/><path d="m156.735 220.131c0 12.047 2.782 23.442 7.729 33.588 1.042-.149 2.1-.231 3.17-.231h127.999c4.875-10.087 7.611-21.403 7.611-33.358 0-9.555-1.76-18.696-4.951-27.134h-136.607c-3.191 8.439-4.951 17.58-4.951 27.135z" fill="url(#SVGID_2_)"/><g><path d="m108.197 264.699-47.207 81.765c-4.005 6.937-4.005 15.484 0 22.42l20.735 35.913c7.684 13.31 3.952 28.811-6.167 37.815 5.444 4.795 12.521 7.554 19.993 7.554 23.283 0 37.835-25.205 26.194-45.369l-20.735-35.913c-4.005-6.937-4.005-15.484 0-22.42l47.207-81.764c4.005-6.937 11.407-11.21 19.417-11.21h-40.02c-8.01-.001-15.412 4.272-19.417 11.209z" fill="url(#SVGID_3_)"/><path d="m477.083 343.421-78.618-136.17c-5.092-8.82-14.503-14.253-24.688-14.253h-40.02c10.184 0 19.595 5.433 24.688 14.253l78.618 136.17c5.092 8.82 5.092 19.687 0 28.507l-36.44 63.116c-1.667 2.887-3.772 5.429-6.201 7.569 5.211 4.637 12.112 7.554 20.027 7.554 10.806 0 20.791-5.765 26.194-15.123l36.44-63.116c5.092-8.821 5.092-19.687 0-28.507z" fill="url(#SVGID_4_)"/></g></g><g><path d="m302.613 48.224v189.759c0 10.954-8.88 19.834-19.834 19.834h-55.558c-10.954 0-19.834-8.88-19.834-19.834v-189.759c0-26.296 21.317-47.613 47.613-47.613 26.296 0 47.613 21.317 47.613 47.613z" fill="url(#SVGID_5_)"/><path d="m255 0c-7.149 0-13.925 1.586-20.01 4.409 14.196 6.586 24.603 19.955 27.05 35.949h-25.35c-3.813 0-7.212 2.739-7.691 6.522-.58 4.576 2.976 8.478 7.438 8.478h6.854c10.66 0 19.302 8.642 19.302 19.302v47.055h-25.903c-3.813 0-7.212 2.739-7.691 6.522-.58 4.576 2.976 8.478 7.438 8.478h6.854c10.66 0 19.302 8.642 19.302 19.302v47.055h-25.903c-3.813 0-7.212 2.739-7.691 6.522-.58 4.576 2.976 8.478 7.438 8.478h6.854c10.66 0 19.302 8.642 19.302 19.302 0 10.954-8.88 19.834-19.834 19.834h40.02c10.954 0 19.834-8.88 19.834-19.834v-189.761c0-26.296-21.317-47.613-47.613-47.613z" fill="url(#SVGID_6_)"/></g><g><g><circle cx="255" cy="220.132" fill="url(#SVGID_7_)" r="76.754"/></g><path d="m255 143.378c-6.925 0-13.629.932-20.01 2.651 32.684 8.805 56.744 38.637 56.744 74.103s-24.06 65.298-56.744 74.103c6.381 1.719 13.085 2.652 20.01 2.652 42.39 0 76.754-34.364 76.754-76.754s-34.364-76.755-76.754-76.755z" fill="url(#SVGID_8_)"/></g><g><path d="m311.741 326.53c-12.438 12.438-32.604 12.438-45.042 0-5.973-5.973-14.074-9.328-22.521-9.328h-35.393c-16.385 0-32.099 6.509-43.684 18.095l-23.72 23.72c-11.586 11.586-18.095 27.3-18.095 43.684v32.44c0 18.374 14.895 33.268 33.268 33.268 8.823 0 17.285 3.505 23.524 9.744l22.104 22.104c6.239 6.239 14.701 9.744 23.524 9.744h63.046c22.102 0 43.298-8.78 58.926-24.408l16.202-16.202c13.066-13.066 20.407-30.788 20.407-49.266 0-18.59.125-36.419 13.27-49.564 5.862-5.862 9.155-13.812 9.155-22.102 0-17.262-13.994-31.256-31.256-31.256h-41.195c-8.446-.002-16.547 3.354-22.52 9.327z" fill="url(#SVGID_9_)"/><g><path d="m375.457 317.201h-41.195c-.004 0-.007 0-.011 0 17.257.006 31.246 13.997 31.246 31.256 0 8.29-3.293 16.24-9.155 22.101-6.249 6.249-11.178 13.565-14.649 21.51-7.897-6.193-18.075-9.611-29.073-8.747-20.399 1.602-36.815 18.164-38.244 38.576-1.178 16.825 7.63 31.711 21.093 39.33 8.664 4.903 10.719 16.464 4.125 23.922-.26.294-.529.581-.809.857-15.588 15.37-36.604 23.994-58.509 23.994h48.477c22.102 0 43.298-8.78 58.926-24.408l16.82-16.82c12.912-12.912 19.76-30.498 19.789-48.758.029-18.551.151-36.335 13.27-49.454 5.862-5.862 9.155-13.812 9.155-22.101.001-17.264-13.993-31.258-31.256-31.258z" fill="url(#SVGID_10_)"/><path d="m196.212 365.782c-11.317 0-20.491 9.174-20.491 20.491 0 1.225.127 2.419.333 3.585-.981-.1-1.977-.152-2.985-.152-16.004 0-28.978 12.974-28.978 28.978s12.974 28.978 28.978 28.978 28.978-12.974 28.978-28.978c0-4.355-.967-8.482-2.688-12.187 9.818-1.518 17.342-9.981 17.342-20.224.002-11.317-9.172-20.491-20.489-20.491z" fill="url(#SVGID_11_)"/><path d="m285.611 380.233c7.981 0 14.451-6.47 14.451-14.451s-6.47-14.451-14.451-14.451-14.451 6.47-14.451 14.451 6.47 14.451 14.451 14.451z" fill="url(#SVGID_12_)"/></g></g><g><path d="m59.228 133.481c-13.014-22.048-31.426-40.522-53.425-53.609-7.738-4.603-7.738-15.806 0-20.409 21.999-13.087 40.411-31.562 53.425-53.609 4.604-7.8 15.867-7.8 20.472 0 13.014 22.048 31.426 40.522 53.425 53.609 7.738 4.603 7.738 15.806 0 20.409-21.999 13.087-40.411 31.561-53.425 53.609-4.604 7.799-15.868 7.799-20.472 0z" fill="url(#SVGID_13_)"/><path d="m133.124 59.462c-21.991-13.082-40.398-31.549-53.412-53.587-4.617-7.819-15.868-7.841-20.484-.021-.051.087-.103.174-.155.261-1.3 2.19-1.193 4.934.223 7.05 12.606 18.828 29.297 34.685 48.816 46.297 7.757 4.614 7.757 15.795 0 20.41-19.52 11.612-36.21 27.469-48.816 46.297-1.417 2.116-1.523 4.861-.223 7.051.052.087.103.174.154.26 4.616 7.82 15.868 7.796 20.485-.023 13.013-22.037 31.42-40.503 53.411-53.585 7.711-4.587 7.711-15.823.001-20.41z" fill="url(#SVGID_14_)"/></g><g><path d="m463.483 506.587c-7.592-12.862-18.333-23.639-31.166-31.274-4.514-2.685-4.514-9.221 0-11.906 12.833-7.634 23.574-18.412 31.166-31.274 2.686-4.55 9.257-4.55 11.942 0 7.592 12.862 18.333 23.639 31.166 31.274 4.514 2.685 4.514 9.221 0 11.906-12.833 7.635-23.574 18.412-31.166 31.274-2.686 4.551-9.256 4.551-11.942 0z" fill="url(#SVGID_15_)"/><path d="m506.592 463.407c-12.833-7.634-23.574-18.412-31.166-31.273-2.68-4.541-9.289-4.488-11.973.051-.043.072-.085.144-.128.216-3.696 6.21-2.666 14.182 2.581 19.15 4.757 4.504 10.011 8.487 15.675 11.856 4.534 2.697 4.534 9.209 0 11.907-5.664 3.369-10.919 7.352-15.675 11.856-5.247 4.968-6.276 12.94-2.581 19.15.043.072.086.144.128.216 2.683 4.539 9.292 4.592 11.973.051 7.592-12.862 18.333-23.639 31.166-31.274 4.544-2.703 4.544-9.202 0-11.906z" fill="url(#SVGID_16_)"/></g><g><path d="m382.414 154.274c-7.592-12.862-18.333-23.639-31.166-31.274-4.514-2.685-4.514-9.221 0-11.906 12.833-7.634 23.574-18.412 31.166-31.274 2.686-4.55 9.257-4.55 11.942 0 7.592 12.862 18.333 23.639 31.166 31.274 4.514 2.685 4.514 9.221 0 11.906-12.833 7.635-23.574 18.412-31.166 31.274-2.685 4.55-9.256 4.55-11.942 0z" fill="url(#SVGID_17_)"/><path d="m425.523 111.094c-12.833-7.634-23.574-18.412-31.166-31.273-2.68-4.541-9.289-4.488-11.973.051-.043.072-.085.144-.128.216-3.696 6.21-2.666 14.182 2.581 19.15 4.757 4.504 10.011 8.487 15.675 11.856 4.534 2.697 4.534 9.209 0 11.907-5.664 3.369-10.919 7.352-15.675 11.856-5.247 4.968-6.276 12.94-2.581 19.15.043.072.086.144.128.216 2.683 4.539 9.292 4.592 11.973.051 7.592-12.862 18.333-23.639 31.166-31.274 4.544-2.704 4.544-9.203 0-11.906z" fill="url(#SVGID_18_)"/></g><g><path d="m150.752 371.597c-7.592-12.862-18.333-23.639-31.166-31.274-4.514-2.685-4.514-9.221 0-11.906 12.833-7.634 23.574-18.412 31.166-31.274 2.686-4.55 9.257-4.55 11.942 0 7.592 12.862 18.333 23.639 31.166 31.274 4.514 2.685 4.514 9.221 0 11.906-12.833 7.635-23.574 18.412-31.166 31.274-2.685 4.55-9.256 4.55-11.942 0z" fill="url(#SVGID_19_)"/><path d="m193.861 328.417c-12.833-7.634-23.574-18.412-31.166-31.273-2.68-4.541-9.289-4.488-11.973.051-.043.072-.085.144-.128.216-3.696 6.21-2.666 14.182 2.581 19.15 4.757 4.504 10.011 8.487 15.675 11.856 4.534 2.697 4.534 9.209 0 11.907-5.664 3.369-10.919 7.352-15.675 11.856-5.247 4.968-6.276 12.94-2.581 19.15.043.072.086.144.128.216 2.683 4.539 9.292 4.592 11.973.051 7.592-12.862 18.333-23.639 31.166-31.274 4.544-2.703 4.544-9.203 0-11.906z" fill="url(#SVGID_20_)"/></g></g></svg>