<svg id="Capa_1" enable-background="new 0 0 510 510" height="512" viewBox="0 0 510 510" width="512" xmlns="http://www.w3.org/2000/svg" xmlns:xlink="http://www.w3.org/1999/xlink"><linearGradient id="lg1"><stop offset="0" stop-color="#60b7ff"/><stop offset=".5857" stop-color="#0182fc"/><stop offset="1" stop-color="#2740b0"/></linearGradient><linearGradient id="SVGID_1_" gradientUnits="userSpaceOnUse" x1="2" x2="278.181" xlink:href="#lg1" y1="367.723" y2="367.723"/><linearGradient id="SVGID_2_" gradientUnits="userSpaceOnUse" x1="198" x2="567.391" xlink:href="#lg1" y1="367.723" y2="367.723"/><linearGradient id="lg2"><stop offset="0" stop-color="#814aa0"/><stop offset="1" stop-color="#192a7d"/></linearGradient><linearGradient id="SVGID_3_" gradientUnits="userSpaceOnUse" x1="0" x2="262.524" xlink:href="#lg2" y1="456.791" y2="456.791"/><linearGradient id="SVGID_4_" gradientUnits="userSpaceOnUse" x1="-61.409" x2="184.681" xlink:href="#lg2" y1="456.791" y2="456.791"/><linearGradient id="SVGID_5_" gradientUnits="userSpaceOnUse" x1="307.373" x2="569.897" xlink:href="#lg2" y1="456.791" y2="456.791"/><linearGradient id="SVGID_6_" gradientUnits="userSpaceOnUse" x1="245.964" x2="492.054" xlink:href="#lg2" y1="456.791" y2="456.791"/><linearGradient id="lg3"><stop offset="0" stop-color="#eaf6ff"/><stop offset=".5213" stop-color="#d8ecfe"/><stop offset="1" stop-color="#b3dafe"/></linearGradient><linearGradient id="SVGID_7_" gradientUnits="userSpaceOnUse" x1="90.429" x2="186.947" xlink:href="#lg3" y1="155" y2="155"/><linearGradient id="SVGID_8_" gradientUnits="userSpaceOnUse" x1="32" x2="136.12" xlink:href="#lg3" y1="155" y2="155"/><linearGradient id="SVGID_9_" gradientUnits="userSpaceOnUse" x1="-48.125" x2="500.476" xlink:href="#lg3" y1="292.22" y2="292.22"/><linearGradient id="SVGID_10_" gradientUnits="userSpaceOnUse" x1="-271" x2="325.657" xlink:href="#lg3" y1="292.22" y2="292.22"/><linearGradient id="lg4"><stop offset="0" stop-color="#feca9c"/><stop offset=".5213" stop-color="#fd8087"/><stop offset="1" stop-color="#f46700"/></linearGradient><linearGradient id="SVGID_11_" gradientUnits="userSpaceOnUse" x1="225" x2="564.732" xlink:href="#lg4" y1="190.011" y2="190.011"/><linearGradient id="SVGID_12_" gradientUnits="userSpaceOnUse" x1="230.5" x2="453.581" xlink:href="#lg4" y1="190.011" y2="190.011"/><linearGradient id="lg5"><stop offset="0" stop-color="#d8ecfe"/><stop offset=".5667" stop-color="#b3dafe"/><stop offset=".9955" stop-color="#8ac9fe"/></linearGradient><linearGradient id="SVGID_13_" gradientUnits="userSpaceOnUse" x1="-41.161" x2="543.083" xlink:href="#lg5" y1="236.5" y2="236.5"/><linearGradient id="SVGID_14_" gradientUnits="userSpaceOnUse" x1="48" x2="309.123" xlink:href="#lg5" y1="236.5" y2="236.5"/><linearGradient id="SVGID_15_" gradientUnits="userSpaceOnUse" x1="45.949" x2="280.256" xlink:href="#lg1" y1="52.5" y2="52.5"/><linearGradient id="SVGID_16_" gradientUnits="userSpaceOnUse" x1="62" x2="161.323" xlink:href="#lg1" y1="52.5" y2="52.5"/><linearGradient id="SVGID_17_" gradientUnits="userSpaceOnUse" x1="-5" x2="233.001" xlink:href="#lg1" y1="52.5" y2="52.5"/><linearGradient id="SVGID_18_" gradientUnits="userSpaceOnUse" x1="104" x2="179.133" xlink:href="#lg2" y1="52.5" y2="52.5"/><g><path d="m204.148 370.5h-114.968c-12.976 0-23.531-10.556-23.531-23.531v-12.88c0-6.285 2.447-12.194 6.893-16.639l35.419-35.419-17.678-17.678-35.418 35.418c-9.167 9.166-14.216 21.354-14.216 34.317v12.88c0 26.76 21.771 48.531 48.531 48.531h114.969c7.832 0 14.203 6.371 14.203 14.202v22.188c0 7.831-6.371 14.202-14.203 14.202h-7v25h7c21.616 0 39.203-17.586 39.203-39.202v-22.188c0-21.615-17.587-39.201-39.204-39.201z" fill="url(#SVGID_1_)"/><path d="m455.137 299.772-35.419-35.419-17.678 17.678 35.42 35.42c4.444 4.443 6.892 10.353 6.892 16.638v12.88c0 12.976-10.556 23.531-23.531 23.531h-114.969c-21.616 0-39.203 17.586-39.203 39.202v22.188c0 21.616 17.587 39.202 39.203 39.202h7v-25h-7c-7.832 0-14.203-6.371-14.203-14.202v-22.188c0-7.831 6.371-14.202 14.203-14.202h114.968c26.76 0 48.531-21.771 48.531-48.531v-12.88c.001-12.964-5.048-25.151-14.214-34.317z" fill="url(#SVGID_2_)"/><g><path d="m169.832 510h-137.037c-18.112 0-32.795-14.683-32.795-32.795v-40.828c0-18.112 14.683-32.795 32.795-32.795h137.037c18.112 0 32.795 14.683 32.795 32.795v40.828c0 18.112-14.683 32.795-32.795 32.795z" fill="url(#SVGID_3_)"/><path d="m169.832 403.582h-40.02c.497 0 .992.011 1.484.033 16.988.757 16.126 26.343-.879 26.343h-70.846c-4.107 0-7.688 3.165-7.811 7.27-.127 4.247 3.278 7.73 7.497 7.73h91.516c6.535 0 11.833 5.298 11.833 11.833 0 6.535-5.298 11.833-11.833 11.833h-121.093c-4.107 0-7.688 3.165-7.811 7.27-.127 4.247 3.278 7.73 7.497 7.73h101.05c17.004 0 17.866 25.586.879 26.342-.492.022-.987.033-1.484.033h40.02c18.112 0 32.795-14.683 32.795-32.795v-40.828c.001-18.111-14.682-32.794-32.794-32.794z" fill="url(#SVGID_4_)"/></g><g><path d="m477.205 510h-137.037c-18.112 0-32.795-14.683-32.795-32.795v-40.828c0-18.112 14.683-32.795 32.795-32.795h137.037c18.112 0 32.795 14.683 32.795 32.795v40.828c0 18.112-14.683 32.795-32.795 32.795z" fill="url(#SVGID_5_)"/><path d="m477.205 403.582h-40.02c.497 0 .992.011 1.484.033 16.988.757 16.125 26.343-.879 26.343h-70.846c-4.107 0-7.688 3.165-7.811 7.27-.127 4.247 3.278 7.73 7.497 7.73h91.516c6.535 0 11.833 5.298 11.833 11.833 0 6.535-5.298 11.833-11.833 11.833h-121.092c-4.107 0-7.688 3.165-7.811 7.27-.127 4.247 3.278 7.73 7.497 7.73h101.05c17.004 0 17.866 25.586.879 26.342-.492.022-.987.033-1.484.033h40.02c18.112.001 32.795-14.682 32.795-32.794v-40.828c0-18.112-14.683-32.795-32.795-32.795z" fill="url(#SVGID_6_)"/></g><path d="m88.225 87h66.723v136h-66.723z" fill="url(#SVGID_7_)"/><path d="m154.95 87v136h-25.01v-69.043c0-13.226-10.722-23.947-23.947-23.947h-17.773v-43.01z" fill="url(#SVGID_8_)"/><path d="m382.084 361.439h-254.168c-18.586 0-35.013-12.086-40.544-29.831l-33.853-108.608h402.962l-33.853 108.608c-5.53 17.745-21.957 29.831-40.544 29.831z" fill="url(#SVGID_9_)"/><path d="m456.48 223-33.85 108.61c-5.53 17.74-21.96 29.83-40.55 29.83h-40.02c18.59 0 35.02-12.09 40.55-29.83 6.092-19.543-8.509-39.39-28.98-39.39h-278.54l-21.57-69.22z" fill="url(#SVGID_10_)"/><path d="m239.701 150.511h145.041c10.606 0 19.98 6.897 23.136 17.023l19.318 61.977h-229.95l19.318-61.977c3.157-10.126 12.531-17.023 23.137-17.023z" fill="url(#SVGID_11_)"/><path d="m407.879 167.534c-3.156-10.126-12.53-17.023-23.136-17.023h-40.02c10.606 0 19.98 6.897 23.136 17.023l19.318 61.977h40.02z" fill="url(#SVGID_12_)"/><path d="m444.801 266h-379.602c-13.587 0-24.602-11.015-24.602-24.602v-9.796c0-13.587 11.015-24.602 24.602-24.602h379.602c13.587 0 24.602 11.015 24.602 24.602v9.796c0 13.587-11.015 24.602-24.602 24.602z" fill="url(#SVGID_13_)"/><path d="m444.801 207h-40.02c13.587 0 24.602 11.015 24.602 24.602v9.796c0 13.587-11.015 24.602-24.602 24.602h40.02c13.587 0 24.602-11.015 24.602-24.602v-9.796c0-13.587-11.015-24.602-24.602-24.602z" fill="url(#SVGID_14_)"/><path d="m186.322 105h-129.471c-8.977 0-16.254-7.277-16.254-16.254v-72.492c0-8.977 7.277-16.254 16.254-16.254h129.471c8.977 0 16.254 7.277 16.254 16.254v72.492c0 8.977-7.278 16.254-16.254 16.254z" fill="url(#SVGID_15_)"/><circle cx="123.286" cy="52.5" fill="url(#SVGID_16_)" r="31.032"/><path d="m186.322 0h-40.02c8.977 0 16.254 7.277 16.254 16.254v72.492c0 8.977-7.277 16.254-16.254 16.254h40.02c8.977 0 16.254-7.277 16.254-16.254v-72.492c-.001-8.977-7.278-16.254-16.254-16.254z" fill="url(#SVGID_17_)"/><circle cx="143.279" cy="52.5" fill="url(#SVGID_18_)" r="31.032"/></g></svg>