<svg id="Capa_1" enable-background="new 0 0 509.995 509.995" height="512" viewBox="0 0 509.995 509.995" width="512" xmlns="http://www.w3.org/2000/svg" xmlns:xlink="http://www.w3.org/1999/xlink"><linearGradient id="lg1"><stop offset="0" stop-color="#814aa0"/><stop offset="1" stop-color="#192a7d"/></linearGradient><linearGradient id="SVGID_1_" gradientTransform="matrix(1 0 0 -1 185.274 697.274)" gradientUnits="userSpaceOnUse" x1="-170.789" x2="-11.112" xlink:href="#lg1" y1="442.276" y2="442.276"/><linearGradient id="SVGID_2_" gradientTransform="matrix(1 0 0 -1 0 512)" gradientUnits="userSpaceOnUse" x1="-56.051" x2="139.259" xlink:href="#lg1" y1="257.002" y2="257.002"/><linearGradient id="SVGID_3_" gradientTransform="matrix(1 0 0 -1 0 512)" gradientUnits="userSpaceOnUse" x1="-56.051" x2="139.259" xlink:href="#lg1" y1="288.029" y2="288.029"/><linearGradient id="lg2"><stop offset="0" stop-color="#fef056"/><stop offset=".5213" stop-color="#f4d902"/><stop offset="1" stop-color="#fe9738"/></linearGradient><linearGradient id="SVGID_4_" gradientTransform="matrix(1 0 0 -1 0 512)" gradientUnits="userSpaceOnUse" x1="-6.551" x2="108.002" xlink:href="#lg2" y1="257.002" y2="257.002"/><linearGradient id="SVGID_5_" gradientTransform="matrix(1 0 0 -1 185.274 697.274)" gradientUnits="userSpaceOnUse" x1="-233.828" x2="-89.741" xlink:href="#lg2" y1="443.803" y2="443.803"/><linearGradient id="SVGID_6_" gradientTransform="matrix(1 0 0 -1 0 512)" gradientUnits="userSpaceOnUse" x1="-65.051" x2="75.957" xlink:href="#lg2" y1="288.029" y2="288.029"/><linearGradient id="SVGID_7_" gradientTransform="matrix(1 0 0 -1 0 512)" gradientUnits="userSpaceOnUse" x1="-65.051" x2="75.957" xlink:href="#lg2" y1="212.571" y2="212.571"/><linearGradient id="SVGID_8_" gradientTransform="matrix(1 0 0 -1 0 512)" gradientUnits="userSpaceOnUse" x1="-65.051" x2="75.957" xlink:href="#lg2" y1="324.397" y2="324.397"/><linearGradient id="SVGID_9_" gradientTransform="matrix(1 0 0 -1 0 512)" gradientUnits="userSpaceOnUse" x1="185.275" x2="324.721" xlink:href="#lg1" y1="442.277" y2="442.277"/><linearGradient id="SVGID_10_" gradientTransform="matrix(1 0 0 -1 0 512)" gradientUnits="userSpaceOnUse" x1="136.721" x2="280.808" xlink:href="#lg1" y1="442.277" y2="442.277"/><linearGradient id="SVGID_11_" gradientTransform="matrix(1 0 0 -1 0 512)" gradientUnits="userSpaceOnUse" x1="136.721" x2="280.808" xlink:href="#lg1" y1="443.803" y2="443.803"/><linearGradient id="SVGID_12_" gradientTransform="matrix(1 0 0 -1 0 512)" gradientUnits="userSpaceOnUse" x1="136.721" x2="280.808" xlink:href="#lg1" y1="473.303" y2="473.303"/><linearGradient id="SVGID_13_" gradientTransform="matrix(1 0 0 -1 0 512)" gradientUnits="userSpaceOnUse" x1="185.275" x2="324.721" xlink:href="#lg2" y1="71.728" y2="71.728"/><linearGradient id="SVGID_14_" gradientTransform="matrix(1 0 0 -1 0 512)" gradientUnits="userSpaceOnUse" x1="96.664" x2="320.046" xlink:href="#lg2" y1="71.728" y2="71.728"/><linearGradient id="SVGID_15_" gradientTransform="matrix(1 0 0 -1 0 512)" gradientUnits="userSpaceOnUse" x1="96.664" x2="320.046" xlink:href="#lg2" y1="73.255" y2="73.255"/><linearGradient id="SVGID_16_" gradientTransform="matrix(1 0 0 -1 0 512)" gradientUnits="userSpaceOnUse" x1="96.664" x2="320.046" xlink:href="#lg2" y1="102.755" y2="102.755"/><linearGradient id="SVGID_17_" gradientTransform="matrix(1 0 0 -1 0 512)" gradientUnits="userSpaceOnUse" x1="316.284" x2="430.701" xlink:href="#lg1" y1="388.011" y2="388.011"/><linearGradient id="SVGID_18_" gradientTransform="matrix(1 0 0 -1 131.009 566.266)" gradientUnits="userSpaceOnUse" x1="138.007" x2="280.342" xlink:href="#lg1" y1="442.301" y2="442.301"/><linearGradient id="SVGID_19_" gradientTransform="matrix(1 0 0 -1 131.009 566.266)" gradientUnits="userSpaceOnUse" x1="136.721" x2="280.808" xlink:href="#lg1" y1="443.804" y2="443.804"/><linearGradient id="SVGID_20_" gradientTransform="matrix(1 0 0 -1 131.009 566.266)" gradientUnits="userSpaceOnUse" x1="136.721" x2="280.808" xlink:href="#lg1" y1="473.304" y2="473.304"/><linearGradient id="SVGID_21_" gradientTransform="matrix(1 0 0 -1 0 512)" gradientUnits="userSpaceOnUse" x1="336.998" x2="496.093" xlink:href="#lg2" y1="388.012" y2="388.012"/><linearGradient id="SVGID_22_" gradientTransform="matrix(1 0 0 -1 131.009 828.283)" gradientUnits="userSpaceOnUse" x1="185.274" x2="324.72" xlink:href="#lg2" y1="442.277" y2="442.277"/><linearGradient id="SVGID_23_" gradientTransform="matrix(1 0 0 -1 0 512)" gradientUnits="userSpaceOnUse" x1="221.498" x2="479.173" xlink:href="#lg2" y1="125.994" y2="125.994"/><linearGradient id="SVGID_24_" gradientTransform="matrix(1 0 0 -1 0 512)" gradientUnits="userSpaceOnUse" x1="221.498" x2="479.173" xlink:href="#lg2" y1="127.52" y2="127.52"/><linearGradient id="SVGID_25_" gradientTransform="matrix(1 0 0 -1 0 512)" gradientUnits="userSpaceOnUse" x1="221.498" x2="479.173" xlink:href="#lg2" y1="157.02" y2="157.02"/><linearGradient id="SVGID_26_" gradientTransform="matrix(1 0 0 -1 0 512)" gradientUnits="userSpaceOnUse" x1="316.284" x2="398.512" xlink:href="#lg1" y1="125.994" y2="125.994"/><linearGradient id="SVGID_27_" gradientTransform="matrix(1 0 0 -1 0 512)" gradientUnits="userSpaceOnUse" x1="286.498" x2="355.505" xlink:href="#lg1" y1="127.737" y2="127.737"/><linearGradient id="SVGID_28_" gradientTransform="matrix(1 0 0 -1 0 512)" gradientUnits="userSpaceOnUse" x1="54.266" x2="189.998" xlink:href="#lg2" y1="125.994" y2="125.994"/><linearGradient id="SVGID_29_" gradientTransform="matrix(1 0 0 -1 0 512)" gradientUnits="userSpaceOnUse" x1="-28.14" x2="185.738" xlink:href="#lg2" y1="125.938" y2="125.938"/><linearGradient id="SVGID_30_" gradientTransform="matrix(1 0 0 -1 0 512)" gradientUnits="userSpaceOnUse" x1="-34.345" x2="189.038" xlink:href="#lg2" y1="127.52" y2="127.52"/><linearGradient id="SVGID_31_" gradientTransform="matrix(1 0 0 -1 0 512)" gradientUnits="userSpaceOnUse" x1="-34.345" x2="189.038" xlink:href="#lg2" y1="157.02" y2="157.02"/><linearGradient id="SVGID_32_" gradientTransform="matrix(1 0 0 -1 0 512)" gradientUnits="userSpaceOnUse" x1="65.998" x2="204.679" xlink:href="#lg1" y1="125.994" y2="125.994"/><linearGradient id="SVGID_33_" gradientTransform="matrix(1 0 0 -1 0 512)" gradientUnits="userSpaceOnUse" x1="56.266" x2="193.712" xlink:href="#lg1" y1="388.011" y2="388.011"/><linearGradient id="SVGID_34_" gradientTransform="matrix(1 0 0 -1 0 512)" gradientUnits="userSpaceOnUse" x1="5.712" x2="149.799" xlink:href="#lg1" y1="388.011" y2="388.011"/><linearGradient id="SVGID_35_" gradientTransform="matrix(1 0 0 -1 0 512)" gradientUnits="userSpaceOnUse" x1="5.712" x2="149.799" xlink:href="#lg1" y1="389.538" y2="389.538"/><linearGradient id="SVGID_36_" gradientTransform="matrix(1 0 0 -1 0 512)" gradientUnits="userSpaceOnUse" x1="5.712" x2="149.799" xlink:href="#lg1" y1="419.038" y2="419.038"/><linearGradient id="SVGID_37_" gradientTransform="matrix(1 0 0 -1 0 512)" gradientUnits="userSpaceOnUse" x1="54.267" x2="136.495" xlink:href="#lg2" y1="388.011" y2="388.011"/><linearGradient id="SVGID_38_" gradientTransform="matrix(1 0 0 -1 0 512)" gradientUnits="userSpaceOnUse" x1="24.48" x2="93.487" xlink:href="#lg2" y1="389.755" y2="389.755"/><linearGradient id="SVGID_39_" gradientTransform="matrix(1 0 0 -1 185.274 697.274)" gradientUnits="userSpaceOnUse" x1="185.275" x2="324.721" xlink:href="#lg2" y1="442.276" y2="442.276"/><linearGradient id="SVGID_40_" gradientTransform="matrix(1 0 0 -1 0 512)" gradientUnits="userSpaceOnUse" x1="314.498" x2="509.808" xlink:href="#lg2" y1="257.002" y2="257.002"/><linearGradient id="SVGID_41_" gradientTransform="matrix(1 0 0 -1 0 512)" gradientUnits="userSpaceOnUse" x1="314.498" x2="509.808" xlink:href="#lg2" y1="288.029" y2="288.029"/><linearGradient id="SVGID_42_" gradientTransform="matrix(1 0 0 -1 0 512)" gradientUnits="userSpaceOnUse" x1="363.998" x2="478.551" xlink:href="#lg1" y1="257.002" y2="257.002"/><linearGradient id="SVGID_43_" gradientTransform="matrix(1 0 0 -1 185.274 697.274)" gradientUnits="userSpaceOnUse" x1="136.721" x2="280.808" xlink:href="#lg1" y1="443.803" y2="443.803"/><linearGradient id="SVGID_44_" gradientTransform="matrix(1 0 0 -1 0 512)" gradientUnits="userSpaceOnUse" x1="305.498" x2="446.506" xlink:href="#lg1" y1="212.571" y2="212.571"/><linearGradient id="SVGID_45_" gradientTransform="matrix(1 0 0 -1 0 512)" gradientUnits="userSpaceOnUse" x1="305.498" x2="446.506" xlink:href="#lg1" y1="324.397" y2="324.397"/><linearGradient id="SVGID_46_" gradientTransform="matrix(1 0 0 -1 0 512)" gradientUnits="userSpaceOnUse" x1="305.498" x2="446.506" xlink:href="#lg1" y1="288.029" y2="288.029"/><g><g><path d="m139.447 254.998c0 38.507-31.216 69.723-69.723 69.723-31.476 0-67.724-31.216-67.724-69.723s39.998-69.723 67.723-69.723c38.507-.001 69.724 31.216 69.724 69.723z" fill="url(#SVGID_1_)"/><path d="m69.723 185.275c-4.271 0-8.446 3.405-12.506 4.14 4.067.737 8.011-1.174 11.8.235 26.521 9.863 45.418 35.391 45.418 65.348 0 11.15-2.632 21.678-7.286 31.021-2.359-10.62-12.135-18.449-23.616-17.755-11.157.674-20.339 9.637-21.257 20.777-.482 5.852 1.252 11.288 4.455 15.56 5.085 6.783 1.517 16.573-6.756 18.422-.912.204-1.832.39-2.757.558 4.059.735 8.234 1.14 12.506 1.14 38.507 0 69.723-31.216 69.723-69.723s-31.217-69.723-69.724-69.723z" fill="url(#SVGID_2_)"/><circle cx="79.392" cy="223.971" fill="url(#SVGID_3_)" r="14.75"/><path d="m0 254.998c0 38.507 31.216 69.723 69.723 69.723v-139.446c-38.507 0-69.723 31.216-69.723 69.723z" fill="url(#SVGID_4_)"/><circle cx="34.468" cy="253.471" fill="url(#SVGID_5_)" r="14.75"/><path d="m64.642 223.971c0 4.443 1.974 8.418 5.082 11.122v-22.244c-3.109 2.704-5.082 6.679-5.082 11.122z" fill="url(#SVGID_6_)"/><path d="m62.276 289.041c-.482 5.852 1.252 11.288 4.455 15.56 5.085 6.783 1.517 16.573-6.756 18.422-.912.204-1.832.39-2.757.558 4.059.735 8.234 1.14 12.506 1.14v-50.583c-4.163 3.768-6.963 9.024-7.448 14.903z" fill="url(#SVGID_7_)"/><path d="m57.218 186.415c4.322.783 8.5 1.976 12.506 3.516v-4.656c-4.272 0-8.447.404-12.506 1.14z" fill="url(#SVGID_8_)"/></g><g><circle cx="254.998" cy="69.723" fill="url(#SVGID_9_)" r="69.723"/><path d="m254.998 0c-4.271 0-8.446.405-12.506 1.14 32.536 5.896 57.218 34.347 57.218 68.583 0 11.15-2.632 21.678-7.286 31.021-2.359-10.621-12.135-18.449-23.616-17.755-11.157.674-20.339 9.637-21.257 20.777-.482 5.852 1.252 11.288 4.455 15.56 5.085 6.783 1.517 16.574-6.756 18.422-.912.204-1.832.39-2.757.558 4.059.736 8.234 1.14 12.506 1.14 38.507 0 69.723-31.216 69.723-69.723s-31.217-69.723-69.724-69.723z" fill="url(#SVGID_10_)"/><circle cx="219.742" cy="68.197" fill="url(#SVGID_11_)" r="14.75"/><circle cx="264.666" cy="38.697" fill="url(#SVGID_12_)" r="14.75"/></g><g><circle cx="254.998" cy="440.272" fill="url(#SVGID_13_)" r="69.723"/><path d="m254.998 370.549c-4.271 0-8.446.405-12.506 1.14 32.536 5.896 57.218 34.347 57.218 68.583 0 11.15-2.632 21.678-7.286 31.021-2.359-10.62-12.135-18.449-23.616-17.755-11.157.674-20.339 9.637-21.257 20.777-.482 5.852 1.252 11.288 4.455 15.56 5.085 6.783 1.517 16.573-6.756 18.422-.912.204-1.832.39-2.757.558 4.059.735 8.234 1.14 12.506 1.14 38.507 0 69.723-31.216 69.723-69.723s-31.217-69.723-69.724-69.723z" fill="url(#SVGID_14_)"/><circle cx="219.742" cy="438.745" fill="url(#SVGID_15_)" r="14.75"/><circle cx="264.666" cy="409.245" fill="url(#SVGID_16_)" r="14.75"/></g><g><path d="m373.492 192.57c-33.148-6.01-57.208-34.853-57.208-68.581s24.06-62.571 57.209-68.581c33.148 6.011 57.208 34.854 57.208 68.581s-24.06 62.57-57.209 68.581z" fill="url(#SVGID_17_)"/><path d="m386.007 55.266c-4.271 0-8.233-.174-12.506.14 32.536 5.896 57.218 34.347 57.218 68.583 0 11.15-2.632 21.678-7.286 31.021-2.359-10.62-12.135-18.449-23.616-17.755-11.157.674-20.339 9.637-21.257 20.777-.482 5.852 1.252 11.288 4.455 15.56 5.085 6.783 1.517 16.574-6.756 18.422-.912.204-1.832.39-2.757.558 4.719.14 8.234.14 12.506.14 38.507 0 68.723-30.216 68.723-68.723s-30.218-68.723-68.724-68.723z" fill="url(#SVGID_18_)"/><circle cx="350.751" cy="122.462" fill="url(#SVGID_19_)" r="14.75"/><circle cx="395.675" cy="92.962" fill="url(#SVGID_20_)" r="14.75"/><path d="m386.007 54.266c-4.271 0-8.446.405-12.506 1.14 32.536 5.896 57.218 34.347 57.218 68.583 0 11.149-2.631 21.678-7.286 31.021-9.201 18.476-26.367 32.281-47 36.953-.06.014-.115.038-.175.051-.143.032-.288.056-.432.087-.565.122-1.133.235-1.702.344-.209.04-.414.088-.624.126 4.059.735 8.234 1.14 12.506 1.14 38.507 0 69.723-31.216 69.723-69.723s-31.216-69.722-69.722-69.722z" fill="url(#SVGID_21_)"/></g><g><circle cx="386.006" cy="386.006" fill="url(#SVGID_22_)" r="69.723"/><path d="m386.007 316.283c-4.271 0-8.446.405-12.506 1.14 32.536 5.896 57.218 34.347 57.218 68.583 0 11.15-2.632 21.678-7.286 31.021-2.359-10.62-12.135-18.449-23.616-17.755-11.157.674-20.339 9.637-21.257 20.777-.482 5.852 1.252 11.288 4.455 15.56 5.085 6.783 1.517 16.573-6.756 18.422-.912.204-1.832.39-2.757.558 4.059.735 8.234 1.14 12.506 1.14 38.507 0 69.723-31.216 69.723-69.723s-31.218-69.723-69.724-69.723z" fill="url(#SVGID_23_)"/><circle cx="350.751" cy="384.48" fill="url(#SVGID_24_)" r="14.75"/><circle cx="395.675" cy="354.98" fill="url(#SVGID_25_)" r="14.75"/><path d="m341.294 386.006c0-34.236 24.682-62.688 57.218-68.583-4.059-.735-8.234-1.14-12.505-1.14-38.507 0-69.723 31.216-69.723 69.723s31.216 69.723 69.723 69.723c4.271 0 8.446-.405 12.505-1.14-32.536-5.895-57.218-34.347-57.218-68.583z" fill="url(#SVGID_26_)"/><path d="m336.001 384.48c0 4.9 2.399 9.23 6.077 11.912-.507-3.39-.783-6.854-.783-10.385 0-4.752.492-9.387 1.398-13.872-4.027 2.633-6.692 7.175-6.692 12.345z" fill="url(#SVGID_27_)"/></g><g><path d="m189.998 386.006c0 38.507-27.502 69.723-66.009 69.723s-69.723-31.216-69.723-69.723 31.216-69.723 69.723-69.723 66.009 31.216 66.009 69.723z" fill="url(#SVGID_28_)"/><path d="m123.989 318.283c-4.271 0-8.446-1.595-12.506-.86 32.536 5.896 57.218 34.347 57.218 68.583 0 11.15-2.632 21.678-7.286 31.021-2.359-10.62-12.135-18.449-23.616-17.755-11.157.674-20.339 9.637-21.257 20.777-.482 5.852 1.252 11.288 4.455 15.56 5.085 6.783 1.517 16.573-6.756 18.422-.912.204-1.832.39-2.757.558 4.059.735 9.463-.088 13.734-.088 38.507 0 64.996-29.988 64.996-68.495s-27.718-67.723-66.225-67.723z" fill="url(#SVGID_29_)"/><circle cx="88.733" cy="384.48" fill="url(#SVGID_30_)" r="14.75"/><circle cx="133.657" cy="354.98" fill="url(#SVGID_31_)" r="14.75"/><path d="m123.989 316.283c-4.271 0-8.446.405-12.505 1.14 32.536 5.896 57.218 34.347 57.218 68.583s-24.682 62.688-57.218 68.583c4.059.735 8.234 1.14 12.505 1.14 38.507 0 69.723-31.216 69.723-69.723s-31.216-69.723-69.723-69.723z" fill="url(#SVGID_32_)"/></g><g><path d="m193.712 123.989c0 34.237-24.677 62.71-57.214 68.604-4.058.735-8.239.119-12.509.119-38.507 0-67.723-30.216-67.723-68.723s29.216-68.723 67.723-68.723c4.27 0 8.451-.616 12.51.119 32.537 5.894 57.213 34.367 57.213 68.604z" fill="url(#SVGID_33_)"/><path d="m123.989 55.266c-4.271 0-8.446.405-12.506 1.14 32.536 5.896 57.218 33.347 57.218 67.583 0 11.15-2.632 21.678-7.286 31.021-2.359-10.62-12.135-18.449-23.616-17.755-11.157.674-20.339 9.637-21.257 20.777-.482 5.852 1.252 11.288 4.455 15.56 5.085 6.783 1.517 15.574-6.756 17.422-.912.204-1.832.39-2.757.558 4.059.736 8.234 1.14 12.506 1.14 4.27 0 8.451.616 12.51-.119 32.537-5.894 57.213-34.368 57.213-68.604s-24.676-62.71-57.213-68.604c-4.06-.735-8.241-.119-12.511-.119z" fill="url(#SVGID_34_)"/><circle cx="88.733" cy="122.462" fill="url(#SVGID_35_)" r="14.75"/><circle cx="133.657" cy="92.962" fill="url(#SVGID_36_)" r="14.75"/><path d="m79.277 123.989c0-34.236 24.682-62.688 57.218-68.583-4.059-.735-8.234-1.14-12.505-1.14-38.507 0-69.723 31.216-69.723 69.723s31.216 69.723 69.723 69.723c4.271 0 8.446-.405 12.505-1.14-32.536-5.896-57.218-34.348-57.218-68.583z" fill="url(#SVGID_37_)"/><path d="m73.983 122.462c0 4.9 2.399 9.23 6.077 11.912-.507-3.39-.783-6.854-.783-10.385 0-4.752.492-9.387 1.398-13.872-4.027 2.634-6.692 7.175-6.692 12.345z" fill="url(#SVGID_38_)"/></g><g><circle cx="440.272" cy="254.998" fill="url(#SVGID_39_)" r="69.723"/><path d="m440.272 185.275c-4.271 0-8.446.405-12.506 1.14 32.536 5.896 57.218 34.347 57.218 68.583 0 11.15-2.632 21.678-7.286 31.021-2.359-10.62-12.135-18.449-23.616-17.755-11.157.674-20.339 9.637-21.257 20.777-.482 5.852 1.252 11.288 4.455 15.56 5.085 6.783 1.517 16.573-6.756 18.422-.912.204-1.832.39-2.757.558 4.059.735 8.234 1.14 12.506 1.14 38.507 0 69.723-31.216 69.723-69.723s-31.217-69.723-69.724-69.723z" fill="url(#SVGID_40_)"/><circle cx="449.94" cy="223.971" fill="url(#SVGID_41_)" r="14.75"/><path d="m370.549 254.998c0 38.507 31.216 69.723 69.723 69.723v-139.446c-38.507 0-69.723 31.216-69.723 69.723z" fill="url(#SVGID_42_)"/><circle cx="405.017" cy="253.471" fill="url(#SVGID_43_)" r="14.75"/><path d="m432.825 289.041c-.482 5.852 1.252 11.288 4.455 15.56 5.085 6.783 1.517 16.573-6.756 18.422-.912.204-1.832.39-2.757.558 4.059.735 8.234 1.14 12.506 1.14v-50.583c-4.164 3.768-6.963 9.024-7.448 14.903z" fill="url(#SVGID_44_)"/><path d="m427.767 186.415c4.322.783 8.5 1.976 12.506 3.516v-4.656c-4.272 0-8.447.404-12.506 1.14z" fill="url(#SVGID_45_)"/><path d="m435.19 223.971c0 4.443 1.974 8.418 5.082 11.122v-22.244c-3.108 2.704-5.082 6.679-5.082 11.122z" fill="url(#SVGID_46_)"/></g></g></svg>