<svg id="Capa_1" enable-background="new 0 0 510 510" height="512" viewBox="0 0 510 510" width="512" xmlns="http://www.w3.org/2000/svg" xmlns:xlink="http://www.w3.org/1999/xlink"><linearGradient id="lg1"><stop offset="0" stop-color="#eaf6ff"/><stop offset=".5213" stop-color="#d8ecfe"/><stop offset="1" stop-color="#b3dafe"/></linearGradient><linearGradient id="SVGID_1_" gradientUnits="userSpaceOnUse" x1="10.009" x2="526.038" xlink:href="#lg1" y1="461.851" y2="461.851"/><linearGradient id="SVGID_2_" gradientUnits="userSpaceOnUse" x1="-133" x2="323.986" xlink:href="#lg1" y1="458.593" y2="458.593"/><linearGradient id="SVGID_3_" gradientUnits="userSpaceOnUse" x1="29.627" x2="364.678" xlink:href="#lg1" y1="475.185" y2="475.185"/><linearGradient id="lg2"><stop offset="0" stop-color="#60b7ff"/><stop offset=".5857" stop-color="#0182fc"/><stop offset="1" stop-color="#2740b0"/></linearGradient><linearGradient id="SVGID_4_" gradientUnits="userSpaceOnUse" x1="139.444" x2="403.525" xlink:href="#lg2" y1="432.704" y2="432.704"/><linearGradient id="SVGID_5_" gradientUnits="userSpaceOnUse" x1="4.5" x2="333.097" xlink:href="#lg2" y1="432.704" y2="432.704"/><linearGradient id="lg3"><stop offset="0" stop-color="#d8ecfe"/><stop offset=".5667" stop-color="#b3dafe"/><stop offset=".9955" stop-color="#8ac9fe"/></linearGradient><linearGradient id="SVGID_6_" gradientUnits="userSpaceOnUse" x1="0" x2="71.999" xlink:href="#lg3" y1="234.838" y2="234.838"/><linearGradient id="SVGID_7_" gradientUnits="userSpaceOnUse" x1="-66.667" x2="54.93" xlink:href="#lg3" y1="234.838" y2="234.838"/><linearGradient id="SVGID_8_" gradientUnits="userSpaceOnUse" x1="430.582" x2="519.192" xlink:href="#lg3" y1="234.838" y2="234.838"/><linearGradient id="SVGID_9_" gradientUnits="userSpaceOnUse" x1="36.097" x2="473.903" xlink:href="#lg1" y1="218.903" y2="218.903"/><linearGradient id="SVGID_10_" gradientUnits="userSpaceOnUse" x1="-107" x2="301.598" xlink:href="#lg1" y1="245.048" y2="245.048"/><linearGradient id="SVGID_11_" gradientUnits="userSpaceOnUse" x1="1.428" x2="387.397" xlink:href="#lg1" y1="218.903" y2="218.903"/><linearGradient id="lg4"><stop offset="0" stop-color="#814aa0"/><stop offset="1" stop-color="#192a7d"/></linearGradient><linearGradient id="SVGID_12_" gradientUnits="userSpaceOnUse" x1="64.87" x2="478.589" xlink:href="#lg4" y1="245.048" y2="245.048"/><linearGradient id="SVGID_13_" gradientUnits="userSpaceOnUse" x1="-127.39" x2="187.651" xlink:href="#lg4" y1="245.048" y2="245.048"/><g><path d="m483.247 510c28.016 0 37.138-37.644 12.223-50.457-54.017-27.78-141.601-45.84-240.47-45.84s-186.454 18.06-240.47 45.84c-24.915 12.813-15.794 50.457 12.223 50.457z" fill="url(#SVGID_1_)"/><path d="m242.495 422.583c-20.791 0-40.225-1.986-58.328-5.699-24.355 2.228-47.52 5.584-69.104 9.902-1.866 9.631.292 20.399 8.363 28.128 30.298 29.016 69.89 46.836 119.069 46.836h.001c49.179 0 88.771-17.82 119.069-46.836 9.404-9.006 10.781-22.136 7.116-32.787-19.461-3.016-39.97-5.275-61.259-6.693-19.956 4.643-41.586 7.149-64.927 7.149z" fill="url(#SVGID_2_)"/><path d="m495.47 459.543c-13.741-7.067-29.665-13.501-47.384-19.172 2.511 1.528 4.982 3.072 7.364 4.65 24.915 16.5 15.794 64.979-12.223 64.979h40.02c28.017 0 37.138-37.644 12.223-50.457z" fill="url(#SVGID_3_)"/><path d="m255 405.303c-32.916 0-62.08-5.498-87.559-15.298-22.477-8.646-38.381 26.758-19.884 44.473 27.34 26.182 63.066 42.262 107.443 42.262 44.376 0 80.103-16.08 107.442-42.263 18.497-17.715 2.594-53.119-19.884-44.473-25.478 9.801-54.642 15.299-87.558 15.299z" fill="url(#SVGID_4_)"/><path d="m342.559 390.005c-5.967 2.295-12.143 4.344-18.515 6.152 8.124 9.927 9.727 27.452-1.622 38.321-23.102 22.125-52.194 37.034-87.432 41.125 6.463.75 13.132 1.138 20.01 1.138 44.376 0 80.103-16.08 107.442-42.263 18.497-17.715 2.594-53.119-19.883-44.473z" fill="url(#SVGID_5_)"/><path d="m71.999 319.165h-47.332c-13.623 0-24.667-11.044-24.667-24.668v-119.318c0-13.623 11.044-24.667 24.667-24.667h47.332z" fill="url(#SVGID_6_)"/><path d="m35.354 319.165h36.645v-168.654h-47.332c-.919 0-1.826.054-2.719.152-7.04 21.476-10.862 44.409-10.862 68.239 0 36.136 8.762 70.223 24.268 100.263z" fill="url(#SVGID_7_)"/><path d="m438.001 319.165h47.332c13.623 0 24.667-11.044 24.667-24.667v-119.319c0-13.623-11.044-24.667-24.667-24.667h-47.332z" fill="url(#SVGID_8_)"/><g><circle cx="255" cy="218.903" fill="url(#SVGID_9_)" r="218.903"/></g><ellipse cx="230.989" cy="245.048" fill="url(#SVGID_10_)" rx="190.13" ry="163.984"/><path d="m255 0c-6.693 0-13.311.319-19.852.907-.099-.003-.159-.005-.159-.005-2.93.266-5.843.588-8.739.968v102.877c0 3.813 2.739 7.212 6.522 7.691 4.576.58 8.478-2.976 8.478-7.438v-87.483c0-8.616 7.892-15.01 16.345-13.34.091.018.183.036.274.054 6.342 1.261 10.881 6.876 10.881 13.342v87.174c0 3.813 2.739 7.212 6.522 7.691 4.576.58 8.478-2.976 8.478-7.438 0-47.391 58.006-70.7 90.522-36.224 36.958 39.186 59.611 92.007 59.611 150.127 0 114.149-87.377 207.875-198.893 217.983 6.592.598 13.263.92 20.01.92 120.897 0 218.903-98.006 218.903-218.903s-98.006-218.903-218.903-218.903z" fill="url(#SVGID_11_)"/><ellipse cx="255" cy="245.048" fill="url(#SVGID_12_)" rx="190.13" ry="163.984"/><path d="m255 81.064c-6.759 0-13.433.309-20.01.903 95.599 8.625 170.12 78.345 170.12 163.081 0 84.737-74.521 154.457-170.12 163.082 6.577.593 13.251.903 20.01.903 105.006 0 190.13-73.418 190.13-163.984 0-90.567-85.124-163.985-190.13-163.985z" fill="url(#SVGID_13_)"/></g></svg>